<svg width="109" height="108" viewBox="0 0 109 108" fill="none" xmlns="http://www.w3.org/2000/svg">
<path fill-rule="evenodd" clip-rule="evenodd" d="M88.5474 84.0247V70.9519H83.1024V84.0247H88.5474ZM59.7209 78.5965V71.1497H54.4432V76.8423C54.4432 78.4968 54.3765 78.9607 54.2764 79.391C53.9089 80.5828 52.6394 81.1111 51.3371 81.1111C49.5337 81.1111 48.6985 80.4164 48.3643 79.3244C48.2642 78.9613 48.2309 78.564 48.1975 78.1668C48.1641 77.7365 48.1975 77.2726 48.1975 76.7773V71.1502H42.8531V78.6302C42.8531 80.3189 43.4214 81.5762 44.3562 82.4362C45.9593 83.9922 48.6652 84.4555 51.1702 84.4555C54.2097 84.4555 56.548 84.0252 58.2178 82.4037C59.087 81.5756 59.7209 80.4836 59.7209 78.5965ZM33.8009 77.6698C33.5363 77.6243 33.2682 77.6023 32.9996 77.6043H26.9874C26.6866 77.6043 26.3524 77.6373 26.1856 77.6698C26.2857 77.5701 26.4864 77.3723 26.6866 77.1073L29.3918 72.672C29.7594 72.077 29.9262 71.6797 29.993 71.5144C30.0597 71.6797 30.2265 72.077 30.5941 72.7062L33.3666 77.1745C33.5006 77.3723 33.7008 77.5701 33.8009 77.6698ZM43.8885 84.0247L31.8636 66.1535H25.1168L26.8868 68.2384C26.9201 68.2714 26.9874 68.3039 27.0536 68.3381C26.9869 68.3712 26.9201 68.4037 26.8868 68.4367L16.3988 84.0247H22.4777L24.1148 81.3437C24.1815 81.2114 24.2149 81.0786 24.2149 81.0131C24.2816 81.0131 24.449 81.0786 24.6158 81.0786H35.4713C35.6382 81.0786 35.7716 81.0456 35.8383 81.0131C35.8322 81.1062 35.8555 81.1988 35.9051 81.2781L37.6089 84.0247H43.8885ZM81.6333 77.3067C81.6333 75.85 81.0316 74.1618 79.1616 71.8119L74.6519 66.153H68.3722L71.946 70.1243C72.5477 70.7866 73.3156 71.3816 73.3156 71.3816C72.4476 70.8847 71.3455 70.6869 70.4769 70.6869C68.4061 70.6869 66.3008 71.1172 64.4313 72.1436C62.4267 73.2345 61.0905 75.0555 61.0905 77.472C61.0905 79.3249 61.9257 80.7486 62.9945 81.8406C65.4 84.223 69.7746 84.455 71.3783 84.455C73.7493 84.455 77.4572 83.9255 79.5625 82.039C80.7986 80.9134 81.6333 79.3585 81.6333 77.3067ZM76.4224 77.472C76.4224 78.8291 75.5199 79.8544 74.3844 80.4169C73.4491 80.9139 72.3464 81.0461 71.3783 81.0461C70.4102 81.0461 69.2741 80.8472 68.3388 80.3839C67.2033 79.8213 66.3342 78.7293 66.3342 77.5376C66.3342 76.115 67.4363 74.9888 68.7397 74.4263C69.5416 74.0632 70.5103 73.9304 71.2776 73.9304C72.0133 73.9304 73.0821 74.029 73.9173 74.3607C75.4209 74.9888 76.4224 76.1806 76.4224 77.472ZM86.8176 23.5454C82.9067 23.5392 79.1091 24.8465 76.0446 27.254C72.9802 24.8463 69.1826 23.539 65.2716 23.5454C61.361 23.5394 57.5636 24.8467 54.4992 27.254C51.4351 24.8462 47.6376 23.5389 43.7268 23.5454C39.8161 23.5394 36.0188 24.8467 32.9544 27.254C29.89 24.8466 26.0927 23.5393 22.182 23.5454C12.5852 23.5454 4.80811 31.2506 4.80811 40.7599C4.80811 50.2681 12.5846 57.9744 22.182 57.9744C26.0926 57.9803 29.8899 56.673 32.9544 54.2658C36.0188 56.6732 39.8161 57.9805 43.7268 57.9744C47.6376 57.9809 51.435 56.6735 54.4992 54.2658C57.5636 56.6731 61.361 57.9804 65.2716 57.9744C69.1826 57.9808 72.9802 56.6734 76.0446 54.2658C79.1091 56.6734 82.9067 57.9808 86.8176 57.9744C96.4144 57.9744 104.191 50.2687 104.191 40.7599C104.191 31.2512 96.4144 23.5454 86.8176 23.5454ZM30.1117 51.4537C27.8978 53.0539 25.1321 54.0305 22.182 54.0305C14.7787 54.0305 8.78796 48.0953 8.78796 40.7599C8.78796 33.4245 14.7787 27.4888 22.182 27.4888C25.1321 27.4888 27.8962 28.4659 30.1117 30.0667C27.6707 33.1053 26.3453 36.8762 26.3535 40.7599C26.3553 44.6421 27.6795 48.41 30.1117 51.4537ZM32.9549 48.6449C31.2476 46.3646 30.3284 43.5992 30.3339 40.7599C30.3267 37.9203 31.2461 35.1545 32.9549 32.8749C34.6634 35.1547 35.5828 37.9204 35.576 40.7599C35.5813 43.5992 34.6621 46.3645 32.9549 48.6449ZM51.6571 51.4537C49.357 53.1315 46.574 54.0334 43.7178 54.0265C40.8674 54.0323 38.0907 53.1303 35.7971 51.4537C38.2295 48.4104 39.5537 44.6425 39.5552 40.7605C39.5634 36.8768 38.2381 33.1059 35.7971 30.0673C38.0905 28.3901 40.8673 27.4879 43.7178 27.4938C46.6894 27.4938 49.4348 28.4463 51.6571 30.0673C49.2161 33.1059 47.8908 36.8768 47.8989 40.7605C47.9006 44.6425 49.2248 48.4103 51.6571 51.4537ZM54.4992 48.6449C52.7919 46.3646 51.8726 43.5992 51.8782 40.7599C51.8713 37.9204 52.7906 35.1546 54.4992 32.8749C56.2081 35.1545 57.1277 37.9203 57.1208 40.7599C57.1263 43.5993 56.2068 46.3647 54.4992 48.6449ZM73.202 51.4537C70.9796 53.0752 68.2342 54.0265 65.2632 54.0265C62.2921 54.0265 59.5642 53.0735 57.3419 51.4537C59.7745 48.4105 61.0988 44.6426 61.1001 40.7605C61.1083 36.8768 59.7829 33.1059 57.3419 30.0673C59.5642 28.4469 62.2921 27.4938 65.2632 27.4938C68.2342 27.4938 70.9796 28.4463 73.202 30.0673C70.7612 33.106 69.4359 36.8768 69.4438 40.7605C69.4457 44.6424 70.7699 48.4102 73.202 51.4537ZM76.0452 48.6449C74.3378 46.3646 73.4186 43.5992 73.4242 40.7599C73.4168 37.9203 74.3362 35.1544 76.0452 32.8749C77.7537 35.1547 78.673 37.9204 78.6662 40.7599C78.6713 43.5992 77.7522 46.3644 76.0452 48.6449ZM86.8176 54.0305C83.8664 54.0305 81.1012 53.0539 78.8879 51.4537C81.32 48.4102 82.6442 44.6425 82.6461 40.7605C82.6539 36.8768 81.3286 33.106 78.8879 30.0673C81.1034 28.4671 83.8669 27.4893 86.8176 27.4893C94.2198 27.4893 100.212 33.4251 100.212 40.7605C100.212 48.0947 94.2198 54.0305 86.8176 54.0305Z" fill="#0A0A26"/>
</svg>
