<svg width="109" height="108" viewBox="0 0 109 108" fill="none" xmlns="http://www.w3.org/2000/svg">
<path fill-rule="evenodd" clip-rule="evenodd" d="M88.5474 84.0244V70.9516H83.1024V84.0244H88.5474ZM59.7209 78.5963V71.1494H54.4432V76.842C54.4432 78.4966 54.3765 78.9605 54.2764 79.3908C53.9089 80.5825 52.6394 81.1109 51.3371 81.1109C49.5337 81.1109 48.6985 80.4161 48.3643 79.3241C48.2642 78.9611 48.2309 78.5638 48.1975 78.1665C48.1641 77.7362 48.1975 77.2723 48.1975 76.777V71.15H42.8531V78.6299C42.8531 80.3186 43.4214 81.5759 44.3562 82.436C45.9593 83.9919 48.6652 84.4553 51.1702 84.4553C54.2097 84.4553 56.548 84.025 58.2178 82.4035C59.087 81.5754 59.7209 80.4834 59.7209 78.5963ZM33.8009 77.6696C33.5363 77.624 33.2682 77.6021 32.9996 77.604H26.9874C26.6866 77.604 26.3524 77.6371 26.1856 77.6696C26.2857 77.5698 26.4864 77.3721 26.6866 77.107L29.3918 72.6718C29.7594 72.0767 29.9262 71.6795 29.993 71.5142C30.0597 71.6795 30.2265 72.0767 30.5941 72.7059L33.3666 77.1743C33.5006 77.3721 33.7008 77.5698 33.8009 77.6696ZM43.8885 84.0244L31.8636 66.1533H25.1168L26.8868 68.2381C26.9201 68.2712 26.9874 68.3037 27.0536 68.3379C26.9869 68.3709 26.9201 68.4034 26.8868 68.4365L16.3988 84.0244H22.4777L24.1148 81.3434C24.1815 81.2112 24.2149 81.0784 24.2149 81.0128C24.2816 81.0128 24.449 81.0784 24.6158 81.0784H35.4713C35.6382 81.0784 35.7716 81.0453 35.8383 81.0128C35.8322 81.1059 35.8555 81.1986 35.9051 81.2779L37.6089 84.0244H43.8885ZM81.6333 77.3065C81.6333 75.8497 81.0316 74.1616 79.1616 71.8117L74.6519 66.1527H68.3722L71.946 70.1241C72.5477 70.7864 73.3156 71.3814 73.3156 71.3814C72.4476 70.8844 71.3455 70.6866 70.4769 70.6866C68.4061 70.6866 66.3008 71.1169 64.4313 72.1434C62.4267 73.2343 61.0905 75.0552 61.0905 77.4718C61.0905 79.3247 61.9257 80.7484 62.9945 81.8404C65.4 84.2228 69.7746 84.4547 71.3783 84.4547C73.7493 84.4547 77.4572 83.9253 79.5625 82.0387C80.7986 80.9131 81.6333 79.3583 81.6333 77.3065ZM76.4224 77.4718C76.4224 78.8288 75.5199 79.8542 74.3844 80.4167C73.4491 80.9137 72.3464 81.0459 71.3783 81.0459C70.4102 81.0459 69.2741 80.847 68.3388 80.3836C67.2033 79.8211 66.3342 78.7291 66.3342 77.5373C66.3342 76.1147 67.4363 74.9886 68.7397 74.426C69.5416 74.063 70.5103 73.9302 71.2776 73.9302C72.0133 73.9302 73.0821 74.0288 73.9173 74.3605C75.4209 74.9886 76.4224 76.1803 76.4224 77.4718ZM86.8176 23.5452C82.9067 23.5389 79.1091 24.8462 76.0446 27.2538C72.9802 24.8461 69.1826 23.5388 65.2716 23.5452C61.361 23.5392 57.5636 24.8465 54.4992 27.2538C51.4351 24.846 47.6376 23.5386 43.7268 23.5452C39.8161 23.5392 36.0188 24.8465 32.9544 27.2538C29.89 24.8464 26.0927 23.5391 22.182 23.5452C12.5852 23.5452 4.80811 31.2504 4.80811 40.7597C4.80811 50.2678 12.5846 57.9741 22.182 57.9741C26.0926 57.9801 29.8899 56.6728 32.9544 54.2655C36.0188 56.6729 39.8161 57.9802 43.7268 57.9741C47.6376 57.9806 51.435 56.6733 54.4992 54.2655C57.5636 56.6728 61.361 57.9801 65.2716 57.9741C69.1826 57.9805 72.9802 56.6732 76.0446 54.2655C79.1091 56.6732 82.9067 57.9805 86.8176 57.9741C96.4144 57.9741 104.191 50.2684 104.191 40.7597C104.191 31.2509 96.4144 23.5452 86.8176 23.5452ZM30.1117 51.4534C27.8978 53.0536 25.1321 54.0302 22.182 54.0302C14.7787 54.0302 8.78796 48.095 8.78796 40.7597C8.78796 33.4243 14.7787 27.4885 22.182 27.4885C25.1321 27.4885 27.8962 28.4657 30.1117 30.0665C27.6707 33.1051 26.3453 36.876 26.3535 40.7597C26.3553 44.6418 27.6795 48.4098 30.1117 51.4534ZM32.9549 48.6447C31.2476 46.3643 30.3284 43.599 30.3339 40.7597C30.3267 37.9201 31.2461 35.1542 32.9549 32.8746C34.6634 35.1544 35.5828 37.9201 35.576 40.7597C35.5813 43.599 34.6621 46.3642 32.9549 48.6447ZM51.6571 51.4534C49.357 53.1313 46.574 54.0332 43.7178 54.0263C40.8674 54.032 38.0907 53.1301 35.7971 51.4534C38.2295 48.4101 39.5537 44.6423 39.5552 40.7602C39.5634 36.8765 38.2381 33.1056 35.7971 30.067C38.0905 28.3899 40.8673 27.4877 43.7178 27.4936C46.6894 27.4936 49.4348 28.4461 51.6571 30.067C49.2161 33.1056 47.8908 36.8765 47.8989 40.7602C47.9006 44.6423 49.2248 48.4101 51.6571 51.4534ZM54.4992 48.6447C52.7919 46.3643 51.8726 43.599 51.8782 40.7597C51.8713 37.9201 52.7906 35.1544 54.4992 32.8746C56.2081 35.1542 57.1277 37.92 57.1208 40.7597C57.1263 43.5991 56.2068 46.3644 54.4992 48.6447ZM73.202 51.4534C70.9796 53.0749 68.2342 54.0263 65.2632 54.0263C62.2921 54.0263 59.5642 53.0732 57.3419 51.4534C59.7745 48.4102 61.0988 44.6423 61.1001 40.7602C61.1083 36.8765 59.7829 33.1056 57.3419 30.067C59.5642 28.4466 62.2921 27.4936 65.2632 27.4936C68.2342 27.4936 70.9796 28.4461 73.202 30.067C70.7612 33.1058 69.4359 36.8766 69.4438 40.7602C69.4457 44.6422 70.7699 48.4099 73.202 51.4534ZM76.0452 48.6447C74.3378 46.3643 73.4186 43.599 73.4242 40.7597C73.4168 37.92 74.3362 35.1541 76.0452 32.8746C77.7537 35.1544 78.673 37.9201 78.6662 40.7597C78.6713 43.5989 77.7522 46.3641 76.0452 48.6447ZM86.8176 54.0302C83.8664 54.0302 81.1012 53.0536 78.8879 51.4534C81.32 48.41 82.6442 44.6422 82.6461 40.7602C82.6539 36.8766 81.3286 33.1058 78.8879 30.067C81.1034 28.4668 83.8669 27.4891 86.8176 27.4891C94.2198 27.4891 100.212 33.4249 100.212 40.7602C100.212 48.0945 94.2198 54.0302 86.8176 54.0302Z" fill="white"/>
</svg>
