<svg width="317" height="142" viewBox="0 0 317 142" fill="none" xmlns="http://www.w3.org/2000/svg">
<path d="M45.0877 70.502V123.958C45.0877 126.531 46.1134 128.998 47.9391 130.817C49.7648 132.636 52.241 133.658 54.8229 133.658H166.089C168.671 133.658 171.147 132.636 172.973 130.817C174.799 128.998 175.824 126.531 175.824 123.958V117.869" stroke="#19E024" stroke-width="2" stroke-linecap="round" stroke-linejoin="round"/>
<path d="M48.6034 60.0615H40.3141V66.1502H48.6034V60.0615Z" fill="#19E024" stroke="#5CAD2F" stroke-linecap="round" stroke-linejoin="round"/>
<path d="M41.354 30.8711H0.571228V141.237H41.354V30.8711Z" fill="white"/>
<path d="M0.571228 141.237H18.764V45.4859L18.6551 30.8711H0.571228V141.237Z" fill="#C6FF00"/>
<path opacity="0.5" d="M0.571228 141.237H18.764V45.4859L18.6551 30.8711H0.571228V141.237Z" fill="white"/>
<path d="M26.7166 83.2215H23.8446L25.9639 77.5078H19.081L16.1198 85.5109H18.1897L14.5947 95.2212L26.7166 83.2215Z" fill="#263238"/>
<path d="M41.354 30.8711H0.571228V141.237H41.354V30.8711Z" stroke="#5CAD2F" stroke-miterlimit="10"/>
<path d="M20.9626 63.4952C32.2245 63.4952 41.354 49.5913 41.354 32.44C41.354 15.2887 32.2245 1.38477 20.9626 1.38477C9.70077 1.38477 0.571228 15.2887 0.571228 32.44C0.571228 49.5913 9.70077 63.4952 20.9626 63.4952Z" fill="white" stroke="#19E024" stroke-linecap="round" stroke-linejoin="round"/>
<path d="M25.7263 22.6904H16.1891C15.3304 22.6904 14.6343 23.3841 14.6343 24.2397V31.1376C14.6343 31.9932 15.3304 32.6869 16.1891 32.6869H25.7263C26.585 32.6869 27.2811 31.9932 27.2811 31.1376V24.2397C27.2811 23.3841 26.585 22.6904 25.7263 22.6904Z" fill="#19E024" stroke="#5CAD2F" stroke-linecap="round" stroke-linejoin="round"/>
<path d="M27.9347 50.9429C27.9347 49.5767 27.5282 48.2411 26.7664 47.1052C26.0046 45.9692 24.9219 45.0838 23.6552 44.561C22.3885 44.0382 20.9946 43.9014 19.6498 44.1679C18.305 44.4344 17.0698 45.0923 16.1002 46.0584C15.1307 47.0244 14.4705 48.2553 14.203 49.5953C13.9355 50.9353 14.0728 52.3242 14.5975 53.5864C15.1222 54.8486 16.0107 55.9275 17.1508 56.6865C18.2908 57.4455 19.6311 57.8507 21.0022 57.8507C21.9126 57.8507 22.8141 57.672 23.6552 57.3248C24.4963 56.9777 25.2605 56.4689 25.9043 55.8274C26.548 55.186 27.0586 54.4245 27.407 53.5864C27.7554 52.7483 27.9347 51.8501 27.9347 50.9429V50.9429Z" fill="#19E024" stroke="#5CAD2F" stroke-linecap="round" stroke-linejoin="round"/>
<path opacity="0.2" d="M24.4487 50.9424C24.4487 50.2554 24.2442 49.5838 23.8611 49.0125C23.4781 48.4413 22.9337 47.9961 22.2967 47.7332C21.6597 47.4702 20.9587 47.4015 20.2825 47.5355C19.6063 47.6695 18.9851 48.0004 18.4976 48.4862C18.0101 48.972 17.6781 49.5909 17.5435 50.2647C17.409 50.9385 17.4781 51.637 17.7419 52.2717C18.0058 52.9064 18.4526 53.4489 19.0259 53.8306C19.5991 54.2123 20.2731 54.416 20.9626 54.416C21.8864 54.4134 22.7715 54.0466 23.4247 53.3957C24.0779 52.7448 24.446 51.8628 24.4487 50.9424V50.9424Z" fill="white"/>
<path d="M23.1414 11.3907C23.1414 10.9614 23.0137 10.5416 22.7742 10.1846C22.5348 9.82757 22.1946 9.5493 21.7964 9.38498C21.3983 9.22066 20.9602 9.17768 20.5376 9.26145C20.115 9.34521 19.7267 9.55197 19.422 9.85559C19.1173 10.1592 18.9098 10.5461 18.8257 10.9672C18.7417 11.3883 18.7848 11.8248 18.9497 12.2215C19.1146 12.6182 19.3939 12.9573 19.7522 13.1959C20.1105 13.4344 20.5317 13.5617 20.9627 13.5617C21.5397 13.5591 22.0924 13.3296 22.5004 12.923C22.9084 12.5164 23.1388 11.9657 23.1414 11.3907Z" fill="#19E024" stroke="#5CAD2F" stroke-linecap="round" stroke-linejoin="round"/>
<path d="M46.9595 65.5869H43.3447V71.6756H46.9595V65.5869Z" fill="#19E024" stroke="#C6FF00" stroke-linecap="round" stroke-linejoin="round"/>
<path d="M41.354 120.908H0.571228V141.237H41.354V120.908Z" fill="#19E024" stroke="#5CAD2F" stroke-linecap="round" stroke-linejoin="round"/>
<path d="M115.789 57.2486H115.254C114.722 57.2485 114.198 57.1228 113.724 56.8817C113.25 56.6405 112.84 56.2909 112.528 55.8614C112.216 55.432 112.01 54.9349 111.928 54.411C111.846 53.8871 111.89 53.3512 112.055 52.8474C112.729 50.7751 113.868 48.683 115.789 48.3672C119.751 47.7061 130.644 51.0021 130.644 53.3013C130.644 55.6006 130.644 56.5875 129.317 56.5875H121.068L114.462 63.8307L114.323 63.7123C113.982 63.428 113.708 63.0725 113.519 62.6709C113.331 62.2694 113.233 61.8316 113.233 61.3883C113.233 60.9451 113.331 60.5073 113.519 60.1058C113.708 59.7042 113.982 59.3487 114.323 59.0644C114.912 58.547 115.408 57.9329 115.789 57.2486Z" fill="#263238" stroke="#263238" stroke-linecap="round" stroke-linejoin="round"/>
<path d="M190.393 118.432H299.995C299.995 118.432 315.841 107.903 312.533 80.2716C309.225 52.6406 291.409 71.0646 284.803 89.4885H235.949C235.949 89.4885 225.382 68.4297 208.219 71.0646C191.056 73.6994 190.393 118.432 190.393 118.432Z" fill="#263238" stroke="#263238" stroke-linecap="round" stroke-linejoin="round"/>
<path d="M217.32 112.965C217.32 104.843 214.993 97.5409 211.259 92.3798V84.6826H198.048C187.392 84.6826 178.766 97.3435 178.766 112.965C178.766 128.586 187.392 141.198 198.048 141.198H211.259V133.501C214.993 128.369 217.32 121.077 217.32 112.965Z" fill="#263238" stroke="#263238" stroke-linecap="round" stroke-linejoin="round"/>
<path d="M211.259 141.227C221.909 141.227 230.542 128.569 230.542 112.955C230.542 97.3406 221.909 84.6826 211.259 84.6826C200.61 84.6826 191.977 97.3406 191.977 112.955C191.977 128.569 200.61 141.227 211.259 141.227Z" fill="#263238"/>
<path opacity="0.2" d="M211.259 141.227C221.909 141.227 230.542 128.569 230.542 112.955C230.542 97.3406 221.909 84.6826 211.259 84.6826C200.61 84.6826 191.977 97.3406 191.977 112.955C191.977 128.569 200.61 141.227 211.259 141.227Z" fill="white"/>
<path d="M211.259 141.227C221.909 141.227 230.542 128.569 230.542 112.955C230.542 97.3406 221.909 84.6826 211.259 84.6826C200.61 84.6826 191.977 97.3406 191.977 112.955C191.977 128.569 200.61 141.227 211.259 141.227Z" stroke="#263238" stroke-linecap="round" stroke-linejoin="round"/>
<path d="M98.2202 84.6826H85.6923C75.6302 84.6826 67.4697 97.3435 67.4697 112.965C67.4697 128.586 75.6699 141.198 85.6923 141.198H98.1806C108.243 141.198 116.403 128.537 116.403 112.925C116.403 97.3139 108.282 84.6826 98.2202 84.6826Z" fill="#263238" stroke="#263238" stroke-linecap="round" stroke-linejoin="round"/>
<path d="M211.259 135.514C219.754 135.514 226.64 125.414 226.64 112.955C226.64 100.496 219.754 90.3965 211.259 90.3965C202.765 90.3965 195.879 100.496 195.879 112.955C195.879 125.414 202.765 135.514 211.259 135.514Z" fill="white" stroke="#263238" stroke-linecap="round" stroke-linejoin="round"/>
<path d="M307.611 112.965C307.611 104.843 306.125 97.5409 303.749 92.3798V84.6826H292.082C285.308 84.6826 279.812 97.3435 279.812 112.965C279.812 128.586 285.308 141.198 292.082 141.198H303.749V133.501C306.125 128.369 307.611 121.077 307.611 112.965Z" fill="#263238" stroke="#263238" stroke-linecap="round" stroke-linejoin="round"/>
<path d="M303.749 141.227C310.525 141.227 316.019 128.569 316.019 112.955C316.019 97.3406 310.525 84.6826 303.749 84.6826C296.972 84.6826 291.478 97.3406 291.478 112.955C291.478 128.569 296.972 141.227 303.749 141.227Z" fill="#263238"/>
<path opacity="0.2" d="M303.749 141.227C310.525 141.227 316.019 128.569 316.019 112.955C316.019 97.3406 310.525 84.6826 303.749 84.6826C296.972 84.6826 291.478 97.3406 291.478 112.955C291.478 128.569 296.972 141.227 303.749 141.227Z" fill="white"/>
<path d="M303.749 141.227C310.525 141.227 316.019 128.569 316.019 112.955C316.019 97.3406 310.525 84.6826 303.749 84.6826C296.972 84.6826 291.478 97.3406 291.478 112.955C291.478 128.569 296.972 141.227 303.749 141.227Z" stroke="#263238" stroke-linecap="round" stroke-linejoin="round"/>
<path d="M303.749 135.514C309.153 135.514 313.533 125.414 313.533 112.955C313.533 100.496 309.153 90.3965 303.749 90.3965C298.345 90.3965 293.964 100.496 293.964 112.955C293.964 125.414 298.345 135.514 303.749 135.514Z" fill="white" stroke="#263238" stroke-linecap="round" stroke-linejoin="round"/>
<path d="M195.008 119.863C195.008 97.3334 202.871 79.0674 212.557 79.0674C222.243 79.0674 230.106 97.3334 230.106 119.863C230.106 121.106 230.106 122.33 230.027 123.534H292.548C292.508 122.33 292.488 121.106 292.488 119.863C292.488 97.3334 298.213 79.0674 305.274 79.0674C309.988 79.0674 314.108 87.2284 316.316 99.3663V66.0907C316.316 64.5739 315.784 63.105 314.81 61.9388C313.837 60.7725 312.485 59.9826 310.988 59.706L310.691 59.6467C306.353 58.7783 298.559 50.5779 286.428 40.2163C274.296 29.8547 263.461 28.9961 263.461 28.9961H154.027C151.955 29.0042 149.945 29.6985 148.313 30.9697L110.986 59.6764C110.986 59.6764 77.621 66.1499 70.2528 73.4919C62.8846 80.8338 63.7561 123.563 63.7561 123.563H195.087C195.038 122.33 195.008 121.106 195.008 119.863Z" fill="#5CAD2F"/>
<path opacity="0.3" d="M216.677 59.6467L222.47 28.9961H154.027C151.955 29.0042 149.945 29.6985 148.313 30.9697L110.986 59.6764C110.986 59.6764 77.621 66.1499 70.2528 73.4919C62.8846 80.8338 63.7561 123.563 63.7561 123.563H180.935C181.787 100.491 187.095 89.5178 187.095 89.5178H154.74C179.826 62.5085 216.677 59.6467 216.677 59.6467Z" fill="black"/>
<path d="M195.008 119.863C195.008 97.3334 202.871 79.0674 212.557 79.0674C222.243 79.0674 230.106 97.3334 230.106 119.863C230.106 121.106 230.106 122.33 230.027 123.534H292.548C292.508 122.33 292.488 121.106 292.488 119.863C292.488 97.3334 298.213 79.0674 305.274 79.0674C309.988 79.0674 314.108 87.2284 316.316 99.3663V66.0907C316.316 64.5739 315.784 63.105 314.81 61.9388C313.837 60.7725 312.485 59.9826 310.988 59.706L310.691 59.6467C306.353 58.7783 298.559 50.5779 286.428 40.2163C274.296 29.8547 263.461 28.9961 263.461 28.9961H154.027C151.955 29.0042 149.945 29.6985 148.313 30.9697L110.986 59.6764C110.986 59.6764 77.621 66.1499 70.2528 73.4919C62.8846 80.8338 63.7561 123.563 63.7561 123.563H195.087C195.038 122.33 195.008 121.106 195.008 119.863Z" stroke="#263238" stroke-linecap="round" stroke-linejoin="round"/>
<path d="M236.603 28.9961H154.027C151.955 29.0042 149.945 29.6985 148.312 30.9697L110.986 59.6764H216.677L236.603 28.9961Z" fill="#5CAD2F" stroke="#263238" stroke-linecap="round" stroke-linejoin="round"/>
<path d="M193.344 71.1924C187.402 71.2713 176.993 71.666 172.487 73.4621C168.753 74.9228 165.132 76.6544 161.652 78.6429H182.876L193.344 71.1924Z" fill="#263238" stroke="#263238" stroke-linecap="round" stroke-linejoin="round"/>
<path d="M184.183 85.1165V81.2285H161.652L165.733 84.9784C165.668 85.0171 165.608 85.0635 165.554 85.1165H184.183Z" fill="#263238" stroke="#263238" stroke-linecap="round" stroke-linejoin="round"/>
<path d="M186.342 79.5014V85.146C187.219 85.0703 188.066 84.794 188.819 84.3387C189.571 83.8835 190.208 83.2615 190.68 82.5211C192.849 79.0672 197.721 71.1924 197.721 71.1924L186.342 79.5014Z" fill="#263238" stroke="#263238" stroke-linecap="round" stroke-linejoin="round"/>
<path d="M72.3324 84.9491L76.4126 81.1992H66.7963C66.4992 82.413 66.2219 83.7156 65.9842 85.0873H72.5106C72.455 85.0365 72.3954 84.9903 72.3324 84.9491V84.9491Z" fill="#263238" stroke="#263238" stroke-linecap="round" stroke-linejoin="round"/>
<path d="M69.1137 74.9521C68.4497 76.12 67.9182 77.3578 67.5291 78.6428H76.4423C74.0688 77.2803 71.6223 76.0483 69.1137 74.9521V74.9521Z" fill="#263238" stroke="#263238" stroke-linecap="round" stroke-linejoin="round"/>
<path d="M216.677 59.6464H280.792C280.792 59.6464 289.894 56.6267 287.289 45.3967C286.407 41.5876 268.225 32.8838 265.63 32.8838H234.434L216.677 59.6464Z" fill="#263238"/>
<path opacity="0.2" d="M216.677 59.6464H280.792C280.792 59.6464 289.894 56.6267 287.289 45.3967C286.407 41.5876 268.225 32.8838 265.63 32.8838H234.434L216.677 59.6464Z" fill="white" stroke="#263238" stroke-linecap="round" stroke-linejoin="round"/>
<path d="M216.677 59.6464H280.792C280.792 59.6464 289.894 56.6267 287.289 45.3967C286.407 41.5876 268.225 32.8838 265.63 32.8838H234.434L216.677 59.6464Z" stroke="#263238" stroke-linecap="round" stroke-linejoin="round"/>
<path d="M145.767 32.8838L110.966 59.6464H216.677L234.077 32.8838H145.767Z" fill="#263238" stroke="#263238" stroke-linecap="round" stroke-linejoin="round"/>
<path d="M78.0368 79.502V88.5709L84.5335 93.3175H136.953L149.085 88.1367V79.502H78.0368Z" fill="#263238" stroke="#263238" stroke-linecap="round" stroke-linejoin="round"/>
<path opacity="0.3" d="M80.4632 79.502H78.0368V81.9197H80.4632V79.502Z" fill="white"/>
<path opacity="0.3" d="M83.1371 82.1758H80.7108V84.5935H83.1371V82.1758Z" fill="white"/>
<path opacity="0.3" d="M85.821 84.8398H83.3946V87.2575H85.821V84.8398Z" fill="white"/>
<path opacity="0.3" d="M88.4949 87.5146H86.0685V89.9323H88.4949V87.5146Z" fill="white"/>
<path opacity="0.3" d="M148.609 79.502H146.183V81.9197H148.609V79.502Z" fill="white"/>
<path opacity="0.3" d="M145.936 82.1758H143.509V84.5935H145.936V82.1758Z" fill="white"/>
<path opacity="0.3" d="M143.252 84.8398H140.825V87.2575H143.252V84.8398Z" fill="white"/>
<path opacity="0.3" d="M140.578 87.5146H138.151V89.9323H140.578V87.5146Z" fill="white"/>
<path opacity="0.3" d="M92.2187 87.5146H89.7923V89.9323H92.2187V87.5146Z" fill="white"/>
<path opacity="0.3" d="M95.9325 87.5146H93.5061V89.9323H95.9325V87.5146Z" fill="white"/>
<path opacity="0.3" d="M99.6562 87.5146H97.2299V89.9323H99.6562V87.5146Z" fill="white"/>
<path opacity="0.3" d="M103.38 87.5146H100.954V89.9323H103.38V87.5146Z" fill="white"/>
<path opacity="0.3" d="M107.094 87.5146H104.667V89.9323H107.094V87.5146Z" fill="white"/>
<path opacity="0.3" d="M110.818 87.5146H108.391V89.9323H110.818V87.5146Z" fill="white"/>
<path opacity="0.3" d="M114.531 87.5146H112.105V89.9323H114.531V87.5146Z" fill="white"/>
<path opacity="0.3" d="M118.255 87.5146H115.829V89.9323H118.255V87.5146Z" fill="white"/>
<path opacity="0.3" d="M121.979 87.5146H119.552V89.9323H121.979V87.5146Z" fill="white"/>
<path opacity="0.3" d="M125.693 87.5146H123.266V89.9323H125.693V87.5146Z" fill="white"/>
<path opacity="0.3" d="M129.416 87.5146H126.99V89.9323H129.416V87.5146Z" fill="white"/>
<path opacity="0.3" d="M133.13 87.5146H130.704V89.9323H133.13V87.5146Z" fill="white"/>
<path opacity="0.3" d="M136.854 87.5146H134.428V89.9323H136.854V87.5146Z" fill="white"/>
<path d="M174.21 104.537H66.3407L64.8948 93.0205C64.2312 99.3558 63.9044 106.096 63.7955 111.642L64.1718 113.171L66.3407 108.859H75.5906L69.8465 113.566H155.621L152.561 108.819H174.25L180.321 112.273H184.649V90.2969L174.21 104.537Z" fill="#263238" stroke="#263238" stroke-linecap="round" stroke-linejoin="round"/>
<path d="M239.247 57.2486H238.712C238.181 57.247 237.657 57.1201 237.185 56.8783C236.712 56.6365 236.303 56.2867 235.992 55.8574C235.681 55.4282 235.477 54.9317 235.395 54.4086C235.314 53.8854 235.357 53.3505 235.523 52.8474C236.187 50.7751 237.335 48.683 239.247 48.3672C243.208 47.7061 254.102 51.0021 254.102 53.3013C254.102 55.6006 254.102 56.5875 252.785 56.5875H244.535L237.93 63.8307L237.791 63.7123C237.45 63.428 237.175 63.0725 236.987 62.6709C236.799 62.2694 236.701 61.8316 236.701 61.3883C236.701 60.9451 236.799 60.5073 236.987 60.1058C237.175 59.7042 237.45 59.3487 237.791 59.0644C238.377 58.5466 238.869 57.9324 239.247 57.2486V57.2486Z" fill="#AAFF00"/>
<path d="M258.935 59.6464H262.56C262.173 54.3471 260.658 42.6829 254.706 32.8838H251.082C253.171 37.3936 258.123 49.0282 258.935 59.6464Z" fill="#263238" stroke="#263238" stroke-linecap="round" stroke-linejoin="round"/>
<path d="M180.816 40.1475L182.143 43.7592C180.512 45.3079 179.561 47.4362 179.499 49.6802V59.647H171.368L178.182 40.1475H180.816ZM142.856 45.0816C137.28 48.4664 128.862 55.9366 124.772 59.647H151.917L165.961 38.1738L156.72 38.8251C151.844 40.2979 147.183 42.4013 142.856 45.0816V45.0816ZM198.979 42.4468L195.671 41.7856H191.056L189.729 43.1079C189.729 43.1079 193.037 43.4336 193.364 45.4072C193.588 47.3728 193.698 49.3498 193.69 51.3281H196.008C196.008 51.3281 196.008 47.7065 197.652 46.0684C198.585 45.1283 199.578 44.2482 200.623 43.4336L198.979 42.4468Z" fill="white" stroke="#263238" stroke-linecap="round" stroke-linejoin="round"/>
<path d="M237.791 63.7124L237.93 63.8308L244.535 56.5875H252.785C253.874 56.5875 254.063 55.9066 254.092 54.3672H235.394C235.506 55.1651 235.904 55.8958 236.513 56.4252C237.123 56.9546 237.903 57.247 238.712 57.2487H239.247C238.866 57.9333 238.371 58.5475 237.781 59.0644C237.44 59.3495 237.167 59.7056 236.979 60.1075C236.792 60.5095 236.695 60.9475 236.696 61.3907C236.697 61.834 236.796 62.2716 236.985 62.6727C237.174 63.0739 237.449 63.4288 237.791 63.7124V63.7124Z" fill="#263238" stroke="#263238" stroke-linecap="round" stroke-linejoin="round"/>
<path d="M258.163 67.5908H250.735V69.1796H258.163V67.5908Z" fill="#263238"/>
<path d="M291.607 67.5908H284.179V69.1796H291.607V67.5908Z" fill="#263238"/>
<path d="M292.132 61.2646C292.132 61.2646 297.509 64.906 300.629 77.6656C300.629 77.6656 287.358 79.2445 287.358 115.747" stroke="#263238" stroke-linecap="round" stroke-linejoin="round"/>
<path d="M285.744 117.307H230.066C230.066 118.155 230.066 119.004 230.066 119.863C230.066 121.106 230.066 122.33 229.987 123.533H292.508C292.468 122.33 292.449 121.106 292.449 119.863V119.616L285.744 117.307Z" fill="#263238" stroke="#263238" stroke-linecap="round" stroke-linejoin="round"/>
<path d="M195.008 119.863C195.008 119.004 195.008 118.155 195.008 117.307H63.7162C63.7162 121.106 63.7162 123.533 63.7162 123.533H195.087C195.037 122.33 195.008 121.106 195.008 119.863Z" fill="#263238" stroke="#263238" stroke-linecap="round" stroke-linejoin="round"/>
<path d="M313.989 64.4229C313.329 64.4229 312.681 64.594 312.107 64.9194C311.534 65.2448 311.055 65.7132 310.719 66.2787C310.382 66.8441 310.199 67.4871 310.187 68.1444C310.175 68.8018 310.335 69.4509 310.651 70.028L316.316 80.3896V66.0906C316.309 65.5268 316.229 64.9664 316.079 64.4229H313.989Z" fill="#263238" stroke="#263238" stroke-linecap="round" stroke-linejoin="round"/>
<path d="M263.015 65.1436C263.015 65.1436 274.899 82.2452 263.015 111.198" stroke="#263238" stroke-linecap="round" stroke-linejoin="round"/>
</svg>
