<svg width="117" height="117" viewBox="0 0 117 117" fill="none" xmlns="http://www.w3.org/2000/svg">
<circle cx="58.2573" cy="58.7426" r="54.3734" fill="#23DA26"/>
<path d="M80.2181 36.3433C81.2482 35.3626 82.619 34.8205 84.0412 34.8312C85.4634 34.842 86.8259 35.4048 87.841 36.401C88.8561 37.3971 89.4446 38.7487 89.4822 40.1705C89.5198 41.5922 89.0036 42.973 88.0425 44.0214L58.8656 80.5108C58.3639 81.0512 57.7584 81.4848 57.0853 81.7859C56.4121 82.0869 55.6852 82.2491 54.948 82.2627C54.2107 82.2764 53.4783 82.1412 52.7945 81.8653C52.1106 81.5894 51.4895 81.1785 50.9681 80.6571L31.6192 61.3082C31.0804 60.8061 30.6482 60.2006 30.3485 59.5279C30.0487 58.8551 29.8875 58.1289 29.8745 57.3925C29.8615 56.6561 29.997 55.9246 30.2728 55.2417C30.5487 54.5588 30.9592 53.9385 31.48 53.4177C32.0008 52.8969 32.6212 52.4864 33.3041 52.2105C33.987 51.9347 34.7184 51.7992 35.4548 51.8122C36.1912 51.8252 36.9174 51.9864 37.5902 52.2862C38.2629 52.5859 38.8684 53.0181 39.3705 53.5569L54.6829 68.862L80.0792 36.5042C80.1249 36.4479 80.1737 36.3942 80.2254 36.3433H80.2181Z" fill="white"/>
</svg>
