<svg width="52" height="52" viewBox="0 0 52 52" fill="none" xmlns="http://www.w3.org/2000/svg">
<g clip-path="url(#clip0_2_4620)">
<path d="M26.1249 7.17457e-05C40.4073 7.17457e-05 52.0125 11.6997 52 26.0575C51.9875 40.4154 40.2624 52.0226 25.8901 52.0001C11.795 51.9776 0.0624538 40.258 1.98351e-05 26.2674C-0.0649115 11.6148 11.8575 -0.119848 26.1249 7.17457e-05ZM50.8862 25.8102C50.8212 12.0869 39.6481 1.04687 25.8552 1.09184C12.0623 1.13681 1.03642 12.3942 1.10385 26.2949C1.16628 39.8557 12.4918 50.9583 26.2048 50.9058C39.8429 50.8508 50.9486 39.5684 50.8862 25.8102Z" fill="white"/>
<path d="M3.71354 25.9301C3.72778 20.0065 6.09366 14.3311 10.2907 10.1526C12.3689 8.08358 14.8341 6.44431 17.5456 5.32839C20.257 4.21247 23.1617 3.64175 26.0936 3.64881C29.0256 3.65586 31.9274 4.24055 34.6335 5.3695C37.3395 6.49846 39.7968 8.14957 41.865 10.2285C43.9333 12.3075 45.5719 14.7737 46.6874 17.4862C47.8029 20.1987 48.3734 23.1044 48.3663 26.0375C48.3513 38.3692 38.3294 48.3075 25.9151 48.3C22.987 48.2968 20.0884 47.7148 17.3858 46.5875C14.6832 45.4601 12.2299 43.8097 10.1668 41.731C8.1038 39.6523 6.47167 37.1863 5.3642 34.4747C4.25674 31.7631 3.69578 28.8592 3.71354 25.9301ZM25.2907 47.2132C36.0968 47.6854 46.3559 39.3785 47.2425 27.2916C48.0816 15.8593 39.1061 5.61373 27.4534 4.75681C15.6859 3.89239 5.41425 12.9588 4.7924 25.0357C4.16807 37.2025 13.9327 46.9459 25.2907 47.2182V47.2132Z" fill="white"/>
<path d="M31.1771 14.9724C31.1786 15.6549 31.0436 16.3307 30.7802 16.9602C30.5168 17.5897 30.1302 18.1602 29.6432 18.6381C29.1562 19.1159 28.5786 19.4916 27.9444 19.7429C27.3102 19.9942 26.6321 20.1161 25.9501 20.1015C24.922 20.0945 23.9191 19.7823 23.0686 19.2044C22.218 18.6266 21.5581 17.8091 21.1725 16.8557C20.7869 15.9022 20.6929 14.8557 20.9025 13.8488C21.1121 12.8419 21.6158 11.9198 22.3497 11.1996C23.0837 10.4794 24.0149 9.99336 25.0253 9.80316C26.0358 9.61296 27.0799 9.72715 28.0253 10.1312C28.9708 10.5353 29.775 11.2111 30.3361 12.073C30.8972 12.9349 31.1899 13.944 31.1771 14.9724ZM29.344 12.659L27.0964 14.8075L29.2791 17.2034C30.4254 15.9393 30.4129 13.8557 29.354 12.659H29.344ZM28.3551 18.1353L25.9151 15.8119L23.4877 17.9429C24.6689 19.2545 27.2337 19.3045 28.3551 18.1353ZM22.756 12.5715C21.6047 13.8532 21.6122 16.0242 22.8009 17.2134L25.1085 14.9899L22.756 12.5715ZM28.3276 11.6721C26.9765 10.5029 24.8063 10.5254 23.7549 11.6247L26.0025 13.9306L28.3276 11.6721Z" fill="white"/>
<path d="M31.1795 37.0526C31.1774 38.0796 30.8699 39.0829 30.2961 39.9346C29.7224 40.7864 28.9083 41.4481 27.9575 41.8357C27.0068 42.2232 25.9622 42.3191 24.9568 42.111C23.9514 41.903 23.0306 41.4004 22.3115 40.6673C21.5924 39.9342 21.1076 39.0037 20.9188 37.9941C20.7299 36.9846 20.8455 35.9416 21.2509 34.998C21.6562 34.0543 22.333 33.2527 23.1952 32.695C24.0573 32.1372 25.0658 31.8487 26.0924 31.866C27.4525 31.8851 28.7501 32.4408 29.7028 33.4121C30.6555 34.3834 31.1862 35.6918 31.1795 37.0526ZM28.3999 33.8622C26.9215 32.6305 24.7763 32.6655 23.655 33.9097L25.9625 36.1007L28.3999 33.8622ZM29.304 34.7541L26.8391 37.1425L29.0543 39.5609C29.6856 38.934 30.0609 38.0944 30.1071 37.2058C30.1533 36.3171 29.867 35.4431 29.304 34.7541ZM28.2201 40.3953L26.0699 38.1194L23.7024 40.3428C24.986 41.4721 27.1238 41.4721 28.2201 40.3953ZM25.0984 37.0975L22.7809 34.6817C21.6071 36.0632 21.6121 38.1793 22.7409 39.381C23.5251 38.6215 24.3093 37.8645 25.1084 37.0975H25.0984Z" fill="white"/>
<path d="M37.0958 20.8235C38.4675 20.837 39.7776 21.3952 40.738 22.3751C41.6983 23.355 42.2302 24.6765 42.2166 26.0487C42.2031 27.4209 41.6451 28.7316 40.6656 29.6923C39.686 30.653 38.3651 31.1851 36.9934 31.1715C36.3142 31.1648 35.643 31.0243 35.018 30.7581C34.3931 30.4918 33.8267 30.1051 33.3512 29.6199C32.8757 29.1346 32.5004 28.5605 32.2467 27.9302C31.993 27.2999 31.8658 26.6257 31.8726 25.9463C31.8793 25.2668 32.0197 24.5953 32.2859 23.9702C32.552 23.345 32.9386 22.7784 33.4236 22.3027C33.9087 21.827 34.4826 21.4515 35.1127 21.1977C35.7427 20.9439 36.4166 20.8167 37.0958 20.8235ZM41.1815 26.0275C41.1915 24.9356 40.7694 23.884 40.0072 23.1024C39.245 22.3207 38.2047 21.8724 37.1133 21.8553C36.0224 21.8719 34.9806 22.3114 34.2073 23.0813C33.4339 23.8512 32.9895 24.8913 32.9677 25.9825C32.9779 27.0577 33.4072 28.0865 34.1642 28.8499C34.9213 29.6132 35.9462 30.0509 37.0209 30.0697C37.5609 30.0844 38.0984 29.9907 38.6017 29.7943C39.105 29.5978 39.5638 29.3024 39.9512 28.9256C40.3385 28.5489 40.6465 28.0983 40.8569 27.6006C41.0674 27.1028 41.176 26.5679 41.1765 26.0275H41.1815Z" fill="white"/>
<path d="M14.9891 20.826C16.3595 20.8396 17.6684 21.3972 18.6278 22.3762C19.5872 23.3551 20.1185 24.6753 20.1049 26.0462C20.0914 27.4171 19.534 28.7265 18.5554 29.6863C17.5768 30.646 16.2571 31.1776 14.8867 31.164C14.2082 31.1573 13.5376 31.0169 12.9133 30.7509C12.2889 30.485 11.7231 30.0986 11.2481 29.6138C10.773 29.1291 10.3981 28.5555 10.1446 27.9258C9.89116 27.2961 9.76416 26.6226 9.77088 25.9438C9.77761 25.265 9.91791 24.5941 10.1838 23.9696C10.4497 23.345 10.8359 22.779 11.3205 22.3037C11.805 21.8285 12.3784 21.4534 13.0079 21.1998C13.6373 20.9463 14.3106 20.8192 14.9891 20.826ZM15.0615 30.0697C16.1397 30.0468 17.165 29.5981 17.9136 28.8215C18.6622 28.045 19.0734 27.0037 19.0573 25.925C19.0323 23.699 17.0744 21.7953 14.8717 21.8503C13.7826 21.8961 12.7535 22.3623 12.0005 23.151C11.2476 23.9396 10.8293 24.9894 10.8335 26.0799C10.8674 27.1692 11.3314 28.2006 12.1238 28.9484C12.9163 29.6961 13.9726 30.0993 15.0615 30.0697Z" fill="white"/>
</g>
<defs>
<clipPath id="clip0_2_4620">
<rect width="52" height="52" fill="white"/>
</clipPath>
</defs>
</svg>
