<svg width="53" height="53" viewBox="0 0 53 53" fill="none" xmlns="http://www.w3.org/2000/svg">
<g clip-path="url(#clip0_2_4598)">
<path d="M26.5395 7.05219e-05C41.3063 0.0306269 53.0408 11.9349 53.0001 26.854C52.9593 41.1137 40.904 53.023 26.537 53.0001C11.8746 52.9772 -0.0304933 41.0831 5.86728e-05 26.4873C-0.000620363 23.0041 0.685782 19.5549 2.01996 16.3373C3.35415 13.1198 5.3099 10.1971 7.77518 7.73668C10.2405 5.27624 13.1669 3.3264 16.3868 1.99883C19.6066 0.671254 23.0568 -0.00796785 26.5395 7.05219e-05ZM26.5191 1.11283C12.422 1.01098 0.929346 12.8261 1.11266 26.8107C1.29088 40.3523 12.4067 51.8873 26.5141 51.8873C40.4534 51.8873 51.9282 40.3981 51.8875 26.4873C51.8442 12.4594 40.4687 1.07718 26.5191 1.11283Z" fill="white"/>
<path d="M49.2267 26.5229C49.1325 39.3693 39.0173 49.3154 26.132 49.2288C13.7228 49.1448 3.62539 38.7887 3.70432 26.2581C3.78324 13.6765 14.1684 3.59547 26.9442 3.69987C39.2057 3.80172 49.3158 14.1552 49.2267 26.5229ZM27.2293 48.1263C38.9562 47.8411 48.7761 37.7397 48.137 25.4331C48.0002 22.5547 47.29 19.7327 46.0483 17.1325C44.8065 14.5323 43.058 12.2063 40.9055 10.2908C38.753 8.3754 36.2397 6.90914 33.513 5.97805C30.7864 5.04696 27.9013 4.66979 25.027 4.86865C13.1729 5.67075 4.08621 16.0523 4.84747 27.7274C5.66219 39.9779 16.1008 48.6101 27.2293 48.1263Z" fill="white"/>
<path d="M13.4072 18.2574C13.4237 16.9794 13.9387 15.7584 14.8423 14.8546C15.7459 13.9508 16.9668 13.4358 18.2446 13.4193C20.8441 13.4193 23.1151 15.6347 23.0998 18.1556C23.082 20.9566 20.9459 23.1363 18.1988 23.1312C16.9226 23.1033 15.7078 22.5784 14.8128 21.6681C13.9179 20.7578 13.4136 19.5341 13.4072 18.2574ZM14.5326 18.2167C14.5249 19.2023 14.9041 20.1516 15.5886 20.8605C16.2732 21.5695 17.2086 21.9816 18.1937 22.0082C18.9323 22.0222 19.6584 21.8168 20.2801 21.4178C20.9018 21.0188 21.3912 20.4443 21.6863 19.767C21.9813 19.0897 22.0688 18.34 21.9376 17.613C21.8064 16.8859 21.4625 16.2141 20.9493 15.6827C20.4362 15.1513 19.7769 14.7841 19.0549 14.6276C18.333 14.4712 17.5809 14.5325 16.8938 14.8038C16.2067 15.0751 15.6156 15.5443 15.1952 16.1518C14.7749 16.7594 14.5443 17.478 14.5326 18.2167Z" fill="white"/>
<path d="M34.7197 23.1261C33.7602 23.1245 32.8227 22.8384 32.0258 22.3039C31.229 21.7694 30.6085 21.0106 30.243 20.1233C29.8774 19.2361 29.7832 18.2603 29.9723 17.3195C30.1613 16.3787 30.6251 15.5151 31.305 14.838C31.9849 14.1609 32.8503 13.7006 33.7917 13.5155C34.7332 13.3304 35.7084 13.4287 36.594 13.7981C37.4795 14.1674 38.2357 14.7911 38.7668 15.5903C39.2978 16.3895 39.58 17.3283 39.5774 18.288C39.5734 19.5734 39.0596 20.8047 38.1489 21.7117C37.2382 22.6188 36.0049 23.1274 34.7197 23.1261ZM31.0203 18.265C31.0242 19.2502 31.4145 20.1946 32.1072 20.895C32.7999 21.5955 33.7398 21.9961 34.7248 22.0107C35.2232 22.0255 35.7194 21.9403 36.1844 21.7602C36.6493 21.58 37.0735 21.3086 37.4319 20.9619C37.7903 20.6152 38.0757 20.2003 38.2712 19.7415C38.4667 19.2828 38.5683 18.7896 38.5702 18.2909C38.5721 17.7922 38.4741 17.2982 38.282 16.838C38.09 16.3778 37.8077 15.9607 37.452 15.6114C37.0962 15.262 36.674 14.9874 36.2105 14.8038C35.7469 14.6202 35.2513 14.5312 34.7528 14.5423C33.7663 14.5476 32.8215 14.9412 32.123 15.6379C31.4245 16.3346 31.0283 17.2784 31.0203 18.265Z" fill="white"/>
<path d="M26.4375 43.8611C25.8023 43.8504 25.1753 43.7147 24.5925 43.4616C24.0097 43.2086 23.4824 42.8433 23.0408 42.3864C22.5992 41.9296 22.2519 41.3903 22.0186 40.7992C21.7854 40.2081 21.6709 39.5769 21.6816 38.9415C21.6923 38.3062 21.828 37.6792 22.081 37.0963C22.334 36.5134 22.6993 35.986 23.156 35.5443C23.6128 35.1027 24.1521 34.7553 24.7431 34.522C25.3341 34.2888 25.9652 34.1742 26.6005 34.1849C29.2076 34.2155 31.3818 36.4767 31.3487 39.1223C31.3227 40.4011 30.7913 41.6174 29.871 42.5055C28.9507 43.3935 27.7162 43.8809 26.4375 43.8611ZM26.5037 42.7407C27.4901 42.7314 28.4334 42.3354 29.1309 41.6378C29.8284 40.9402 30.2243 39.9968 30.2336 39.0103C30.2448 38.5121 30.1561 38.0166 29.9728 37.5532C29.7896 37.0898 29.5153 36.6678 29.1664 36.312C28.8174 35.9563 28.4008 35.674 27.941 35.4819C27.4812 35.2898 26.9877 35.1917 26.4894 35.1934C25.9911 35.1951 25.4982 35.2966 25.0397 35.4918C24.5813 35.6871 24.1666 35.9722 23.8201 36.3303C23.4735 36.6884 23.2022 37.1123 23.0221 37.5769C22.842 38.0416 22.7567 38.5376 22.7713 39.0357C22.7719 39.5245 22.8691 40.0082 23.0573 40.4593C23.2454 40.9103 23.5208 41.3197 23.8677 41.664C24.2145 42.0082 24.6259 42.2806 25.0783 42.4654C25.5307 42.6501 26.0151 42.7437 26.5037 42.7407Z" fill="white"/>
<path d="M40.5602 31.7124C40.5688 32.4093 40.3698 33.093 39.9886 33.6765C39.6074 34.2599 39.0612 34.7167 38.4195 34.9887C37.7779 35.2607 37.0699 35.3355 36.3856 35.2037C35.7013 35.0719 35.0716 34.7394 34.5769 34.2486C34.0822 33.7577 33.7447 33.1307 33.6074 32.4474C33.4701 31.7641 33.5392 31.0554 33.806 30.4115C34.0728 29.7676 34.5251 29.2177 35.1054 28.8317C35.6856 28.4458 36.3676 28.2413 37.0645 28.2443C37.5222 28.2406 37.9762 28.3275 38.4001 28.5002C38.8241 28.6728 39.2097 28.9277 39.5346 29.2501C39.8596 29.5725 40.1175 29.9561 40.2936 30.3787C40.4696 30.8013 40.5602 31.2546 40.5602 31.7124ZM34.6535 31.7455C34.6535 33.0187 35.7508 34.1824 36.9881 34.2155C37.6335 34.2065 38.2503 33.948 38.7093 33.4942C39.1682 33.0403 39.4337 32.4264 39.4501 31.7812C39.4525 31.4662 39.3927 31.1538 39.2744 30.8619C39.156 30.5699 38.9813 30.3042 38.7603 30.0798C38.5392 29.8554 38.2761 29.6768 37.986 29.5541C37.696 29.4314 37.3846 29.367 37.0696 29.3647C36.7546 29.3623 36.4423 29.422 36.1505 29.5404C35.8586 29.6588 35.5929 29.8335 35.3685 30.0546C35.1441 30.2757 34.9655 30.5388 34.8428 30.8289C34.7201 31.1191 34.6558 31.4305 34.6535 31.7455Z" fill="white"/>
<path d="M15.8999 35.2697C14.9687 35.2697 14.0757 34.8997 13.4172 34.2412C12.7588 33.5827 12.3889 32.6895 12.3889 31.7582C12.3889 30.8269 12.7588 29.9338 13.4172 29.2753C14.0757 28.6167 14.9687 28.2468 15.8999 28.2468C16.3663 28.2384 16.8298 28.3227 17.2633 28.4949C17.6969 28.6672 18.0919 28.9239 18.4255 29.2501C18.759 29.5764 19.0244 29.9656 19.2062 30.3953C19.388 30.825 19.4827 31.2866 19.4846 31.7531C19.4893 32.2221 19.3992 32.6871 19.2198 33.1204C19.0404 33.5537 18.7755 33.9462 18.4407 34.2746C18.106 34.603 17.7084 34.8604 17.2718 35.0314C16.8352 35.2023 16.3685 35.2834 15.8999 35.2697ZM15.9533 29.3672C15.6394 29.3575 15.3268 29.4116 15.0344 29.5262C14.7421 29.6408 14.4759 29.8136 14.2522 30.034C14.0285 30.2544 13.8518 30.5179 13.7329 30.8086C13.6139 31.0993 13.5551 31.4111 13.5601 31.7251C13.5499 32.0386 13.6025 32.351 13.7149 32.6439C13.8273 32.9367 13.9972 33.2041 14.2146 33.4303C14.4319 33.6564 14.6923 33.8368 14.9804 33.9607C15.2686 34.0846 15.5786 34.1496 15.8922 34.1518C16.2122 34.1655 16.5318 34.1148 16.8319 34.0027C17.132 33.8906 17.4065 33.7194 17.6392 33.4993C17.8719 33.2791 18.0581 33.0145 18.1866 32.721C18.3152 32.4276 18.3835 32.1113 18.3876 31.791C18.3917 31.4706 18.3315 31.1527 18.2104 30.8561C18.0894 30.5595 17.9101 30.2902 17.6831 30.0641C17.456 29.8381 17.186 29.6599 16.8889 29.5402C16.5917 29.4205 16.2736 29.3617 15.9533 29.3672Z" fill="white"/>
</g>
<defs>
<clipPath id="clip0_2_4598">
<rect width="53" height="53" fill="white"/>
</clipPath>
</defs>
</svg>
