<svg width="52" height="52" viewBox="0 0 52 52" fill="none" xmlns="http://www.w3.org/2000/svg">
<g clip-path="url(#clip0_165_24884)">
<path d="M26.1249 -6.55834e-05C40.4073 -6.55834e-05 52.0125 11.6996 52 26.0574C51.9875 40.4152 40.2624 52.0224 25.8901 51.9999C11.795 51.9775 0.0624538 40.2578 1.98351e-05 26.2673C-0.0649115 11.6146 11.8575 -0.119985 26.1249 -6.55834e-05ZM50.8862 25.8101C50.8212 12.0868 39.6481 1.04673 25.8552 1.0917C12.0623 1.13667 1.03642 12.3941 1.10385 26.2947C1.16628 39.8556 12.4918 50.9581 26.2048 50.9057C39.8429 50.8507 50.9486 39.5683 50.8862 25.8101Z" fill="#23DA26"/>
<path d="M3.71354 25.9302C3.72778 20.0066 6.09366 14.3313 10.2907 10.1528C12.3689 8.08376 14.8341 6.4445 17.5456 5.32858C20.257 4.21266 23.1617 3.64194 26.0936 3.64899C29.0256 3.65604 31.9274 4.24073 34.6335 5.36969C37.3395 6.49864 39.7968 8.14975 41.865 10.2287C43.9333 12.3077 45.5719 14.7739 46.6874 17.4864C47.8029 20.1989 48.3734 23.1046 48.3663 26.0377C48.3513 38.3694 38.3294 48.3077 25.9151 48.3002C22.987 48.297 20.0884 47.715 17.3858 46.5876C14.6832 45.4603 12.2299 43.8099 10.1668 41.7312C8.1038 39.6525 6.47167 37.1865 5.3642 34.4749C4.25674 31.7632 3.69578 28.8594 3.71354 25.9302ZM25.2907 47.2134C36.0968 47.6856 46.3559 39.3787 47.2425 27.2918C48.0816 15.8595 39.1061 5.61392 27.4534 4.75699C15.6859 3.89258 5.41425 12.959 4.7924 25.0358C4.16807 37.2027 13.9327 46.9461 25.2907 47.2184V47.2134Z" fill="#23DA26"/>
<path d="M31.1771 14.9722C31.1786 15.6547 31.0436 16.3305 30.7802 16.96C30.5168 17.5895 30.1302 18.16 29.6432 18.6379C29.1562 19.1157 28.5786 19.4914 27.9444 19.7427C27.3102 19.994 26.6321 20.1159 25.9501 20.1013C24.922 20.0943 23.9191 19.7821 23.0686 19.2042C22.218 18.6264 21.5581 17.8089 21.1725 16.8555C20.7869 15.902 20.6929 14.8555 20.9025 13.8486C21.1121 12.8417 21.6158 11.9196 22.3497 11.1994C23.0837 10.4792 24.0149 9.99316 25.0253 9.80296C26.0358 9.61276 27.0799 9.72695 28.0253 10.131C28.9708 10.5351 29.775 11.2109 30.3361 12.0728C30.8972 12.9347 31.1899 13.9438 31.1771 14.9722ZM29.344 12.6588L27.0964 14.8073L29.2791 17.2032C30.4254 15.9391 30.4129 13.8555 29.354 12.6588H29.344ZM28.3551 18.1351L25.9151 15.8117L23.4877 17.9427C24.6689 19.2543 27.2337 19.3043 28.3551 18.1351ZM22.756 12.5713C21.6047 13.853 21.6122 16.024 22.8009 17.2132L25.1085 14.9897L22.756 12.5713ZM28.3276 11.6719C26.9765 10.5027 24.8063 10.5252 23.7549 11.6245L26.0025 13.9304L28.3276 11.6719Z" fill="#23DA26"/>
<path d="M31.1795 37.0525C31.1774 38.0796 30.8699 39.0828 30.2961 39.9346C29.7224 40.7863 28.9083 41.448 27.9575 41.8356C27.0068 42.2232 25.9622 42.319 24.9568 42.111C23.9514 41.9029 23.0306 41.4004 22.3115 40.6672C21.5924 39.9341 21.1076 39.0036 20.9188 37.994C20.7299 36.9845 20.8455 35.9415 21.2509 34.9979C21.6562 34.0543 22.333 33.2526 23.1952 32.6949C24.0573 32.1372 25.0658 31.8486 26.0924 31.866C27.4525 31.8851 28.7501 32.4407 29.7028 33.412C30.6555 34.3833 31.1862 35.6917 31.1795 37.0525ZM28.3999 33.8621C26.9215 32.6305 24.7763 32.6654 23.655 33.9096L25.9625 36.1006L28.3999 33.8621ZM29.304 34.754L26.8391 37.1424L29.0543 39.5608C29.6856 38.9339 30.0609 38.0943 30.1071 37.2057C30.1533 36.317 29.867 35.443 29.304 34.754ZM28.2201 40.3952L26.0699 38.1193L23.7024 40.3428C24.986 41.472 27.1238 41.472 28.2201 40.3952ZM25.0984 37.0975L22.7809 34.6816C21.6071 36.0632 21.6121 38.1792 22.7409 39.3809C23.5251 38.6214 24.3093 37.8644 25.1084 37.0975H25.0984Z" fill="#23DA26"/>
<path d="M37.0958 20.8235C38.4675 20.8371 39.7776 21.3952 40.738 22.3752C41.6983 23.3551 42.2302 24.6765 42.2166 26.0487C42.2031 27.421 41.6451 28.7316 40.6656 29.6923C39.686 30.653 38.3651 31.1851 36.9934 31.1715C36.3142 31.1648 35.643 31.0243 35.018 30.7581C34.3931 30.4919 33.8267 30.1051 33.3512 29.6199C32.8757 29.1347 32.5004 28.5605 32.2467 27.9302C31.993 27.2999 31.8658 26.6258 31.8726 25.9463C31.8793 25.2668 32.0197 24.5954 32.2859 23.9702C32.552 23.345 32.9386 22.7784 33.4236 22.3027C33.9087 21.827 34.4826 21.4516 35.1127 21.1978C35.7427 20.944 36.4166 20.8168 37.0958 20.8235ZM41.1815 26.0275C41.1915 24.9356 40.7694 23.8841 40.0072 23.1024C39.245 22.3207 38.2047 21.8724 37.1133 21.8553C36.0224 21.8719 34.9806 22.3115 34.2073 23.0813C33.4339 23.8512 32.9895 24.8913 32.9677 25.9825C32.9779 27.0578 33.4072 28.0865 34.1642 28.8499C34.9213 29.6133 35.9462 30.0509 37.0209 30.0698C37.5609 30.0845 38.0984 29.9908 38.6017 29.7943C39.105 29.5978 39.5638 29.3024 39.9512 28.9257C40.3385 28.5489 40.6465 28.0984 40.8569 27.6006C41.0674 27.1028 41.176 26.568 41.1765 26.0275H41.1815Z" fill="#23DA26"/>
<path d="M14.9891 20.8259C16.3595 20.8395 17.6684 21.3971 18.6278 22.3761C19.5872 23.3551 20.1185 24.6753 20.1049 26.0462C20.0914 27.4171 19.534 28.7265 18.5554 29.6862C17.5768 30.646 16.2571 31.1776 14.8867 31.164C14.2082 31.1573 13.5376 31.0169 12.9133 30.7509C12.2889 30.4849 11.7231 30.0985 11.2481 29.6138C10.773 29.1291 10.3981 28.5554 10.1446 27.9257C9.89116 27.296 9.76416 26.6225 9.77088 25.9437C9.77761 25.2649 9.91791 24.5941 10.1838 23.9695C10.4497 23.345 10.8359 22.7789 11.3205 22.3037C11.805 21.8285 12.3784 21.4534 13.0079 21.1998C13.6373 20.9463 14.3106 20.8192 14.9891 20.8259ZM15.0615 30.0697C16.1397 30.0467 17.165 29.598 17.9136 28.8215C18.6622 28.045 19.0734 27.0037 19.0573 25.925C19.0323 23.699 17.0744 21.7953 14.8717 21.8503C13.7826 21.8961 12.7535 22.3623 12.0005 23.1509C11.2476 23.9396 10.8293 24.9894 10.8335 26.0799C10.8674 27.1691 11.3314 28.2005 12.1238 28.9483C12.9163 29.6961 13.9726 30.0993 15.0615 30.0697Z" fill="#23DA26"/>
</g>
<defs>
<clipPath id="clip0_165_24884">
<rect width="52" height="52" fill="white"/>
</clipPath>
</defs>
</svg>
