<svg width="223" height="91" viewBox="0 0 223 91" fill="none" xmlns="http://www.w3.org/2000/svg">
<path d="M2.684 37H1.684V38H2.684V37ZM2.684 1.36V0.359997H1.684V1.36H2.684ZM18.084 2.196L17.7727 3.14631L17.7824 3.14949L17.7922 3.15248L18.084 2.196ZM22.044 5.056L21.2092 5.60659L21.2133 5.61272L21.2174 5.61879L22.044 5.056ZM23.056 14.692L22.0816 14.4671L22.0794 14.4765L22.0775 14.486L23.056 14.692ZM21.736 17.64L20.9393 17.0356L20.936 17.04L21.736 17.64ZM19.096 19.62L18.6964 18.7033L17.8956 19.0524L18.1339 19.8928L19.096 19.62ZM24.024 37V38H25.347L24.9861 36.7272L24.024 37ZM16.588 37L15.6186 37.2456L15.8098 38H16.588V37ZM12.496 20.852L13.4654 20.6064L13.2742 19.852H12.496V20.852ZM9.944 20.852V19.852H8.944V20.852H9.944ZM9.944 37V38H10.944V37H9.944ZM9.944 16.54H8.944V17.54H9.944V16.54ZM14.828 15.968L15.3201 16.8386L15.3201 16.8386L14.828 15.968ZM16.236 14.252L15.2983 13.9047L15.2945 13.9147L15.291 13.9249L16.236 14.252ZM15.752 7.608L14.92 8.1627L14.9307 8.17882L14.9421 8.19451L15.752 7.608ZM9.944 6.288V5.288H8.944V6.288H9.944ZM3.684 37V1.36H1.684V37H3.684ZM2.684 2.36H11.924V0.359997H2.684V2.36ZM11.924 2.36C14.2575 2.36 16.1997 2.631 17.7727 3.14631L18.3953 1.24569C16.5657 0.646325 14.4012 0.359997 11.924 0.359997V2.36ZM17.7922 3.15248C19.3229 3.61948 20.4406 4.44131 21.2092 5.60659L22.8788 4.5054C21.8287 2.91335 20.3064 1.82852 18.3758 1.23952L17.7922 3.15248ZM21.2174 5.61879C22.0022 6.77141 22.452 8.45438 22.452 10.776H24.452C24.452 8.22828 23.9632 6.09793 22.8706 4.49321L21.2174 5.61879ZM22.452 10.776C22.452 12.1849 22.325 13.4125 22.0816 14.4671L24.0304 14.9169C24.315 13.6835 24.452 12.3005 24.452 10.776H22.452ZM22.0775 14.486C21.8712 15.4659 21.4894 16.3104 20.9393 17.0356L22.5327 18.2444C23.2732 17.2682 23.7715 16.1474 24.0346 14.898L22.0775 14.486ZM20.936 17.04C20.444 17.696 19.7158 18.2589 18.6964 18.7033L19.4956 20.5367C20.7642 19.9837 21.796 19.2267 22.536 18.24L20.936 17.04ZM18.1339 19.8928L23.0619 37.2728L24.9861 36.7272L20.0581 19.3472L18.1339 19.8928ZM24.024 36H16.588V38H24.024V36ZM17.5574 36.7544L13.4654 20.6064L11.5266 21.0976L15.6186 37.2456L17.5574 36.7544ZM12.496 19.852H9.944V21.852H12.496V19.852ZM8.944 20.852V37H10.944V20.852H8.944ZM9.944 36H2.684V38H9.944V36ZM9.944 17.54H12.056V15.54H9.944V17.54ZM12.056 17.54C13.3202 17.54 14.4374 17.3375 15.3201 16.8386L14.3359 15.0974C13.8693 15.3612 13.1385 15.54 12.056 15.54V17.54ZM15.3201 16.8386C16.2163 16.332 16.8409 15.5616 17.181 14.5791L15.291 13.9249C15.1031 14.4677 14.789 14.8413 14.3359 15.0974L15.3201 16.8386ZM17.1737 14.5993C17.52 13.6645 17.676 12.5713 17.676 11.348H15.676C15.676 12.4127 15.5387 13.2555 15.2983 13.9047L17.1737 14.5993ZM17.676 11.348C17.676 9.6053 17.3535 8.11461 16.5619 7.02149L14.9421 8.19451C15.3825 8.80272 15.676 9.80537 15.676 11.348H17.676ZM16.5841 7.0533C15.7257 5.76582 14.192 5.288 12.408 5.288V7.288C13.9093 7.288 14.6049 7.69018 14.92 8.1627L16.5841 7.0533ZM12.408 5.288H9.944V7.288H12.408V5.288ZM8.944 6.288V16.54H10.944V6.288H8.944ZM28.3363 37H27.3363V38H28.3363V37ZM28.3363 1.36V0.359997H27.3363V1.36H28.3363ZM43.8683 1.36H44.8683V0.359997H43.8683V1.36ZM43.8683 6.376V7.376H44.8683V6.376H43.8683ZM35.5963 6.376V5.376H34.5963V6.376H35.5963ZM35.5963 15.836H34.5963V16.836H35.5963V15.836ZM41.9763 15.836H42.9763V14.836H41.9763V15.836ZM41.9763 20.896V21.896H42.9763V20.896H41.9763ZM35.5963 20.896V19.896H34.5963V20.896H35.5963ZM35.5963 32.072H34.5963V33.072H35.5963V32.072ZM43.9563 32.072H44.9563V31.072H43.9563V32.072ZM43.9563 37V38H44.9563V37H43.9563ZM29.3363 37V1.36H27.3363V37H29.3363ZM28.3363 2.36H43.8683V0.359997H28.3363V2.36ZM42.8683 1.36V6.376H44.8683V1.36H42.8683ZM43.8683 5.376H35.5963V7.376H43.8683V5.376ZM34.5963 6.376V15.836H36.5963V6.376H34.5963ZM35.5963 16.836H41.9763V14.836H35.5963V16.836ZM40.9763 15.836V20.896H42.9763V15.836H40.9763ZM41.9763 19.896H35.5963V21.896H41.9763V19.896ZM34.5963 20.896V32.072H36.5963V20.896H34.5963ZM35.5963 33.072H43.9563V31.072H35.5963V33.072ZM42.9563 32.072V37H44.9563V32.072H42.9563ZM43.9563 36H28.3363V38H43.9563V36ZM47.6293 24.196H46.6293V25.196H47.6293V24.196ZM47.6293 19.84V18.84H46.6293V19.84H47.6293ZM58.6733 19.84H59.6733V18.84H58.6733V19.84ZM58.6733 24.196V25.196H59.6733V24.196H58.6733ZM48.6293 24.196V19.84H46.6293V24.196H48.6293ZM47.6293 20.84H58.6733V18.84H47.6293V20.84ZM57.6733 19.84V24.196H59.6733V19.84H57.6733ZM58.6733 23.196H47.6293V25.196H58.6733V23.196ZM67.6084 35.988L67.0611 36.825L67.0685 36.8297L67.6084 35.988ZM64.3964 31.852L63.4509 32.1775L63.4525 32.1824L64.3964 31.852ZM64.3964 6.508L65.3403 6.83835L65.3419 6.83351L64.3964 6.508ZM67.6084 2.372L67.0798 1.52307L67.0726 1.52767L67.6084 2.372ZM79.8844 2.196L79.3751 3.05661L79.3827 3.06103L79.8844 2.196ZM82.9644 5.804L82.0288 6.15705L82.0317 6.16473L82.0347 6.17236L82.9644 5.804ZM83.8884 14.208V15.208H84.8884V14.208H83.8884ZM76.8484 14.208H75.8484V15.208H76.8484V14.208ZM76.7164 8.576L75.7235 8.69515L75.7241 8.70003L76.7164 8.576ZM75.9684 6.816L75.1923 7.44659L75.2139 7.47323L75.2374 7.49831L75.9684 6.816ZM71.8324 6.816L71.1029 6.13206V6.13206L71.8324 6.816ZM70.9964 8.664L71.9839 8.82199L71.9848 8.81605L70.9964 8.664ZM71.0404 29.96L70.0584 30.1488L70.0627 30.1712L70.068 30.1934L71.0404 29.96ZM71.9644 31.676L71.2821 32.4071L71.3072 32.4305L71.3338 32.4521L71.9644 31.676ZM75.9244 31.588L75.1718 30.9295L75.1687 30.9331L75.9244 31.588ZM76.6724 29.74L75.684 29.5879L75.6812 29.6066L75.679 29.6254L76.6724 29.74ZM76.8484 23.844V22.844H75.8484V23.844H76.8484ZM83.8884 23.844H84.8884V22.844H83.8884V23.844ZM83.0084 32.336L83.9462 32.6833L83.9482 32.6777L83.0084 32.336ZM79.9724 36.12L80.507 36.9651L80.5132 36.9612L80.5192 36.9573L79.9724 36.12ZM73.9004 36.484C71.3736 36.484 69.4867 36.0049 68.1484 35.1463L67.0685 36.8297C68.8394 37.9658 71.1472 38.484 73.9004 38.484V36.484ZM68.1557 35.151C66.8193 34.2773 65.8853 33.0789 65.3403 31.5216L63.4525 32.1824C64.1395 34.1451 65.3469 35.7041 67.0612 36.825L68.1557 35.151ZM65.3419 31.5265C64.7695 29.8636 64.4724 27.9094 64.4724 25.648H62.4724C62.4724 28.0799 62.7913 30.2618 63.4509 32.1775L65.3419 31.5265ZM64.4724 25.648V12.844H62.4724V25.648H64.4724ZM64.4724 12.844C64.4724 10.4585 64.7712 8.46423 65.3403 6.83835L63.4525 6.17765C62.7896 8.07177 62.4724 10.3015 62.4724 12.844H64.4724ZM65.3419 6.83351C65.8879 5.24758 66.8199 4.05676 68.1442 3.21633L67.0726 1.52767C65.3462 2.62324 64.1369 4.18975 63.4509 6.18249L65.3419 6.83351ZM68.137 3.22089C69.4777 2.38608 71.3692 1.92 73.9004 1.92V-0.0800018C71.1516 -0.0800018 68.8484 0.42192 67.0798 1.5231L68.137 3.22089ZM73.9004 1.92C76.3603 1.92 78.1528 2.33317 79.3751 3.05658L80.3937 1.33542C78.7414 0.357491 76.5445 -0.0800018 73.9004 -0.0800018V1.92ZM79.3827 3.06103C80.6545 3.79867 81.5253 4.82266 82.0288 6.15705L83.9 5.45094C83.2302 3.676 82.0477 2.29466 80.3861 1.33097L79.3827 3.06103ZM82.0347 6.17236C82.595 7.5864 82.8884 9.26094 82.8884 11.216H84.8884C84.8884 9.0644 84.5658 7.13093 83.8941 5.43563L82.0347 6.17236ZM82.8884 11.216V14.208H84.8884V11.216H82.8884ZM83.8884 13.208H76.8484V15.208H83.8884V13.208ZM77.8484 14.208V10.864H75.8484V14.208H77.8484ZM77.8484 10.864C77.8484 10.0075 77.8026 9.20292 77.7087 8.45196L75.7241 8.70003C75.8063 9.35708 75.8484 10.0778 75.8484 10.864H77.8484ZM77.7093 8.45685C77.6018 7.56151 77.2852 6.76127 76.6995 6.13368L75.2374 7.49831C75.4729 7.75073 75.655 8.12382 75.7235 8.69514L77.7093 8.45685ZM76.7445 6.18541C76.0833 5.37154 75.0336 5.112 73.9444 5.112V7.112C74.7912 7.112 75.0909 7.32179 75.1923 7.44659L76.7445 6.18541ZM73.9444 5.112C72.8391 5.112 71.8097 5.37816 71.1029 6.13206L72.5619 7.49994C72.7352 7.31517 73.1137 7.112 73.9444 7.112V5.112ZM71.1029 6.13206C70.4994 6.77581 70.1498 7.59041 70.008 8.51194L71.9848 8.81605C72.0777 8.21226 72.2855 7.79485 72.5619 7.49994L71.1029 6.13206ZM70.009 8.50601C69.8817 9.30165 69.8204 10.177 69.8204 11.128H71.8204C71.8204 10.2603 71.8765 9.49302 71.9838 8.82199L70.009 8.50601ZM69.8204 11.128V27.32H71.8204V11.128H69.8204ZM69.8204 27.32C69.8204 28.3638 69.8969 29.3093 70.0584 30.1488L72.0224 29.7712C71.8905 29.0853 71.8204 28.2708 71.8204 27.32H69.8204ZM70.068 30.1934C70.2782 31.0692 70.6662 31.8323 71.2821 32.4071L72.6467 30.9449C72.3826 30.6984 72.1546 30.3175 72.0128 29.7266L70.068 30.1934ZM71.3338 32.4521C72.0416 33.0272 72.956 33.248 73.9444 33.248V31.248C73.2315 31.248 72.8259 31.0875 72.595 30.8999L71.3338 32.4521ZM73.9444 33.248C74.9989 33.248 76.0186 33.0062 76.6801 32.2429L75.1687 30.9331C75.0675 31.0498 74.7672 31.248 73.9444 31.248V33.248ZM76.677 32.2465C77.2494 31.5924 77.56 30.7718 77.6658 29.8546L75.679 29.6254C75.6088 30.2336 75.4208 30.645 75.1718 30.9295L76.677 32.2465ZM77.6608 29.8921C77.7866 29.0743 77.8484 28.2165 77.8484 27.32H75.8484C75.8484 28.1249 75.7929 28.8804 75.684 29.5879L77.6608 29.8921ZM77.8484 27.32V23.844H75.8484V27.32H77.8484ZM76.8484 24.844H83.8884V22.844H76.8484V24.844ZM82.8884 23.844V26.792H84.8884V23.844H82.8884ZM82.8884 26.792C82.8884 28.7822 82.608 30.511 82.0686 31.9943L83.9482 32.6777C84.5822 30.9343 84.8884 28.9671 84.8884 26.792H82.8884ZM82.0707 31.9887C81.5597 33.3682 80.6866 34.4592 79.4256 35.2827L80.5192 36.9573C82.1328 35.9035 83.2838 34.4718 83.9462 32.6833L82.0707 31.9887ZM79.4378 35.2749C78.2244 36.0425 76.4155 36.484 73.9004 36.484V38.484C76.6067 38.484 78.8457 38.0161 80.507 36.9651L79.4378 35.2749ZM92.0607 36.076L92.5848 35.2243L92.0607 36.076ZM88.7607 32.072L87.8218 32.4163L87.8253 32.4258L87.829 32.4352L88.7607 32.072ZM88.7607 6.244L87.829 5.88079L87.8263 5.88768L87.8237 5.89461L88.7607 6.244ZM92.0607 2.284L92.5728 3.14295L92.0607 2.284ZM104.513 2.328L103.989 3.17966L103.998 3.18553L104.008 3.19119L104.513 2.328ZM107.813 6.288L106.876 6.63738L106.879 6.64704L106.883 6.65663L107.813 6.288ZM107.813 32.072L106.879 31.714L106.876 31.7226L107.813 32.072ZM104.513 36.076L103.996 35.2199L103.989 35.2243L104.513 36.076ZM100.333 31.632L101.015 32.3631L101.028 32.3513L101.04 32.3391L100.333 31.632ZM101.213 29.916L102.192 30.12L102.193 30.1121L101.213 29.916ZM101.213 8.444L100.234 8.64795V8.64795L101.213 8.444ZM100.333 6.772L99.6256 7.47911L99.6378 7.49129L99.6504 7.50305L100.333 6.772ZM96.2847 6.772L96.967 7.50305L96.9796 7.49129L96.9918 7.47911L96.2847 6.772ZM95.4047 8.444L96.3837 8.64795V8.64795L95.4047 8.444ZM95.3607 29.916L94.3733 30.074L94.377 30.0971L94.3817 30.12L95.3607 29.916ZM96.2407 31.632L95.5336 32.3391L95.5458 32.3513L95.5584 32.3631L96.2407 31.632ZM98.2647 36.484C95.7594 36.484 93.8962 36.0314 92.5848 35.2243L91.5366 36.9277C93.2759 37.998 95.5487 38.484 98.2647 38.484V36.484ZM92.5848 35.2243C91.2522 34.4042 90.2912 33.2447 89.6924 31.7088L87.829 32.4352C88.5796 34.3606 89.8186 35.8704 91.5366 36.9277L92.5848 35.2243ZM89.6996 31.7277C89.1048 30.1054 88.7927 28.1305 88.7927 25.78H86.7927C86.7927 28.2988 87.126 30.5186 87.8218 32.4163L89.6996 31.7277ZM88.7927 25.78V12.492H86.7927V25.78H88.7927ZM88.7927 12.492C88.7927 10.1408 89.1049 8.18302 89.6977 6.59338L87.8237 5.89461C87.1258 7.76631 86.7927 9.97387 86.7927 12.492H88.7927ZM89.6924 6.60721C90.2903 5.07362 91.2478 3.93282 92.5728 3.14295L91.5487 1.42505C89.8229 2.45385 88.5805 3.95304 87.829 5.88079L89.6924 6.60721ZM92.5728 3.14295C93.887 2.35948 95.755 1.92 98.2647 1.92V-0.0800018C95.5531 -0.0800018 93.2851 0.389851 91.5487 1.42505L92.5728 3.14295ZM98.2647 1.92C100.802 1.92 102.679 2.37354 103.989 3.17966L105.037 1.47634C103.296 0.405121 101.008 -0.0800018 98.2647 -0.0800018V1.92ZM104.008 3.19119C105.358 3.98097 106.309 5.11666 106.876 6.63738L108.75 5.93862C108.026 3.998 106.777 2.49369 105.018 1.46481L104.008 3.19119ZM106.883 6.65663C107.499 8.20889 107.825 10.1442 107.825 12.492H109.825C109.825 9.97046 109.476 7.76977 108.742 5.91937L106.883 6.65663ZM107.825 12.492V25.78H109.825V12.492H107.825ZM107.825 25.78C107.825 28.1263 107.499 30.0962 106.879 31.7141L108.746 32.4299C109.476 30.5278 109.825 28.3031 109.825 25.78H107.825ZM106.876 31.7226C106.308 33.2457 105.354 34.4001 103.996 35.2199L105.03 36.9321C106.781 35.8746 108.027 34.3596 108.75 32.4214L106.876 31.7226ZM103.989 35.2243C102.679 36.0305 100.802 36.484 98.2647 36.484V38.484C101.008 38.484 103.296 37.9989 105.037 36.9277L103.989 35.2243ZM98.2647 33.248C99.3202 33.248 100.31 33.0213 101.015 32.3631L99.6504 30.9009C99.4757 31.064 99.0866 31.248 98.2647 31.248V33.248ZM101.04 32.3391C101.638 31.741 102.012 30.9842 102.192 30.12L100.234 29.712C100.12 30.2558 99.9075 30.643 99.6256 30.9249L101.04 32.3391ZM102.193 30.1121C102.354 29.3083 102.433 28.4648 102.433 27.584H100.433C100.433 28.3458 100.365 29.0571 100.232 29.7199L102.193 30.1121ZM102.433 27.584V10.732H100.433V27.584H102.433ZM102.433 10.732C102.433 9.85161 102.354 9.01981 102.192 8.24004L100.234 8.64795C100.365 9.27619 100.433 9.96972 100.433 10.732H102.433ZM102.192 8.24004C102.011 7.37419 101.633 6.61815 101.015 6.04094L99.6504 7.50305C99.912 7.74718 100.121 8.1058 100.234 8.64795L102.192 8.24004ZM101.04 6.06489C100.336 5.36061 99.3356 5.112 98.2647 5.112V7.112C99.0711 7.112 99.4499 7.30339 99.6256 7.47911L101.04 6.06489ZM98.2647 5.112C97.2306 5.112 96.2713 5.37121 95.5776 6.06489L96.9918 7.47911C97.1781 7.29279 97.5389 7.112 98.2647 7.112V5.112ZM95.6024 6.04094C94.984 6.61815 94.6061 7.37419 94.4257 8.24004L96.3837 8.64795C96.4967 8.1058 96.7055 7.74718 96.967 7.50305L95.6024 6.04094ZM94.4257 8.24004C94.2633 9.01981 94.1847 9.85161 94.1847 10.732H96.1847C96.1847 9.96972 96.2528 9.27619 96.3837 8.64795L94.4257 8.24004ZM94.1847 10.732V27.584H96.1847V10.732H94.1847ZM94.1847 27.584C94.1847 28.4528 94.2468 29.2833 94.3733 30.074L96.3482 29.758C96.24 29.0821 96.1847 28.3579 96.1847 27.584H94.1847ZM94.3817 30.12C94.5618 30.9842 94.9355 31.741 95.5336 32.3391L96.9478 30.9249C96.6659 30.643 96.453 30.2558 96.3397 29.712L94.3817 30.12ZM95.5584 32.3631C96.2588 33.0168 97.2283 33.248 98.2647 33.248V31.248C97.4825 31.248 97.1026 31.0686 96.923 30.9009L95.5584 32.3631ZM113.672 37H112.672V38H113.672V37ZM113.672 1.36V0.359997H112.672V1.36H113.672ZM118.732 1.36L119.652 0.967657L119.393 0.359997H118.732V1.36ZM126.652 19.928L125.732 20.3203L127.652 19.928H126.652ZM126.652 1.36V0.359997H125.652V1.36H126.652ZM132.636 1.36H133.636V0.359997H132.636V1.36ZM132.636 37V38H133.636V37H132.636ZM127.796 37L126.868 37.3728L127.12 38H127.796V37ZM119.876 17.288L120.804 16.9152L118.876 17.288H119.876ZM119.876 37V38H120.876V37H119.876ZM114.672 37V1.36H112.672V37H114.672ZM113.672 2.36H118.732V0.359997H113.672V2.36ZM117.812 1.75234L125.732 20.3203L127.572 19.5357L119.652 0.967657L117.812 1.75234ZM127.652 19.928V1.36H125.652V19.928H127.652ZM126.652 2.36H132.636V0.359997H126.652V2.36ZM131.636 1.36V37H133.636V1.36H131.636ZM132.636 36H127.796V38H132.636V36ZM128.724 36.6272L120.804 16.9152L118.948 17.6608L126.868 37.3728L128.724 36.6272ZM118.876 17.288V37H120.876V17.288H118.876ZM119.876 36H113.672V38H119.876V36ZM138.036 37H137.036V38H138.036V37ZM138.036 1.36V0.359997H137.036V1.36H138.036ZM143.096 1.36L144.015 0.967657L143.756 0.359997H143.096V1.36ZM151.016 19.928L150.096 20.3203L152.016 19.928H151.016ZM151.016 1.36V0.359997H150.016V1.36H151.016ZM157 1.36H158V0.359997H157V1.36ZM157 37V38H158V37H157ZM152.16 37L151.232 37.3728L151.484 38H152.16V37ZM144.24 17.288L145.167 16.9152L143.24 17.288H144.24ZM144.24 37V38H145.24V37H144.24ZM139.036 37V1.36H137.036V37H139.036ZM138.036 2.36H143.096V0.359997H138.036V2.36ZM142.176 1.75234L150.096 20.3203L151.935 19.5357L144.015 0.967657L142.176 1.75234ZM152.016 19.928V1.36H150.016V19.928H152.016ZM151.016 2.36H157V0.359997H151.016V2.36ZM156 1.36V37H158V1.36H156ZM157 36H152.16V38H157V36ZM153.087 36.6272L145.167 16.9152L143.312 17.6608L151.232 37.3728L153.087 36.6272ZM143.24 17.288V37H145.24V17.288H143.24ZM144.24 36H138.036V38H144.24V36ZM162.399 37H161.399V38H162.399V37ZM162.399 1.36V0.359997H161.399V1.36H162.399ZM177.931 1.36H178.931V0.359997H177.931V1.36ZM177.931 6.376V7.376H178.931V6.376H177.931ZM169.659 6.376V5.376H168.659V6.376H169.659ZM169.659 15.836H168.659V16.836H169.659V15.836ZM176.039 15.836H177.039V14.836H176.039V15.836ZM176.039 20.896V21.896H177.039V20.896H176.039ZM169.659 20.896V19.896H168.659V20.896H169.659ZM169.659 32.072H168.659V33.072H169.659V32.072ZM178.019 32.072H179.019V31.072H178.019V32.072ZM178.019 37V38H179.019V37H178.019ZM163.399 37V1.36H161.399V37H163.399ZM162.399 2.36H177.931V0.359997H162.399V2.36ZM176.931 1.36V6.376H178.931V1.36H176.931ZM177.931 5.376H169.659V7.376H177.931V5.376ZM168.659 6.376V15.836H170.659V6.376H168.659ZM169.659 16.836H176.039V14.836H169.659V16.836ZM175.039 15.836V20.896H177.039V15.836H175.039ZM176.039 19.896H169.659V21.896H176.039V19.896ZM168.659 20.896V32.072H170.659V20.896H168.659ZM169.659 33.072H178.019V31.072H169.659V33.072ZM177.019 32.072V37H179.019V32.072H177.019ZM178.019 36H162.399V38H178.019V36ZM185.3 35.988L184.753 36.825L184.76 36.8297L185.3 35.988ZM182.088 31.852L181.142 32.1775L181.144 32.1824L182.088 31.852ZM182.088 6.508L183.032 6.83835L183.033 6.83351L182.088 6.508ZM185.3 2.372L184.771 1.52307L184.764 1.52767L185.3 2.372ZM197.576 2.196L197.066 3.05661L197.074 3.06103L197.576 2.196ZM200.656 5.804L199.72 6.15705L199.723 6.16473L199.726 6.17236L200.656 5.804ZM201.58 14.208V15.208H202.58V14.208H201.58ZM194.54 14.208H193.54V15.208H194.54V14.208ZM194.408 8.576L193.415 8.69515L193.416 8.70003L194.408 8.576ZM193.66 6.816L192.884 7.44659L192.905 7.47323L192.929 7.49831L193.66 6.816ZM189.524 6.816L188.794 6.13206V6.13206L189.524 6.816ZM188.688 8.664L189.675 8.82199L189.676 8.81605L188.688 8.664ZM188.732 29.96L187.75 30.1488L187.754 30.1712L187.759 30.1934L188.732 29.96ZM189.656 31.676L188.973 32.4071L188.999 32.4305L189.025 32.4521L189.656 31.676ZM193.616 31.588L192.863 30.9295L192.86 30.9331L193.616 31.588ZM194.364 29.74L193.375 29.5879L193.373 29.6066L193.37 29.6254L194.364 29.74ZM194.54 23.844V22.844H193.54V23.844H194.54ZM201.58 23.844H202.58V22.844H201.58V23.844ZM200.7 32.336L201.638 32.6833L201.64 32.6777L200.7 32.336ZM197.664 36.12L198.198 36.9651L198.205 36.9612L198.211 36.9573L197.664 36.12ZM191.592 36.484C189.065 36.484 187.178 36.0049 185.84 35.1463L184.76 36.8297C186.531 37.9658 188.839 38.484 191.592 38.484V36.484ZM185.847 35.151C184.511 34.2773 183.577 33.0789 183.032 31.5216L181.144 32.1824C181.831 34.1451 183.038 35.7041 184.753 36.825L185.847 35.151ZM183.033 31.5265C182.461 29.8636 182.164 27.9094 182.164 25.648H180.164C180.164 28.0799 180.483 30.2618 181.142 32.1775L183.033 31.5265ZM182.164 25.648V12.844H180.164V25.648H182.164ZM182.164 12.844C182.164 10.4585 182.463 8.46423 183.032 6.83835L181.144 6.17765C180.481 8.07177 180.164 10.3015 180.164 12.844H182.164ZM183.033 6.83351C183.579 5.24758 184.511 4.05676 185.836 3.21633L184.764 1.52767C183.038 2.62324 181.828 4.18975 181.142 6.18249L183.033 6.83351ZM185.828 3.22089C187.169 2.38608 189.061 1.92 191.592 1.92V-0.0800018C188.843 -0.0800018 186.54 0.42192 184.771 1.5231L185.828 3.22089ZM191.592 1.92C194.052 1.92 195.844 2.33317 197.066 3.05658L198.085 1.33542C196.433 0.357491 194.236 -0.0800018 191.592 -0.0800018V1.92ZM197.074 3.06103C198.346 3.79867 199.217 4.82266 199.72 6.15705L201.591 5.45094C200.922 3.676 199.739 2.29466 198.078 1.33097L197.074 3.06103ZM199.726 6.17236C200.286 7.5864 200.58 9.26094 200.58 11.216H202.58C202.58 9.0644 202.257 7.13093 201.585 5.43563L199.726 6.17236ZM200.58 11.216V14.208H202.58V11.216H200.58ZM201.58 13.208H194.54V15.208H201.58V13.208ZM195.54 14.208V10.864H193.54V14.208H195.54ZM195.54 10.864C195.54 10.0075 195.494 9.20292 195.4 8.45196L193.416 8.70003C193.498 9.35708 193.54 10.0778 193.54 10.864H195.54ZM195.401 8.45685C195.293 7.56151 194.977 6.76127 194.391 6.13368L192.929 7.49831C193.164 7.75073 193.346 8.12382 193.415 8.69514L195.401 8.45685ZM194.436 6.18541C193.775 5.37154 192.725 5.112 191.636 5.112V7.112C192.483 7.112 192.782 7.32179 192.884 7.44659L194.436 6.18541ZM191.636 5.112C190.53 5.112 189.501 5.37816 188.794 6.13206L190.253 7.49994C190.427 7.31517 190.805 7.112 191.636 7.112V5.112ZM188.794 6.13206C188.191 6.77581 187.841 7.59041 187.699 8.51194L189.676 8.81605C189.769 8.21226 189.977 7.79485 190.253 7.49994L188.794 6.13206ZM187.7 8.50601C187.573 9.30165 187.512 10.177 187.512 11.128H189.512C189.512 10.2603 189.568 9.49302 189.675 8.82199L187.7 8.50601ZM187.512 11.128V27.32H189.512V11.128H187.512ZM187.512 27.32C187.512 28.3638 187.588 29.3093 187.75 30.1488L189.714 29.7712C189.582 29.0853 189.512 28.2708 189.512 27.32H187.512ZM187.759 30.1934C187.97 31.0692 188.358 31.8323 188.973 32.4071L190.338 30.9449C190.074 30.6984 189.846 30.3175 189.704 29.7266L187.759 30.1934ZM189.025 32.4521C189.733 33.0272 190.647 33.248 191.636 33.248V31.248C190.923 31.248 190.517 31.0875 190.286 30.8999L189.025 32.4521ZM191.636 33.248C192.69 33.248 193.71 33.0062 194.372 32.2429L192.86 30.9331C192.759 31.0498 192.459 31.248 191.636 31.248V33.248ZM194.368 32.2465C194.941 31.5924 195.251 30.7718 195.357 29.8546L193.37 29.6254C193.3 30.2336 193.112 30.645 192.863 30.9295L194.368 32.2465ZM195.352 29.8921C195.478 29.0743 195.54 28.2165 195.54 27.32H193.54C193.54 28.1249 193.484 28.8804 193.375 29.5879L195.352 29.8921ZM195.54 27.32V23.844H193.54V27.32H195.54ZM194.54 24.844H201.58V22.844H194.54V24.844ZM200.58 23.844V26.792H202.58V23.844H200.58ZM200.58 26.792C200.58 28.7822 200.299 30.511 199.76 31.9943L201.64 32.6777C202.274 30.9343 202.58 28.9671 202.58 26.792H200.58ZM199.762 31.9887C199.251 33.3682 198.378 34.4592 197.117 35.2827L198.211 36.9573C199.824 35.9035 200.975 34.4718 201.638 32.6833L199.762 31.9887ZM197.129 35.2749C195.916 36.0425 194.107 36.484 191.592 36.484V38.484C194.298 38.484 196.537 38.0161 198.198 36.9651L197.129 35.2749ZM209.356 37H208.356V38H209.356V37ZM209.356 6.772H210.356V5.772H209.356V6.772ZM203.856 6.772H202.856V7.772H203.856V6.772ZM203.856 1.36V0.359997H202.856V1.36H203.856ZM222.072 1.36H223.072V0.359997H222.072V1.36ZM222.072 6.772V7.772H223.072V6.772H222.072ZM216.66 6.772V5.772H215.66V6.772H216.66ZM216.66 37V38H217.66V37H216.66ZM210.356 37V6.772H208.356V37H210.356ZM209.356 5.772H203.856V7.772H209.356V5.772ZM204.856 6.772V1.36H202.856V6.772H204.856ZM203.856 2.36H222.072V0.359997H203.856V2.36ZM221.072 1.36V6.772H223.072V1.36H221.072ZM222.072 5.772H216.66V7.772H222.072V5.772ZM215.66 6.772V37H217.66V6.772H215.66ZM216.66 36H209.356V38H216.66V36Z" fill="#FF3131"/>
<path d="M39.584 90.484C36.944 90.484 34.8467 89.9853 33.292 88.988C31.7667 87.9907 30.696 86.612 30.08 84.852C29.464 83.0627 29.156 80.9947 29.156 78.648V65.844C29.156 63.38 29.464 61.268 30.08 59.508C30.696 57.7187 31.7667 56.34 33.292 55.372C34.8467 54.404 36.944 53.92 39.584 53.92C42.136 53.92 44.1307 54.3453 45.568 55.196C47.0347 56.0467 48.0613 57.2493 48.648 58.804C49.264 60.3587 49.572 62.1627 49.572 64.216V67.208H42.532V63.864C42.532 63.0427 42.488 62.28 42.4 61.576C42.312 60.8427 42.0627 60.256 41.652 59.816C41.2707 59.3467 40.596 59.112 39.628 59.112C38.66 59.112 37.956 59.3467 37.516 59.816C37.076 60.2853 36.7973 60.9013 36.68 61.664C36.5627 62.3973 36.504 63.2187 36.504 64.128V80.32C36.504 81.3173 36.5773 82.1973 36.724 82.96C36.9 83.6933 37.208 84.2653 37.648 84.676C38.1173 85.0573 38.7773 85.248 39.628 85.248C40.5667 85.248 41.2267 85.028 41.608 84.588C42.0187 84.1187 42.268 83.5027 42.356 82.74C42.4733 81.9773 42.532 81.1707 42.532 80.32V76.844H49.572V79.792C49.572 81.8747 49.2787 83.7227 48.692 85.336C48.1053 86.92 47.0933 88.1813 45.656 89.12C44.2187 90.0293 42.1947 90.484 39.584 90.484ZM54.0923 90V54.36H61.3523V69.012H67.6443V54.36H74.9043V90H67.6443V74.204H61.3523V90H54.0923ZM78.6271 90L85.5351 54.36H93.5871L100.451 90H93.7191L92.4431 82.168H86.8111L85.4471 90H78.6271ZM87.4711 77.724H91.7391L89.5831 63.336L87.4711 77.724ZM104.063 90V54.36H113.303C115.708 54.36 117.762 54.6387 119.463 55.196C121.194 55.724 122.514 56.6773 123.423 58.056C124.362 59.4347 124.831 61.3413 124.831 63.776C124.831 65.2427 124.699 66.548 124.435 67.692C124.2 68.8067 123.76 69.7893 123.115 70.64C122.499 71.4613 121.619 72.1213 120.475 72.62L125.403 90H117.967L113.875 73.852H111.323V90H104.063ZM111.323 69.54H113.435C114.608 69.54 115.532 69.3493 116.207 68.968C116.882 68.5867 117.351 68.0147 117.615 67.252C117.908 66.46 118.055 65.492 118.055 64.348C118.055 62.7053 117.747 61.4587 117.131 60.608C116.544 59.728 115.43 59.288 113.787 59.288H111.323V69.54ZM138.565 90.528C136.16 90.528 134.253 90.0293 132.845 89.032C131.437 88.0053 130.425 86.568 129.809 84.72C129.223 82.8427 128.929 80.672 128.929 78.208V66.284C128.929 63.732 129.237 61.532 129.853 59.684C130.469 57.836 131.54 56.4133 133.065 55.416C134.62 54.4187 136.717 53.92 139.357 53.92C141.909 53.92 143.919 54.3453 145.385 55.196C146.881 56.0467 147.952 57.2493 148.597 58.804C149.243 60.3587 149.565 62.2067 149.565 64.348V66.416H142.481V63.908C142.481 62.9693 142.423 62.148 142.305 61.444C142.188 60.7107 141.909 60.1387 141.469 59.728C141.059 59.3173 140.384 59.112 139.445 59.112C138.477 59.112 137.773 59.3613 137.333 59.86C136.893 60.3587 136.615 61.004 136.497 61.796C136.38 62.5587 136.321 63.38 136.321 64.26V80.056C136.321 81.0533 136.409 81.948 136.585 82.74C136.761 83.532 137.084 84.148 137.553 84.588C138.052 85.028 138.756 85.248 139.665 85.248C140.575 85.248 141.279 85.0133 141.777 84.544C142.276 84.0747 142.613 83.444 142.789 82.652C142.995 81.8307 143.097 80.9067 143.097 79.88V76.096H139.621V71.696H149.653V90H144.901L144.461 86.788C143.992 87.8733 143.288 88.768 142.349 89.472C141.411 90.176 140.149 90.528 138.565 90.528ZM154.637 90V54.36H170.169V59.376H161.897V68.836H168.277V73.896H161.897V85.072H170.257V90H154.637ZM173.93 90V54.36H183.17C185.575 54.36 187.629 54.6387 189.33 55.196C191.061 55.724 192.381 56.6773 193.29 58.056C194.229 59.4347 194.698 61.3413 194.698 63.776C194.698 65.2427 194.566 66.548 194.302 67.692C194.067 68.8067 193.627 69.7893 192.982 70.64C192.366 71.4613 191.486 72.1213 190.342 72.62L195.27 90H187.834L183.742 73.852H181.19V90H173.93ZM181.19 69.54H183.302C184.475 69.54 185.399 69.3493 186.074 68.968C186.749 68.5867 187.218 68.0147 187.482 67.252C187.775 66.46 187.922 65.492 187.922 64.348C187.922 62.7053 187.614 61.4587 186.998 60.608C186.411 59.728 185.297 59.288 183.654 59.288H181.19V69.54Z" fill="white"/>
</svg>
