<svg width="46" height="52" viewBox="0 0 46 52" fill="none" xmlns="http://www.w3.org/2000/svg">
<g clip-path="url(#clip0_2_4609)">
<path d="M22.99 51.9735C17.874 51.9735 12.758 52.0485 7.64195 51.9493C5.66883 51.9041 3.78564 51.1164 2.36973 49.744C0.953811 48.3716 0.109733 46.5158 0.00658089 44.5484C-0.174635 40.1962 2.75132 36.7307 7.03861 36.166C7.54469 36.0998 8.3646 36.3446 8.43531 35.6233C8.47509 35.2373 7.93366 34.7233 7.55134 34.3681C1.82095 28.9703 -0.625455 22.3569 0.125927 14.5436C0.430899 11.3428 1.27289 8.32953 2.88836 5.51479C4.3425 2.97799 6.72924 1.98532 9.35466 1.32355C13.0541 0.399273 16.8265 0.081621 20.6254 2.24635e-06C25.8212 -0.112435 31.0151 0.29922 36.1281 1.2287C41.0563 2.1243 43.6883 5.12214 44.9237 9.68838C47.1801 18.0245 45.9955 25.6812 40.3116 32.4093C39.5977 33.2541 38.7182 33.9534 37.9557 34.7674C37.7348 35.0034 37.5138 35.3829 37.5491 35.6718C37.5668 35.8395 38.0662 36.0535 38.3668 36.0843C42.053 36.4638 44.8221 38.652 45.7038 41.9256C47.0784 47.0367 43.348 51.9007 37.9381 51.9581C33.5182 52.0066 29.085 51.9581 24.6563 51.9426H22.9878L22.99 51.9735ZM22.9546 50.9985H26.9325C30.6894 50.9985 34.4618 51.0603 38.2254 50.9765C41.0386 50.9147 43.1425 49.5205 44.3359 46.9815C45.5292 44.4425 45.2198 41.9719 43.4917 39.7417C42.1215 37.977 40.2563 37.152 38.0397 37.0792C37.7183 37.0902 37.4019 36.9977 37.1373 36.8153C36.8726 36.633 36.6738 36.3705 36.5701 36.0667C36.3204 35.4049 36.4994 34.8181 36.99 34.3218C37.1204 34.1917 37.2662 34.0769 37.4033 33.9512C44.6961 27.2408 46.4883 19.0503 43.8983 9.71043C42.7756 5.65596 40.3845 3.03975 36.0066 2.23239C31.1582 1.33853 26.2339 0.919626 21.3038 0.981636C17.1314 1.03237 12.9878 1.32796 8.95022 2.4618C6.87729 3.04416 4.99222 3.89123 3.82316 5.90523C1.06294 10.6634 0.464034 15.7921 1.29939 21.0952C2.12812 26.3364 4.74248 30.6468 8.75353 34.1277C9.10341 34.4377 9.34821 34.8486 9.45409 35.3034C9.67509 36.3777 8.74027 37.0682 7.59331 37.1167C3.76348 37.2601 0.91709 40.3991 0.985598 44.2528C1.0519 47.8749 4.07951 50.961 7.68835 50.9897C12.769 51.0272 17.8629 50.9985 22.9546 50.9985Z" fill="white"/>
<path d="M42.7248 17.9672C42.6474 28.9239 33.1601 37.7608 21.5977 37.0505C12.1921 36.4726 4.2894 28.8445 3.33028 19.4981C2.87896 15.3599 3.81134 11.1888 5.98222 7.63466C7.24631 5.50816 9.1159 4.48462 11.5734 4.48462C19.1579 4.48462 26.7454 4.48462 34.3358 4.48462C36.8242 4.48462 38.7137 5.4817 39.9999 7.6457C41.7789 10.6435 42.7933 13.8421 42.7248 17.9672ZM41.7612 17.1576C41.8496 14.1178 40.8772 11.034 39.1535 8.14864C38.0684 6.31994 36.4728 5.44199 34.3535 5.45302C32.1259 5.45302 29.8982 5.45302 27.6706 5.45302C22.3402 5.45302 17.012 5.45302 11.6816 5.45302C9.74353 5.45302 8.13247 6.09274 7.06507 7.7582C4.60982 11.5943 3.68606 15.7811 4.41313 20.2812C5.18631 25.136 7.83496 29.495 11.7908 32.423C15.7467 35.351 20.6947 36.6148 25.5734 35.9432C34.8153 34.6836 41.7192 26.8283 41.7612 17.151V17.1576Z" fill="white"/>
<path d="M37.1581 44.1138C37.1581 45.3424 36.6691 46.5207 35.7988 47.3895C34.9284 48.2582 33.748 48.7463 32.5172 48.7463C31.2863 48.7463 30.1059 48.2582 29.2356 47.3895C28.3652 46.5207 27.8763 45.3424 27.8763 44.1138C27.863 41.5131 30.0089 39.4373 32.6851 39.4594C35.1094 39.4925 37.1581 41.6123 37.1581 44.1138ZM36.1724 44.1138C36.1724 42.1285 34.5017 40.4211 32.5658 40.4366C31.831 40.419 31.1077 40.6206 30.4883 41.0156C29.8689 41.4105 29.3815 41.9809 29.0886 42.6538C28.7956 43.3266 28.7103 44.0714 28.8437 44.7929C28.977 45.5144 29.3229 46.1798 29.837 46.704C30.3512 47.2283 31.0104 47.5875 31.7302 47.7359C32.45 47.8843 33.1978 47.815 33.8779 47.5369C34.5581 47.2588 35.1397 46.7846 35.5484 46.1748C35.9571 45.5651 36.1744 44.8475 36.1724 44.1138Z" fill="white"/>
<path d="M18.073 44.1205C18.0778 45.3353 17.6025 46.503 16.7502 47.3703C15.898 48.2375 14.7375 48.7343 13.5205 48.7529C12.2776 48.7635 11.0812 48.281 10.1944 47.4116C9.30761 46.5421 8.80293 45.3568 8.79126 44.1161C8.79126 41.5528 10.8907 39.4836 13.536 39.4836C16.0134 39.4572 18.073 41.566 18.073 44.1205ZM9.76364 44.0653C9.75929 45.0426 10.1389 45.9827 10.8211 46.6838C11.5032 47.3849 12.4335 47.7912 13.4123 47.8154C15.388 47.8507 17.0741 46.1852 17.136 44.1403C17.1935 42.2609 15.4211 40.4498 13.5139 40.4366C12.5389 40.4328 11.6011 40.8102 10.9014 41.488C10.2017 42.1659 9.79569 43.0902 9.77028 44.0631L9.76364 44.0653Z" fill="white"/>
<path d="M18.6144 19.1606C18.6065 18.591 18.7113 18.0254 18.9228 17.4963C19.1342 16.9673 19.4482 16.485 19.8466 16.0772C20.2451 15.6694 20.7203 15.3441 21.2449 15.12C21.7695 14.8958 22.3333 14.7771 22.9039 14.7708C25.4012 14.7576 27.3658 16.6414 27.3835 19.0679C27.3896 19.6426 27.2822 20.213 27.0675 20.7463C26.8528 21.2796 26.535 21.7655 26.1321 22.1762C25.7293 22.5869 25.2493 22.9143 24.7197 23.1399C24.1901 23.3655 23.6212 23.4847 23.0454 23.4908C22.4696 23.4968 21.8982 23.3897 21.364 23.1753C20.8297 22.961 20.3429 22.6438 19.9315 22.2417C19.52 21.8396 19.1919 21.3605 18.966 20.8319C18.74 20.3032 18.6205 19.7353 18.6144 19.1606ZM19.5979 19.1606C19.5961 20.0555 19.9498 20.9147 20.5816 21.5498C21.2133 22.1849 22.0714 22.5442 22.968 22.5488C23.8783 22.5408 24.7491 22.1764 25.393 21.5341C26.0369 20.8918 26.4025 20.0229 26.4111 19.1142C26.4111 17.2635 24.8288 15.7282 22.9216 15.748C22.4777 15.7497 22.0386 15.8397 21.63 16.0128C21.2214 16.1859 20.8516 16.4387 20.542 16.7562C20.2325 17.0738 19.9896 17.4499 19.8275 17.8623C19.6653 18.2748 19.5873 18.7154 19.5979 19.1584V19.1606Z" fill="white"/>
<path d="M29.8874 8.24792C30.3052 8.2462 30.7191 8.32863 31.1043 8.49027C31.4895 8.65192 31.8381 8.88947 32.1292 9.1887C32.4204 9.48792 32.648 9.84269 32.7986 10.2318C32.9492 10.6208 33.0196 11.0362 33.0056 11.4531C33.0062 11.8703 32.9239 12.2835 32.7634 12.6688C32.6029 13.0541 32.3674 13.4037 32.0707 13.6975C31.7739 13.9913 31.4216 14.2234 31.0343 14.3804C30.6471 14.5373 30.2324 14.6161 29.8144 14.612C28.9707 14.5983 28.1655 14.2567 27.5701 13.6598C26.9746 13.063 26.6357 12.2579 26.6255 11.4156C26.6268 10.9925 26.7128 10.574 26.8783 10.1845C27.0438 9.79497 27.2855 9.44237 27.5893 9.14734C27.8931 8.85231 28.2529 8.62079 28.6475 8.46634C29.0421 8.31189 29.4636 8.23764 29.8874 8.24792ZM32.0354 11.4685C32.0483 11.1771 32.0017 10.8861 31.8984 10.6132C31.795 10.3403 31.6372 10.0913 31.4344 9.88122C31.2316 9.67116 30.9881 9.50448 30.7187 9.39131C30.4493 9.27814 30.1597 9.22085 29.8675 9.22293C29.2933 9.21891 28.7394 9.43415 28.3191 9.82458C27.8988 10.215 27.6439 10.7511 27.6067 11.323C27.6007 11.9248 27.8322 12.5049 28.251 12.9378C28.6699 13.3708 29.2426 13.6219 29.8454 13.637C30.9901 13.6634 32.0178 12.6443 32.0354 11.4685Z" fill="white"/>
<path d="M19.3149 11.3891C19.3268 11.8127 19.252 12.2342 19.0951 12.6279C18.9381 13.0216 18.7024 13.3792 18.4022 13.6788C18.102 13.9784 17.7438 14.2138 17.3494 14.3704C16.9549 14.5271 16.5326 14.6018 16.1083 14.5899C15.6844 14.5998 15.2627 14.5249 14.8683 14.3695C14.4738 14.2142 14.1146 13.9816 13.8116 13.6854C13.5087 13.3892 13.2683 13.0354 13.1045 12.645C12.9408 12.2545 12.857 11.8353 12.8582 11.412C12.8593 10.9888 12.9454 10.57 13.1114 10.1805C13.2773 9.79097 13.5197 9.43856 13.8243 9.14406C14.1289 8.84956 14.4895 8.61892 14.8848 8.46577C15.2801 8.31261 15.7021 8.24003 16.126 8.25231C16.5434 8.24315 16.9584 8.31768 17.3464 8.4715C17.7344 8.62531 18.0875 8.85527 18.3848 9.14776C18.6822 9.44026 18.9177 9.78934 19.0775 10.1743C19.2373 10.5593 19.318 10.9724 19.3149 11.3891ZM18.3404 11.4443C18.3453 11.1526 18.2923 10.8628 18.1843 10.5916C18.0763 10.3205 17.9155 10.0735 17.7112 9.86485C17.5069 9.6562 17.2631 9.49008 16.9941 9.3761C16.725 9.26213 16.436 9.20256 16.1437 9.20085C15.5548 9.202 14.9902 9.43544 14.5729 9.85028C14.1556 10.2651 13.9195 10.8278 13.916 11.4156C13.9374 11.9889 14.1717 12.5338 14.5732 12.9443C14.9747 13.3549 15.5147 13.6018 16.0884 13.6369C16.6774 13.6411 17.2443 13.4132 17.6659 13.0026C18.0875 12.5921 18.3299 12.0321 18.3404 11.4443Z" fill="white"/>
</g>
<defs>
<clipPath id="clip0_2_4609">
<rect width="46" height="52" fill="white"/>
</clipPath>
</defs>
</svg>
