<svg width="66" height="282" viewBox="0 0 66 282" fill="none" xmlns="http://www.w3.org/2000/svg">
<circle cx="32.8159" cy="32.8159" r="32.8159" fill="#FF3131"/>
<g clip-path="url(#clip0_2_9939)">
<path d="M32.0237 14.4246C37.2361 14.4829 41.7669 14.7342 46.1954 15.9125C46.9351 16.1136 47.6568 16.3891 48.3765 16.6585C50.259 17.3683 51.2734 18.9327 52.0633 20.6337C55.6177 28.3228 54.7958 38.9818 47.1977 45.7781C37.0797 54.8265 21.5148 52.2628 14.9813 40.3833C11.4429 33.9489 11.489 27.2873 14.3799 20.6056C15.3983 18.257 17.1445 16.743 19.6223 16.011C22.2614 15.2632 24.9724 14.8001 27.7095 14.6297C29.3554 14.507 31.0234 14.4708 32.0237 14.4246ZM53.212 30.1587C53.2149 27.2495 52.6631 24.3665 51.5861 21.6653C50.5276 19.0794 48.8015 17.4105 45.9949 16.747C41.7849 15.7416 37.5128 15.3555 33.1985 15.3395C29.1008 15.3173 25.0291 15.5405 21.0297 16.5459C18.6099 17.1491 16.521 18.1545 15.3943 20.5996C12.3872 27.1043 12.333 33.587 15.7231 39.9289C20.735 49.313 32.563 53.0892 41.9854 48.2695C49.2887 44.5174 52.9253 38.3424 53.212 30.1587Z" fill="white"/>
<path d="M15.228 30.2794C15.2426 26.8962 16.2715 23.5957 18.181 20.8068C19.1834 19.2907 20.715 18.5507 22.4852 18.5407C29.6302 18.5004 36.7745 18.5004 43.9181 18.5407C45.9228 18.5547 47.4805 19.536 48.5591 21.2753C55.0084 31.6608 48.8538 45.5651 36.6228 47.9096C26.6551 49.8319 17.327 43.3211 15.5227 33.3056C15.3523 32.3143 15.3223 31.2948 15.228 30.2794ZM33.1646 19.4214C29.6522 19.4214 26.1479 19.4113 22.6276 19.4214C20.9957 19.4214 19.6686 20.1171 18.7905 21.4884C17.1936 23.9208 16.2922 26.7457 16.1843 29.6561C15.8956 37.8056 21.3967 45.1388 29.3114 46.8882C36.1156 48.3842 41.8872 46.3875 46.41 41.0811C51.057 35.628 51.5361 27.7097 47.7371 21.6473C46.7969 20.1573 45.4377 19.4214 43.6955 19.4214C40.1812 19.4053 36.6709 19.4214 33.1646 19.4214Z" fill="white"/>
<path d="M23.9426 40.5341C23.9431 40.015 24.0461 39.5011 24.2457 39.0221C24.4453 38.5432 24.7375 38.1086 25.1054 37.7435C25.4733 37.3784 25.9097 37.09 26.3894 36.8949C26.869 36.6999 27.3825 36.6021 27.9 36.6071C28.6901 36.6032 29.4635 36.8355 30.1215 37.2742C30.7795 37.7129 31.2924 38.3383 31.5946 39.0705C31.8968 39.8028 31.9747 40.6087 31.8184 41.3856C31.6621 42.1624 31.2787 42.8749 30.717 43.4323C30.1553 43.9897 29.4408 44.3667 28.6646 44.5151C27.8885 44.6636 27.0858 44.5768 26.359 44.2659C25.6323 43.9549 25.0143 43.4339 24.5839 42.7693C24.1535 42.1047 23.9303 41.3265 23.9426 40.5341ZM27.902 37.4959C27.493 37.4961 27.0881 37.5773 26.7104 37.7348C26.3327 37.8923 25.9898 38.1229 25.7011 38.4136C25.4125 38.7042 25.1838 39.0491 25.0283 39.4285C24.8727 39.8079 24.7933 40.2144 24.7946 40.6246C24.7726 42.2231 26.198 43.6628 27.8298 43.691C28.6553 43.7018 29.4517 43.3857 30.0462 42.8112C30.6407 42.2368 30.9854 41.4503 31.0054 40.6226C31.0088 40.212 30.931 39.8049 30.7763 39.4248C30.6216 39.0446 30.3932 38.6991 30.1043 38.4082C29.8154 38.1173 29.4718 37.8869 29.0934 37.7303C28.715 37.5737 28.3093 37.494 27.9 37.4959H27.902Z" fill="white"/>
<path d="M37.1741 31.8879C37.1805 32.4148 37.0824 32.9376 36.8854 33.4261C36.6884 33.9145 36.3966 34.3588 36.0268 34.733C35.657 35.1072 35.2167 35.404 34.7316 35.6059C34.2464 35.8079 33.726 35.9111 33.2007 35.9094C32.1448 35.9121 31.131 35.4939 30.3825 34.7469C29.6339 33.9999 29.2119 32.9852 29.2092 31.9261C29.2066 30.867 29.6235 29.8503 30.3683 29.0995C31.1131 28.3487 32.1247 27.9254 33.1807 27.9228C33.7043 27.9133 34.2245 28.0092 34.7106 28.2046C35.1967 28.4 35.6389 28.6911 36.0111 29.0607C36.3833 29.4302 36.6779 29.8708 36.8777 30.3563C37.0774 30.8419 37.1782 31.3627 37.1741 31.8879ZM36.28 31.9664C36.2929 31.5566 36.2235 31.1484 36.0759 30.7661C35.9283 30.3839 35.7055 30.0353 35.4208 29.7411C35.1362 29.4469 34.7954 29.2132 34.4188 29.0539C34.0422 28.8945 33.6375 28.8128 33.2288 28.8135C32.8196 28.8071 32.4132 28.8824 32.0333 29.0351C31.6534 29.1877 31.3076 29.4146 31.016 29.7026C30.7243 29.9906 30.4928 30.3339 30.3347 30.7126C30.1767 31.0912 30.0953 31.4976 30.0953 31.908C30.1145 32.7235 30.4451 33.5004 31.0189 34.0785C31.5926 34.6566 32.3657 34.9917 33.1787 35.0146C33.9927 35.0163 34.7746 34.6963 35.3551 34.1239C35.9356 33.5514 36.2679 32.7727 36.28 31.9563V31.9664Z" fill="white"/>
<path d="M38.4451 36.6111C40.7406 36.6111 42.5027 38.3464 42.4947 40.6105C42.4938 41.3976 42.2611 42.167 41.8258 42.822C41.3904 43.477 40.7719 43.9884 40.0478 44.292C39.3237 44.5957 38.5263 44.678 37.7557 44.5287C36.9851 44.3794 36.2757 44.0051 35.7164 43.4528C35.1572 42.9005 34.7731 42.1948 34.6123 41.4243C34.4515 40.6538 34.5213 39.8528 34.8128 39.122C35.1043 38.3911 35.6045 37.7629 36.2508 37.3162C36.897 36.8694 37.6604 36.6242 38.4451 36.6111ZM41.6006 40.6326C41.6109 40.2225 41.5385 39.8145 41.3879 39.4331C41.2372 39.0517 41.0114 38.7048 40.7239 38.413C40.4364 38.1213 40.0931 37.8907 39.7146 37.7352C39.3361 37.5797 38.9303 37.5023 38.5213 37.5079C37.9115 37.5063 37.315 37.6859 36.8069 38.0239C36.2987 38.362 35.9018 38.8434 35.6661 39.4074C35.4304 39.9715 35.3665 40.5929 35.4824 41.1933C35.5984 41.7937 35.889 42.3463 36.3177 42.7812C36.7463 43.2162 37.2938 43.5141 37.891 43.6374C38.4882 43.7607 39.1085 43.7038 39.6736 43.474C40.2386 43.2442 40.7232 42.8517 41.0661 42.346C41.4091 41.8403 41.5951 41.2441 41.6006 40.6326Z" fill="white"/>
<path d="M21.8238 27.9045C22.8697 27.9141 23.8693 28.3383 24.6044 29.0847C25.3395 29.831 25.7503 30.8387 25.7471 31.8878C25.7471 34.0996 23.9267 35.9334 21.7616 35.9093C20.703 35.8935 19.6929 35.4612 18.9489 34.7056C18.205 33.9501 17.7867 32.9316 17.7842 31.8697C17.7857 31.3421 17.8918 30.8201 18.0964 30.334C18.3011 29.848 18.6001 29.4076 18.976 29.0386C19.352 28.6695 19.7974 28.3792 20.2863 28.1845C20.7752 27.9898 21.2978 27.8946 21.8238 27.9045ZM21.8418 28.8033C21.4329 28.7926 21.0259 28.8636 20.6446 29.0123C20.2634 29.1609 19.9154 29.3841 19.621 29.6689C19.3265 29.9537 19.0916 30.2945 18.9297 30.6713C18.7679 31.0481 18.6824 31.4534 18.6783 31.8637C18.6815 32.6793 18.9996 33.4619 19.566 34.0472C20.1323 34.6325 20.9028 34.9749 21.7155 35.0024C22.5301 35.0155 23.317 34.7063 23.906 34.1419C24.4951 33.5774 24.8388 32.8031 24.863 31.9863C24.8794 31.5768 24.8136 31.1681 24.6695 30.7845C24.5254 30.4009 24.3059 30.0503 24.0241 29.7534C23.7423 29.4565 23.404 29.2195 23.0291 29.0562C22.6542 28.893 22.2505 28.807 21.8418 28.8033Z" fill="white"/>
<path d="M40.6884 31.888C40.6746 31.36 40.7661 30.8347 40.9575 30.3427C41.1489 29.8507 41.4363 29.402 41.8029 29.023C42.1696 28.6439 42.608 28.3422 43.0925 28.1354C43.577 27.9286 44.0978 27.821 44.6243 27.8189C45.1509 27.8167 45.6725 27.9201 46.1587 28.1229C46.6448 28.3258 47.0857 28.6239 47.4554 29C47.8251 29.376 48.1162 29.8223 48.3115 30.3127C48.5069 30.8031 48.6026 31.3278 48.5931 31.8558C48.6069 32.3837 48.5154 32.9091 48.324 33.4011C48.1326 33.893 47.8452 34.3417 47.4785 34.7208C47.1119 35.0998 46.6735 35.4016 46.189 35.6083C45.7045 35.8151 45.1837 35.9227 44.6571 35.9249C44.1306 35.927 43.6089 35.8236 43.1228 35.6208C42.6366 35.418 42.1958 35.1198 41.8261 34.7438C41.4564 34.3677 41.1653 33.9214 40.9699 33.431C40.7746 32.9406 40.6788 32.416 40.6884 31.888ZM44.6979 28.7974C43.8721 28.7802 43.0732 29.0924 42.4767 29.6654C41.8801 30.2384 41.5347 31.0255 41.5163 31.8538C41.4782 33.4945 42.9016 34.9684 44.5575 35.0066C46.2135 35.0448 47.707 33.6333 47.723 31.9905C47.7471 30.221 46.438 28.8356 44.7039 28.7974H44.6979Z" fill="white"/>
<path d="M24.1171 24.8683C24.1091 24.4885 24.1769 24.1109 24.3166 23.7578C24.4563 23.4047 24.665 23.0832 24.9305 22.8123C25.1959 22.5414 25.5128 22.3264 25.8623 22.1802C26.2119 22.0339 26.5871 21.9593 26.9659 21.9608C27.3507 21.9552 27.7327 22.0264 28.0898 22.1704C28.4469 22.3143 28.7719 22.5281 29.0458 22.7993C29.3197 23.0704 29.537 23.3936 29.6852 23.7498C29.8334 24.1061 29.9094 24.4883 29.9088 24.8743C29.8912 25.6417 29.5773 26.3723 29.0331 26.9121C28.489 27.4518 27.7572 27.7586 26.9919 27.7678C26.6127 27.7691 26.2369 27.6949 25.8865 27.5495C25.536 27.4041 25.2179 27.1903 24.9504 26.9206C24.683 26.6508 24.4716 26.3305 24.3286 25.9782C24.1855 25.626 24.1136 25.2487 24.1171 24.8683ZM29.0147 24.8864C29.0187 24.363 28.819 23.8587 28.4582 23.4806C28.0973 23.1025 27.6036 22.8804 27.0821 22.8616C26.8173 22.8447 26.5518 22.8818 26.3017 22.9708C26.0516 23.0597 25.8221 23.1986 25.627 23.379C25.4319 23.5594 25.2754 23.7777 25.1668 24.0205C25.0582 24.2634 24.9998 24.5258 24.9952 24.7919C24.9784 25.3294 25.1747 25.8517 25.541 26.2444C25.9074 26.6371 26.4139 26.8682 26.9498 26.8871C27.4837 26.8815 27.9952 26.671 28.3792 26.2989C28.7633 25.9268 28.9907 25.4214 29.0147 24.8864Z" fill="white"/>
<path d="M39.3933 21.9649C39.7721 21.9577 40.1486 22.0254 40.5012 22.1643C40.8538 22.3031 41.1757 22.5103 41.4485 22.7739C41.7213 23.0376 41.9395 23.3526 42.0908 23.701C42.2421 24.0493 42.3235 24.4241 42.3303 24.804C42.3503 26.4126 40.9831 27.8001 39.4254 27.7759C38.6611 27.766 37.9311 27.4564 37.3915 26.9133C36.852 26.3703 36.5458 25.637 36.5386 24.8704C36.5316 24.4905 36.6004 24.113 36.7409 23.7601C36.8814 23.4072 37.0907 23.086 37.3566 22.8154C37.6225 22.5447 37.9397 22.3301 38.2894 22.184C38.6392 22.038 39.0145 21.9635 39.3933 21.9649ZM41.4402 24.8845C41.4426 24.6189 41.3925 24.3555 41.2928 24.1094C41.1931 23.8634 41.0458 23.6396 40.8594 23.451C40.673 23.2623 40.4512 23.1126 40.2068 23.0104C39.9624 22.9082 39.7002 22.8556 39.4354 22.8556C39.1772 22.8506 38.9204 22.8966 38.6799 22.9911C38.4393 23.0855 38.2197 23.2266 38.0335 23.4063C37.8474 23.5859 37.6983 23.8005 37.5949 24.038C37.4914 24.2754 37.4356 24.5309 37.4307 24.79C37.415 25.326 37.6108 25.8466 37.9757 26.2386C38.3406 26.6306 38.845 26.8622 39.3793 26.8832C39.9137 26.8814 40.4267 26.6724 40.8108 26.2999C41.195 25.9273 41.4205 25.4201 41.4402 24.8845Z" fill="white"/>
</g>
<circle cx="34.6189" cy="271.182" r="10.8184" fill="#FF3131"/>
<line x1="35.1189" y1="64.9104" x2="35.1189" y2="276.951" stroke="#FF1818"/>
<defs>
<clipPath id="clip0_2_9939">
<rect width="41.8312" height="36.7826" fill="white" transform="translate(12.261 14.4246)"/>
</clipPath>
</defs>
</svg>
