<svg width="58" height="51" viewBox="0 0 58 51" fill="none" xmlns="http://www.w3.org/2000/svg">
<g clip-path="url(#clip0_165_24849)">
<path d="M27.4017 0C34.6287 0.0808506 40.9107 0.429343 47.0509 2.06308C48.0766 2.34188 49.0773 2.72383 50.0752 3.09742C52.6853 4.08156 54.0918 6.25059 55.187 8.60919C60.1153 19.2703 58.9756 34.0493 48.4408 43.4725C34.4119 56.0183 12.8308 52.4637 3.77192 35.9925C-1.13415 27.071 -1.07022 17.8345 2.93802 8.57017C4.35008 5.31384 6.77116 3.21451 10.2068 2.1997C13.8659 1.16278 17.6249 0.520696 21.4199 0.284376C23.7019 0.114311 26.0146 0.0641229 27.4017 0ZM56.7797 21.8157C56.7837 17.782 56.0186 13.7848 54.5254 10.0394C53.0578 6.45411 50.6645 4.14011 46.773 3.22009C40.9357 1.82611 35.0123 1.29083 29.0305 1.26852C23.3489 1.23786 17.7035 1.54732 12.1581 2.94129C8.80306 3.77768 5.90668 5.17165 4.34452 8.5618C0.17506 17.5808 0.100014 26.5692 4.80039 35.3624C11.7495 48.3737 28.1494 53.6095 41.2137 46.9268C51.3399 41.7245 56.3822 33.1627 56.7797 21.8157Z" fill="#23DA26"/>
<path d="M4.11389 21.9829C4.13412 17.2921 5.56073 12.7158 8.20831 8.84889C9.59813 6.74677 11.7218 5.7208 14.1762 5.70686C24.0828 5.6511 33.9886 5.6511 43.8933 5.70686C46.673 5.72637 48.8328 7.0869 50.3282 9.49847C59.2703 23.8982 50.7368 43.1769 33.7782 46.4277C19.9578 49.093 7.02418 40.0656 4.5225 26.1788C4.28623 24.8043 4.24453 23.3908 4.11389 21.9829ZM28.9833 6.92798C24.1134 6.92798 19.2546 6.91404 14.3735 6.92798C12.1109 6.92798 10.2708 7.89261 9.05331 9.794C6.83916 13.1665 5.58934 17.0834 5.43978 21.1187C5.03951 32.4182 12.6669 42.5859 23.6409 45.0114C33.075 47.0856 41.0776 44.3172 47.3484 36.9598C53.7916 29.3989 54.456 18.4199 49.1886 10.0142C47.8849 7.94837 46.0003 6.92798 43.5848 6.92798C38.7121 6.90568 33.8449 6.92798 28.9833 6.92798Z" fill="#23DA26"/>
<path d="M16.197 36.2015C16.1977 35.4817 16.3405 34.7692 16.6172 34.1051C16.8939 33.441 17.2991 32.8384 17.8092 32.3322C18.3193 31.826 18.9244 31.4261 19.5895 31.1557C20.2545 30.8852 20.9664 30.7496 21.684 30.7566C22.7795 30.7512 23.8518 31.0732 24.7642 31.6815C25.6765 32.2898 26.3875 33.1569 26.8066 34.1722C27.2256 35.1875 27.3336 36.3049 27.1169 37.382C26.9002 38.4591 26.3686 39.4471 25.5898 40.2199C24.811 40.9927 23.8203 41.5154 22.7442 41.7212C21.668 41.9271 20.5551 41.8067 19.5474 41.3756C18.5397 40.9445 17.6828 40.2221 17.0861 39.3006C16.4894 38.3791 16.1799 37.3002 16.197 36.2015ZM21.6868 31.9889C21.1197 31.9893 20.5582 32.1018 20.0346 32.3202C19.5109 32.5385 19.0354 32.8583 18.6351 33.2613C18.2349 33.6643 17.9179 34.1425 17.7022 34.6685C17.4865 35.1946 17.3765 35.7582 17.3783 36.3269C17.3477 38.5434 19.3241 40.5395 21.5867 40.5786C22.7312 40.5936 23.8354 40.1553 24.6598 39.3588C25.4841 38.5623 25.9619 37.4718 25.9896 36.3242C25.9944 35.7549 25.8865 35.1904 25.672 34.6633C25.4575 34.1363 25.1408 33.6572 24.7402 33.2539C24.3397 32.8506 23.8633 32.5311 23.3386 32.3139C22.814 32.0968 22.2515 31.9863 21.684 31.9889H21.6868Z" fill="#23DA26"/>
<path d="M34.5426 24.2136C34.5514 24.944 34.4153 25.669 34.1422 26.3462C33.8691 27.0234 33.4644 27.6394 32.9517 28.1583C32.4391 28.6772 31.8286 29.0886 31.1559 29.3686C30.4832 29.6487 29.7616 29.7917 29.0333 29.7895C27.5692 29.7931 26.1636 29.2134 25.1257 28.1776C24.0879 27.1419 23.5027 25.735 23.499 24.2665C23.4954 22.7981 24.0734 21.3883 25.1061 20.3473C26.1388 19.3063 27.5414 18.7194 29.0055 18.7157C29.7315 18.7027 30.4528 18.8355 31.1268 19.1065C31.8009 19.3775 32.4139 19.7811 32.93 20.2935C33.446 20.8058 33.8546 21.4167 34.1315 22.0899C34.4085 22.7632 34.5482 23.4853 34.5426 24.2136ZM33.3028 24.3223C33.3207 23.7542 33.2245 23.1882 33.0198 22.6582C32.8152 22.1281 32.5063 21.6448 32.1116 21.2369C31.7169 20.829 31.2444 20.505 30.7222 20.284C30.2001 20.0631 29.6389 19.9497 29.0722 19.9508C28.5049 19.9419 27.9414 20.0463 27.4146 20.258C26.8879 20.4696 26.4084 20.7843 26.0041 21.1836C25.5998 21.5829 25.2787 22.0589 25.0595 22.5839C24.8404 23.1088 24.7276 23.6723 24.7276 24.2414C24.7543 25.3721 25.2126 26.4493 26.0081 27.2508C26.8036 28.0524 27.8756 28.517 29.0027 28.5488C30.1314 28.5511 31.2156 28.1074 32.0205 27.3137C32.8253 26.52 33.286 25.4403 33.3028 24.3083V24.3223Z" fill="#23DA26"/>
<path d="M36.305 30.7622C39.4876 30.7622 41.9309 33.1682 41.9198 36.3074C41.9186 37.3989 41.5959 38.4656 40.9923 39.3738C40.3887 40.282 39.5311 40.9911 38.5271 41.4121C37.5231 41.8331 36.4175 41.9472 35.349 41.7402C34.2806 41.5332 33.2969 41.0142 32.5215 40.2484C31.7461 39.4826 31.2136 38.5042 30.9907 37.4358C30.7678 36.3675 30.8644 35.257 31.2686 34.2436C31.6728 33.2302 32.3664 32.3592 33.2624 31.7398C34.1584 31.1204 35.2169 30.7803 36.305 30.7622ZM40.6801 36.3381C40.6944 35.7695 40.5941 35.2039 40.3852 34.6751C40.1763 34.1462 39.8632 33.6652 39.4645 33.2606C39.0658 32.8561 38.5899 32.5364 38.0651 32.3208C37.5404 32.1052 36.9776 31.998 36.4106 32.0056C35.5651 32.0035 34.738 32.2524 34.0335 32.7212C33.3289 33.1899 32.7785 33.8574 32.4517 34.6394C32.1249 35.4215 32.0363 36.2831 32.1971 37.1156C32.3579 37.9481 32.7609 38.7142 33.3552 39.3172C33.9495 39.9203 34.7086 40.3334 35.5367 40.5044C36.3647 40.6753 37.2247 40.5965 38.0082 40.2778C38.7917 39.9592 39.4635 39.415 39.939 38.7138C40.4146 38.0127 40.6724 37.186 40.6801 36.3381Z" fill="#23DA26"/>
<path d="M13.2589 18.6904C14.7091 18.7037 16.0952 19.2919 17.1144 20.3267C18.1336 21.3615 18.7032 22.7588 18.6987 24.2133C18.6987 27.2801 16.1748 29.8227 13.1728 29.7893C11.7049 29.7673 10.3044 29.168 9.27291 28.1204C8.2414 27.0727 7.66144 25.6606 7.65796 24.1882C7.66004 23.4567 7.80723 22.7329 8.09093 22.059C8.37463 21.3851 8.78919 20.7745 9.31046 20.2628C9.83172 19.7511 10.4493 19.3486 11.1272 19.0787C11.805 18.8087 12.5297 18.6767 13.2589 18.6904ZM13.284 19.9366C12.717 19.9218 12.1527 20.0203 11.6241 20.2263C11.0954 20.4324 10.6129 20.7419 10.2047 21.1368C9.79647 21.5317 9.47068 22.0042 9.24629 22.5266C9.02189 23.0491 8.90338 23.6111 8.89768 24.1799C8.90207 25.3108 9.34322 26.3959 10.1285 27.2074C10.9137 28.019 11.982 28.4937 13.1088 28.5319C14.2382 28.55 15.3293 28.1213 16.1461 27.3387C16.9628 26.5561 17.4394 25.4824 17.4729 24.35C17.4956 23.7821 17.4044 23.2154 17.2046 22.6836C17.0048 22.1518 16.7005 21.6656 16.3098 21.254C15.9191 20.8423 15.4499 20.5136 14.9302 20.2873C14.4104 20.061 13.8506 19.9418 13.284 19.9366Z" fill="#23DA26"/>
<path d="M39.4153 24.2132C39.3962 23.4812 39.523 22.7528 39.7884 22.0706C40.0538 21.3885 40.4524 20.7664 40.9607 20.2409C41.4691 19.7153 42.077 19.2969 42.7487 19.0102C43.4205 18.7235 44.1426 18.5743 44.8727 18.5713C45.6027 18.5684 46.326 18.7117 47 18.9929C47.6741 19.2741 48.2854 19.6876 48.798 20.209C49.3106 20.7303 49.7141 21.3492 49.985 22.0291C50.2559 22.7091 50.3887 23.4365 50.3755 24.1686C50.3946 24.9006 50.2677 25.629 50.0023 26.3112C49.737 26.9933 49.3384 27.6154 48.8301 28.141C48.3217 28.6665 47.7138 29.0849 47.042 29.3716C46.3703 29.6583 45.6482 29.8075 44.9181 29.8105C44.1881 29.8134 43.4648 29.6701 42.7907 29.3889C42.1167 29.1077 41.5054 28.6942 40.9928 28.1729C40.4802 27.6515 40.0766 27.0326 39.8057 26.3527C39.5349 25.6727 39.4021 24.9453 39.4153 24.2132ZM44.9746 19.9281C43.8296 19.9042 42.7219 20.337 41.8948 21.1316C41.0677 21.9261 40.5888 23.0174 40.5633 24.1658C40.5105 26.4408 42.4841 28.4844 44.78 28.5373C47.076 28.5903 49.1468 26.6332 49.1691 24.3554C49.2024 21.902 47.3873 19.9811 44.9829 19.9281H44.9746Z" fill="#23DA26"/>
<path d="M16.4388 14.4805C16.4276 13.9539 16.5217 13.4304 16.7154 12.9409C16.909 12.4513 17.1984 12.0055 17.5665 11.6298C17.9346 11.2542 18.3739 10.9562 18.8586 10.7534C19.3433 10.5506 19.8635 10.4472 20.3886 10.4492C20.9222 10.4414 21.4519 10.5402 21.9471 10.7398C22.4422 10.9394 22.8927 11.2358 23.2725 11.6118C23.6523 11.9878 23.9537 12.4358 24.1591 12.9297C24.3645 13.4237 24.4699 13.9537 24.4691 14.4889C24.4447 15.5529 24.0094 16.5659 23.2549 17.3142C22.5005 18.0626 21.4858 18.488 20.4248 18.5008C19.8989 18.5026 19.3779 18.3998 18.892 18.1981C18.4061 17.9965 17.965 17.7 17.5942 17.3261C17.2234 16.9521 16.9303 16.508 16.732 16.0195C16.5336 15.531 16.434 15.0079 16.4388 14.4805ZM23.2294 14.5056C23.2349 13.7799 22.9581 13.0806 22.4578 12.5564C21.9574 12.0322 21.2729 11.7243 20.5498 11.6982C20.1826 11.6747 19.8145 11.7262 19.4678 11.8495C19.121 11.9729 18.8027 12.1654 18.5323 12.4156C18.2618 12.6658 18.0447 12.9684 17.8941 13.3051C17.7436 13.6418 17.6626 14.0056 17.6562 14.3746C17.633 15.1199 17.9051 15.8441 18.4131 16.3886C18.921 16.933 19.6234 17.2535 20.3664 17.2796C21.1067 17.2718 21.8159 16.98 22.3483 16.4641C22.8808 15.9482 23.1961 15.2474 23.2294 14.5056Z" fill="#23DA26"/>
<path d="M37.6196 10.4548C38.1448 10.4448 38.6668 10.5388 39.1557 10.7313C39.6447 10.9237 40.091 11.211 40.4692 11.5766C40.8474 11.9422 41.15 12.379 41.3598 12.862C41.5696 13.3449 41.6824 13.8647 41.6918 14.3914C41.7196 16.6218 39.8239 18.5455 37.6641 18.512C36.6044 18.4982 35.5922 18.0689 34.8441 17.316C34.096 16.563 33.6715 15.5463 33.6614 14.4834C33.6518 13.9566 33.7472 13.4333 33.9419 12.944C34.1367 12.4547 34.427 12.0093 34.7957 11.6341C35.1644 11.2588 35.6041 10.9612 36.089 10.7587C36.574 10.5562 37.0944 10.4529 37.6196 10.4548ZM40.4577 14.5029C40.461 14.1347 40.3915 13.7695 40.2533 13.4283C40.1151 13.0872 39.9108 12.7769 39.6524 12.5153C39.394 12.2538 39.0864 12.0462 38.7475 11.9045C38.4087 11.7628 38.0452 11.6899 37.678 11.6899C37.3199 11.6829 36.9639 11.7467 36.6304 11.8777C36.2969 12.0087 35.9924 12.2043 35.7342 12.4533C35.4761 12.7024 35.2694 13 35.126 13.3292C34.9826 13.6584 34.9052 14.0127 34.8984 14.3719C34.8766 15.1151 35.1481 15.837 35.6541 16.3804C36.16 16.9239 36.8594 17.2451 37.6002 17.2741C38.3411 17.2718 39.0524 16.982 39.585 16.4654C40.1177 15.9488 40.4304 15.2456 40.4577 14.5029Z" fill="#23DA26"/>
</g>
<defs>
<clipPath id="clip0_165_24849">
<rect width="58" height="51" fill="white"/>
</clipPath>
</defs>
</svg>
