<svg width="58" height="51" viewBox="0 0 58 51" fill="none" xmlns="http://www.w3.org/2000/svg">
<g clip-path="url(#clip0_2_4585)">
<path d="M27.4017 0C34.6287 0.0808506 40.9107 0.429343 47.0509 2.06308C48.0766 2.34188 49.0773 2.72383 50.0752 3.09742C52.6853 4.08156 54.0918 6.25059 55.187 8.60919C60.1153 19.2703 58.9756 34.0493 48.4408 43.4725C34.4119 56.0183 12.8308 52.4637 3.77192 35.9925C-1.13415 27.071 -1.07022 17.8345 2.93802 8.57017C4.35008 5.31384 6.77116 3.21451 10.2068 2.1997C13.8659 1.16278 17.6249 0.520696 21.4199 0.284376C23.7019 0.114311 26.0146 0.0641229 27.4017 0ZM56.7797 21.8157C56.7837 17.782 56.0186 13.7848 54.5254 10.0394C53.0578 6.45411 50.6645 4.14011 46.773 3.22009C40.9357 1.82611 35.0123 1.29083 29.0305 1.26852C23.3489 1.23786 17.7035 1.54732 12.1581 2.94129C8.80306 3.77768 5.90668 5.17165 4.34452 8.5618C0.17506 17.5808 0.100014 26.5692 4.80039 35.3624C11.7495 48.3737 28.1494 53.6095 41.2137 46.9268C51.3399 41.7245 56.3822 33.1627 56.7797 21.8157Z" fill="white"/>
<path d="M4.11389 21.983C4.13412 17.2922 5.56073 12.7159 8.20831 8.84898C9.59813 6.74686 11.7218 5.72089 14.1762 5.70695C24.0828 5.65119 33.9886 5.65119 43.8933 5.70695C46.673 5.72647 48.8328 7.08699 50.3282 9.49857C59.2703 23.8983 50.7368 43.177 33.7782 46.4278C19.9578 49.093 7.02418 40.0657 4.5225 26.1789C4.28623 24.8044 4.24453 23.3909 4.11389 21.983ZM28.9833 6.92807C24.1134 6.92807 19.2546 6.91413 14.3735 6.92807C12.1109 6.92807 10.2708 7.8927 9.05331 9.79409C6.83916 13.1666 5.58934 17.0835 5.43978 21.1188C5.03951 32.4183 12.6669 42.586 23.6409 45.0115C33.075 47.0857 41.0776 44.3173 47.3484 36.9599C53.7916 29.399 54.456 18.42 49.1886 10.0143C47.8849 7.94847 46.0003 6.92807 43.5848 6.92807C38.7121 6.90577 33.8449 6.92807 28.9833 6.92807Z" fill="white"/>
<path d="M16.197 36.2016C16.1977 35.4818 16.3405 34.7693 16.6172 34.1052C16.8939 33.4411 17.2991 32.8385 17.8092 32.3323C18.3193 31.8261 18.9244 31.4262 19.5895 31.1558C20.2545 30.8853 20.9664 30.7497 21.684 30.7567C22.7795 30.7513 23.8518 31.0733 24.7642 31.6816C25.6765 32.2899 26.3875 33.157 26.8066 34.1723C27.2256 35.1876 27.3336 36.305 27.1169 37.3821C26.9002 38.4592 26.3686 39.4472 25.5898 40.22C24.811 40.9928 23.8203 41.5155 22.7442 41.7213C21.668 41.9272 20.5551 41.8068 19.5474 41.3757C18.5397 40.9446 17.6828 40.2222 17.0861 39.3007C16.4894 38.3792 16.1799 37.3003 16.197 36.2016ZM21.6868 31.989C21.1197 31.9893 20.5582 32.1019 20.0346 32.3203C19.5109 32.5386 19.0354 32.8584 18.6351 33.2614C18.2349 33.6644 17.9179 34.1426 17.7022 34.6686C17.4865 35.1947 17.3765 35.7582 17.3783 36.327C17.3477 38.5435 19.3241 40.5396 21.5867 40.5787C22.7312 40.5937 23.8354 40.1554 24.6598 39.3589C25.4841 38.5624 25.9619 37.4719 25.9896 36.3242C25.9944 35.755 25.8865 35.1905 25.672 34.6634C25.4575 34.1364 25.1408 33.6573 24.7402 33.254C24.3397 32.8507 23.8633 32.5312 23.3386 32.314C22.814 32.0969 22.2515 31.9864 21.684 31.989H21.6868Z" fill="white"/>
<path d="M34.5426 24.2134C34.5514 24.9438 34.4153 25.6688 34.1422 26.346C33.8691 27.0232 33.4644 27.6392 32.9517 28.1581C32.4391 28.677 31.8286 29.0884 31.1559 29.3685C30.4832 29.6485 29.7616 29.7915 29.0333 29.7893C27.5692 29.793 26.1636 29.2132 25.1257 28.1774C24.0879 27.1417 23.5027 25.7348 23.499 24.2663C23.4954 22.7979 24.0734 21.3881 25.1061 20.3471C26.1388 19.3061 27.5414 18.7192 29.0055 18.7155C29.7315 18.7025 30.4528 18.8354 31.1268 19.1063C31.8009 19.3773 32.4139 19.7809 32.93 20.2933C33.446 20.8057 33.8546 21.4165 34.1315 22.0898C34.4085 22.763 34.5482 23.4851 34.5426 24.2134ZM33.3028 24.3221C33.3207 23.754 33.2245 23.188 33.0198 22.658C32.8152 22.1279 32.5063 21.6446 32.1116 21.2367C31.7169 20.8288 31.2444 20.5048 30.7222 20.2838C30.2001 20.0629 29.6389 19.9496 29.0722 19.9506C28.5049 19.9417 27.9414 20.0461 27.4146 20.2578C26.8879 20.4694 26.4084 20.7841 26.0041 21.1834C25.5998 21.5827 25.2787 22.0587 25.0595 22.5837C24.8404 23.1087 24.7276 23.6721 24.7276 24.2412C24.7543 25.3719 25.2126 26.4491 26.0081 27.2507C26.8036 28.0522 27.8756 28.5168 29.0027 28.5486C30.1314 28.551 31.2156 28.1072 32.0205 27.3135C32.8253 26.5198 33.286 25.4401 33.3028 24.3082V24.3221Z" fill="white"/>
<path d="M36.305 30.7623C39.4876 30.7623 41.9309 33.1683 41.9198 36.3075C41.9186 37.399 41.5959 38.4657 40.9923 39.3739C40.3887 40.282 39.5311 40.9911 38.5271 41.4121C37.5231 41.8331 36.4175 41.9473 35.349 41.7402C34.2806 41.5332 33.2969 41.0142 32.5215 40.2485C31.7461 39.4827 31.2136 38.5042 30.9907 37.4359C30.7678 36.3676 30.8644 35.257 31.2686 34.2437C31.6728 33.2303 32.3664 32.3592 33.2624 31.7399C34.1584 31.1205 35.2169 30.7804 36.305 30.7623ZM40.6801 36.3382C40.6944 35.7696 40.5941 35.2039 40.3852 34.6751C40.1763 34.1463 39.8632 33.6652 39.4645 33.2607C39.0658 32.8562 38.5899 32.5365 38.0651 32.3209C37.5404 32.1052 36.9776 31.998 36.4106 32.0057C35.5651 32.0035 34.738 32.2525 34.0335 32.7212C33.3289 33.19 32.7785 33.8574 32.4517 34.6395C32.1249 35.4215 32.0363 36.2831 32.1971 37.1156C32.3579 37.9481 32.7609 38.7142 33.3552 39.3173C33.9495 39.9204 34.7086 40.3335 35.5367 40.5044C36.3647 40.6754 37.2247 40.5965 38.0082 40.2779C38.7917 39.9592 39.4635 39.415 39.939 38.7139C40.4146 38.0128 40.6724 37.1861 40.6801 36.3382Z" fill="white"/>
<path d="M13.2589 18.6904C14.7091 18.7037 16.0952 19.2919 17.1144 20.3267C18.1336 21.3615 18.7032 22.7588 18.6987 24.2133C18.6987 27.2801 16.1748 29.8227 13.1728 29.7893C11.7049 29.7673 10.3044 29.168 9.27291 28.1204C8.2414 27.0727 7.66144 25.6606 7.65796 24.1882C7.66004 23.4567 7.80723 22.7329 8.09093 22.059C8.37463 21.3851 8.78919 20.7745 9.31046 20.2628C9.83172 19.7511 10.4493 19.3486 11.1272 19.0787C11.805 18.8087 12.5297 18.6767 13.2589 18.6904ZM13.284 19.9366C12.717 19.9218 12.1527 20.0203 11.6241 20.2263C11.0954 20.4324 10.6129 20.7419 10.2047 21.1368C9.79647 21.5317 9.47068 22.0042 9.24629 22.5266C9.02189 23.0491 8.90338 23.6111 8.89768 24.1799C8.90207 25.3108 9.34322 26.3959 10.1285 27.2074C10.9137 28.019 11.982 28.4937 13.1088 28.5319C14.2382 28.55 15.3293 28.1213 16.1461 27.3387C16.9628 26.5561 17.4394 25.4824 17.4729 24.35C17.4956 23.7821 17.4044 23.2154 17.2046 22.6836C17.0048 22.1518 16.7005 21.6656 16.3098 21.254C15.9191 20.8423 15.4499 20.5136 14.9302 20.2873C14.4104 20.061 13.8506 19.9418 13.284 19.9366Z" fill="white"/>
<path d="M39.4153 24.2134C39.3962 23.4814 39.523 22.7529 39.7884 22.0708C40.0538 21.3886 40.4524 20.7666 40.9607 20.241C41.4691 19.7155 42.077 19.2971 42.7487 19.0104C43.4205 18.7237 44.1426 18.5745 44.8727 18.5715C45.6027 18.5685 46.326 18.7119 47 18.9931C47.6741 19.2743 48.2854 19.6877 48.798 20.2091C49.3106 20.7305 49.7141 21.3493 49.985 22.0293C50.2559 22.7092 50.3887 23.4366 50.3755 24.1688C50.3946 24.9007 50.2677 25.6292 50.0023 26.3113C49.737 26.9935 49.3384 27.6156 48.8301 28.1411C48.3217 28.6667 47.7138 29.0851 47.042 29.3718C46.3703 29.6585 45.6482 29.8077 44.9181 29.8106C44.1881 29.8136 43.4648 29.6703 42.7907 29.3891C42.1167 29.1078 41.5054 28.6944 40.9928 28.173C40.4802 27.6516 40.0766 27.0328 39.8057 26.3528C39.5349 25.6729 39.4021 24.9455 39.4153 24.2134ZM44.9746 19.9283C43.8296 19.9044 42.7219 20.3372 41.8948 21.1317C41.0677 21.9263 40.5888 23.0176 40.5633 24.166C40.5105 26.4409 42.4841 28.4845 44.78 28.5375C47.076 28.5905 49.1468 26.6333 49.1691 24.3556C49.2024 21.9022 47.3873 19.9813 44.9829 19.9283H44.9746Z" fill="white"/>
<path d="M16.4388 14.4806C16.4276 13.954 16.5217 13.4305 16.7154 12.9409C16.909 12.4514 17.1984 12.0056 17.5665 11.6299C17.9346 11.2543 18.3739 10.9563 18.8586 10.7535C19.3433 10.5507 19.8635 10.4473 20.3886 10.4492C20.9222 10.4415 21.4519 10.5403 21.9471 10.7399C22.4422 10.9395 22.8927 11.2359 23.2725 11.6119C23.6523 11.9879 23.9537 12.4359 24.1591 12.9298C24.3645 13.4238 24.4699 13.9538 24.4691 14.489C24.4447 15.553 24.0094 16.5659 23.2549 17.3143C22.5005 18.0627 21.4858 18.4881 20.4248 18.5009C19.8989 18.5027 19.3779 18.3998 18.892 18.1982C18.4061 17.9965 17.965 17.7001 17.5942 17.3262C17.2234 16.9522 16.9303 16.5081 16.732 16.0196C16.5336 15.5311 16.434 15.008 16.4388 14.4806ZM23.2294 14.5057C23.2349 13.78 22.9581 13.0807 22.4578 12.5565C21.9574 12.0322 21.2729 11.7243 20.5498 11.6982C20.1826 11.6748 19.8145 11.7263 19.4678 11.8496C19.121 11.973 18.8027 12.1655 18.5323 12.4157C18.2618 12.6659 18.0447 12.9685 17.8941 13.3052C17.7436 13.6419 17.6626 14.0057 17.6562 14.3747C17.633 15.12 17.9051 15.8442 18.4131 16.3886C18.921 16.9331 19.6234 17.2535 20.3664 17.2797C21.1067 17.2719 21.8159 16.9801 22.3483 16.4642C22.8808 15.9483 23.1961 15.2475 23.2294 14.5057Z" fill="white"/>
<path d="M37.6196 10.4548C38.1448 10.4448 38.6668 10.5388 39.1557 10.7313C39.6447 10.9237 40.091 11.211 40.4692 11.5766C40.8474 11.9422 41.15 12.379 41.3598 12.862C41.5696 13.3449 41.6824 13.8647 41.6918 14.3914C41.7196 16.6218 39.8239 18.5455 37.6641 18.512C36.6044 18.4982 35.5922 18.0689 34.8441 17.316C34.096 16.563 33.6715 15.5463 33.6614 14.4834C33.6518 13.9566 33.7472 13.4333 33.9419 12.944C34.1367 12.4547 34.427 12.0093 34.7957 11.6341C35.1644 11.2588 35.6041 10.9612 36.089 10.7587C36.574 10.5562 37.0944 10.4529 37.6196 10.4548ZM40.4577 14.5029C40.461 14.1347 40.3915 13.7695 40.2533 13.4283C40.1151 13.0872 39.9108 12.7769 39.6524 12.5153C39.394 12.2538 39.0864 12.0462 38.7475 11.9045C38.4087 11.7628 38.0452 11.6899 37.678 11.6899C37.3199 11.6829 36.9639 11.7467 36.6304 11.8777C36.2969 12.0087 35.9924 12.2043 35.7342 12.4533C35.4761 12.7024 35.2694 13 35.126 13.3292C34.9826 13.6584 34.9052 14.0127 34.8984 14.3719C34.8766 15.1151 35.1481 15.837 35.6541 16.3804C36.16 16.9239 36.8594 17.2451 37.6002 17.2741C38.3411 17.2718 39.0524 16.982 39.585 16.4654C40.1177 15.9488 40.4304 15.2456 40.4577 14.5029Z" fill="white"/>
</g>
<defs>
<clipPath id="clip0_2_4585">
<rect width="58" height="51" fill="white"/>
</clipPath>
</defs>
</svg>
