<svg width="384" height="300" viewBox="0 0 384 300" fill="none" xmlns="http://www.w3.org/2000/svg">
<circle cx="192" cy="150" r="150" fill="#173846" fill-opacity="0.31"/>
<g clip-path="url(#clip0_13_2)">
<path d="M383.819 189.029V189.078C382.622 179.602 378.389 170.77 371.753 163.905C365.118 157.04 356.438 152.513 347.014 151.003L303.276 143.972C299.357 143.394 295.665 141.769 292.591 139.267L261.318 113.78C247.941 102.882 231.209 96.952 213.961 96.9972L195.155 97.0487C152.206 97.1585 126.832 101.94 104.456 114.456L64.8309 142.796C64.5578 142.894 44.5616 152 44.3959 171.924C44.331 179.789 45.137 187.81 47.5973 194.288C48.3333 198.027 50.3483 201.392 53.2954 203.805C56.2426 206.218 59.9377 207.527 63.7451 207.508H367.633C377.553 207.497 385.301 198.877 383.819 189.029Z" fill="#5CAD2F"/>
<path d="M319.648 229C334.58 229 346.685 216.885 346.685 201.94C346.685 186.995 334.58 174.88 319.648 174.88C304.716 174.88 292.611 186.995 292.611 201.94C292.611 216.885 304.716 229 319.648 229Z" fill="#363E44"/>
<path d="M333.169 215.471C340.636 207.999 340.636 195.883 333.169 188.41C325.703 180.938 313.598 180.938 306.131 188.41C298.665 195.883 298.665 207.999 306.131 215.471C313.598 222.944 325.703 222.944 333.169 215.471Z" fill="#5CAD2F"/>
<path d="M115.381 229C130.313 229 142.418 216.885 142.418 201.94C142.418 186.995 130.313 174.88 115.381 174.88C100.449 174.88 88.3442 186.995 88.3442 201.94C88.3442 216.885 100.449 229 115.381 229Z" fill="#363E44"/>
<path d="M128.901 215.47C136.367 207.998 136.367 195.882 128.901 188.409C121.435 180.937 109.329 180.937 101.863 188.409C94.3969 195.882 94.3969 207.998 101.863 215.47C109.329 222.943 121.435 222.943 128.901 215.47Z" fill="#5CAD2F"/>
<path d="M112.22 144.369H285.631L239.321 109.307C236.205 106.948 232.484 105.52 228.591 105.191C185.267 101.537 144.836 95.57 108.383 117.914L112.22 144.369Z" fill="#363E44"/>
<path d="M377.951 173.78C379.175 170.527 372.044 164.829 362.025 161.054C352.005 157.279 342.891 156.855 341.667 160.109C340.443 163.362 347.574 169.06 357.593 172.835C367.613 176.61 376.727 177.033 377.951 173.78Z" fill="white"/>
<path d="M282.499 202.435H158.203C158.125 202.435 158.048 202.417 157.978 202.381C157.908 202.345 157.848 202.293 157.803 202.229L119.807 149.168C119.755 149.095 119.723 149.009 119.715 148.92C119.708 148.83 119.725 148.74 119.765 148.66L127.495 133.199C127.524 133.141 127.565 133.09 127.614 133.047C127.663 133.005 127.721 132.973 127.782 132.953C127.844 132.933 127.909 132.925 127.974 132.93C128.039 132.935 128.102 132.952 128.16 132.982C128.218 133.011 128.269 133.052 128.312 133.101C128.354 133.151 128.386 133.208 128.406 133.27C128.426 133.331 128.434 133.397 128.429 133.461C128.424 133.526 128.406 133.589 128.377 133.647L120.781 148.85L158.459 201.462H282.161L292.62 174.322C295.455 166.994 295.614 158.9 293.071 151.466C290.528 144.032 285.445 137.734 278.718 133.683L237.922 109.749C237.809 109.682 237.727 109.574 237.694 109.447C237.661 109.321 237.68 109.186 237.746 109.073C237.812 108.96 237.92 108.878 238.047 108.845C238.174 108.812 238.308 108.831 238.421 108.897L279.228 132.818C286.157 136.988 291.393 143.47 294.014 151.125C296.635 158.779 296.473 167.114 293.556 174.66L282.974 202.119C282.937 202.214 282.871 202.296 282.786 202.352C282.701 202.409 282.601 202.438 282.499 202.435Z" fill="#363E44"/>
<path d="M207.782 202.563C207.663 202.562 207.548 202.519 207.458 202.441C207.368 202.363 207.309 202.255 207.292 202.137L198.932 142.191C198.922 142.065 198.961 141.94 199.04 141.842C199.118 141.743 199.232 141.678 199.357 141.661C199.482 141.644 199.609 141.675 199.712 141.748C199.815 141.821 199.886 141.93 199.911 142.054L208.261 202C208.27 202.065 208.266 202.13 208.25 202.193C208.234 202.256 208.206 202.315 208.166 202.367C208.127 202.419 208.078 202.462 208.022 202.495C207.966 202.528 207.904 202.549 207.84 202.558L207.782 202.563Z" fill="#363E44"/>
<path d="M143.835 155.624C150.475 155.624 155.857 154.845 155.857 153.885C155.857 152.925 150.475 152.146 143.835 152.146C137.196 152.146 131.813 152.925 131.813 153.885C131.813 154.845 137.196 155.624 143.835 155.624Z" fill="#FFD092"/>
<path d="M222.907 155.624C229.546 155.624 234.929 154.845 234.929 153.885C234.929 152.925 229.546 152.146 222.907 152.146C216.267 152.146 210.885 152.925 210.885 153.885C210.885 154.845 216.267 155.624 222.907 155.624Z" fill="#FFD092"/>
<path d="M67.0586 191.205H50.7361C52.1366 187.913 54.385 185.053 57.2515 182.916C60.118 180.779 63.4999 179.441 67.0518 179.041C67.8497 179.041 68.6398 179.198 69.377 179.503C70.1141 179.809 70.7839 180.257 71.3481 180.822C71.9123 181.386 72.3599 182.057 72.6652 182.794C72.9705 183.532 73.1277 184.323 73.1277 185.122C73.1277 186.733 72.4886 188.279 71.3506 189.42C70.2127 190.561 68.669 191.203 67.0586 191.205Z" fill="#FFD092"/>
<path d="M376.164 196.981H369.961C369.567 196.981 369.177 196.898 368.818 196.737C368.458 196.576 368.136 196.341 367.873 196.047C367.61 195.753 367.413 195.407 367.292 195.031C367.172 194.656 367.133 194.259 367.176 193.867L367.872 187.622C367.948 186.937 368.274 186.303 368.788 185.843C369.301 185.383 369.966 185.128 370.655 185.128H376.861C377.255 185.128 377.644 185.212 378.004 185.373C378.363 185.534 378.685 185.769 378.948 186.063C379.21 186.357 379.408 186.703 379.528 187.079C379.648 187.454 379.687 187.851 379.643 188.243L378.949 194.487C378.873 195.173 378.546 195.807 378.033 196.267C377.519 196.727 376.854 196.981 376.164 196.981Z" fill="#FFD092"/>
<path d="M63.3108 143.273H82.5637L95.2931 131.434L99.0116 118.283C87.6613 126.545 75.0193 135.364 63.3108 143.273Z" fill="#363E44"/>
<path d="M66.4383 202.061H66.4181C51.9068 201.48 36.9096 197.826 25.2728 192.034C10.6003 184.732 1.92748 174.382 0.199195 162.101C-1.24701 151.875 5.65271 131.257 16.8821 125.16C22.367 122.182 28.1809 123.143 33.6904 127.965C39.9118 133.394 50.23 131.774 56.6932 124.38L75.176 103.177C75.2621 103.078 75.3838 103.018 75.5144 103.009C75.6449 103 75.7737 103.044 75.8722 103.13C75.9708 103.216 76.0311 103.338 76.0399 103.469C76.0488 103.599 76.0053 103.728 75.9192 103.827L57.4364 125.03C50.6173 132.854 39.6722 134.508 33.0344 128.72C27.7869 124.138 22.5125 123.237 17.3433 126.031C6.44745 131.947 -0.239591 152.007 1.16632 161.965C3.29982 177.053 15.6889 186.163 25.7094 191.151C37.2253 196.885 52.0769 200.501 66.454 201.077C66.5846 201.08 66.7089 201.134 66.7996 201.228C66.8903 201.322 66.9399 201.448 66.9375 201.579C66.9351 201.71 66.881 201.834 66.7869 201.925C66.6929 202.016 66.5667 202.065 66.4361 202.063L66.4383 202.061Z" fill="#363E44"/>
<path d="M18.9082 192.87C27.5877 189.379 34.953 193.071 35.9873 197.597C37.0216 202.124 31.9979 208.756 22.6558 209.262C13.3539 209.766 2.95508 205.13 2.95508 205.13C2.95508 205.13 9.62645 196.603 18.9082 192.87Z" fill="#776E42"/>
<path d="M10.6564 203.952C10.5344 203.953 10.4162 203.909 10.3248 203.828C10.2334 203.748 10.1752 203.636 10.1615 203.514C10.1479 203.393 10.1797 203.271 10.2509 203.172C10.322 203.072 10.4275 203.003 10.5467 202.977L38.0515 196.703C38.116 196.685 38.1835 196.68 38.2499 196.689C38.3164 196.697 38.3804 196.719 38.4382 196.753C38.4959 196.787 38.5461 196.833 38.5858 196.887C38.6254 196.941 38.6537 197.002 38.6689 197.068C38.684 197.133 38.6858 197.201 38.674 197.267C38.6623 197.333 38.6372 197.396 38.6005 197.452C38.5637 197.508 38.5159 197.556 38.46 197.593C38.4041 197.63 38.3413 197.655 38.2754 197.667L10.7706 203.941C10.7329 203.948 10.6947 203.952 10.6564 203.952Z" fill="#363E44"/>
<path d="M45.175 113.094C42.7326 122.128 35.3515 125.776 31.1181 123.867C26.8847 121.958 24.6259 113.945 29.8443 106.186C35.0627 98.4267 45.0026 92.9663 45.0026 92.9663C45.0026 92.9663 47.7854 103.432 45.175 113.094Z" fill="#8B865C"/>
<path d="M30.1376 126.343C30.0553 126.343 29.9743 126.322 29.902 126.282C29.8298 126.243 29.7686 126.186 29.724 126.117C29.6795 126.047 29.653 125.968 29.647 125.886C29.6411 125.803 29.6558 125.721 29.6899 125.646L41.2528 99.9123C41.3124 99.8035 41.4108 99.7213 41.5283 99.6819C41.6458 99.6425 41.7738 99.6489 41.8868 99.6998C41.9998 99.7507 42.0894 99.8423 42.1379 99.9565C42.1864 100.071 42.1901 100.199 42.1483 100.316L30.5876 126.052C30.5487 126.138 30.4855 126.212 30.4056 126.264C30.3258 126.316 30.2327 126.343 30.1376 126.343Z" fill="#363E44"/>
<path d="M20.0925 157.907C11.1377 160.636 4.12825 156.32 3.48574 151.72C2.84323 147.12 8.41092 140.945 17.7687 141.248C27.0751 141.548 37.0351 147.073 37.0351 147.073C37.0351 147.073 29.6563 154.987 20.0925 157.907Z" fill="#8B865C"/>
<path d="M1.28738 152.437C1.16414 152.435 1.04637 152.386 0.957131 152.301C0.867896 152.216 0.813624 152.1 0.804941 151.977C0.796258 151.854 0.83379 151.732 0.910188 151.635C0.986586 151.539 1.09635 151.474 1.21798 151.454L29.1638 147.577C29.23 147.564 29.2981 147.565 29.364 147.579C29.4299 147.593 29.4923 147.62 29.5473 147.659C29.6023 147.698 29.6487 147.748 29.6837 147.806C29.7187 147.863 29.7416 147.928 29.7509 147.994C29.7602 148.061 29.7558 148.129 29.7379 148.194C29.72 148.259 29.689 148.32 29.6468 148.373C29.6046 148.425 29.5522 148.469 29.4926 148.5C29.433 148.532 29.3676 148.551 29.3004 148.557L1.36573 152.433L1.28738 152.437Z" fill="#363E44"/>
<path d="M93.4372 73.7073L92.9514 73.283C92.4688 72.8616 91.7363 72.9114 91.3152 73.3944L82.8513 83.1016C82.4302 83.5845 82.48 84.3177 82.9626 84.7392L83.4484 85.1635C83.9309 85.585 84.6635 85.5351 85.0846 85.0521L93.5484 75.3449C93.9695 74.862 93.9197 74.1288 93.4372 73.7073Z" fill="#363E44"/>
<path d="M103.132 82.1382L102.646 81.714C102.163 81.2926 101.431 81.3426 101.01 81.8257L92.5475 91.5343C92.1265 92.0174 92.1764 92.7506 92.6591 93.1719L93.1449 93.5961C93.6275 94.0175 94.3601 93.9676 94.7811 93.4845L103.243 83.7759C103.664 83.2928 103.614 82.5596 103.132 82.1382Z" fill="#363E44"/>
<path d="M80.9023 80.7592L97.3541 95.1233L86.8611 107.162C85.3728 108.87 83.2678 109.915 81.0091 110.069C78.7504 110.224 76.523 109.473 74.817 107.984L71.2304 104.852C69.5243 103.363 68.4794 101.256 68.3254 98.9953C68.1714 96.7347 68.921 94.5054 70.4093 92.7979L80.9023 80.7592Z" fill="white"/>
<path d="M99.7752 96.6073L79.1076 78.5623C78.5653 78.0889 77.7423 78.145 77.2692 78.6878L76.7909 79.2365C76.3179 79.7792 76.374 80.603 76.9162 81.0765L97.5838 99.1214C98.1261 99.5949 98.9492 99.5387 99.4222 98.996L99.9005 98.4473C100.374 97.9045 100.317 97.0808 99.7752 96.6073Z" fill="white"/>
<path d="M97.5564 99.6099C97.4367 99.6102 97.3211 99.5663 97.2318 99.4866L76.5662 81.4405C76.5174 81.398 76.4774 81.3463 76.4486 81.2883C76.4198 81.2303 76.4026 81.1672 76.3981 81.1026C76.3937 81.038 76.402 80.9732 76.4225 80.9118C76.4431 80.8504 76.4756 80.7936 76.5181 80.7448C76.5605 80.696 76.6122 80.656 76.6701 80.6271C76.7281 80.5983 76.7911 80.5811 76.8556 80.5766C76.9202 80.5721 76.985 80.5805 77.0463 80.601C77.1077 80.6216 77.1644 80.6541 77.2132 80.6966L97.8922 98.7427C97.9676 98.8091 98.0211 98.8968 98.0455 98.9943C98.0699 99.0917 98.0641 99.1943 98.0289 99.2884C97.9936 99.3825 97.9307 99.4636 97.8483 99.5211C97.7659 99.5785 97.668 99.6095 97.5676 99.6099H97.5564Z" fill="#363E44"/>
</g>
<defs>
<clipPath id="clip0_13_2">
<rect width="384" height="156" fill="white" transform="translate(0 73)"/>
</clipPath>
</defs>
</svg>
