<svg width="267" height="240" viewBox="0 0 267 240" fill="none" xmlns="http://www.w3.org/2000/svg">
<path d="M103.948 96.6541C103.948 96.6541 93.6521 160.274 132.983 160.274C172.314 160.274 163.121 94.1777 163.121 94.1777L105.161 96.6541" fill="#814C4A"/>
<g opacity="0.2">
<path opacity="0.2" d="M107.739 105.621C107.739 105.621 107.739 106.311 107.739 107.525C107.739 108.739 107.773 110.457 107.835 112.519C107.897 114.582 108.042 116.989 108.276 119.548C108.38 120.831 108.552 122.149 108.711 123.487C108.869 124.825 109.09 126.177 109.352 127.522C109.613 128.867 109.868 130.205 110.192 131.509C110.344 132.164 110.537 132.806 110.695 133.44C110.854 134.075 111.068 134.696 111.254 135.31L111.867 137.083C112.088 137.655 112.294 138.221 112.522 138.766L113.211 140.325C113.452 140.821 113.693 141.297 113.9 141.752C114.403 142.642 114.851 143.47 115.32 144.167C115.788 144.863 116.216 145.443 116.56 145.94C117.312 146.878 117.759 147.416 117.759 147.416L117.394 147.078C117.16 146.857 116.781 146.553 116.36 146.112C115.94 145.671 115.423 145.139 114.913 144.463C114.651 144.125 114.348 143.774 114.079 143.394L113.232 142.146L112.398 140.766C112.122 140.269 111.867 139.745 111.584 139.207C111.302 138.669 111.081 138.097 110.819 137.524C110.558 136.952 110.351 136.331 110.13 135.724C109.703 134.482 109.269 133.199 108.931 131.861C108.593 130.523 108.276 129.164 108.028 127.791C107.78 126.418 107.594 125.032 107.429 123.652C107.263 122.273 107.174 120.948 107.098 119.645C107.022 118.341 107.001 117.079 107.001 115.885C107.001 114.692 107.001 113.568 107.07 112.526C107.16 110.457 107.353 108.718 107.491 107.511C107.629 106.304 107.739 105.621 107.739 105.621Z" fill="#B76A6A"/>
<path opacity="0.2" d="M112.591 105.621C112.591 105.621 112.632 106.263 112.708 107.387C112.708 107.953 112.791 108.629 112.846 109.415C112.901 110.201 112.984 111.07 113.06 112.029C113.135 112.988 113.246 114.03 113.349 115.126C113.452 116.223 113.583 117.375 113.728 118.575C113.873 119.776 114.045 120.99 114.204 122.238C114.362 123.487 114.603 124.742 114.796 126.004C114.989 127.267 115.265 128.515 115.485 129.75C115.706 130.985 116.016 132.185 116.312 133.344C116.609 134.503 116.898 135.62 117.222 136.669L118.173 139.607L119.117 142.042L119.317 142.573C119.391 142.739 119.467 142.898 119.545 143.049L119.937 143.891L120.675 145.505C120.675 145.505 120.317 144.967 119.703 144.022L119.193 143.229L118.911 142.78L118.649 142.27C118.29 141.58 117.884 140.773 117.456 139.897C117.029 139.021 116.678 138.028 116.271 136.986C115.864 135.944 115.534 134.813 115.168 133.654C114.803 132.495 114.521 131.268 114.21 130.026C113.9 128.784 113.687 127.508 113.459 126.232C113.232 124.956 113.039 123.68 112.908 122.411C112.777 121.141 112.625 119.9 112.543 118.686C112.46 117.472 112.384 116.313 112.343 115.237C112.301 114.161 112.295 113.078 112.281 112.105C112.268 109.94 112.372 107.775 112.591 105.621Z" fill="#B76A6A"/>
<path opacity="0.2" d="M120.006 107.366C120.006 107.366 120.144 109.76 120.344 113.347C120.447 115.14 120.571 117.223 120.695 119.465C120.771 120.576 120.847 121.735 120.929 122.914C121.012 124.094 121.095 125.273 121.205 126.46C121.315 127.646 121.405 128.833 121.536 129.998C121.667 131.164 121.784 132.302 121.936 133.406C122.087 134.51 122.246 135.579 122.411 136.586C122.577 137.593 122.77 138.538 122.956 139.407C123.142 140.276 123.348 141.063 123.555 141.759C123.762 142.456 123.948 143.056 124.148 143.539C124.348 144.022 124.492 144.401 124.61 144.656L124.789 145.05L124.548 144.698C124.307 144.364 124.091 144.014 123.9 143.649C123.588 143.094 123.31 142.52 123.066 141.932L122.625 140.842C122.494 140.449 122.349 140.042 122.204 139.607C122.06 139.173 121.936 138.724 121.798 138.228L121.419 136.758C121.184 135.751 120.95 134.689 120.764 133.565C120.578 132.44 120.378 131.295 120.24 130.116C120.102 128.936 119.971 127.743 119.861 126.542C119.751 125.342 119.689 124.142 119.627 122.962C119.565 121.783 119.537 120.617 119.51 119.513C119.475 117.265 119.51 115.161 119.572 113.361C119.703 109.753 120.006 107.366 120.006 107.366Z" fill="#B76A6A"/>
<path opacity="0.2" d="M158.235 105.621C158.235 105.621 158.235 106.311 158.235 107.525C158.235 108.739 158.235 110.457 158.138 112.519C158.042 114.582 157.932 116.989 157.697 119.548C157.594 120.831 157.429 122.149 157.263 123.487C157.098 124.825 156.891 126.177 156.629 127.522C156.367 128.867 156.105 130.205 155.788 131.509C155.637 132.164 155.444 132.806 155.285 133.44C155.127 134.075 154.906 134.696 154.727 135.31C154.548 135.924 154.313 136.503 154.107 137.083C153.9 137.662 153.679 138.221 153.459 138.766C153.238 139.311 152.99 139.821 152.77 140.325L152.081 141.752C151.577 142.642 151.13 143.47 150.668 144.167C150.206 144.863 149.765 145.443 149.42 145.94C148.669 146.878 148.221 147.416 148.221 147.416L148.593 147.078C148.828 146.857 149.2 146.553 149.62 146.112C150.041 145.671 150.564 145.139 151.074 144.463C151.329 144.125 151.633 143.774 151.908 143.394L152.749 142.146L153.59 140.766C153.866 140.269 154.121 139.745 154.396 139.207C154.672 138.669 154.899 138.097 155.168 137.524C155.437 136.952 155.63 136.331 155.857 135.724C156.285 134.482 156.726 133.199 157.056 131.861C157.387 130.523 157.746 129.164 157.966 127.791C158.187 126.418 158.4 125.032 158.566 123.652C158.731 122.273 158.821 120.948 158.89 119.645C158.959 118.341 158.986 117.079 158.993 115.885C159 114.692 158.993 113.568 158.917 112.526C158.834 110.457 158.635 108.718 158.504 107.511C158.373 106.304 158.235 105.621 158.235 105.621Z" fill="#B76A6A"/>
<path opacity="0.2" d="M153.383 105.621C153.383 105.621 153.335 106.263 153.266 107.387C153.225 107.953 153.176 108.629 153.121 109.415L152.914 112.029C152.825 112.988 152.721 114.03 152.618 115.126C152.515 116.223 152.384 117.375 152.239 118.575C152.094 119.776 151.929 120.99 151.764 122.238C151.598 123.487 151.371 124.742 151.171 126.004C150.971 127.267 150.709 128.515 150.482 129.75C150.254 130.985 149.958 132.185 149.655 133.344C149.351 134.503 149.069 135.62 148.745 136.669C148.421 137.717 148.09 138.697 147.801 139.607L146.829 142.035C146.76 142.222 146.691 142.401 146.622 142.566L146.402 143.042L146.009 143.884L145.271 145.498L146.243 144.015C146.395 143.774 146.567 143.511 146.746 143.222C146.843 143.077 146.932 142.925 147.036 142.773L147.291 142.263C147.656 141.573 148.063 140.766 148.49 139.89C148.917 139.014 149.262 138.021 149.675 136.979C150.089 135.938 150.406 134.806 150.778 133.647C151.15 132.489 151.419 131.261 151.729 130.019C152.039 128.777 152.26 127.501 152.48 126.225C152.701 124.949 152.901 123.673 153.039 122.404C153.176 121.135 153.314 119.893 153.404 118.679C153.493 117.465 153.555 116.306 153.604 115.23C153.652 114.154 153.645 113.071 153.666 112.098C153.687 109.936 153.593 107.774 153.383 105.621Z" fill="#B76A6A"/>
<path opacity="0.2" d="M145.967 107.366L145.623 113.347C145.519 115.14 145.402 117.223 145.271 119.465C145.196 120.576 145.12 121.735 145.044 122.914C144.968 124.094 144.872 125.273 144.761 126.46C144.651 127.646 144.562 128.833 144.431 129.998C144.3 131.164 144.183 132.302 144.038 133.406C143.893 134.51 143.728 135.579 143.562 136.586C143.397 137.593 143.204 138.538 143.018 139.407C142.832 140.276 142.618 141.063 142.418 141.759C142.218 142.456 142.025 143.056 141.826 143.539C141.626 144.022 141.481 144.401 141.364 144.656L141.185 145.05L141.426 144.698C141.663 144.364 141.877 144.013 142.067 143.649C142.378 143.093 142.659 142.519 142.908 141.932C143.045 141.594 143.19 141.242 143.342 140.842C143.493 140.442 143.617 140.042 143.762 139.607L144.176 138.228C144.29 137.768 144.415 137.278 144.548 136.758C144.782 135.751 145.023 134.689 145.237 133.565C145.451 132.44 145.623 131.295 145.754 130.116C145.885 128.936 146.029 127.743 146.133 126.542C146.236 125.342 146.305 124.142 146.374 122.962C146.443 121.783 146.457 120.617 146.484 119.513C146.526 117.265 146.484 115.161 146.422 113.361C146.271 109.753 145.967 107.366 145.967 107.366Z" fill="#B76A6A"/>
</g>
<path d="M139.799 119.072H132.99H126.167L120.351 142.739L132.99 160.274L145.623 141.284L139.799 119.072Z" fill="#FFAE8A"/>
<path d="M139.799 119.072H126.153L124.775 124.839C128.8 128.895 137.18 131.585 142.335 128.674L139.799 119.072Z" fill="#F79B77"/>
<path d="M108.814 95.7644C108.814 95.7644 104.679 89.1562 102.253 92.3154C99.8273 95.4747 103.756 103.028 108.814 101.738V95.7644Z" fill="#FFAE8A"/>
<path d="M157.167 95.7644C157.167 95.7644 161.26 89.1561 163.721 92.3154C166.181 95.4747 162.211 102.98 157.167 101.717V95.7644Z" fill="#FFAE8A"/>
<path d="M133.045 59.8672C105.147 59.8672 107.339 95.5364 107.883 104.228C108.428 112.919 113.762 115.913 120.737 121.397C127.711 126.881 133.045 126.287 133.045 126.287C133.045 126.287 138.379 126.867 145.347 121.397C152.315 115.927 157.656 112.926 158.2 104.228C158.745 95.5295 160.971 59.8672 133.045 59.8672Z" fill="#FFAE8A"/>
<path opacity="0.5" d="M158.345 91.4668C158.462 95.0918 158.391 98.7204 158.131 102.338C157.587 111.036 152.26 114.023 145.285 119.5C138.311 124.977 132.976 124.398 132.976 124.398C132.976 124.398 127.642 124.977 120.668 119.5C113.693 114.023 108.366 111.036 107.815 102.338C107.815 101.896 107.76 101.379 107.725 100.8C107.78 102.179 107.856 103.345 107.911 104.249C108.456 112.947 113.79 115.934 120.764 121.418C127.739 126.902 133.045 126.288 133.045 126.288C133.045 126.288 138.38 126.867 145.347 121.397C152.315 115.927 157.656 112.926 158.2 104.228C158.515 99.9815 158.563 95.7194 158.345 91.4668Z" fill="#FFBCA1"/>
<path d="M168.317 137.614L143.128 131.778C143.128 139.676 134.251 139.649 133.535 139.511H133.479C132.79 139.649 123.045 139.676 123.045 131.778L98.6968 137.614L103.893 161.667C103.893 161.667 97.2013 176.325 108.855 186.7L110.992 222.452H156.753L158.131 186.7C169.778 176.353 163.093 161.667 163.093 161.667L168.317 137.614Z" fill="#FAC849"/>
<path d="M133.472 141.946H133.541C134.437 142.125 145.512 142.153 145.65 132.365L143.128 131.778C143.128 139.676 134.251 139.649 133.535 139.511H133.479C132.79 139.649 123.045 139.676 123.045 131.778L120.289 132.434C120.516 142.146 132.577 142.125 133.472 141.946Z" fill="#F9B212"/>
<path d="M140.109 92.1015C140.109 92.1015 139.93 90.0873 140.626 89.6872C141.322 89.2872 147.449 89.0802 149.695 89.6872C151.942 90.2943 152.893 93.0879 152.893 93.0879C152.893 93.0879 152.08 91.9222 148.62 91.5635C146.084 91.3014 140.971 92.5085 140.109 92.1015Z" fill="#AA6868"/>
<path d="M126.036 92.1015C126.036 92.1015 126.209 90.0873 125.512 89.6872C124.816 89.2872 118.69 89.0802 116.443 89.6872C114.196 90.2943 113.245 93.0879 113.245 93.0879C113.245 93.0879 114.058 91.9222 117.518 91.5635C120.061 91.3014 125.168 92.5085 126.036 92.1015Z" fill="#AA6868"/>
<path d="M148.166 98.9509C148.166 100.434 147.353 101.641 146.346 101.641C145.34 101.641 144.52 100.434 144.52 98.9509C144.52 97.4679 145.34 96.2607 146.346 96.2607C147.353 96.2607 148.166 97.461 148.166 98.9509Z" fill="#111B24"/>
<path d="M122.018 98.9509C122.018 100.434 121.205 101.641 120.199 101.641C119.193 101.641 118.379 100.434 118.379 98.9509C118.379 97.4679 119.193 96.2607 120.199 96.2607C121.205 96.2607 122.018 97.461 122.018 98.9509Z" fill="#111B24"/>
<path d="M125.016 112.795C125.016 112.795 127.387 118.431 133.066 118.431C138.744 118.431 141.108 112.795 141.108 112.795C141.108 112.795 134.478 115.768 125.016 112.795Z" fill="#F4472A"/>
<path d="M125.03 112.836C125.03 112.836 128.945 116.065 133.176 116.065C137.408 116.065 141.019 112.836 141.019 112.836C141.019 112.836 134.382 116.575 125.03 112.836Z" fill="white"/>
<path d="M141.315 112.637C141.315 112.637 135.719 112.292 134.637 112.637C134.169 112.846 133.667 112.97 133.155 113.002C132.641 112.973 132.136 112.849 131.667 112.637C130.585 112.292 124.989 112.637 124.989 112.637C131.598 115.934 140.123 113.878 141.315 112.637Z" fill="#F4472A"/>
<path d="M123.7 112.209C129.289 115.099 136.911 115.292 142.445 112.209C142.569 112.14 142.445 111.981 142.314 112.05C136.856 115.099 129.344 114.906 123.817 112.05C123.686 111.981 123.569 112.147 123.7 112.209Z" fill="#F4472A"/>
<path d="M130.158 107.367L131.171 107.712C131.467 107.794 131.784 107.905 132.115 107.974C132.28 108.015 132.446 108.043 132.611 108.07C132.776 108.092 132.941 108.104 133.107 108.105C133.27 108.122 133.434 108.122 133.597 108.105C133.757 108.092 133.915 108.069 134.072 108.036C134.231 108.036 134.382 107.946 134.541 107.912C134.689 107.873 134.834 107.824 134.975 107.767C135.109 107.724 135.24 107.673 135.368 107.615C135.478 107.56 135.588 107.518 135.678 107.484L135.981 107.38C135.981 107.38 135.981 107.491 135.871 107.677C135.767 107.93 135.62 108.164 135.437 108.367C135.324 108.521 135.192 108.66 135.044 108.781C134.871 108.917 134.687 109.037 134.493 109.139C134.275 109.251 134.043 109.332 133.803 109.381C133.557 109.438 133.305 109.461 133.052 109.45C132.803 109.441 132.556 109.404 132.315 109.34C132.09 109.28 131.872 109.194 131.667 109.084C131.312 108.895 130.992 108.646 130.723 108.346C130.465 108.065 130.272 107.731 130.158 107.367Z" fill="#F89675"/>
<g opacity="0.1">
<path opacity="0.1" d="M120.909 106.332C120.909 108.801 118.641 110.802 115.836 110.802C113.032 110.802 110.764 108.801 110.764 106.332C110.764 103.862 113.032 101.862 115.836 101.862C118.641 101.862 120.909 103.862 120.909 106.332Z" fill="#F4472A"/>
<path opacity="0.1" d="M156.029 106.332C156.029 108.801 153.755 110.802 150.95 110.802C148.145 110.802 145.877 108.801 145.877 106.332C145.877 103.862 148.152 101.862 150.95 101.862C153.748 101.862 156.029 103.862 156.029 106.332Z" fill="#F4472A"/>
</g>
<path d="M168.193 137.614C171.182 138.856 173.897 140.675 176.183 142.967C178.468 145.26 180.28 147.981 181.515 150.975C185.829 161.246 196.387 192.211 194.664 199.088C192.824 206.476 157.104 220.713 157.104 220.713L151.701 211.373C151.701 211.373 173.796 195.894 177.483 192.949L163.121 161.667L168.193 137.614Z" fill="#F4B425"/>
<path d="M98.7863 137.614C95.802 138.858 93.0919 140.678 90.8108 142.97C88.5297 145.263 86.7224 147.983 85.4921 150.975C81.1779 161.246 70.6197 192.211 72.3358 199.088C74.1827 206.476 109.903 220.713 109.903 220.713L115.299 211.373C115.299 211.373 93.204 195.894 89.5238 192.949L103.921 161.667L98.7863 137.614Z" fill="#F4B425"/>
<path d="M145.492 186.217C140.612 184.706 136.002 183.458 133.493 183.458C130.978 183.458 126.367 184.734 121.488 186.217C118.799 187.127 115.929 187.364 113.128 186.906C116.574 189.052 121.398 189.348 126.133 187.596C128.486 186.689 130.973 186.179 133.493 186.086C136.001 186.254 138.475 186.763 140.847 187.596C145.671 189.231 150.385 189.045 153.851 186.906C151.05 187.364 148.18 187.127 145.492 186.217Z" fill="#F4B425"/>
<path d="M163.672 93.605C162.631 92.6945 161.77 92.7773 161.074 93.3636C160.995 93.4027 160.93 93.4654 160.888 93.5429C159.675 94.7777 159.006 97.5437 158.82 98.8405C158.731 99.3717 159.544 99.5993 159.634 99.0613C159.778 98.1714 160.323 95.5502 161.246 94.3845C161.535 94.877 161.688 95.4378 161.688 96.0089C161.688 96.5801 161.535 97.1409 161.246 97.6334C161.19 97.7304 161.174 97.8459 161.202 97.9545C161.231 98.0632 161.301 98.1561 161.398 98.2128C161.495 98.2695 161.61 98.2854 161.719 98.2569C161.827 98.2285 161.92 98.158 161.977 98.0611C162.355 97.4253 162.551 96.6979 162.543 95.9583C162.536 95.2187 162.326 94.4952 161.935 93.8671C162.144 93.8074 162.365 93.8075 162.573 93.8672C162.781 93.927 162.969 94.044 163.114 94.2051C163.479 94.5569 164.058 93.9637 163.672 93.605Z" fill="#F4885D"/>
<path d="M102.791 93.605C103.831 92.6945 104.686 92.7773 105.382 93.3636C105.461 93.4027 105.526 93.4654 105.568 93.5429C106.781 94.7777 107.449 97.5437 107.635 98.8405C107.725 99.3717 106.946 99.5993 106.822 99.0613C106.678 98.1714 106.133 95.5502 105.216 94.3845C104.925 94.8762 104.772 95.4373 104.772 96.0089C104.772 96.5805 104.925 97.1416 105.216 97.6334C105.506 98.1024 104.775 98.5232 104.486 98.0611C104.11 97.4246 103.916 96.6975 103.923 95.9583C103.93 95.2192 104.139 94.496 104.527 93.8671C104.32 93.8072 104.1 93.8071 103.893 93.8669C103.685 93.9267 103.499 94.0439 103.356 94.2051C102.977 94.5569 102.377 93.9637 102.791 93.605Z" fill="#F4885D"/>
<path d="M152.955 213.54C152.955 213.54 145.195 213.422 143.955 214.547C142.714 215.671 139.006 222.548 139.565 223.224C140.123 223.9 148.896 222.314 151.157 221.424C153.417 220.534 156.387 219.472 156.387 219.472L152.955 213.54Z" fill="#FFAE8A"/>
<path d="M113.749 213.54C113.749 213.54 121.509 213.422 122.742 214.547C123.976 215.671 127.697 222.548 127.132 223.224C126.567 223.9 117.794 222.321 115.54 221.424C113.287 220.527 110.31 219.472 110.31 219.472L113.749 213.54Z" fill="#FFAE8A"/>
<path d="M107.67 94.1776C107.67 94.1776 121.074 87.2797 124.754 74.0771C124.754 74.0771 135.726 92.6532 158.469 94.1776C158.469 94.1776 160.654 91.1425 163.107 91.7358C163.107 91.7358 164.665 56.0527 132.983 56.0527C101.302 56.0527 104.038 91.4599 104.038 91.4599C105.467 92.0293 106.72 92.9669 107.67 94.1776Z" fill="#814C4A"/>
<g opacity="0.2">
<path opacity="0.2" d="M128.91 68.3311C128.91 68.3311 129.227 68.7311 129.799 69.4002C130.371 70.0693 131.178 71.0075 132.26 72.0835C132.77 72.6354 133.362 73.1941 133.969 73.8011C134.575 74.4081 135.264 74.9945 135.94 75.6291C136.615 76.2637 137.366 76.8845 138.138 77.4846L139.289 78.4089C139.682 78.7124 140.095 78.9953 140.495 79.285C140.895 79.5747 141.288 79.8851 141.694 80.161L142.935 80.9681C143.741 81.5199 144.575 81.9959 145.381 82.4649C146.188 82.934 146.987 83.3479 147.745 83.741L148.855 84.3136L149.923 84.7895C150.612 85.0792 151.226 85.3965 151.798 85.6173L153.279 86.1829L154.568 86.6934C154.568 86.6934 154.072 86.6106 153.19 86.4381L151.618 86.107C151.019 85.9691 150.357 85.7414 149.627 85.5138L148.49 85.1482C148.104 85.0034 147.718 84.8309 147.311 84.6585C146.453 84.3262 145.616 83.9438 144.803 83.5134C143.92 83.0767 143.059 82.5955 142.225 82.0717L140.936 81.2578C140.509 80.9819 140.102 80.6715 139.689 80.3748C139.275 80.0782 138.862 79.7747 138.462 79.4574L137.291 78.4848C136.901 78.1762 136.528 77.8469 136.174 77.4984L135.113 76.4982C134.424 75.8084 133.803 75.1186 133.224 74.4909C132.645 73.8632 132.115 73.201 131.66 72.5871C131.205 71.9732 130.792 71.4144 130.433 70.904C130.075 70.3935 129.799 69.9383 129.572 69.5589C129.096 68.7932 128.91 68.3311 128.91 68.3311Z" fill="#B76A6A"/>
<path opacity="0.2" d="M132.142 63.606C132.142 63.606 133.465 64.7924 135.485 66.4893L137.125 67.8689L138.979 69.3588C140.288 70.3521 141.66 71.4282 143.114 72.4353L144.182 73.201L145.257 73.8908C145.946 74.3736 146.677 74.8427 147.373 75.2704C148.069 75.6981 148.751 76.1257 149.392 76.512C150.033 76.8983 150.646 77.2708 151.232 77.5812L152.797 78.4641L154.037 79.1056L155.112 79.692L153.934 79.354L152.555 78.9401C152.045 78.7538 151.473 78.5331 150.853 78.2503C150.543 78.1261 150.219 78.002 149.888 77.8571L148.896 77.457C148.207 77.1259 147.469 76.7672 146.746 76.3465C146.022 75.9257 145.257 75.5256 144.527 75.0289L143.41 74.3392L142.314 73.5735C141.584 73.063 140.881 72.5043 140.185 71.9663C139.489 71.4282 138.855 70.8488 138.207 70.3108C136.966 69.1864 135.843 68.1034 134.947 67.1101C134.051 66.1168 133.334 65.2684 132.88 64.6544C132.425 64.0405 132.142 63.606 132.142 63.606Z" fill="#B76A6A"/>
<path opacity="0.2" d="M134.168 59.9985C135.632 60.088 137.084 60.319 138.503 60.6883C139.144 60.8539 139.847 61.0125 140.571 61.2609L141.68 61.6195L142.818 62.061C143.596 62.3507 144.368 62.7508 145.161 63.1026C145.953 63.4544 146.711 63.9373 147.476 64.3925L148.579 65.1444L149.13 65.5169L149.647 65.9308C150.334 66.447 150.982 67.0142 151.584 67.6277C151.88 67.9243 152.177 68.2071 152.452 68.5037C152.722 68.7925 152.975 69.0965 153.21 69.4142C153.676 69.9601 154.096 70.5438 154.465 71.1594C154.816 71.7319 155.112 72.2631 155.381 72.7252C155.65 73.1874 155.767 73.6634 155.912 74.022C156.194 74.7118 156.346 75.1464 156.346 75.1464C156.346 75.1464 156.091 74.7808 155.657 74.1393L154.919 72.9943C154.582 72.5804 154.23 72.1251 153.817 71.6147C153.388 71.0771 152.928 70.5657 152.438 70.0833C151.914 69.5224 151.354 68.9949 150.764 68.5037C150.153 67.9591 149.514 67.4479 148.848 66.9724L148.352 66.5861L147.814 66.2412L146.746 65.5514C146.022 65.0961 145.285 64.6753 144.547 64.2684C143.81 63.8614 143.079 63.4682 142.335 63.1578L141.26 62.6611L140.213 62.2128C139.523 61.9162 138.876 61.6816 138.276 61.4333C137.056 60.9849 136.029 60.6262 135.306 60.3917C134.582 60.1572 134.168 59.9985 134.168 59.9985Z" fill="#B76A6A"/>
<path opacity="0.2" d="M123.135 68.3311C123.135 68.3311 123.059 68.7311 122.873 69.414C122.603 70.3511 122.281 71.2723 121.908 72.1732C121.393 73.4629 120.797 74.7186 120.123 75.9326C119.73 76.6224 119.379 77.3122 118.924 77.9537C118.469 78.5952 118.035 79.3333 117.546 79.961C117.304 80.2852 117.063 80.6508 116.808 80.9336L116.036 81.8648C115.54 82.4994 114.975 83.0512 114.451 83.6031C113.944 84.1358 113.411 84.6423 112.852 85.1206L112.094 85.8104L111.336 86.3898C110.847 86.7554 110.406 87.0796 109.992 87.3694L108.903 88.0591C108.297 88.4247 107.945 88.6179 107.945 88.6179C107.945 88.6179 108.228 88.3282 108.745 87.8453L109.668 86.9831L110.819 85.8173L111.474 85.1275L112.163 84.3894C112.625 83.8928 113.114 83.3686 113.583 82.796C114.051 82.2235 114.561 81.6441 115.044 81.0301L115.774 80.1127L116.464 79.1539C116.946 78.5262 117.394 77.8778 117.842 77.2294C118.29 76.581 118.696 75.9395 119.11 75.3256C119.523 74.7116 119.896 74.0839 120.247 73.4976C120.599 72.9113 120.936 72.3526 121.226 71.8352C122.411 69.7865 123.135 68.3311 123.135 68.3311Z" fill="#B76A6A"/>
<path opacity="0.2" d="M126.05 61.2402C125.957 61.2628 125.865 61.2904 125.774 61.323C125.588 61.3782 125.326 61.4885 124.996 61.6058C124.665 61.7231 124.265 61.8955 123.824 62.1163C123.383 62.337 122.894 62.5922 122.363 62.875C122.101 63.0061 121.846 63.1923 121.57 63.3579C121.295 63.5234 121.005 63.6959 120.73 63.9028L119.875 64.5167L119.027 65.2065C118.428 65.648 117.918 66.2343 117.339 66.7517C116.76 67.269 116.264 67.8967 115.754 68.5038C115.244 69.1108 114.754 69.7316 114.327 70.3938C113.9 71.056 113.445 71.6699 113.087 72.3321C112.728 72.9943 112.397 73.6151 112.025 74.2152C111.653 74.8154 111.453 75.4362 111.191 75.9811C111.06 76.257 110.936 76.5192 110.812 76.7675C110.688 77.0158 110.612 77.2641 110.516 77.4573C110.323 77.9194 110.158 78.3195 110.027 78.6506C109.744 79.3059 109.572 79.6853 109.572 79.6853C109.572 79.6853 109.634 79.2783 109.765 78.5747C109.841 78.216 109.923 77.7884 110.027 77.2986C110.082 77.0503 110.13 76.7882 110.199 76.5123C110.268 76.2363 110.371 75.9604 110.468 75.6707C110.661 75.0775 110.861 74.436 111.109 73.7669C111.357 73.0978 111.708 72.4287 112.046 71.6975C112.216 71.3396 112.407 70.9918 112.618 70.6559C112.818 70.311 113.031 69.9661 113.245 69.6074C113.679 68.9176 114.224 68.2623 114.713 67.5863C115.202 66.9103 115.843 66.3378 116.429 65.7584C117.019 65.2047 117.642 64.6886 118.297 64.2132C118.621 63.9925 118.924 63.7511 119.248 63.5234L120.206 62.9716C120.796 62.6437 121.406 62.3534 122.032 62.1025C122.558 61.8891 123.097 61.7071 123.645 61.5575C124.067 61.44 124.494 61.3456 124.927 61.2747C125.3 61.2376 125.675 61.2261 126.05 61.2402Z" fill="#B76A6A"/>
</g>
<path d="M106.099 86.8177H102.046C102.046 86.4866 102.556 53.4868 133.535 53.4868C164.513 53.4868 164.782 86.4935 164.782 86.8246H160.73C160.73 85.6312 160.357 57.5428 133.535 57.5428C122.225 57.5428 114.19 62.4196 109.641 72.0285C107.513 76.6814 106.309 81.7046 106.099 86.8177Z" fill="#5D93F4"/>
<path opacity="0.5" d="M106.099 86.8174C106.299 81.7014 107.493 76.6735 109.614 72.0144C114.162 62.3987 122.198 57.5287 133.507 57.5287C160.33 57.5287 160.702 85.6171 160.702 86.8105H162.832C162.68 82.582 160.371 56.0732 133.528 56.0732C106.685 56.0732 104.183 82.6372 103.976 86.8243L106.099 86.8174Z" fill="#1A65D3"/>
<path d="M160.22 102.738L149.117 112.243C148.221 113.009 149.358 114.458 150.261 113.685L161.364 104.18C162.259 103.407 161.122 101.965 160.22 102.738Z" fill="#5D93F4"/>
<path d="M153.355 110.105C153.671 110.516 153.815 111.034 153.756 111.549C153.696 112.064 153.439 112.536 153.038 112.864L149.944 115.32C149.535 115.64 149.016 115.786 148.5 115.726C147.985 115.667 147.513 115.407 147.187 115.003C146.868 114.593 146.722 114.074 146.781 113.558C146.84 113.042 147.1 112.57 147.504 112.243L150.598 109.781C151.008 109.463 151.526 109.318 152.041 109.377C152.557 109.437 153.028 109.695 153.355 110.098V110.105Z" fill="#1A65D3"/>
<path opacity="0.5" d="M153.355 110.105C153.133 109.831 152.84 109.623 152.509 109.502C152.178 109.38 151.821 109.35 151.474 109.415C151.583 109.503 151.682 109.603 151.77 109.712C151.933 109.916 152.054 110.15 152.126 110.401C152.198 110.652 152.22 110.915 152.19 111.174C152.161 111.434 152.081 111.685 151.954 111.913C151.828 112.142 151.658 112.343 151.453 112.505L148.359 114.968C148.096 115.174 147.785 115.309 147.456 115.361C147.808 115.646 148.247 115.802 148.7 115.802C149.153 115.802 149.592 115.646 149.944 115.361L153.038 112.905C153.451 112.576 153.717 112.096 153.776 111.571C153.836 111.046 153.684 110.518 153.355 110.105Z" fill="#0952AA"/>
<path d="M105.595 84.6724H104.1V85.4518C102.542 87.1004 101.439 91.1909 101.439 95.9781C101.439 100.765 102.542 104.856 104.1 106.504V107.291H105.623C107.938 107.291 109.813 102.228 109.813 95.9781C109.813 89.7286 107.911 84.6724 105.595 84.6724Z" fill="#1A65D3"/>
<path d="M104.1 84.6724C103.707 84.6857 103.328 84.8233 103.018 85.0655C101.44 85.9002 98.6968 88.4317 98.6968 95.9781C98.6968 102.773 100.916 105.414 102.508 106.442C102.698 106.689 102.938 106.892 103.212 107.039C103.487 107.185 103.789 107.271 104.1 107.291C106.416 107.291 108.29 102.228 108.29 95.9781C108.29 89.7286 106.388 84.6724 104.1 84.6724Z" fill="#5D93F4"/>
<path opacity="0.2" d="M105.278 85.1484C106.34 87.2178 107.029 90.5495 107.029 94.3434C107.029 100.593 105.154 105.656 102.846 105.656C102.535 105.636 102.233 105.55 101.958 105.404C101.683 105.258 101.443 105.054 101.254 104.808C100.924 104.593 100.617 104.346 100.337 104.07C100.847 105.024 101.583 105.838 102.48 106.442C102.67 106.689 102.91 106.892 103.185 107.039C103.459 107.185 103.762 107.271 104.072 107.291C106.388 107.291 108.262 102.228 108.262 95.9782C108.235 90.8668 107.001 86.5487 105.278 85.1484Z" fill="#814C4A"/>
<path opacity="0.2" d="M102.611 87.7075L102.48 88.2731C102.405 88.6318 102.301 89.1216 102.198 89.701C102.15 89.9976 102.087 90.3011 102.039 90.6322C101.991 90.9633 101.929 91.322 101.881 91.66C101.832 91.998 101.791 92.3912 101.729 92.7568L101.605 93.8881C101.573 94.2744 101.538 94.6537 101.502 95.0262C101.502 95.4056 101.44 95.785 101.419 96.1506C101.398 96.5162 101.371 96.8404 101.343 97.2129C101.316 97.5854 101.302 97.9027 101.281 98.1786C101.219 98.7925 101.205 99.303 101.157 99.6754C101.109 100.048 101.081 100.269 101.081 100.269C101.081 100.269 100.992 100.089 100.861 99.7513C100.672 99.2856 100.52 98.8059 100.406 98.3166C100.337 98.0061 100.254 97.6681 100.199 97.3094C100.144 96.9508 100.103 96.5645 100.068 96.1575C100.034 95.7505 100.027 95.3366 100.027 94.909C100.027 94.4813 100.068 94.0536 100.096 93.619C100.123 93.1845 100.206 92.7568 100.289 92.3429C100.367 91.9381 100.466 91.5375 100.585 91.1427C100.696 90.7823 100.824 90.4277 100.971 90.0804C101.101 89.7766 101.246 89.4796 101.405 89.1906C101.637 88.7789 101.914 88.3948 102.232 88.0455C102.346 87.9191 102.473 87.8057 102.611 87.7075Z" fill="white"/>
<path d="M160.612 84.6724H162.135V85.4518C163.693 87.1004 164.802 91.1909 164.802 95.9781C164.802 100.765 163.693 104.856 162.135 106.504V107.291H160.612C158.296 107.291 156.422 102.228 156.422 95.9781C156.422 89.7286 158.31 84.6724 160.612 84.6724Z" fill="#1A65D3"/>
<path d="M162.149 84.6724C162.544 84.6856 162.925 84.8232 163.238 85.0655C164.809 85.9002 167.552 88.4317 167.552 95.9781C167.552 102.773 165.333 105.414 163.741 106.442C163.551 106.689 163.311 106.892 163.037 107.039C162.762 107.185 162.46 107.271 162.149 107.291C159.84 107.291 157.966 102.228 157.966 95.9781C157.966 89.7286 159.84 84.6724 162.149 84.6724Z" fill="#5D93F4"/>
<path opacity="0.2" d="M160.95 85.1484C159.889 87.2178 159.193 90.5495 159.193 94.3434C159.193 100.593 161.067 105.656 163.383 105.656C163.692 105.635 163.993 105.549 164.267 105.403C164.54 105.256 164.779 105.053 164.968 104.808C165.301 104.595 165.611 104.348 165.891 104.07C165.377 105.023 164.639 105.837 163.741 106.442C163.551 106.689 163.311 106.892 163.037 107.039C162.762 107.185 162.46 107.271 162.149 107.291C159.84 107.291 157.966 102.228 157.966 95.9782C157.966 90.8668 159.234 86.5487 160.95 85.1484Z" fill="#814C4A"/>
<path opacity="0.2" d="M163.617 87.7075C163.617 87.7075 163.659 87.9145 163.741 88.2731C163.824 88.6318 163.92 89.1216 164.024 89.701C164.072 89.9976 164.141 90.3011 164.189 90.6322C164.237 90.9633 164.293 91.322 164.348 91.66C164.403 91.998 164.437 92.3912 164.492 92.7568L164.617 93.8881L164.72 95.0262C164.72 95.4056 164.782 95.785 164.809 96.1506C164.837 96.5162 164.851 96.8404 164.878 97.2129C164.906 97.5854 164.92 97.9027 164.94 98.1786C165.002 98.7925 165.016 99.303 165.064 99.6754C165.113 100.048 165.14 100.269 165.14 100.269C165.14 100.269 165.23 100.089 165.361 99.7513C165.552 99.286 165.707 98.8062 165.823 98.3166C165.891 98.0061 165.967 97.6681 166.029 97.3094C166.091 96.9508 166.119 96.5645 166.16 96.1575C166.202 95.7505 166.195 95.3366 166.195 94.909C166.195 94.4813 166.153 94.0536 166.126 93.619C166.098 93.1845 166.016 92.7568 165.94 92.3429C165.864 91.9291 165.761 91.5221 165.636 91.1427C165.433 90.4625 165.158 89.8059 164.816 89.1837C164.587 88.7725 164.312 88.3884 163.996 88.0386C163.881 87.9166 163.754 87.8058 163.617 87.7075Z" fill="white"/>
<path d="M254.023 228.156H12.9634V240H254.023V228.156Z" fill="#5D93F4"/>
<path d="M264.995 231.378C264.971 232.252 264.603 233.082 263.97 233.686C263.337 234.289 262.491 234.618 261.618 234.599H5.36186C4.92149 234.628 4.47989 234.566 4.06438 234.417C3.64888 234.268 3.26831 234.036 2.94622 233.734C2.62414 233.432 2.36739 233.067 2.19187 232.662C2.01635 232.256 1.92578 231.819 1.92578 231.378C1.92578 230.936 2.01635 230.499 2.19187 230.094C2.36739 229.688 2.62414 229.324 2.94622 229.022C3.26831 228.72 3.64888 228.487 4.06438 228.338C4.47989 228.189 4.92149 228.127 5.36186 228.156H261.618C262.491 228.138 263.337 228.466 263.97 229.07C264.603 229.673 264.971 230.503 264.995 231.378Z" fill="#2D80E2"/>
<path d="M193.141 225.307C193.14 226.064 192.838 226.788 192.303 227.322C191.768 227.856 191.044 228.156 190.288 228.156H76.6916C76.3172 228.157 75.9463 228.084 75.6002 227.941C75.2541 227.799 74.9395 227.589 74.6745 227.324C74.4094 227.06 74.1992 226.745 74.0557 226.399C73.9122 226.053 73.8384 225.682 73.8384 225.307C73.8384 224.55 74.139 223.824 74.6741 223.288C75.2091 222.753 75.9348 222.452 76.6916 222.452H190.288C191.045 222.452 191.771 222.753 192.306 223.288C192.841 223.824 193.141 224.55 193.141 225.307Z" fill="#184A7C"/>
<path d="M178.731 162.957H88.2488C85.2648 162.957 82.8457 165.378 82.8457 168.365V217.982C82.8457 220.969 85.2648 223.39 88.2488 223.39H178.731C181.715 223.39 184.134 220.969 184.134 217.982V168.365C184.134 165.378 181.715 162.957 178.731 162.957Z" fill="#1D5393"/>
<path d="M137.484 192.749C137.485 193.541 137.252 194.316 136.813 194.975C136.374 195.634 135.75 196.147 135.019 196.451C134.289 196.755 133.484 196.835 132.708 196.68C131.932 196.526 131.219 196.145 130.66 195.585C130.101 195.025 129.72 194.312 129.566 193.535C129.412 192.758 129.491 191.953 129.795 191.222C130.098 190.491 130.612 189.866 131.27 189.427C131.928 188.988 132.702 188.754 133.493 188.755C134.552 188.755 135.567 189.176 136.315 189.925C137.063 190.674 137.484 191.69 137.484 192.749Z" fill="#5D93F4"/>
<path opacity="0.6" d="M178.73 162.992H159.234C158.097 199.703 108.173 216.996 85.9263 222.887C86.6477 223.238 87.4394 223.422 88.2419 223.425H178.73C180.162 223.419 181.533 222.848 182.545 221.835C183.557 220.822 184.128 219.449 184.134 218.017V168.365C184.119 166.939 183.544 165.575 182.533 164.569C181.522 163.564 180.156 162.997 178.73 162.992Z" fill="#114068"/>
<path d="M58.842 50.1621H28.601C26.8421 50.1639 25.1558 50.8646 23.9126 52.1102C22.6695 53.3557 21.9712 55.0443 21.9712 56.8048V78.2367C21.9712 79.9973 22.6695 81.6858 23.9126 82.9314C25.1558 84.1769 26.8421 84.8776 28.601 84.8794H43.3632L51.8193 91.0876V84.8794H58.842C60.6022 84.8794 62.2903 84.1796 63.5349 82.9338C64.7796 81.6881 65.4788 79.9985 65.4788 78.2367V56.8048C65.4788 55.0431 64.7796 53.3535 63.5349 52.1077C62.2903 50.862 60.6022 50.1621 58.842 50.1621Z" fill="#5D93F4"/>
<path d="M44.8311 58.6257C44.8311 58.8946 44.7244 59.1525 44.5344 59.3427C44.3444 59.5328 44.0867 59.6397 43.818 59.6397H28.2909C28.0222 59.6397 27.7646 59.5328 27.5746 59.3427C27.3846 59.1525 27.2778 58.8946 27.2778 58.6257C27.2778 58.3567 27.3846 58.0988 27.5746 57.9087C27.7646 57.7185 28.0222 57.6117 28.2909 57.6117H43.7767C43.9131 57.6061 44.0493 57.6282 44.1771 57.6767C44.3048 57.7251 44.4214 57.7989 44.5199 57.8936C44.6184 57.9884 44.6968 58.102 44.7502 58.2278C44.8037 58.3536 44.8312 58.489 44.8311 58.6257Z" fill="#A9D0FF"/>
<path d="M61.4058 64.158C61.4058 64.427 61.299 64.6849 61.109 64.875C60.919 65.0652 60.6614 65.172 60.3927 65.172H28.2909C28.0222 65.172 27.7646 65.0652 27.5746 64.875C27.3846 64.6849 27.2778 64.427 27.2778 64.158C27.2778 63.8891 27.3846 63.6312 27.5746 63.441C27.7646 63.2509 28.0222 63.144 28.2909 63.144H60.3651C60.6338 63.144 60.8915 63.2509 61.0815 63.441C61.2715 63.6312 61.3782 63.8891 61.3782 64.158H61.4058Z" fill="#A9D0FF"/>
<path d="M61.4058 69.6971C61.4058 69.966 61.299 70.2239 61.109 70.4141C60.919 70.6043 60.6614 70.7111 60.3927 70.7111H28.2909C28.0222 70.7111 27.7646 70.6043 27.5746 70.4141C27.3846 70.2239 27.2778 69.966 27.2778 69.6971C27.2778 69.4282 27.3846 69.1703 27.5746 68.9801C27.7646 68.7899 28.0222 68.6831 28.2909 68.6831H60.3651C60.6338 68.6831 60.8915 68.7899 61.0815 68.9801C61.2715 69.1703 61.3782 69.4282 61.3782 69.6971H61.4058Z" fill="#A9D0FF"/>
<path d="M55.8579 75.2288C55.8579 75.4978 55.7512 75.7557 55.5612 75.9458C55.3712 76.136 55.1135 76.2428 54.8448 76.2428H28.2909C28.0222 76.2428 27.7646 76.136 27.5746 75.9458C27.3846 75.7557 27.2778 75.4978 27.2778 75.2288C27.2778 74.9599 27.3846 74.702 27.5746 74.5118C27.7646 74.3217 28.0222 74.2148 28.2909 74.2148H54.831C55.0997 74.2148 55.3574 74.3217 55.5474 74.5118C55.7374 74.702 55.8441 74.9599 55.8441 75.2288H55.8579Z" fill="#A9D0FF"/>
<path opacity="0.1" d="M58.8417 50.1621H58.3042C58.5798 68.0968 44.5896 79.0921 33.8867 84.8794H43.3629L51.819 90.3978V84.8794H58.8417C60.6019 84.8794 62.29 84.1796 63.5346 82.9338C64.7793 81.6881 65.4785 79.9985 65.4785 78.2367V56.8048C65.4785 55.0431 64.7793 53.3535 63.5346 52.1077C62.29 50.862 60.6019 50.1621 58.8417 50.1621Z" fill="#114068"/>
<path d="M52.4532 135.42H22.7222V153.948H52.4532V135.42Z" fill="#FAC849"/>
<path d="M22.729 135.42H52.4531L37.5876 148.375L22.729 135.42Z" fill="#F4B425"/>
<path d="M23.2186 154.548L33.2874 141.146C33.887 140.338 32.9084 139.138 32.3019 139.945L22.2331 153.334C21.6266 154.134 22.6121 155.342 23.2186 154.528V154.548Z" fill="#F4B425"/>
<path d="M52.722 153.334L42.6532 139.925C42.0467 139.118 41.0612 140.318 41.6676 141.125L51.7227 154.548C52.3292 155.362 53.3078 154.155 52.7082 153.355L52.722 153.334Z" fill="#F4B425"/>
<path opacity="0.1" d="M33.1147 153.948H52.4805V135.4H43.6729C45.382 144.643 39.3724 150.465 33.1147 153.948Z" fill="#114068"/>
<path d="M213.72 104.752H187.028C186.178 104.752 185.363 105.09 184.762 105.691C184.161 106.293 183.824 107.109 183.824 107.959V118.306C183.824 119.157 184.161 119.973 184.762 120.574C185.363 121.176 186.178 121.514 187.028 121.514H200.199L204.285 126.467V121.514H213.72C214.57 121.514 215.385 121.176 215.986 120.574C216.587 119.973 216.925 119.157 216.925 118.306V107.959C216.925 107.109 216.587 106.293 215.986 105.691C215.385 105.09 214.57 104.752 213.72 104.752Z" fill="#FAC849"/>
<path d="M193.747 112.837C193.747 113.2 193.64 113.554 193.439 113.856C193.237 114.158 192.951 114.393 192.616 114.532C192.281 114.671 191.912 114.707 191.557 114.636C191.201 114.566 190.874 114.391 190.618 114.134C190.362 113.878 190.187 113.551 190.116 113.195C190.046 112.839 190.082 112.47 190.221 112.135C190.359 111.799 190.594 111.513 190.896 111.311C191.197 111.11 191.552 111.002 191.914 111.002C192.155 111.002 192.393 111.049 192.616 111.142C192.838 111.234 193.04 111.369 193.211 111.539C193.381 111.71 193.516 111.912 193.608 112.135C193.7 112.357 193.747 112.596 193.747 112.837Z" fill="white"/>
<path d="M202.204 112.837C202.204 113.2 202.096 113.554 201.895 113.856C201.694 114.158 201.407 114.393 201.072 114.532C200.737 114.671 200.369 114.707 200.013 114.636C199.658 114.566 199.331 114.391 199.075 114.134C198.818 113.878 198.644 113.551 198.573 113.195C198.502 112.839 198.538 112.47 198.677 112.135C198.816 111.799 199.051 111.513 199.352 111.311C199.654 111.11 200.008 111.002 200.371 111.002C200.857 111.002 201.323 111.195 201.667 111.539C202.011 111.883 202.204 112.35 202.204 112.837Z" fill="white"/>
<path d="M210.66 112.837C210.66 113.2 210.552 113.555 210.351 113.857C210.149 114.159 209.862 114.394 209.527 114.533C209.191 114.671 208.822 114.707 208.467 114.636C208.111 114.565 207.784 114.389 207.528 114.132C207.272 113.875 207.098 113.547 207.028 113.191C206.958 112.834 206.995 112.465 207.135 112.13C207.275 111.795 207.511 111.509 207.813 111.308C208.116 111.107 208.471 111.001 208.834 111.002C209.319 111.004 209.783 111.198 210.126 111.542C210.468 111.886 210.66 112.351 210.66 112.837Z" fill="white"/>
<path opacity="0.1" d="M109.476 34.5036C109.476 33.751 109.177 33.0292 108.646 32.4964C108.115 31.9637 107.395 31.6634 106.643 31.6616H101.819C102.177 39.9392 94.4447 44.2918 87.6426 46.4922H91.4055V50.8724L95.0168 46.4922H106.664C107.411 46.4867 108.127 46.1856 108.653 45.6546C109.18 45.1235 109.476 44.4055 109.476 43.6571V34.5036Z" fill="#114068"/>
<path d="M257.202 81.3528C257.441 71.7517 249.859 63.7742 240.267 63.5346C230.674 63.2949 222.704 70.8838 222.464 80.4849C222.225 90.0859 229.807 98.0634 239.399 98.3031C248.992 98.5428 256.962 90.9539 257.202 81.3528Z" fill="#FC8B3F"/>
<path d="M248.496 73.4907L238.799 82.2442L232.596 79.147C231.342 78.5193 230.233 80.4024 231.494 81.037L238.385 84.486C238.597 84.6021 238.84 84.6479 239.079 84.6169C239.318 84.5859 239.541 84.4797 239.716 84.3135L250.005 75.022C251.094 74.0908 249.516 72.5525 248.496 73.4907Z" fill="white"/>
<path d="M239.847 67.3585C240.345 67.3585 240.749 66.954 240.749 66.4549C240.749 65.9558 240.345 65.5513 239.847 65.5513C239.348 65.5513 238.944 65.9558 238.944 66.4549C238.944 66.954 239.348 67.3585 239.847 67.3585Z" fill="#F46C0F"/>
<path d="M240.749 95.5917C240.752 95.7719 240.701 95.9487 240.602 96.0996C240.504 96.2504 240.363 96.3683 240.197 96.4382C240.031 96.5081 239.848 96.5267 239.671 96.4917C239.495 96.4567 239.333 96.3697 239.206 96.2418C239.079 96.1139 238.993 95.9509 238.96 95.7739C238.926 95.5969 238.946 95.4139 239.017 95.2484C239.088 95.0828 239.207 94.9424 239.359 94.845C239.51 94.7476 239.687 94.6978 239.867 94.7019C240.101 94.7055 240.325 94.8006 240.489 94.9669C240.654 95.1332 240.748 95.3575 240.749 95.5917Z" fill="#F46C0F"/>
<path d="M254.402 81.9269C254.223 81.9269 254.049 81.8739 253.9 81.7746C253.752 81.6753 253.636 81.5342 253.568 81.3691C253.499 81.2039 253.482 81.0223 253.516 80.847C253.551 80.6717 253.637 80.5107 253.763 80.3843C253.89 80.2579 254.051 80.1719 254.226 80.137C254.401 80.1021 254.582 80.12 254.747 80.1884C254.912 80.2568 255.053 80.3726 255.152 80.5212C255.252 80.6698 255.305 80.8445 255.305 81.0233C255.305 81.2629 255.21 81.4928 255.04 81.6622C254.871 81.8317 254.641 81.9269 254.402 81.9269Z" fill="#F46C0F"/>
<path d="M225.298 81.9269C225.12 81.9269 224.945 81.8739 224.797 81.7746C224.648 81.6753 224.533 81.5342 224.464 81.3691C224.396 81.2039 224.378 81.0223 224.413 80.847C224.448 80.6717 224.534 80.5107 224.66 80.3843C224.786 80.2579 224.947 80.1719 225.122 80.137C225.297 80.1021 225.479 80.12 225.644 80.1884C225.809 80.2568 225.95 80.3726 226.049 80.5212C226.148 80.6698 226.201 80.8445 226.201 81.0233C226.201 81.2629 226.106 81.4928 225.937 81.6622C225.767 81.8317 225.538 81.9269 225.298 81.9269Z" fill="#F46C0F"/>
<path d="M247.972 68.9105C247.85 69.1172 247.652 69.2672 247.42 69.3273C247.188 69.3875 246.941 69.3529 246.735 69.2313C246.528 69.1096 246.379 68.9108 246.318 68.6786C246.258 68.4464 246.293 68.1998 246.414 67.9931C246.536 67.7863 246.735 67.6364 246.967 67.5763C247.199 67.5161 247.445 67.5507 247.651 67.6723C247.858 67.794 248.008 67.9928 248.068 68.225C248.128 68.4572 248.094 68.7038 247.972 68.9105Z" fill="#F46C0F"/>
<path d="M233.279 94.0534C233.189 94.2079 233.055 94.3322 232.894 94.4106C232.734 94.489 232.554 94.518 232.377 94.4938C232.2 94.4697 232.034 94.3935 231.9 94.275C231.766 94.1565 231.671 94.0009 231.625 93.8279C231.58 93.655 231.587 93.4725 231.645 93.3035C231.703 93.1345 231.811 92.9866 231.953 92.8785C232.095 92.7705 232.266 92.7071 232.445 92.6964C232.623 92.6858 232.801 92.7283 232.955 92.8187C233.058 92.8779 233.148 92.9569 233.22 93.0513C233.292 93.1456 233.344 93.2534 233.375 93.3682C233.405 93.4831 233.412 93.6028 233.395 93.7204C233.379 93.8381 233.339 93.9512 233.279 94.0534Z" fill="#F46C0F"/>
<path d="M251.956 89.1835C251.853 89.1242 251.763 89.0452 251.691 88.9508C251.618 88.8565 251.566 88.7488 251.536 88.6339C251.506 88.519 251.499 88.3993 251.515 88.2817C251.531 88.1641 251.571 88.0509 251.632 87.9488C251.758 87.7536 251.954 87.6146 252.18 87.5607C252.406 87.5069 252.644 87.5422 252.845 87.6595C253.045 87.7767 253.193 87.9668 253.257 88.1903C253.321 88.4138 253.297 88.6534 253.189 88.8593C253.13 88.9622 253.051 89.0524 252.957 89.1245C252.863 89.1966 252.755 89.2493 252.64 89.2795C252.525 89.3097 252.406 89.3167 252.288 89.3002C252.171 89.2837 252.058 89.244 251.956 89.1835Z" fill="#F46C0F"/>
<path d="M226.835 74.4495C226.732 74.3903 226.642 74.3113 226.57 74.2169C226.498 74.1226 226.445 74.0148 226.415 73.9C226.385 73.7851 226.378 73.6654 226.394 73.5477C226.411 73.4301 226.451 73.317 226.511 73.2148C226.601 73.0603 226.735 72.936 226.895 72.8576C227.056 72.7792 227.236 72.7502 227.413 72.7744C227.59 72.7985 227.756 72.8747 227.89 72.9932C228.023 73.1117 228.119 73.2673 228.164 73.4403C228.21 73.6132 228.203 73.7957 228.144 73.9647C228.086 74.1337 227.979 74.2816 227.837 74.3897C227.694 74.4977 227.523 74.5611 227.345 74.5718C227.167 74.5824 226.989 74.5399 226.835 74.4495Z" fill="#F46C0F"/>
<path d="M231.721 68.9106C231.812 69.0641 231.946 69.1873 232.107 69.2647C232.267 69.3421 232.447 69.3702 232.624 69.3454C232.8 69.3206 232.966 69.2441 233.099 69.1254C233.232 69.0068 233.327 68.8514 233.372 68.6788C233.417 68.5062 233.41 68.3241 233.352 68.1555C233.294 67.9869 233.187 67.8392 233.045 67.7312C232.903 67.6233 232.732 67.5597 232.554 67.5486C232.377 67.5375 232.199 67.5794 232.045 67.6689C231.84 67.7924 231.691 67.9916 231.63 68.2236C231.57 68.4557 231.602 68.7023 231.721 68.9106Z" fill="#F46C0F"/>
<path d="M246.414 94.0535C246.536 94.2587 246.734 94.4076 246.965 94.4683C247.195 94.5289 247.441 94.4964 247.648 94.3777C247.802 94.2877 247.926 94.1539 248.005 93.9932C248.083 93.8325 248.112 93.6522 248.088 93.475C248.064 93.2978 247.988 93.1318 247.869 92.998C247.751 92.8641 247.595 92.7684 247.423 92.723C247.25 92.6776 247.067 92.6845 246.899 92.7429C246.73 92.8012 246.582 92.9084 246.474 93.0509C246.366 93.1933 246.303 93.3646 246.292 93.5431C246.281 93.7216 246.324 93.8992 246.414 94.0535Z" fill="#F46C0F"/>
<path d="M227.745 89.1834C227.899 89.0934 228.023 88.9596 228.101 88.7989C228.18 88.6382 228.209 88.4578 228.185 88.2807C228.16 88.1035 228.084 87.9375 227.966 87.8036C227.848 87.6697 227.692 87.5741 227.519 87.5287C227.347 87.4832 227.164 87.4902 226.995 87.5485C226.826 87.6069 226.679 87.7141 226.571 87.8565C226.463 87.999 226.399 88.1703 226.389 88.3488C226.378 88.5273 226.421 88.7049 226.511 88.8592C226.57 88.9621 226.649 89.0523 226.743 89.1244C226.838 89.1966 226.945 89.2493 227.06 89.2794C227.175 89.3096 227.294 89.3166 227.412 89.3001C227.529 89.2837 227.642 89.244 227.745 89.1834Z" fill="#F46C0F"/>
<path d="M252.865 74.4495C253.019 74.3595 253.144 74.2257 253.222 74.065C253.3 73.9043 253.329 73.7239 253.305 73.5468C253.281 73.3696 253.205 73.2036 253.087 73.0697C252.968 72.9359 252.813 72.8402 252.64 72.7948C252.467 72.7494 252.285 72.7563 252.116 72.8146C251.947 72.873 251.799 72.9802 251.691 73.1227C251.583 73.2651 251.52 73.4364 251.509 73.6149C251.499 73.7934 251.541 73.971 251.632 74.1253C251.752 74.3319 251.95 74.482 252.181 74.5428C252.413 74.6035 252.659 74.57 252.865 74.4495Z" fill="#F46C0F"/>
<path d="M227.462 182.375C224.058 179.484 219.02 187.32 218.007 191.342C217.462 188.1 216.725 184.894 215.801 181.74C217.704 181.837 224.478 173.918 220.881 171.959C217.979 170.379 215.484 176.573 215.209 179.836C214.357 177.205 213.338 174.631 212.156 172.131C214.719 171.441 220.681 158.735 215.278 157.452C211.184 156.48 209.985 164.35 210.515 168.944C209.306 166.767 207.923 164.691 206.38 162.736C208.448 161.129 211.239 150.168 206.608 149.913C203.003 149.713 203.162 156.459 204.272 160.322C203.383 159.377 202.442 158.484 201.453 157.645C202.301 154.962 190.805 142.76 187.152 148.113C183.707 153.21 197.6 159.149 200.826 158.177C202.048 159.213 203.199 160.331 204.272 161.522C200.791 160.032 193.465 159.198 193.445 162.902C193.445 167.427 204.313 165.323 205.85 163.405C207.513 165.532 208.982 167.804 210.24 170.193C206.58 167.785 198.386 165.33 197.607 169.565C196.677 174.614 209.02 174.539 211.542 172.78C212.523 174.888 213.384 177.051 214.12 179.257C211.701 176.987 207.228 174.552 206.029 177.111C204.451 180.395 212.569 182.678 215.036 182.147C215.788 184.727 216.415 187.355 216.89 189.962C214.389 186.41 209.309 182.078 207.07 185.037C204.099 188.928 214.52 194.191 217.531 193.867C218.001 197.123 218.295 200.402 218.413 203.689C218.413 204.227 219.275 204.234 219.261 203.689C219.15 200.298 218.853 196.915 218.372 193.556C220.763 194.205 231.597 185.844 227.462 182.375Z" fill="#19E024"/>
<path d="M248.51 153.955C249.626 152.157 250.805 150.389 252.045 148.651C255.215 149.113 267.848 140.063 263.279 135.814C258.599 131.468 250.281 145.415 251.377 148.161C250.522 149.361 249.7 150.58 248.909 151.817C249.55 147.988 249.13 142.546 245.946 142.884C241.494 143.353 244.685 153.755 246.759 155.259C246.27 156.08 245.787 156.894 245.312 157.708C244.313 159.439 243.368 161.191 242.466 162.971C243.003 158.708 241.928 151.244 238.089 152.169C233.003 153.362 238.778 165.509 241.066 165.813C239.578 168.949 238.234 172.15 237.035 175.415C237.104 170.158 234.588 160.853 229.95 162.612C223.865 164.902 233.031 179.022 235.836 178.822C234.761 182.041 233.819 185.299 233.01 188.597C232.321 185.065 229.84 180.015 227.125 181.547C223.548 183.554 229.957 191.128 232.286 191.708C230.907 198.008 229.986 204.401 229.53 210.835C229.495 211.374 230.322 211.525 230.364 210.973C230.814 204.529 231.735 198.127 233.12 191.818C235.319 192.763 245.401 190.004 243.492 186.168C241.914 182.995 235.98 186.817 233.651 189.542C234.492 186.037 235.486 182.577 236.635 179.16C240.033 180.864 254.871 179.029 252.962 173.076C251.37 168.103 241.935 172.283 237.8 175.753C238.994 172.534 240.322 169.358 241.783 166.227C244.54 167.896 256.325 167.917 255.436 163.005C254.685 158.866 246.828 161.15 243.127 163.474C243.933 161.867 244.767 160.274 245.656 158.701C246.222 157.687 246.814 156.673 247.421 155.659C249.02 157.57 260.515 159.232 260.246 154.541C260.088 150.492 251.7 152.106 248.51 153.955Z" fill="#19E024"/>
<path d="M240.86 225.266C240.731 226.056 240.33 226.777 239.728 227.305C239.126 227.832 238.359 228.133 237.559 228.156H212.611C211.814 228.139 211.051 227.837 210.457 227.306C209.863 226.775 209.478 226.049 209.371 225.259L206.374 198.392C206.325 198.025 206.356 197.653 206.464 197.3C206.573 196.947 206.757 196.621 207.003 196.346C207.249 196.071 207.552 195.852 207.891 195.705C208.229 195.558 208.596 195.486 208.965 195.495H241.935C242.301 195.485 242.665 195.556 243.001 195.703C243.337 195.85 243.636 196.07 243.877 196.345C244.119 196.621 244.297 196.947 244.398 197.3C244.499 197.652 244.522 198.023 244.464 198.385L240.86 225.266Z" fill="#FC8B3F"/>
<path opacity="0.1" d="M241.935 195.494H235.946C236.842 204.841 234.919 218.789 218.833 228.156H237.558C238.358 228.133 239.125 227.832 239.728 227.305C240.33 226.777 240.73 226.056 240.86 225.266L244.464 198.364C244.518 198.003 244.493 197.635 244.39 197.285C244.287 196.935 244.109 196.612 243.868 196.339C243.627 196.065 243.329 195.848 242.995 195.702C242.661 195.556 242.299 195.485 241.935 195.494Z" fill="#114068"/>
<path d="M248.296 198.047C248.297 198.546 248.199 199.041 248.009 199.502C247.818 199.964 247.538 200.383 247.186 200.736C246.833 201.09 246.414 201.369 245.953 201.56C245.492 201.751 244.997 201.849 244.498 201.848H206.346C205.846 201.849 205.352 201.751 204.89 201.56C204.429 201.37 204.01 201.09 203.656 200.737C203.303 200.384 203.022 199.965 202.831 199.503C202.64 199.041 202.542 198.547 202.542 198.047C202.543 197.038 202.945 196.071 203.658 195.359C204.371 194.646 205.338 194.246 206.346 194.246H244.498C245.506 194.246 246.471 194.647 247.184 195.359C247.896 196.072 248.296 197.039 248.296 198.047Z" fill="#F46C0F"/>
<path d="M51.4746 226.914C50.9891 226.916 50.5046 226.872 50.0273 226.783C44.7827 225.79 41.5367 219.561 42.7979 212.898C43.935 206.862 48.3113 202.475 53.1355 202.475C53.6234 202.476 54.1102 202.522 54.5896 202.613C59.8343 203.606 63.0734 209.828 61.8191 216.492C60.6819 222.534 56.3264 226.914 51.4746 226.914ZM53.1355 205.855C49.9584 205.855 46.9329 209.152 46.1128 213.526C45.2031 218.354 47.2361 222.81 50.6544 223.459C50.9246 223.512 51.1993 223.537 51.4746 223.534C54.6586 223.534 57.6771 220.237 58.4973 215.864C59.4139 211.035 57.3739 206.579 53.9625 205.931C53.6895 205.882 53.4128 205.857 53.1355 205.855Z" fill="#FC8B3F"/>
<path d="M51.1989 199.626H25.858C25.858 199.626 22.481 219.52 32.5016 228.156H44.5553C54.5759 219.555 51.1989 199.626 51.1989 199.626Z" fill="#FC8B3F"/>
<path opacity="0.1" d="M39.1381 228.156H44.5551C54.5757 219.52 51.1987 199.626 51.1987 199.626H44.4586C42.4806 206.987 38.0768 218.347 28.9521 223.769C29.8825 225.411 31.0823 226.885 32.5014 228.129H39.1381V228.156Z" fill="#114068"/>
<path d="M34.5898 197.536C34.5898 197.536 31.1439 195.226 31.9709 192.08C32.7979 188.935 36.8779 183.216 33.2115 179.367C33.2115 179.367 39.1039 182.52 37.2156 187.038C35.3272 191.556 33.0185 193.446 34.5898 197.536Z" fill="#CEDDF4"/>
<path d="M43.5766 193.17C43.5766 193.17 40.1307 190.859 40.9578 187.707C41.7848 184.555 45.8647 178.85 42.1983 175.001C42.1983 175.001 48.0907 178.153 46.2024 182.671C44.314 187.19 42.0053 189.073 43.5766 193.17Z" fill="#CEDDF4"/>
<path d="M51.1988 199.627C51.1988 201.006 45.4855 202.131 38.4422 202.131C31.3988 202.131 25.6855 201.006 25.6855 199.627C25.6855 198.247 31.3919 197.116 38.4422 197.116C45.4924 197.116 51.1988 198.24 51.1988 199.627Z" fill="#F46C0F"/>
<path d="M27.4019 200.875C29.6072 201.627 33.7216 202.13 38.4286 202.13C43.1357 202.13 47.257 201.627 49.4554 200.875C47.2501 200.13 43.1357 199.626 38.4286 199.626C33.7216 199.626 29.6072 200.13 27.4019 200.875Z" fill="#AF622E"/>
</svg>
