<svg width="96" height="49" viewBox="0 0 96 49" fill="none" xmlns="http://www.w3.org/2000/svg">
<g clip-path="url(#clip0_2_7277)">
<path d="M82.4094 28.0492C82.4628 28.445 82.48 28.8448 82.4607 29.2437C82.3453 30.1235 81.696 30.693 80.7862 30.8193C79.605 30.982 78.5158 30.6716 77.4713 30.1771C76.3814 29.6427 75.3637 28.9716 74.4427 28.1798C74.0155 27.8073 73.5585 27.452 73.1292 27.0731C72.2748 26.3303 71.271 25.9728 70.1838 25.8015C68.7101 25.5682 67.2235 25.6431 65.7391 25.6731C64.417 25.6988 63.0971 25.7951 61.775 25.6538C58.8254 25.3391 56.4717 24.0141 54.7907 21.5566C54.229 20.7324 53.7228 19.8697 53.2359 18.9878C52.9851 18.5073 52.6242 18.0934 52.1827 17.78C51.7412 17.4667 51.2318 17.2628 50.6963 17.1853C49.9192 17.0661 49.1314 17.0316 48.3469 17.0826C46.3947 17.1939 44.4447 17.2816 42.4883 17.2324C40.4998 17.1766 38.5287 16.8437 36.6318 16.2434C36.4032 16.1728 36.179 16.0914 35.9462 16.0122C35.8201 16.1792 35.7112 16.3526 35.5745 16.5003C35.047 17.0654 34.3528 17.2966 33.6202 17.4229C31.9115 17.7183 30.2499 17.4229 28.633 16.892C27.8107 16.6159 27.0226 16.2349 26.2259 15.8881C25.2562 15.4599 24.2716 15.1196 23.193 15.1624C22.7957 15.1774 22.6996 15.2758 22.7509 15.6676C22.7888 15.9098 22.7639 16.1577 22.6786 16.3875C22.5933 16.6173 22.4505 16.8213 22.2639 16.9798C21.7406 17.4529 21.196 17.8939 20.4335 17.8917C20.1835 17.8997 19.9345 17.8583 19.7005 17.7697C19.4666 17.6812 19.2523 17.5473 19.07 17.3758C18.8878 17.2042 18.741 16.9983 18.6381 16.7698C18.5353 16.5414 18.4784 16.2949 18.4706 16.0443C18.3895 14.852 18.8423 13.9037 19.6902 13.0988C20.5351 12.3265 21.5832 11.8131 22.7103 11.6196C23.5775 11.4504 24.466 11.4055 25.3459 11.2985L25.5595 11.2835C25.5374 11.2487 25.5116 11.2164 25.4826 11.1872C23.8936 10.0355 22.2447 8.99296 20.3822 8.33149C19.7597 8.09237 19.1026 7.95645 18.4365 7.92904C17.3814 7.91406 16.4309 8.29082 15.5146 8.76605C14.8711 9.10572 14.2891 9.5515 13.7931 10.0847C13.4477 10.4943 12.9582 10.755 12.4262 10.8125C12.2641 10.8345 12.0992 10.8153 11.9465 10.7565C11.7938 10.6978 11.6584 10.6015 11.5526 10.4764C11.3807 10.2553 11.2305 10.018 11.1041 9.76788C11.0529 9.69174 11.0173 9.60617 10.9994 9.51614C10.9814 9.4261 10.9815 9.3334 10.9996 9.24339C11.0176 9.15338 11.0534 9.06786 11.1047 8.9918C11.156 8.91574 11.2219 8.85065 11.2985 8.8003L11.1447 7.96972C11.3689 8.06605 11.5291 8.13241 11.6872 8.20305C11.8074 8.25992 11.9423 8.27791 12.0732 8.25451C12.2041 8.23111 12.3244 8.16749 12.4176 8.07246C12.7111 7.82102 12.925 7.48922 13.0332 7.11773C13.1413 6.74623 13.1389 6.35119 13.0264 5.98103C12.7807 5.2639 11.9584 5.03271 11.4266 5.57216C11.1716 5.86786 10.9628 6.20059 10.8072 6.55901C10.7557 6.68695 10.7332 6.82475 10.7413 6.96247C10.7494 7.10019 10.788 7.23439 10.8542 7.35534C10.929 7.53302 10.9994 7.71283 11.087 7.93118C10.7159 7.94586 10.3512 7.83084 10.0554 7.6058C9.22668 7.86054 8.58807 7.54587 8.08401 6.92079C7.82219 6.58389 7.58858 6.2259 7.38558 5.85045C7.27014 5.67565 7.22269 5.46447 7.25221 5.25695C7.28173 5.04942 7.38618 4.85995 7.54577 4.72446C8.01566 4.26635 8.51973 3.8425 9.00884 3.4058C9.07932 3.34372 9.15835 3.29234 9.25233 3.2217C9.03874 2.66084 9.44028 2.36543 9.78201 2.0636C10.5061 1.4214 11.3796 1.05748 12.2916 0.779195C13.6754 0.370253 15.1031 0.128777 16.5441 0.0599256C19.9273 -0.154142 23.2549 0.303963 26.5591 0.96329C32.4604 2.12782 38.1269 3.96666 43.6758 6.1951C49.669 8.6055 55.6109 11.1465 61.3841 14.0514C65.6558 16.192 69.8848 18.4269 74.1116 20.6596C75.3547 21.3147 76.5102 22.1346 77.7426 22.8303C78.7591 23.4257 79.8072 23.9652 80.8823 24.4465C81.6995 24.8232 82.5895 25.0151 83.4891 25.0084C84.3886 25.0018 85.2757 24.7968 86.0873 24.408C86.6085 24.1661 87.1211 23.8985 87.7213 23.9798C87.9324 24.0003 88.1395 24.0507 88.3364 24.1297C88.5792 24.2232 88.7755 24.409 88.8826 24.6466C88.9898 24.8842 88.9992 25.1546 88.9088 25.3991C88.7462 25.8708 88.4599 26.2901 88.0801 26.6128C87.2557 27.3963 86.2347 27.7581 85.139 27.9443C84.2977 28.0949 83.44 28.1324 82.5888 28.0557C82.5292 28.0502 82.4693 28.0481 82.4094 28.0492ZM61.9992 16.3419L62.0911 16.2541C62.542 16.5814 62.9701 16.939 63.3726 17.3245C63.8382 17.8318 64.2056 18.429 64.637 18.9685C65.47 20.0046 66.5165 20.7046 67.8536 20.8951C69.4405 21.1092 71.0275 21.3425 72.6165 21.5501C73.6354 21.6575 74.5848 22.1178 75.3013 22.8517C75.8545 23.4232 76.4226 23.9798 76.963 24.5642C77.9551 25.6388 79.2385 26.3999 80.6559 26.7541C80.9878 26.8621 81.3117 26.993 81.6255 27.1459C81.7859 27.2403 81.9584 27.3123 82.1381 27.3599C82.8323 27.437 83.5286 27.5205 84.2249 27.5333C85.3547 27.5547 86.4376 27.33 87.3646 26.6364C87.6333 26.4288 87.8694 26.182 88.0651 25.9043C88.1546 25.7869 88.2039 25.6438 88.2059 25.4961C88.2078 25.3484 88.1622 25.2041 88.0758 25.0844C88.0002 24.9674 87.8887 24.8782 87.7581 24.8303C87.6274 24.7824 87.4848 24.7785 87.3518 24.819C86.8481 24.9398 86.3535 25.0957 85.8716 25.2856C85.4032 25.4716 84.9058 25.5738 84.4021 25.5875C83.0397 25.6459 81.684 25.3665 80.4551 24.774C79.1501 24.1446 77.875 23.4489 76.6106 22.7489C75.6601 22.2266 74.7567 21.6208 73.7998 21.1113C72.5439 20.4413 71.2517 19.8269 69.9809 19.1847C67.8451 18.0972 65.7413 16.9349 63.5734 15.9159C56.5721 12.6278 49.4661 9.59235 42.1679 7.01926C39.7458 6.16299 37.3259 5.30672 34.8355 4.66452C34.2183 4.50611 33.5882 4.39479 32.9602 4.27706C32.8157 4.27624 32.6718 4.29642 32.5331 4.33699C32.9026 4.99204 33.2443 5.59143 33.4152 6.32996C33.3503 6.28843 33.2882 6.24266 33.2294 6.19295C31.8282 4.78653 30.1495 3.82323 28.3169 3.10396C26.2413 2.28657 24.0545 1.78788 21.8303 1.62476C20.6614 1.52153 19.4931 1.82959 18.5262 2.49601C18.4031 2.59518 18.2854 2.70095 18.1738 2.81284C20.1815 3.52782 21.5164 4.90213 22.5928 6.63822C22.5181 6.63822 22.4989 6.63822 22.486 6.62323C22.4732 6.60825 22.4177 6.574 22.3835 6.54831C20.6065 5.1847 18.7718 3.93882 16.5185 3.47002C16.1618 3.39509 15.8329 3.1425 15.5146 2.93271C15.3886 2.85137 15.3309 2.66299 15.2412 2.52384L15.3032 2.46818C15.9676 2.63885 16.6651 2.63147 17.3258 2.44678C18.0004 2.26552 18.5924 1.85741 19.0025 1.29081C18.9014 1.25429 18.7979 1.22496 18.6928 1.20304C16.8346 1.02751 14.9743 0.956867 13.1396 1.3636C12.3586 1.53757 11.5913 1.76794 10.8435 2.05289C10.4907 2.21968 10.1743 2.45465 9.9123 2.74433C9.66881 2.98409 9.80764 3.32873 10.1408 3.41008C10.2502 3.42854 10.361 3.43713 10.4719 3.43577C10.5509 3.27736 10.6171 3.12751 10.6855 2.98837C11.0934 2.27124 11.7854 2.21987 12.4924 2.24127C12.8042 2.26531 13.1143 2.30676 13.4215 2.36543C13.4141 2.41362 13.402 2.46096 13.3852 2.50671C13.3446 2.56237 13.3019 2.61589 13.2592 2.66726C12.9344 3.06591 12.5242 3.38609 12.0591 3.60401C11.5939 3.82192 11.0857 3.93197 10.5723 3.92598C9.54921 3.94525 8.79739 4.47186 8.30401 5.36024C8.20359 5.5128 8.16227 5.69689 8.18784 5.87786C8.21341 6.05882 8.3041 6.22418 8.44283 6.3428C8.55921 6.46726 8.69134 6.57593 8.83583 6.66605C9.0344 6.80318 9.27779 6.85896 9.51609 6.82194C9.75438 6.78492 9.96951 6.65791 10.1173 6.46696C10.2551 6.293 10.3821 6.1107 10.4975 5.92109C10.7372 5.51718 10.9982 5.12631 11.2792 4.75014C11.4648 4.53025 11.705 4.36336 11.9755 4.26635C12.3563 4.14996 12.7666 4.18001 13.1264 4.35062C13.4862 4.52123 13.7696 4.82014 13.9213 5.18898C14.3356 6.1373 14.2993 7.05565 13.5454 7.82629C13.0456 8.33791 12.4775 8.78317 11.9456 9.26054C11.8559 9.33975 11.7705 9.42752 11.6936 9.50244C11.9584 9.96911 12.3878 10.0761 12.8555 9.75932C13.2877 9.45512 13.6987 9.12183 14.0857 8.76176C14.404 8.47491 14.6945 8.17522 15.1302 8.05749C15.3397 7.98406 15.5386 7.88329 15.7218 7.75779C17.0311 6.9636 17.1635 5.71345 16.5761 4.46329C16.5441 4.39051 16.5057 4.31987 16.4715 4.24923L16.5356 4.17002C16.826 4.31496 17.107 4.47797 17.3771 4.6581C17.8428 5.02499 18.216 5.49649 18.4664 6.03455C18.5686 6.25586 18.7225 6.44923 18.9151 6.59828C19.1077 6.74733 19.3332 6.84768 19.5727 6.89082C21.3241 7.27186 22.9452 7.93975 24.2716 9.20703C24.6475 9.57094 24.9978 9.96269 25.3139 10.2923C25.2092 9.8107 25.0576 9.27553 24.985 8.72965C24.8952 8.16032 24.9488 7.57754 25.1409 7.03424C25.1922 7.16697 25.2221 7.24831 25.2541 7.31681C25.5211 7.95901 25.7731 8.60122 26.0636 9.22843C26.5036 10.1832 27.0738 11.0459 28.0606 11.5168C28.6065 11.7778 29.1662 12.0086 29.7372 12.2082C30.2968 12.4052 30.8757 12.5422 31.4459 12.7049C31.4324 12.7161 31.4166 12.7243 31.3997 12.7287C31.3827 12.7331 31.3649 12.7338 31.3477 12.7306C28.9982 12.2875 26.6168 12.0648 24.2203 12.2896C23.0747 12.3826 21.968 12.7496 20.9931 13.3599C20.2129 13.8427 19.6501 14.6102 19.4232 15.5006C19.3564 15.6998 19.3358 15.9117 19.3628 16.1202C19.3898 16.3286 19.4638 16.5281 19.5791 16.7037C19.6651 16.8373 19.7781 16.9515 19.9109 17.0386C20.0436 17.1258 20.1931 17.1841 20.3497 17.2097C20.5063 17.2353 20.6666 17.2277 20.8201 17.1874C20.9736 17.147 21.1169 17.0749 21.2408 16.9755C21.5122 16.7424 21.7598 16.4828 21.9798 16.2006C22.1934 15.9394 22.1529 15.8281 21.8538 15.6697C21.7739 15.6375 21.703 15.5863 21.6471 15.5206C21.5913 15.4548 21.5523 15.3764 21.5334 15.2922C21.5145 15.2079 21.5163 15.1204 21.5386 15.037C21.5609 14.9536 21.6031 14.8769 21.6616 14.8135C21.7699 14.6823 21.9036 14.5746 22.0546 14.4966C22.4752 14.2823 22.9437 14.1799 23.4151 14.1991C24.601 14.2549 25.7728 14.4812 26.8944 14.8712C28.1119 15.2716 29.3229 15.6868 30.6087 15.796C31.5549 15.8752 32.4882 15.8453 33.3725 15.4492C34.2567 15.0532 34.8013 14.4024 34.9124 13.4092C34.9901 12.4543 34.9246 11.4932 34.718 10.5578C34.6412 10.1489 34.5386 9.74433 34.4382 9.29051C37.689 11.6902 41.4075 12.5636 45.2755 13.0046C42.1124 13.3235 39.0816 12.6428 36.0914 11.7437C36.2003 12.2104 36.337 12.6535 36.4032 13.1052C36.4694 13.5569 36.4716 14.0364 36.5036 14.5309L36.8432 14.6872C39.4256 15.8351 42.2244 16.4119 45.0491 16.3783C46.6126 16.3783 48.1739 16.3483 49.7352 16.3248C50.0299 16.3248 50.3226 16.2905 50.6686 16.267C50.487 15.3251 49.7886 14.7963 49.244 14.1541C49.4557 14.2383 49.6594 14.3415 49.8527 14.4624C51.098 15.2987 52.1664 16.3732 52.9966 17.6242C53.4964 18.3434 53.8873 19.1419 54.3785 19.8697C56.3456 22.7896 59.0603 24.3138 62.6165 24.2966C64.3999 24.2966 66.1833 24.333 67.9561 24.3994C68.9977 24.4433 70.0283 24.6306 71.0189 24.956C71.995 25.2685 72.766 25.9107 73.5435 26.5379C74.3209 27.1651 75.0984 27.848 75.8929 28.4645C76.6319 29.0447 77.4436 29.4985 78.4047 29.5969C78.9771 29.6547 79.5516 29.6869 80.0792 29.3957C80.2882 29.2914 80.4588 29.1232 80.5662 28.9155C80.6737 28.7077 80.7126 28.4711 80.6772 28.2398C80.6614 28.0377 80.5863 27.8449 80.4612 27.6856C80.3361 27.5263 80.1668 27.4078 79.9745 27.3449C79.8101 27.2764 79.6413 27.2101 79.4833 27.1309C78.1666 26.4873 77.0094 25.5579 76.0958 24.4101C75.7454 23.9359 75.3583 23.49 74.9382 23.0764C74.0134 22.1966 72.8429 21.9547 71.6148 21.8905C70.0898 21.8113 68.5648 21.7343 67.042 21.6272C66.4889 21.5985 65.9498 21.4426 65.4665 21.1716C64.9832 20.9007 64.5685 20.5218 64.2547 20.0645C64.0425 19.7651 63.8553 19.4486 63.6951 19.1183C63.2572 18.1294 62.9091 17.0633 61.9992 16.3419ZM12.1977 2.85564C11.7043 2.66727 10.9653 2.79357 10.9503 3.37797C11.4693 3.43577 11.9862 3.22384 12.1977 2.84494V2.85564Z" fill="white"/>
<path d="M85.1777 33.8804H85.5088C87.0039 33.8804 88.4798 33.8655 89.9642 33.8804C91.0321 33.8933 92.1 34.0025 93.0868 34.4584C94.285 35.0107 94.8852 35.9697 95.0091 37.2734C95.1821 39.2728 93.9924 40.463 92.7237 41.0645L92.4759 41.1908L96.0108 46.0844H93.0633L89.9022 41.5162H87.6895V46.0801H85.1777V33.8804ZM87.7023 34.9658V40.4223C88.3431 40.4223 88.9838 40.4373 89.6118 40.4223C89.9271 40.4094 90.2398 40.3583 90.543 40.2703C91.7967 39.915 92.4653 38.911 92.4183 37.5025C92.3734 36.2566 91.7434 35.441 90.5366 35.1477C90.1304 35.0551 89.7163 35.0021 89.2999 34.9893C88.7745 34.9465 88.247 34.9658 87.7023 34.9658Z" fill="white"/>
<path d="M41.8584 34.6211V36.3529C41.7452 36.2758 41.6619 36.2223 41.5829 36.1667C39.682 34.8544 37.6337 34.4541 35.4402 35.2826C33.6503 35.9612 32.7105 37.3483 32.45 39.2107C32.2559 40.356 32.4138 41.5333 32.9028 42.5865C33.5862 43.993 34.7375 44.785 36.2496 45.0547C37.3329 45.2249 38.4403 45.1518 39.4919 44.8407C39.573 44.8193 39.6478 44.7807 39.7503 44.7422V40.3667H42.2471V45.4914C41.7345 45.652 41.2091 45.8553 40.6644 45.9816C38.2595 46.5404 35.8588 46.5682 33.4901 45.7954C32.0164 45.3137 30.7947 44.4639 30.1539 42.9997C29.1757 40.7648 29.4299 38.6199 30.8353 36.6376C31.9032 35.1391 33.4325 34.3214 35.1924 33.9232C37.2418 33.4332 39.3927 33.5956 41.3458 34.3878C41.5188 34.452 41.6833 34.544 41.8584 34.6211Z" fill="white"/>
<path d="M59.4193 33.8954H61.0554C61.0554 33.9896 61.0768 34.0795 61.0768 34.1672C61.0768 36.4685 61.0896 38.7697 61.0618 41.0688C61.0527 41.7008 60.9768 42.3301 60.8354 42.9461C60.451 44.6287 59.3809 45.6905 57.7192 46.0993C55.8438 46.564 53.8763 46.4951 52.0378 45.9003C50.374 45.3737 49.5496 44.1556 49.3787 42.4602C49.3275 41.9593 49.3146 41.4541 49.3125 40.9489C49.3125 38.7269 49.3125 36.5027 49.3125 34.2786V33.9039H51.8328C51.8328 34.0302 51.852 34.148 51.852 34.2636C51.852 36.7446 51.852 39.2235 51.8648 41.7024C51.8743 42.1211 51.9215 42.5381 52.0058 42.9483C52.0731 43.3923 52.2657 43.8079 52.5608 44.1458C52.856 44.4838 53.2415 44.73 53.6718 44.8556C54.9219 45.2789 56.2793 45.2585 57.5163 44.7978C58.644 44.3954 59.1609 43.4899 59.3125 42.3532C59.3809 41.8458 59.4172 41.3346 59.4215 40.8226C59.4215 38.6327 59.4215 36.4428 59.4215 34.255L59.4193 33.8954Z" fill="white"/>
<path d="M17.6101 33.8911H19.2034L25.156 46.0929H22.1509L20.6558 42.7599H14.8719L13.2636 46.0887H11.5293C13.569 42.0021 15.5874 37.9541 17.6101 33.8911ZM20.1496 41.6682L17.8279 36.5777C16.9971 38.3137 16.2004 39.977 15.3931 41.6682H20.1496Z" fill="white"/>
<path d="M79.6456 46.0909H76.6404L75.1454 42.7514H69.3786L67.7703 46.0909H66.0381C68.0736 42.0043 70.0962 37.9563 72.1125 33.889H73.7143L79.6456 46.0909ZM69.8869 41.6618H74.6392L72.3218 36.5777C71.4931 38.3052 70.6921 39.9664 69.8869 41.6618Z" fill="white"/>
<path d="M2.58462 33.8954H5.08997C5.08997 34.0003 5.1156 34.1094 5.1156 34.1972C5.1156 37.2327 5.14123 40.2682 5.1156 43.3015C5.09851 44.9584 4.62863 46.4825 3.3941 47.6663C2.53976 48.4819 1.54019 48.9936 0.329166 49C0.269363 49 0.209553 49 0.149749 49C0.101711 48.9885 0.0545974 48.9735 0.00878906 48.955C0.0772548 48.8569 0.154465 48.7652 0.239464 48.681C1.06007 48.1 1.69629 47.2944 2.07201 46.3605C2.33553 45.6633 2.47994 44.9266 2.49918 44.1813C2.54831 42.0214 2.56968 39.8593 2.59104 37.6972C2.60385 36.5519 2.59104 35.4045 2.59104 34.2593L2.58462 33.8954Z" fill="white"/>
</g>
<defs>
<clipPath id="clip0_2_7277">
<rect width="96" height="49" fill="white"/>
</clipPath>
</defs>
</svg>
