<svg width="96" height="49" viewBox="0 0 96 49" fill="none" xmlns="http://www.w3.org/2000/svg">
<g clip-path="url(#clip0_165_27392)">
<path d="M82.4094 28.0494C82.4628 28.4451 82.48 28.845 82.4607 29.2439C82.3453 30.1237 81.696 30.6931 80.7862 30.8194C79.605 30.9821 78.5158 30.6717 77.4713 30.1772C76.3814 29.6428 75.3637 28.9717 74.4427 28.1799C74.0155 27.8075 73.5585 27.4521 73.1292 27.0732C72.2748 26.3304 71.271 25.9729 70.1838 25.8017C68.7101 25.5683 67.2235 25.6432 65.7391 25.6732C64.417 25.6989 63.0971 25.7952 61.775 25.6539C58.8254 25.3393 56.4717 24.0142 54.7907 21.5567C54.229 20.7325 53.7228 19.8698 53.2359 18.9879C52.9851 18.5074 52.6242 18.0935 52.1827 17.7801C51.7412 17.4668 51.2318 17.263 50.6963 17.1854C49.9192 17.0662 49.1314 17.0317 48.3469 17.0827C46.3947 17.194 44.4447 17.2818 42.4883 17.2325C40.4998 17.1767 38.5287 16.8439 36.6318 16.2435C36.4032 16.1729 36.179 16.0916 35.9462 16.0123C35.8201 16.1793 35.7112 16.3527 35.5745 16.5004C35.047 17.0656 34.3528 17.2968 33.6202 17.4231C31.9115 17.7185 30.2499 17.4231 28.633 16.8922C27.8107 16.616 27.0226 16.235 26.2259 15.8882C25.2562 15.4601 24.2716 15.1197 23.193 15.1625C22.7957 15.1775 22.6996 15.276 22.7509 15.6677C22.7888 15.9099 22.7639 16.1578 22.6786 16.3876C22.5933 16.6174 22.4505 16.8214 22.2639 16.9799C21.7406 17.453 21.196 17.894 20.4335 17.8919C20.1835 17.8999 19.9345 17.8584 19.7005 17.7699C19.4666 17.6813 19.2523 17.5475 19.07 17.3759C18.8878 17.2043 18.741 16.9984 18.6381 16.77C18.5353 16.5415 18.4784 16.295 18.4706 16.0445C18.3895 14.8521 18.8423 13.9038 19.6902 13.0989C20.5351 12.3266 21.5832 11.8132 22.7103 11.6197C23.5775 11.4506 24.466 11.4056 25.3459 11.2986L25.5595 11.2836C25.5374 11.2488 25.5116 11.2166 25.4826 11.1873C23.8936 10.0356 22.2447 8.99308 20.3822 8.33161C19.7597 8.0925 19.1026 7.95657 18.4365 7.92917C17.3814 7.91418 16.4309 8.29094 15.5146 8.76617C14.8711 9.10585 14.2891 9.55162 13.7931 10.0848C13.4477 10.4944 12.9582 10.7551 12.4262 10.8127C12.2641 10.8346 12.0992 10.8154 11.9465 10.7566C11.7938 10.6979 11.6584 10.6016 11.5526 10.4766C11.3807 10.2554 11.2305 10.0181 11.1041 9.768C11.0529 9.69186 11.0173 9.6063 10.9994 9.51626C10.9814 9.42623 10.9815 9.33352 10.9996 9.24351C11.0176 9.1535 11.0534 9.06799 11.1047 8.99192C11.156 8.91586 11.2219 8.85077 11.2985 8.80042L11.1447 7.96984C11.3689 8.06617 11.5291 8.13253 11.6872 8.20317C11.8074 8.26005 11.9423 8.27803 12.0732 8.25463C12.2041 8.23123 12.3244 8.16761 12.4176 8.07259C12.7111 7.82114 12.925 7.48934 13.0332 7.11785C13.1413 6.74636 13.1389 6.35132 13.0264 5.98115C12.7807 5.26403 11.9584 5.03283 11.4266 5.57228C11.1716 5.86798 10.9628 6.20071 10.8072 6.55914C10.7557 6.68707 10.7332 6.82488 10.7413 6.9626C10.7494 7.10032 10.788 7.23451 10.8542 7.35547C10.929 7.53314 10.9994 7.71295 11.087 7.9313C10.7159 7.94598 10.3512 7.83096 10.0554 7.60592C9.22668 7.86066 8.58807 7.54599 8.08401 6.92091C7.82219 6.58402 7.58858 6.22602 7.38558 5.85057C7.27014 5.67577 7.22269 5.4646 7.25221 5.25707C7.28173 5.04954 7.38618 4.86007 7.54577 4.72458C8.01566 4.26647 8.51973 3.84262 9.00884 3.40592C9.07932 3.34384 9.15835 3.29246 9.25233 3.22182C9.03874 2.66096 9.44028 2.36556 9.78201 2.06372C10.5061 1.42152 11.3796 1.05761 12.2916 0.779317C13.6754 0.370375 15.1031 0.128899 16.5441 0.0600477C19.9273 -0.15402 23.2549 0.304085 26.5591 0.963412C32.4604 2.12794 38.1269 3.96678 43.6758 6.19522C49.669 8.60562 55.6109 11.1466 61.3841 14.0515C65.6558 16.1922 69.8848 18.427 74.1116 20.6598C75.3547 21.3148 76.5102 22.1347 77.7426 22.8304C78.7591 23.4258 79.8072 23.9653 80.8823 24.4466C81.6995 24.8234 82.5895 25.0152 83.4891 25.0086C84.3886 25.0019 85.2757 24.7969 86.0873 24.4081C86.6085 24.1662 87.1211 23.8986 87.7213 23.9799C87.9324 24.0004 88.1395 24.0508 88.3364 24.1298C88.5792 24.2234 88.7755 24.4091 88.8826 24.6467C88.9898 24.8843 88.9992 25.1547 88.9088 25.3992C88.7462 25.871 88.4599 26.2902 88.0801 26.613C87.2557 27.3965 86.2347 27.7582 85.139 27.9445C84.2977 28.095 83.44 28.1325 82.5888 28.0558C82.5292 28.0503 82.4693 28.0482 82.4094 28.0494ZM61.9992 16.342L62.0911 16.2542C62.542 16.5815 62.9701 16.9391 63.3726 17.3246C63.8382 17.8319 64.2056 18.4292 64.637 18.9686C65.47 20.0047 66.5165 20.7047 67.8536 20.8952C69.4405 21.1093 71.0275 21.3426 72.6165 21.5503C73.6354 21.6576 74.5848 22.1179 75.3013 22.8518C75.8545 23.4234 76.4226 23.9799 76.963 24.5643C77.9551 25.6389 79.2385 26.4 80.6559 26.7542C80.9878 26.8622 81.3117 26.9931 81.6255 27.146C81.7859 27.2404 81.9584 27.3124 82.1381 27.3601C82.8323 27.4371 83.5286 27.5206 84.2249 27.5335C85.3547 27.5549 86.4376 27.3301 87.3646 26.6365C87.6333 26.4289 87.8694 26.1822 88.0651 25.9044C88.1546 25.787 88.2039 25.6439 88.2059 25.4962C88.2078 25.3486 88.1622 25.2042 88.0758 25.0845C88.0002 24.9675 87.8887 24.8783 87.7581 24.8304C87.6274 24.7826 87.4848 24.7786 87.3518 24.8191C86.8481 24.9399 86.3535 25.0958 85.8716 25.2857C85.4032 25.4718 84.9058 25.5739 84.4021 25.5876C83.0397 25.646 81.684 25.3666 80.4551 24.7741C79.1501 24.1448 77.875 23.4491 76.6106 22.7491C75.6601 22.2267 74.7567 21.6209 73.7998 21.1114C72.5439 20.4414 71.2517 19.827 69.9809 19.1848C67.8451 18.0974 65.7413 16.935 63.5734 15.916C56.5721 12.6279 49.4661 9.59247 42.1679 7.01938C39.7458 6.16311 37.3259 5.30684 34.8355 4.66464C34.2183 4.50623 33.5882 4.39491 32.9602 4.27718C32.8157 4.27636 32.6718 4.29655 32.5331 4.33712C32.9026 4.99216 33.2443 5.59155 33.4152 6.33008C33.3503 6.28855 33.2882 6.24278 33.2294 6.19308C31.8282 4.78665 30.1495 3.82335 28.3169 3.10409C26.2413 2.28669 24.0545 1.788 21.8303 1.62488C20.6614 1.52165 19.4931 1.82972 18.5262 2.49614C18.4031 2.5953 18.2854 2.70107 18.1738 2.81296C20.1815 3.52794 21.5164 4.90225 22.5928 6.63834C22.5181 6.63834 22.4989 6.63834 22.486 6.62335C22.4732 6.60837 22.4177 6.57412 22.3835 6.54843C20.6065 5.18482 18.7718 3.93895 16.5185 3.47014C16.1618 3.39522 15.8329 3.14262 15.5146 2.93283C15.3886 2.85149 15.3309 2.66311 15.2412 2.52397L15.3032 2.46831C15.9676 2.63897 16.6651 2.63159 17.3258 2.4469C18.0004 2.26564 18.5924 1.85753 19.0025 1.29094C18.9014 1.25441 18.7979 1.22508 18.6928 1.20317C16.8346 1.02763 14.9743 0.956989 13.1396 1.36372C12.3586 1.5377 11.5913 1.76806 10.8435 2.05301C10.4907 2.2198 10.1743 2.45477 9.9123 2.74445C9.66881 2.98421 9.80764 3.32886 10.1408 3.4102C10.2502 3.42866 10.361 3.43726 10.4719 3.43589C10.5509 3.27748 10.6171 3.12763 10.6855 2.98849C11.0934 2.27136 11.7854 2.21999 12.4924 2.24139C12.8042 2.26543 13.1143 2.30688 13.4215 2.36555C13.4141 2.41375 13.402 2.46108 13.3852 2.50684C13.3446 2.56249 13.3019 2.61601 13.2592 2.66739C12.9344 3.06603 12.5242 3.38621 12.0591 3.60413C11.5939 3.82204 11.0857 3.93209 10.5723 3.9261C9.54921 3.94537 8.79739 4.47198 8.30401 5.36036C8.20359 5.51292 8.16227 5.69701 8.18784 5.87798C8.21341 6.05895 8.3041 6.2243 8.44283 6.34293C8.55921 6.46738 8.69134 6.57605 8.83583 6.66617C9.0344 6.8033 9.27779 6.85908 9.51609 6.82206C9.75438 6.78504 9.96951 6.65803 10.1173 6.46708C10.2551 6.29313 10.3821 6.11083 10.4975 5.92121C10.7372 5.5173 10.9982 5.12643 11.2792 4.75026C11.4648 4.53037 11.705 4.36348 11.9755 4.26647C12.3563 4.15008 12.7666 4.18013 13.1264 4.35074C13.4862 4.52135 13.7696 4.82026 13.9213 5.1891C14.3356 6.13742 14.2993 7.05577 13.5454 7.82641C13.0456 8.33803 12.4775 8.78329 11.9456 9.26066C11.8559 9.33987 11.7705 9.42764 11.6936 9.50256C11.9584 9.96923 12.3878 10.0763 12.8555 9.75944C13.2877 9.45524 13.6987 9.12195 14.0857 8.76188C14.404 8.47503 14.6945 8.17534 15.1302 8.05761C15.3397 7.98418 15.5386 7.88341 15.7218 7.75791C17.0311 6.96372 17.1635 5.71357 16.5761 4.46342C16.5441 4.39063 16.5057 4.31999 16.4715 4.24935L16.5356 4.17014C16.826 4.31508 17.107 4.47809 17.3771 4.65822C17.8428 5.02511 18.216 5.49661 18.4664 6.03467C18.5686 6.25598 18.7225 6.44935 18.9151 6.59841C19.1077 6.74746 19.3332 6.8478 19.5727 6.89094C21.3241 7.27198 22.9452 7.93987 24.2716 9.20715C24.6475 9.57106 24.9978 9.96281 25.3139 10.2925C25.2092 9.81082 25.0576 9.27565 24.985 8.72978C24.8952 8.16044 24.9488 7.57766 25.1409 7.03437C25.1922 7.16709 25.2221 7.24843 25.2541 7.31693C25.5211 7.95913 25.7731 8.60134 26.0636 9.22856C26.5036 10.1833 27.0738 11.046 28.0606 11.5169C28.6065 11.7779 29.1662 12.0088 29.7372 12.2084C30.2968 12.4053 30.8757 12.5423 31.4459 12.705C31.4324 12.7163 31.4166 12.7244 31.3997 12.7288C31.3827 12.7333 31.3649 12.7339 31.3477 12.7307C28.9982 12.2876 26.6168 12.0649 24.2203 12.2897C23.0747 12.3827 21.968 12.7498 20.9931 13.3601C20.2129 13.8428 19.6501 14.6103 19.4232 15.5007C19.3564 15.7 19.3358 15.9118 19.3628 16.1203C19.3898 16.3287 19.4638 16.5283 19.5791 16.7038C19.6651 16.8375 19.7781 16.9516 19.9109 17.0388C20.0436 17.1259 20.1931 17.1842 20.3497 17.2098C20.5063 17.2354 20.6666 17.2278 20.8201 17.1875C20.9736 17.1472 21.1169 17.075 21.2408 16.9756C21.5122 16.7425 21.7598 16.483 21.9798 16.2007C22.1934 15.9396 22.1529 15.8283 21.8538 15.6698C21.7739 15.6376 21.703 15.5864 21.6471 15.5207C21.5913 15.4549 21.5523 15.3765 21.5334 15.2923C21.5145 15.2081 21.5163 15.1205 21.5386 15.0371C21.5609 14.9537 21.6031 14.877 21.6616 14.8136C21.7699 14.6825 21.9036 14.5747 22.0546 14.4968C22.4752 14.2824 22.9437 14.18 23.4151 14.1992C24.601 14.255 25.7728 14.4814 26.8944 14.8714C28.1119 15.2717 29.3229 15.687 30.6087 15.7961C31.5549 15.8753 32.4882 15.8454 33.3725 15.4494C34.2567 15.0533 34.8013 14.4026 34.9124 13.4093C34.9901 12.4544 34.9246 11.4933 34.718 10.5579C34.6412 10.149 34.5386 9.74445 34.4382 9.29063C37.689 11.6903 41.4075 12.5637 45.2755 13.0047C42.1124 13.3237 39.0816 12.6429 36.0914 11.7438C36.2003 12.2105 36.337 12.6536 36.4032 13.1053C36.4694 13.557 36.4716 14.0365 36.5036 14.531L36.8432 14.6873C39.4256 15.8352 42.2244 16.412 45.0491 16.3784C46.6126 16.3784 48.1739 16.3484 49.7352 16.3249C50.0299 16.3249 50.3226 16.2906 50.6686 16.2671C50.487 15.3252 49.7886 14.7964 49.244 14.1542C49.4557 14.2384 49.6594 14.3416 49.8527 14.4625C51.098 15.2988 52.1664 16.3733 52.9966 17.6243C53.4964 18.3435 53.8873 19.142 54.3785 19.8698C56.3456 22.7897 59.0603 24.3139 62.6165 24.2968C64.3999 24.2968 66.1833 24.3331 67.9561 24.3995C68.9977 24.4434 70.0283 24.6307 71.0189 24.9561C71.995 25.2686 72.766 25.9108 73.5435 26.538C74.3209 27.1653 75.0984 27.8481 75.8929 28.4647C76.6319 29.0448 77.4436 29.4986 78.4047 29.5971C78.9771 29.6549 79.5516 29.687 80.0792 29.3958C80.2882 29.2915 80.4588 29.1233 80.5662 28.9156C80.6737 28.7078 80.7126 28.4712 80.6772 28.2399C80.6614 28.0378 80.5863 27.845 80.4612 27.6857C80.3361 27.5265 80.1668 27.4079 79.9745 27.3451C79.8101 27.2766 79.6413 27.2102 79.4833 27.131C78.1666 26.4875 77.0094 25.558 76.0958 24.4102C75.7454 23.936 75.3583 23.4901 74.9382 23.0766C74.0134 22.1968 72.8429 21.9549 71.6148 21.8906C70.0898 21.8114 68.5648 21.7344 67.042 21.6273C66.4889 21.5986 65.9498 21.4427 65.4665 21.1718C64.9832 20.9008 64.5685 20.522 64.2547 20.0646C64.0425 19.7652 63.8553 19.4488 63.6951 19.1185C63.2572 18.1295 62.9091 17.0634 61.9992 16.342ZM12.1977 2.85577C11.7043 2.66739 10.9653 2.79369 10.9503 3.37809C11.4693 3.43589 11.9862 3.22397 12.1977 2.84507V2.85577Z" fill="#0A0A26"/>
<path d="M85.1777 33.8802H85.5088C87.0039 33.8802 88.4798 33.8652 89.9642 33.8802C91.0321 33.893 92.1 34.0022 93.0868 34.4582C94.285 35.0105 94.8852 35.9695 95.0091 37.2732C95.1821 39.2725 93.9924 40.4628 92.7237 41.0643L92.4759 41.1906L96.0108 46.0842H93.0633L89.9022 41.516H87.6895V46.0799H85.1777V33.8802ZM87.7023 34.9655V40.4221C88.3431 40.4221 88.9838 40.4371 89.6118 40.4221C89.9271 40.4091 90.2398 40.3581 90.543 40.2701C91.7967 39.9147 92.4653 38.9108 92.4183 37.5022C92.3734 36.2563 91.7434 35.4407 90.5366 35.1475C90.1304 35.0549 89.7163 35.0018 89.2999 34.9891C88.7745 34.9462 88.247 34.9655 87.7023 34.9655Z" fill="#0A0A26"/>
<path d="M41.8584 34.6211V36.3529C41.7452 36.2758 41.6619 36.2223 41.5829 36.1667C39.682 34.8544 37.6337 34.4541 35.4402 35.2826C33.6503 35.9612 32.7105 37.3483 32.45 39.2107C32.2559 40.356 32.4138 41.5333 32.9028 42.5865C33.5862 43.993 34.7375 44.785 36.2496 45.0547C37.3329 45.2249 38.4403 45.1518 39.4919 44.8407C39.573 44.8193 39.6478 44.7807 39.7503 44.7422V40.3667H42.2471V45.4914C41.7345 45.652 41.2091 45.8553 40.6644 45.9816C38.2595 46.5404 35.8588 46.5682 33.4901 45.7954C32.0164 45.3137 30.7947 44.4639 30.1539 42.9997C29.1757 40.7648 29.4299 38.6199 30.8353 36.6376C31.9032 35.1391 33.4325 34.3214 35.1924 33.9232C37.2418 33.4332 39.3927 33.5956 41.3458 34.3878C41.5188 34.452 41.6833 34.544 41.8584 34.6211Z" fill="#0A0A26"/>
<path d="M59.4193 33.8955H61.0554C61.0554 33.9897 61.0768 34.0796 61.0768 34.1674C61.0768 36.4686 61.0896 38.7698 61.0618 41.0689C61.0527 41.7009 60.9768 42.3302 60.8354 42.9463C60.451 44.6288 59.3809 45.6906 57.7192 46.0995C55.8438 46.5642 53.8763 46.4952 52.0378 45.9004C50.374 45.3738 49.5496 44.1557 49.3787 42.4603C49.3275 41.9594 49.3146 41.4542 49.3125 40.949C49.3125 38.727 49.3125 36.5028 49.3125 34.2787V33.9041H51.8328C51.8328 34.0304 51.852 34.1481 51.852 34.2637C51.852 36.7447 51.852 39.2236 51.8648 41.7025C51.8743 42.1212 51.9215 42.5382 52.0058 42.9484C52.0731 43.3925 52.2657 43.808 52.5608 44.1459C52.856 44.4839 53.2415 44.7302 53.6718 44.8557C54.9219 45.279 56.2793 45.2586 57.5163 44.7979C58.644 44.3955 59.1609 43.49 59.3125 42.3533C59.3809 41.8459 59.4172 41.3347 59.4215 40.8227C59.4215 38.6328 59.4215 36.4429 59.4215 34.2551L59.4193 33.8955Z" fill="#0A0A26"/>
<path d="M17.6101 33.8911H19.2034L25.156 46.0929H22.1509L20.6558 42.7599H14.8719L13.2636 46.0887H11.5293C13.569 42.0021 15.5874 37.9541 17.6101 33.8911ZM20.1496 41.6682L17.8279 36.5777C16.9971 38.3137 16.2004 39.977 15.3931 41.6682H20.1496Z" fill="#0A0A26"/>
<path d="M79.6456 46.091H76.6404L75.1454 42.7516H69.3786L67.7703 46.091H66.0381C68.0736 42.0045 70.0962 37.9564 72.1125 33.8892H73.7143L79.6456 46.091ZM69.8869 41.6619H74.6392L72.3218 36.5778C71.4931 38.3054 70.6921 39.9665 69.8869 41.6619Z" fill="#0A0A26"/>
<path d="M2.58462 33.8955H5.08997C5.08997 34.0004 5.1156 34.1096 5.1156 34.1973C5.1156 37.2328 5.14123 40.2683 5.1156 43.3016C5.09851 44.9585 4.62863 46.4827 3.3941 47.6664C2.53976 48.482 1.54019 48.9937 0.329166 49.0001C0.269363 49.0001 0.209553 49.0001 0.149749 49.0001C0.101711 48.9886 0.0545974 48.9736 0.00878906 48.9551C0.0772548 48.857 0.154465 48.7653 0.239464 48.6811C1.06007 48.1002 1.69629 47.2945 2.07201 46.3606C2.33553 45.6634 2.47994 44.9267 2.49918 44.1814C2.54831 42.0215 2.56968 39.8594 2.59104 37.6973C2.60385 36.5521 2.59104 35.4047 2.59104 34.2594L2.58462 33.8955Z" fill="#0A0A26"/>
</g>
<defs>
<clipPath id="clip0_165_27392">
<rect width="96" height="49" fill="white"/>
</clipPath>
</defs>
</svg>
