<svg width="107" height="157" viewBox="0 0 107 157" fill="none" xmlns="http://www.w3.org/2000/svg">
<path d="M91.9559 41.2811V83.0562H80.1821V41.2811C80.4154 37.6042 79.8978 33.9181 78.6612 30.4506C77.4245 26.983 75.495 23.8077 72.992 21.1206C70.4889 18.4335 67.4655 16.2918 64.1083 14.8277C60.7511 13.3636 57.1314 12.6082 53.473 12.6082C49.8145 12.6082 46.1949 13.3636 42.8377 14.8277C39.4805 16.2918 36.457 18.4335 33.954 21.1206C31.4509 23.8077 29.5215 26.983 28.2848 30.4506C27.0481 33.9181 26.5305 37.6042 26.7639 41.2811V83.0562H14.9901V41.2811C14.7118 36.0181 15.5009 30.7531 17.3092 25.8072C19.1175 20.8614 21.9071 16.3383 25.5079 12.5137C29.1087 8.68909 33.4453 5.64318 38.2532 3.56168C43.0611 1.48018 48.2396 0.406738 53.473 0.406738C58.7063 0.406738 63.8848 1.48018 68.6928 3.56168C73.5007 5.64318 77.8372 8.68909 81.4381 12.5137C85.0389 16.3383 87.8286 20.8614 89.6369 25.8072C91.4451 30.7531 92.2341 36.0181 91.9559 41.2811Z" fill="#EBEBEB"/>
<path d="M15.0444 52.1504L26.7637 52.5896V83.0563H15.0444V52.1504Z" fill="#C7C7C7"/>
<path d="M91.9557 55.2793V83.0563H80.2363V54.7853L91.9557 55.2793Z" fill="#C7C7C7"/>
<path d="M107 67.5759H0V157H107V67.5759Z" fill="#5CAD2F"/>
<path d="M57.9971 111.712L62.4667 133.066H43.4434L47.9676 111.712C46.2105 110.618 44.8561 108.976 44.1102 107.036C43.3644 105.096 43.2678 102.963 43.8354 100.963C44.4029 98.9626 45.6034 97.2035 47.2544 95.9531C48.9053 94.7027 50.9166 94.0293 52.9823 94.0353C55.0481 94.0293 57.0593 94.7027 58.7103 95.9531C60.3613 97.2035 61.5617 98.9626 62.1292 100.963C62.6967 102.963 62.6003 105.096 61.8544 107.036C61.1086 108.976 59.7542 110.618 57.9971 111.712Z" fill="#263238"/>
</svg>
