<svg width="77" height="77" viewBox="0 0 77 77" fill="none" xmlns="http://www.w3.org/2000/svg">
<path fill-rule="evenodd" clip-rule="evenodd" d="M18.3517 12.7692C18.3517 12.7692 22.7792 8.21338 26.4367 9.88172C26.4367 9.88172 30.5754 11.1651 30.4792 16.1059C30.4792 16.1059 30.415 18.3196 27.72 20.5334C27.72 20.5334 24.5758 22.7792 22.3942 29.5167C22.3942 29.5167 19.0896 41.4036 25.0892 52.2317C25.0892 52.2317 29.9337 60.814 40.81 59.0976C40.81 59.0976 52.6808 58.2153 54.9267 43.6976C54.9267 43.6976 57.9425 32.9176 51.3975 22.8434C51.3975 22.8434 44.0183 17.0042 47.2267 12.5767C47.2267 12.5767 50.8521 6.51297 56.8517 11.4217C56.8517 11.4217 64.3912 16.4909 67.1825 26.7576C67.1825 26.7576 70.07 38.468 67.375 48.1892C67.375 48.1892 64.9687 61.6322 51.59 67.3751C51.59 67.3751 23.2283 78.2674 11.4217 53.1942C11.4217 53.1942 5.32583 38.8369 10.6517 24.7684C10.6517 24.7684 11.8067 19.0255 18.3517 12.7692Z" fill="#19E024"/>
<path d="M38.885 17.5175C41.7201 17.5175 44.0184 15.2192 44.0184 12.3842C44.0184 9.54913 41.7201 7.25085 38.885 7.25085C36.05 7.25085 33.7517 9.54913 33.7517 12.3842C33.7517 15.2192 36.05 17.5175 38.885 17.5175Z" fill="white"/>
<path fill-rule="evenodd" clip-rule="evenodd" d="M41.965 23.9342L26.6934 40.3609L39.0133 40.6175L35.42 51.6542L50.5633 35.0992L38.6283 34.8425L41.965 23.9342Z" fill="white"/>
</svg>
