<svg width="96" height="50" viewBox="0 0 96 50" fill="none" xmlns="http://www.w3.org/2000/svg">
<g clip-path="url(#clip0_2_7305)">
<path d="M44.2159 34.0145C44.4869 33.3921 44.6524 32.8651 44.927 32.4077C46.4009 29.9621 47.8387 27.4872 49.4049 25.1028C54.1214 17.9176 59.2312 11.0284 64.5724 4.31527C64.727 4.1464 64.8263 3.93277 64.8566 3.70387C64.5424 3.93498 64.2187 4.15386 63.9141 4.39842C59.4039 8.013 55.3997 12.1717 51.5946 16.5261C47.1444 21.608 43.0683 26.9969 39.0677 32.4469C38.7463 32.8846 38.3962 33.3028 38.0628 33.7222C35.4173 33.6097 32.8786 33.1377 30.1648 32.5092C34.5515 26.6973 39.5606 21.7168 44.7951 16.9638C50.0067 12.2177 55.5989 7.92491 61.5133 4.13063C47.8807 11.1299 35.3706 19.7579 24.5777 30.8633L24.4842 30.7325C24.4258 30.7423 24.3663 30.7423 24.3079 30.7325C20.8506 29.4388 17.6499 27.7208 15.2647 24.7592C13.196 22.1913 12.2882 19.237 12.8459 15.9257C13.1829 13.9166 14.2753 12.2708 15.6041 10.7973C17.9797 8.17196 20.9237 6.39524 24.0908 4.95846C28.4679 2.97876 33.0765 1.83178 37.7882 1.07853C42.7075 0.304393 47.6811 -0.0534758 52.6583 0.00859052C59.3895 0.0758442 66.0007 0.986828 72.3181 3.51556C75.6339 4.84474 78.7338 6.55421 81.3613 9.04871C83.1601 10.7545 84.6196 12.6939 85.1988 15.1957C85.6569 17.1827 85.2671 19.0389 84.3018 20.7863C83.2093 22.7648 81.6132 24.2651 79.8239 25.5662C76.4997 27.9812 72.7822 29.5623 68.9112 30.7961C63.8935 32.398 58.7085 33.3928 53.463 33.7601C50.6952 33.9546 47.9167 33.9888 45.1429 34.0891C44.903 34.0988 44.6512 34.0487 44.2159 34.0145ZM60.7386 2.48964L60.7098 2.23652C58.345 2.06411 55.9825 1.81955 53.6153 1.73762C49.7422 1.60938 45.865 1.76138 42.013 2.1925C37.6143 2.68162 33.2767 3.4532 29.0735 4.8961C26.2386 5.86822 23.5188 7.0849 21.1792 9.0377C19.8924 10.1113 18.8191 11.3683 18.2603 12.9947C17.458 15.3302 17.7182 17.5691 19.1981 19.5305C20.3337 21.0345 22.1133 21.114 24.0848 20.0624C28.8037 17.5398 33.4986 14.956 38.2954 12.5777C45.517 8.99979 52.8334 5.62733 60.3344 2.69018C60.4723 2.63882 60.6007 2.55812 60.7386 2.48964ZM66.7754 3.77357C66.6003 4.04381 66.4564 4.23824 66.3389 4.44733C65.7764 5.45736 65.2116 6.46616 64.66 7.48353C61.7627 12.8577 58.8534 18.2245 55.9969 23.6244C55.6 24.374 55.3733 25.2544 55.2462 26.1018C55.1191 26.9492 55.5928 27.5263 56.4178 27.678C57.0582 27.8002 57.7561 27.8968 58.3737 27.7574C60.5731 27.2683 62.7808 26.7658 64.9274 26.0822C68.4483 24.9597 71.824 23.4764 74.7861 21.1678C76.3283 19.9658 77.639 18.5559 78.4688 16.734C79.746 13.9215 79.3466 11.2913 77.2097 9.09639C76.4428 8.32361 75.5987 7.63469 74.6913 7.04088C72.4824 5.57352 70.0144 4.65398 67.5129 3.86773C67.297 3.7968 67.0524 3.80903 66.7754 3.77357Z" fill="white"/>
<path d="M0 39.7994C0.158295 39.1783 0.232652 38.6561 0.425724 38.1866C0.651175 37.64 1.10088 37.36 1.71487 37.3697C2.65385 37.3856 3.59283 37.3697 4.5318 37.3697C5.16139 37.3759 5.39043 37.5984 5.41921 38.2526C5.4408 38.7417 5.41921 39.2308 5.41921 39.9009C5.69983 39.3164 5.87971 38.8848 6.10636 38.48C6.53448 37.717 7.13048 37.2731 8.06106 37.3551C8.75867 37.4125 9.45967 37.4125 10.1573 37.3551C11.1706 37.278 11.7774 37.8063 12.1875 38.6549C12.3626 39.0156 12.4693 39.4094 12.6432 39.8875C12.7344 39.6429 12.8015 39.4754 12.8651 39.3005C13.3556 37.964 14.1926 37.3661 15.5789 37.3661C16.1989 37.3661 16.8177 37.3661 17.4377 37.3661C18.5937 37.3807 19.3384 37.9139 19.637 39.056C19.7863 39.6675 19.8612 40.2954 19.8601 40.9256C19.884 43.5938 19.872 46.2631 19.8696 48.9325C19.8696 49.742 19.6694 49.9621 18.8923 49.9743C17.9929 49.9902 17.0935 49.989 16.1953 49.9743C15.4853 49.9633 15.2743 49.7444 15.2719 49.0046C15.2635 46.8452 15.2719 44.6845 15.2719 42.5238C15.2719 41.3365 14.9121 40.9733 13.7249 40.9623C13.4083 40.9623 13.0917 40.9623 12.7092 40.9623C12.69 41.2533 12.6612 41.4881 12.6612 41.7229C12.6612 44.1269 12.6612 46.5317 12.6612 48.9374C12.6612 49.7371 12.4585 49.9596 11.6779 49.9743C10.8192 49.9914 9.9594 49.9865 9.10077 49.9743C8.31529 49.9657 8.11623 49.7676 8.11143 48.9435C8.10064 46.8855 8.11143 44.8276 8.11143 42.7696C8.11143 41.2277 7.8608 40.9709 6.34021 40.9648C6.06679 40.9648 5.79336 40.9978 5.47318 41.0186C5.45639 41.3292 5.43121 41.5884 5.43121 41.8464C5.43121 44.1485 5.43121 46.451 5.43121 48.7539C5.43121 49.8288 5.28131 49.9767 4.20802 49.9767C3.48849 49.9767 2.76897 49.9767 2.04945 49.9767C1.21 49.9682 1.02413 49.7896 1.02293 48.9337C1.01813 46.3251 1.01813 43.7164 1.02293 41.1078C1.01573 40.4573 1.07929 39.7774 0 39.7994Z" fill="white"/>
<path d="M70.9341 40.9257C70.6607 41.8367 70.4209 42.6302 70.2614 43.1634C69.6342 43.5204 69.0262 43.6598 68.8319 44.0267C68.5451 44.599 68.4256 45.2433 68.4878 45.8829C68.6149 47.0788 69.278 47.3661 70.9785 47.1057C70.9977 46.8892 71.0349 46.6557 71.0361 46.4209C71.0361 44.6295 71.0361 42.8381 71.0361 41.0406C71.0361 40.0086 71.0361 40.0086 70.1187 39.7212C69.964 38.6366 70.8382 37.5434 71.8923 37.5312C72.7509 37.5214 73.6096 37.5214 74.4682 37.5312C75.1517 37.5398 75.3424 37.7183 75.3388 38.3945C75.3244 41.9773 75.2944 45.5613 75.2788 49.1441C75.2788 49.6772 75.039 49.9499 74.5293 49.956C73.6108 49.9666 72.6914 49.9666 71.7712 49.956C71.2843 49.956 71.0433 49.6748 71.0397 49.1832C71.0397 48.7234 71.0397 48.2624 71.0397 47.6559C70.7998 48.2673 70.6379 48.743 70.4401 49.1991C70.346 49.4376 70.1801 49.6395 69.9664 49.7757C69.7526 49.912 69.5019 49.9755 69.2505 49.9572C68.3714 49.9438 67.4924 49.9768 66.6122 49.945C65.3315 49.8973 64.552 49.056 64.5472 47.7537C64.5472 46.4087 64.5388 45.0636 64.5472 43.7185C64.5604 42.0152 65.7068 40.8596 67.3809 40.8511C68.2995 40.8511 69.2189 40.8511 70.1391 40.8511C70.3693 40.8633 70.6008 40.8976 70.9341 40.9257Z" fill="white"/>
<path d="M33.0439 39.7127C33.1195 38.2906 33.8762 37.5337 35.1845 37.5324C35.9424 37.5324 36.7015 37.5239 37.463 37.5324C38.1526 37.5422 38.312 37.7061 38.3144 38.4006C38.3204 39.9267 38.3144 41.4576 38.3144 43.0741C38.5399 42.585 38.7018 42.1729 38.92 41.7878C39.2618 41.1849 39.7415 40.834 40.4862 40.8939C41.1817 40.9489 41.8833 40.8939 42.5824 40.9073C43.7169 40.9196 44.4088 41.5542 44.4244 42.6987C44.4556 44.857 44.4328 47.0152 44.4388 49.1734C44.4388 49.7176 44.1486 49.9499 43.6545 49.9585C42.9758 49.9707 42.297 49.9585 41.6159 49.9585C41.0402 49.9585 40.7956 49.6479 40.7992 49.0732C40.8076 47.5862 40.7992 46.0993 40.7992 44.6136C40.7992 43.7797 40.4394 43.3786 39.6815 43.3627C38.8949 43.3444 38.3013 43.8738 38.2977 44.6234C38.2881 46.0688 38.2977 47.5153 38.2977 48.9607C38.2977 49.7396 38.095 49.9475 37.3383 49.9597C36.56 49.9731 35.7793 49.9695 35.0022 49.9597C34.2036 49.9511 34.0573 49.8007 34.0573 48.9949C34.0573 46.3683 34.0573 43.7418 34.0573 41.1152C34.0585 40.0306 34.0585 40.0306 33.0439 39.7127Z" fill="white"/>
<path d="M27.6717 47.5409C27.7916 48.8481 27.0277 49.8642 25.8789 49.9291C25.1011 49.9896 24.3193 49.9708 23.5452 49.8728C23.1027 49.8092 22.5762 49.5842 22.2992 49.2504C21.4466 48.2208 21.449 46.9956 21.8831 45.7887C22.2776 44.6882 23.1866 44.2944 24.2587 44.2602C25.2769 44.2272 26.2974 44.2467 27.3155 44.2492C27.7004 44.2492 28.0134 44.1355 28.0026 43.683C27.9919 43.2306 27.6513 43.1548 27.2831 43.1548C25.7058 43.1613 24.128 43.1637 22.5499 43.1621H21.5449C21.9431 42.3551 22.2836 41.663 22.6482 40.922H23.8606C25.7182 40.922 27.5781 40.9146 29.4345 40.922C31.1134 40.9317 31.7981 41.6202 31.8161 43.3419C31.8365 45.1761 31.8269 47.0102 31.8161 48.8444C31.8161 49.6784 31.5619 49.9339 30.7368 49.9584C30.218 49.9731 29.6983 49.9731 29.1779 49.9584C28.3456 49.9339 28.1082 49.6894 28.0986 48.8493C28.089 47.9579 28.0986 47.0665 28.0986 46.0442C27.4762 46.0442 26.9449 45.9917 26.4293 46.0626C26.3381 46.0724 26.2499 46.1014 26.1703 46.1479C26.0907 46.1943 26.0214 46.2571 25.967 46.3324C25.9125 46.4076 25.874 46.4936 25.8538 46.5848C25.8337 46.676 25.8324 46.7705 25.8501 46.8623C25.9064 47.3086 26.1751 47.5446 26.6272 47.5434L27.6717 47.5409Z" fill="white"/>
<path d="M85.82 43.1609L86.8285 40.9208H87.6116C89.5879 40.9208 91.569 40.9208 93.5429 40.9208C95.2998 40.9269 95.9893 41.6227 95.9965 43.392C96.0037 45.2058 96.0037 47.0184 95.9965 48.8298C95.9965 49.6637 95.7387 49.9389 94.9352 49.956C94.3764 49.9682 93.8164 49.9731 93.2563 49.9486C92.5368 49.9181 92.297 49.6625 92.2802 48.9252C92.2658 48.013 92.2802 47.1008 92.2802 46.0553C91.647 46.0553 91.0977 45.9966 90.5689 46.0748C90.1827 46.1311 89.9597 46.4784 90.0328 46.9015C90.106 47.3245 90.3698 47.5361 90.7919 47.5373H91.7801C92.0715 48.551 91.3232 49.7921 90.3038 49.8875C89.3702 49.9602 88.4318 49.9431 87.5013 49.8361C87.1057 49.7748 86.7447 49.5714 86.4831 49.2627C85.6437 48.2208 85.6365 47.0066 86.0586 45.7997C86.4424 44.6992 87.3526 44.2957 88.4235 44.2578C89.4212 44.2211 90.4202 44.2431 91.4215 44.248C91.8113 44.248 92.1926 44.1942 92.1986 43.7063C92.2046 43.2184 91.8269 43.1499 91.4347 43.1512C89.8765 43.1577 88.3176 43.1601 86.7578 43.1585L85.82 43.1609Z" fill="white"/>
<path d="M56.5651 43.123C56.9585 42.4847 57.2247 42.0078 57.5341 41.564C57.6806 41.3431 57.8815 41.1654 58.1166 41.0486C58.3517 40.9319 58.6127 40.8802 58.8736 40.8988C59.6519 40.922 60.4326 40.8914 61.2097 40.9086C62.169 40.9293 62.7686 41.5493 62.7686 42.5336C62.7758 44.6915 62.7758 46.8517 62.7686 49.0145C62.7686 49.7775 62.5612 49.9829 61.8021 49.9927C61.2229 50.0025 60.6424 50.0049 60.0644 49.9927C59.3785 49.9768 59.1746 49.7738 59.1686 49.0646C59.1578 47.5581 59.1686 46.0504 59.1686 44.5403C59.1686 43.7283 58.8868 43.4397 58.0893 43.4397C57.6912 43.4397 57.2919 43.474 56.8901 43.5009C56.7961 43.5198 56.7041 43.5481 56.6155 43.5853C56.5999 43.8188 56.5723 44.0572 56.5711 44.2957C56.5711 45.8633 56.5711 47.4322 56.5711 49.001C56.5711 49.7946 56.3925 49.9792 55.6274 49.9902C55.0677 49.9984 54.5081 49.9984 53.9485 49.9902C53.175 49.9792 53.0179 49.8142 53.0155 49.0022C53.0155 47.5153 53.0155 46.0284 53.0155 44.5415C53.0155 43.4935 52.9256 43.37 51.9662 43.0827C51.8259 41.7376 52.5382 40.9012 53.831 40.9012C54.391 40.9012 54.9498 40.8914 55.5098 40.9012C56.2617 40.9183 56.5448 41.2118 56.5687 41.9871C56.5735 42.3123 56.5651 42.6327 56.5651 43.123Z" fill="white"/>
<path d="M45.7305 43.0252C45.9775 42.4334 46.1538 41.8525 46.45 41.3512C46.5867 41.1237 46.9657 40.9525 47.2475 40.9305C48.0018 40.8731 48.7633 40.8987 49.526 40.9146C50.1975 40.9293 50.5345 41.2448 50.5393 41.9271C50.5561 44.3495 50.5393 46.7718 50.5477 49.1942C50.5477 49.6833 50.3078 49.9719 49.8281 49.9866C49.1086 50.0098 48.3891 50.0061 47.6696 49.9866C47.1 49.9719 46.9417 49.5879 46.9417 49.0756C46.9417 47.5479 46.9417 46.021 46.9417 44.495C46.9405 43.4617 46.8769 43.3761 45.7305 43.0252Z" fill="white"/>
<path d="M76.1113 43.035C76.3092 42.4945 76.4603 41.9736 76.6882 41.4906C76.8824 41.0797 77.2458 40.8792 77.7207 40.8988C78.4402 40.9196 79.1597 40.8927 79.8792 40.9098C80.5616 40.9257 80.8854 41.2314 80.889 41.9186C80.9034 44.3409 80.889 46.7633 80.8974 49.1856C80.8974 49.72 80.6239 49.9768 80.1251 49.9878C79.4855 50.0025 78.8459 50.0025 78.2063 49.9878C77.5132 49.9743 77.3189 49.7909 77.3105 49.067C77.2925 47.5397 77.3033 46.01 77.2997 44.4864C77.2973 43.4532 77.2362 43.37 76.1113 43.035Z" fill="white"/>
<path d="M48.5966 37.3918C48.7765 37.3918 48.9564 37.4028 49.135 37.3918C50.694 37.2817 50.6448 38.1756 50.5141 39.2724C50.459 39.7358 50.0644 39.9376 49.6315 39.9511C48.9336 39.9731 48.232 39.9877 47.5353 39.9511C46.8158 39.9095 46.5543 39.5084 46.5759 38.562C46.5915 37.7794 46.8853 37.4333 47.5809 37.4015C47.919 37.3856 48.2596 37.4015 48.599 37.4015L48.5966 37.3918Z" fill="white"/>
<path d="M85.5356 40.955L84.5522 43.1096H81.1069C81.4667 42.349 81.7785 41.6642 82.1095 40.955H85.5356Z" fill="white"/>
</g>
<defs>
<clipPath id="clip0_2_7305">
<rect width="96" height="50" fill="white"/>
</clipPath>
</defs>
</svg>
