<svg width="96" height="50" viewBox="0 0 96 50" fill="none" xmlns="http://www.w3.org/2000/svg">
<g clip-path="url(#clip0_165_27420)">
<path d="M44.2159 34.0142C44.4869 33.3918 44.6524 32.8648 44.927 32.4075C46.4009 29.9619 47.8387 27.487 49.4049 25.1025C54.1214 17.9174 59.2312 11.0282 64.5724 4.31503C64.727 4.14616 64.8263 3.93252 64.8566 3.70363C64.5424 3.93474 64.2187 4.15362 63.9141 4.39817C59.4039 8.01275 55.3997 12.1715 51.5946 16.5258C47.1444 21.6078 43.0683 26.9966 39.0677 32.4466C38.7463 32.8844 38.3962 33.3026 38.0628 33.722C35.4173 33.6095 32.8786 33.1375 30.1648 32.509C34.5515 26.697 39.5606 21.7166 44.7951 16.9636C50.0067 12.2174 55.5989 7.92467 61.5133 4.13039C47.8807 11.1297 35.3706 19.7577 24.5777 30.8631L24.4842 30.7323C24.4258 30.7421 24.3663 30.7421 24.3079 30.7323C20.8506 29.4385 17.6499 27.7205 15.2647 24.7589C13.196 22.191 12.2882 19.2368 12.8459 15.9255C13.1829 13.9164 14.2753 12.2705 15.6041 10.7971C17.9797 8.17172 20.9237 6.395 24.0908 4.95822C28.4679 2.97851 33.0765 1.83153 37.7882 1.07829C42.7075 0.304148 47.6811 -0.05372 52.6583 0.00834638C59.3895 0.0756 66.0007 0.986584 72.3181 3.51532C75.6339 4.8445 78.7338 6.55396 81.3613 9.04846C83.1601 10.7543 84.6196 12.6936 85.1988 15.1954C85.6569 17.1825 85.2671 19.0387 84.3018 20.7861C83.2093 22.7645 81.6132 24.2649 79.8239 25.566C76.4997 27.981 72.7822 29.562 68.9112 30.7958C63.8935 32.3977 58.7085 33.3926 53.463 33.7599C50.6952 33.9543 47.9167 33.9886 45.1429 34.0888C44.903 34.0986 44.6512 34.0485 44.2159 34.0142ZM60.7386 2.4894L60.7098 2.23628C58.345 2.06386 55.9825 1.81931 53.6153 1.73738C49.7422 1.60913 45.865 1.76114 42.013 2.19226C37.6143 2.68137 33.2767 3.45296 29.0735 4.89585C26.2386 5.86797 23.5188 7.08465 21.1792 9.03745C19.8924 10.1111 18.8191 11.3681 18.2603 12.9944C17.458 15.3299 17.7182 17.5689 19.1981 19.5302C20.3337 21.0343 22.1133 21.1138 24.0848 20.0622C28.8037 17.5395 33.4986 14.9558 38.2954 12.5774C45.517 8.99955 52.8334 5.62709 60.3344 2.68994C60.4723 2.63858 60.6007 2.55787 60.7386 2.4894ZM66.7754 3.77333C66.6003 4.04357 66.4564 4.23799 66.3389 4.44709C65.7764 5.45712 65.2116 6.46592 64.66 7.48328C61.7627 12.8575 58.8534 18.2243 55.9969 23.6242C55.6 24.3737 55.3733 25.2541 55.2462 26.1015C55.1191 26.9489 55.5928 27.5261 56.4178 27.6777C57.0582 27.8 57.7561 27.8966 58.3737 27.7572C60.5731 27.2681 62.7808 26.7655 64.9274 26.082C68.4483 24.9594 71.824 23.4762 74.7861 21.1676C76.3283 19.9656 77.639 18.5557 78.4688 16.7337C79.746 13.9213 79.3466 11.2911 77.2097 9.09615C76.4428 8.32336 75.5987 7.63445 74.6913 7.04063C72.4824 5.57328 70.0144 4.65374 67.5129 3.86748C67.297 3.79656 67.0524 3.80879 66.7754 3.77333Z" fill="#0A0A26"/>
<path d="M0 39.7992C0.158295 39.1781 0.232652 38.6559 0.425724 38.1864C0.651175 37.6398 1.10088 37.3598 1.71487 37.3696C2.65385 37.3855 3.59283 37.3696 4.5318 37.3696C5.16139 37.3757 5.39043 37.5982 5.41921 38.2524C5.4408 38.7415 5.41921 39.2307 5.41921 39.9007C5.69983 39.3162 5.87971 38.8846 6.10636 38.4799C6.53448 37.7168 7.13048 37.273 8.06106 37.3549C8.75867 37.4124 9.45967 37.4124 10.1573 37.3549C11.1706 37.2779 11.7774 37.8061 12.1875 38.6547C12.3626 39.0154 12.4693 39.4092 12.6432 39.8873C12.7344 39.6427 12.8015 39.4752 12.8651 39.3003C13.3556 37.9638 14.1926 37.3659 15.5789 37.3659C16.1989 37.3659 16.8177 37.3659 17.4377 37.3659C18.5937 37.3806 19.3384 37.9137 19.637 39.0558C19.7863 39.6673 19.8612 40.2953 19.8601 40.9254C19.884 43.5936 19.872 46.2629 19.8696 48.9323C19.8696 49.7418 19.6694 49.9619 18.8923 49.9741C17.9929 49.99 17.0935 49.9888 16.1953 49.9741C15.4853 49.9631 15.2743 49.7442 15.2719 49.0044C15.2635 46.845 15.2719 44.6843 15.2719 42.5236C15.2719 41.3363 14.9121 40.9731 13.7249 40.9621C13.4083 40.9621 13.0917 40.9621 12.7092 40.9621C12.69 41.2532 12.6612 41.4879 12.6612 41.7227C12.6612 44.1267 12.6612 46.5315 12.6612 48.9372C12.6612 49.7369 12.4585 49.9594 11.6779 49.9741C10.8192 49.9912 9.9594 49.9863 9.10077 49.9741C8.31529 49.9655 8.11623 49.7675 8.11143 48.9433C8.10064 46.8853 8.11143 44.8274 8.11143 42.7694C8.11143 41.2275 7.8608 40.9707 6.34021 40.9646C6.06679 40.9646 5.79336 40.9976 5.47318 41.0184C5.45639 41.329 5.43121 41.5882 5.43121 41.8462C5.43121 44.1483 5.43121 46.4508 5.43121 48.7538C5.43121 49.8286 5.28131 49.9765 4.20802 49.9765C3.48849 49.9765 2.76897 49.9765 2.04945 49.9765C1.21 49.968 1.02413 49.7895 1.02293 48.9335C1.01813 46.3249 1.01813 43.7163 1.02293 41.1076C1.01573 40.4571 1.07929 39.7772 0 39.7992Z" fill="#0A0A26"/>
<path d="M70.9341 40.9257C70.6607 41.8367 70.4209 42.6303 70.2614 43.1634C69.6342 43.5205 69.0262 43.6599 68.8319 44.0267C68.5451 44.599 68.4256 45.2434 68.4878 45.8829C68.6149 47.0788 69.278 47.3662 70.9785 47.1057C70.9977 46.8893 71.0349 46.6557 71.0361 46.421C71.0361 44.6296 71.0361 42.8382 71.0361 41.0407C71.0361 40.0086 71.0361 40.0086 70.1187 39.7213C69.964 38.6367 70.8382 37.5435 71.8923 37.5313C72.7509 37.5215 73.6096 37.5215 74.4682 37.5313C75.1517 37.5398 75.3424 37.7183 75.3388 38.3946C75.3244 41.9773 75.2944 45.5613 75.2788 49.1441C75.2788 49.6773 75.039 49.9499 74.5293 49.9561C73.6108 49.9667 72.6914 49.9667 71.7712 49.9561C71.2843 49.9561 71.0433 49.6748 71.0397 49.1833C71.0397 48.7235 71.0397 48.2625 71.0397 47.656C70.7998 48.2674 70.6379 48.743 70.4401 49.1992C70.346 49.4376 70.1801 49.6396 69.9664 49.7758C69.7526 49.912 69.5019 49.9756 69.2505 49.9573C68.3714 49.9438 67.4924 49.9769 66.6122 49.9451C65.3315 49.8974 64.552 49.0561 64.5472 47.7538C64.5472 46.4087 64.5388 45.0637 64.5472 43.7186C64.5604 42.0152 65.7068 40.8597 67.3809 40.8511C68.2995 40.8511 69.2189 40.8511 70.1391 40.8511C70.3693 40.8634 70.6008 40.8976 70.9341 40.9257Z" fill="#0A0A26"/>
<path d="M33.0439 39.7128C33.1195 38.2907 33.8762 37.5338 35.1845 37.5326C35.9424 37.5326 36.7015 37.5241 37.463 37.5326C38.1526 37.5424 38.312 37.7062 38.3144 38.4008C38.3204 39.9268 38.3144 41.4578 38.3144 43.0743C38.5399 42.5852 38.7018 42.1731 38.92 41.7879C39.2618 41.1851 39.7415 40.8342 40.4862 40.8941C41.1817 40.9491 41.8833 40.8941 42.5824 40.9075C43.7169 40.9198 44.4088 41.5544 44.4244 42.6989C44.4556 44.8572 44.4328 47.0154 44.4388 49.1736C44.4388 49.7178 44.1486 49.9501 43.6545 49.9586C42.9758 49.9709 42.297 49.9586 41.6159 49.9586C41.0402 49.9586 40.7956 49.6481 40.7992 49.0733C40.8076 47.5864 40.7992 46.0995 40.7992 44.6138C40.7992 43.7799 40.4394 43.3788 39.6815 43.3629C38.8949 43.3446 38.3013 43.874 38.2977 44.6236C38.2881 46.0689 38.2977 47.5155 38.2977 48.9608C38.2977 49.7398 38.095 49.9476 37.3383 49.9599C36.56 49.9733 35.7793 49.9697 35.0022 49.9599C34.2036 49.9513 34.0573 49.8009 34.0573 48.9951C34.0573 46.3685 34.0573 43.742 34.0573 41.1154C34.0585 40.0308 34.0585 40.0308 33.0439 39.7128Z" fill="#0A0A26"/>
<path d="M27.6717 47.5412C27.7916 48.8483 27.0277 49.8645 25.8789 49.9293C25.1011 49.9899 24.3193 49.971 23.5452 49.873C23.1027 49.8095 22.5762 49.5845 22.2992 49.2506C21.4466 48.221 21.449 46.9958 21.8831 45.7889C22.2776 44.6884 23.1866 44.2947 24.2587 44.2604C25.2769 44.2274 26.2974 44.247 27.3155 44.2494C27.7004 44.2494 28.0134 44.1357 28.0026 43.6833C27.9919 43.2308 27.6513 43.155 27.2831 43.155C25.7058 43.1615 24.128 43.164 22.5499 43.1624H21.5449C21.9431 42.3553 22.2836 41.6632 22.6482 40.9222H23.8606C25.7182 40.9222 27.5781 40.9149 29.4345 40.9222C31.1134 40.932 31.7981 41.6204 31.8161 43.3421C31.8365 45.1763 31.8269 47.0105 31.8161 48.8447C31.8161 49.6786 31.5619 49.9342 30.7368 49.9586C30.218 49.9733 29.6983 49.9733 29.1779 49.9586C28.3456 49.9342 28.1082 49.6896 28.0986 48.8496C28.089 47.9582 28.0986 47.0667 28.0986 46.0445C27.4762 46.0445 26.9449 45.9919 26.4293 46.0628C26.3381 46.0726 26.2499 46.1017 26.1703 46.1481C26.0907 46.1946 26.0214 46.2574 25.967 46.3326C25.9125 46.4078 25.874 46.4938 25.8538 46.585C25.8337 46.6763 25.8324 46.7708 25.8501 46.8625C25.9064 47.3089 26.1751 47.5449 26.6272 47.5436L27.6717 47.5412Z" fill="#0A0A26"/>
<path d="M85.82 43.1611L86.8285 40.9209H87.6116C89.5879 40.9209 91.569 40.9209 93.5429 40.9209C95.2998 40.927 95.9893 41.6228 95.9965 43.3922C96.0037 45.206 96.0037 47.0185 95.9965 48.8299C95.9965 49.6639 95.7387 49.939 94.9352 49.9561C94.3764 49.9683 93.8164 49.9732 93.2563 49.9488C92.5368 49.9182 92.297 49.6626 92.2802 48.9253C92.2658 48.0131 92.2802 47.1009 92.2802 46.0554C91.647 46.0554 91.0977 45.9967 90.5689 46.075C90.1827 46.1312 89.9597 46.4785 90.0328 46.9016C90.106 47.3247 90.3698 47.5362 90.7919 47.5374H91.7801C92.0715 48.5511 91.3232 49.7922 90.3038 49.8876C89.3702 49.9604 88.4318 49.9432 87.5013 49.8363C87.1057 49.7749 86.7447 49.5715 86.4831 49.2628C85.6437 48.221 85.6365 47.0067 86.0586 45.7998C86.4424 44.6993 87.3526 44.2958 88.4235 44.2579C89.4212 44.2212 90.4202 44.2432 91.4215 44.2481C91.8113 44.2481 92.1926 44.1943 92.1986 43.7064C92.2046 43.2185 91.8269 43.1501 91.4347 43.1513C89.8765 43.1578 88.3176 43.1602 86.7578 43.1586L85.82 43.1611Z" fill="#0A0A26"/>
<path d="M56.5651 43.123C56.9585 42.4847 57.2247 42.0078 57.5341 41.5639C57.6806 41.343 57.8815 41.1653 58.1166 41.0486C58.3517 40.9318 58.6127 40.8801 58.8736 40.8987C59.6519 40.9219 60.4326 40.8914 61.2097 40.9085C62.169 40.9293 62.7686 41.5492 62.7686 42.5336C62.7758 44.6914 62.7758 46.8517 62.7686 49.0144C62.7686 49.7774 62.5612 49.9828 61.8021 49.9926C61.2229 50.0024 60.6424 50.0049 60.0644 49.9926C59.3785 49.9767 59.1746 49.7737 59.1686 49.0645C59.1578 47.558 59.1686 46.0503 59.1686 44.5402C59.1686 43.7283 58.8868 43.4397 58.0893 43.4397C57.6912 43.4397 57.2919 43.4739 56.8901 43.5008C56.7961 43.5197 56.7041 43.548 56.6155 43.5852C56.5999 43.8187 56.5723 44.0572 56.5711 44.2956C56.5711 45.8633 56.5711 47.4321 56.5711 49.0009C56.5711 49.7945 56.3925 49.9792 55.6274 49.9902C55.0677 49.9983 54.5081 49.9983 53.9485 49.9902C53.175 49.9792 53.0179 49.8141 53.0155 49.0022C53.0155 47.5152 53.0155 46.0283 53.0155 44.5414C53.0155 43.4935 52.9256 43.37 51.9662 43.0826C51.8259 41.7375 52.5382 40.9012 53.831 40.9012C54.391 40.9012 54.9498 40.8914 55.5098 40.9012C56.2617 40.9183 56.5448 41.2117 56.5687 41.987C56.5735 42.3123 56.5651 42.6326 56.5651 43.123Z" fill="#0A0A26"/>
<path d="M45.7305 43.0252C45.9775 42.4334 46.1538 41.8526 46.45 41.3512C46.5867 41.1238 46.9657 40.9526 47.2475 40.9306C48.0018 40.8731 48.7633 40.8988 49.526 40.9147C50.1975 40.9294 50.5345 41.2449 50.5393 41.9272C50.5561 44.3495 50.5393 46.7719 50.5477 49.1942C50.5477 49.6834 50.3078 49.9719 49.8281 49.9866C49.1086 50.0098 48.3891 50.0062 47.6696 49.9866C47.1 49.9719 46.9417 49.588 46.9417 49.0756C46.9417 47.548 46.9417 46.0211 46.9417 44.495C46.9405 43.4618 46.8769 43.3762 45.7305 43.0252Z" fill="#0A0A26"/>
<path d="M76.1113 43.035C76.3092 42.4945 76.4603 41.9736 76.6882 41.4906C76.8824 41.0797 77.2458 40.8792 77.7207 40.8988C78.4402 40.9196 79.1597 40.8927 79.8792 40.9098C80.5616 40.9257 80.8854 41.2314 80.889 41.9186C80.9034 44.3409 80.889 46.7633 80.8974 49.1856C80.8974 49.72 80.6239 49.9768 80.1251 49.9878C79.4855 50.0025 78.8459 50.0025 78.2063 49.9878C77.5132 49.9743 77.3189 49.7909 77.3105 49.067C77.2925 47.5397 77.3033 46.01 77.2997 44.4864C77.2973 43.4532 77.2362 43.37 76.1113 43.035Z" fill="#0A0A26"/>
<path d="M48.5966 37.392C48.7765 37.392 48.9564 37.403 49.135 37.392C50.694 37.2819 50.6448 38.1758 50.5141 39.2727C50.459 39.7361 50.0644 39.9378 49.6315 39.9513C48.9336 39.9733 48.232 39.988 47.5353 39.9513C46.8158 39.9097 46.5543 39.5087 46.5759 38.5622C46.5915 37.7796 46.8853 37.4336 47.5809 37.4018C47.919 37.3859 48.2596 37.4018 48.599 37.4018L48.5966 37.392Z" fill="#0A0A26"/>
<path d="M85.5356 40.9551L84.5522 43.1096H81.1069C81.4667 42.3491 81.7785 41.6643 82.1095 40.9551H85.5356Z" fill="#0A0A26"/>
</g>
<defs>
<clipPath id="clip0_165_27420">
<rect width="96" height="50" fill="white"/>
</clipPath>
</defs>
</svg>
