<svg width="97" height="64" viewBox="0 0 97 64" fill="none" xmlns="http://www.w3.org/2000/svg">
<g clip-path="url(#clip0_2_7318)">
<path d="M49.7888 -2.80123e-05C50.9408 0.137959 52.0848 0.336666 53.2159 0.595261C61.595 2.96288 66.8707 8.4253 68.6349 16.9758C70.8174 27.5286 64.2834 38.0712 53.9749 41.0307C48.8778 42.515 43.4082 41.9982 38.6774 39.5852C33.9465 37.1722 30.309 33.0441 28.5038 28.0393C24.4391 16.9352 30.5109 4.54579 41.7774 0.950399C43.2282 0.478762 44.7276 0.173532 46.2469 0.040558C46.3255 0.0273491 46.4033 0.00928465 46.4797 -0.0135498L49.7888 -2.80123e-05ZM65.0222 30.8432C65.0998 30.7506 65.1719 30.6535 65.2381 30.5523C66.5999 28.1373 67.4335 25.4592 67.6836 22.6962C67.9336 19.9332 67.5945 17.1484 66.6885 14.527C66.6603 14.4073 66.6456 14.2847 66.6447 14.1617L66.8201 14.1177C67.0394 14.7164 67.2789 15.3049 67.4678 15.9137C67.6567 16.5225 67.8388 17.1855 67.9805 17.8315C68.1222 18.4775 68.1997 19.0728 68.3178 19.6951C68.3124 18.8835 68.2629 18.0728 68.1694 17.2667C67.9665 15.3262 67.4361 13.4345 66.6008 11.6723C64.5769 7.57635 61.2508 4.27239 57.1471 2.28144C53.0433 0.290486 48.3954 -0.274196 43.9362 0.676433C38.33 1.88392 33.9111 4.9077 30.8077 9.75454C27.9817 14.069 26.9155 19.3066 27.8292 24.3864C28.3621 27.5996 29.4888 30.5693 31.7758 32.9876C32.0322 33.2582 32.2852 33.5322 32.5382 33.8027C32.582 33.7114 32.5652 33.6674 32.5382 33.6302C31.4426 32.0856 30.544 30.4096 29.8632 28.6413C28.4889 25.3723 28.017 21.7928 28.4971 18.278C29.0322 14.0023 30.963 10.0244 33.9887 6.96414C36.7255 4.15051 40.2376 2.21999 44.0752 1.41978C47.9128 0.619575 51.9013 0.986104 55.53 2.47244C60.7449 4.57623 64.3948 8.31369 66.5503 13.5157C66.6014 13.6646 66.6409 13.8172 66.6683 13.9723L66.4996 14.0467C65.7834 12.4121 64.8384 10.8883 63.6931 9.52117C64.5811 11.0196 65.3114 12.6066 65.8722 14.2564C67.3168 18.0828 67.4661 22.2794 66.2973 26.1993C65.8824 27.603 65.2583 28.9457 64.7287 30.3122H64.6174L65.0087 30.8635L64.4116 30.7181C60.5156 36.6676 55.0847 39.9484 47.9773 39.8909C40.87 39.8334 35.4965 36.4612 31.705 30.4712L31.1585 30.6843C31.2597 30.8737 31.3306 31.0225 31.4115 31.1544C33.4024 34.4255 36.3036 37.0417 39.7581 38.681C43.2125 40.3204 47.0696 40.9114 50.8547 40.3813C55.7108 39.7262 60.1373 37.2453 63.2378 33.4408C63.8989 32.6392 64.4184 31.7125 65.0222 30.8432ZM46.1322 20.0198L31.8939 30.0213L31.9479 30.1059L47.92 21.3119V24.6739L31.9647 30.3596C35.7765 36.3361 41.1196 39.6 48.1325 39.6068C55.0476 39.6068 60.3469 36.4207 64.1789 30.5726L48.4091 24.6502V21.3288L64.2295 30.3325L64.3003 30.2175L50.4297 19.9421L51.3708 19.4212L57.8575 24.7618C60.0231 26.5409 62.1921 28.3189 64.3644 30.0957C65.7149 27.6806 66.5142 24.9952 66.7047 22.233C66.8953 19.4708 66.4723 16.7006 65.4662 14.1221C64.4602 11.5436 62.8962 9.22104 60.8869 7.32175C58.8776 5.42247 56.4731 3.99381 53.8467 3.13875C52.1458 2.56053 50.3603 2.27242 48.5643 2.28641C49.4818 7.8909 50.3892 13.4176 51.2932 18.9612L48.3585 20.6117V2.43524H48.2303C47.5557 8.08369 46.8811 13.7321 46.1895 19.4618L45.073 18.7853L48.1089 2.28641C42.678 2.12068 35.1895 5.06329 31.4385 12.6566C29.6226 16.2924 29.0569 20.4284 29.8295 24.4202C30.2035 26.3405 30.8582 28.1948 31.7725 29.9232L44.7829 19.269L46.1322 20.0198ZM29.0267 20.1551C28.7838 23.7742 29.3302 27.2377 31.0506 30.5287C31.1345 30.4423 31.2235 30.361 31.3171 30.2852C31.4001 30.2306 31.4869 30.182 31.5768 30.1397C29.9189 27.0742 29.0418 23.6457 29.0233 20.1585L29.0267 20.1551Z" fill="white"/>
<path d="M0 63.3168C0.0404086 63.3202 0.0810219 63.3202 0.121431 63.3168C1.15701 63.283 1.32231 63.0935 1.36279 62.0653C1.46061 59.4846 1.5753 56.9039 1.70011 54.3232C1.70011 54.2285 1.70011 54.1338 1.70011 54.0391C1.70011 53.0955 1.57529 52.9433 0.637541 52.8553L0.350827 52.808L0.327212 52.3716H3.39345L6.49343 60.8274L9.64739 52.3716H12.6833L12.7069 52.7978L12.211 52.8654C11.5094 52.95 11.2935 53.18 11.3036 53.8801C11.3036 54.8948 11.3509 55.9366 11.3745 56.9614C11.4183 58.7202 11.4521 60.4756 11.5027 62.2344C11.5296 63.0969 11.6342 63.195 12.4842 63.2931C12.6023 63.2931 12.717 63.3371 12.8216 63.3608C12.8454 63.4169 12.8613 63.4761 12.8688 63.5366C12.8673 63.6084 12.8583 63.6798 12.8418 63.7497H8.59157L8.55783 63.3608L9.17851 63.2694C9.73509 63.1849 9.9476 62.9684 9.93748 62.4103C9.90037 59.5726 9.84977 56.7314 9.7452 53.8734C9.70473 53.9579 9.66088 54.0391 9.62715 54.1237C8.53423 57.1024 7.44017 60.0822 6.345 63.0631C6.26872 63.2136 6.17472 63.3544 6.06502 63.4825L5.93686 63.4284L2.41523 53.8226H2.34438C2.34438 53.9241 2.31066 54.029 2.30728 54.1304C2.20834 56.7799 2.11275 59.4283 2.02055 62.0755C2.02055 62.2108 2.02055 62.346 2.02055 62.4813C2.04079 62.965 2.17911 63.1308 2.64798 63.2288C2.88411 63.2796 3.1236 63.3066 3.38334 63.3438L3.40695 63.7734H0V63.3168Z" fill="white"/>
<path d="M71.6501 57.6683C71.9807 57.7982 72.3009 57.9531 72.6081 58.1317C74.3487 59.302 74.1766 62.1228 72.3112 63.239C71.6487 63.6128 70.899 63.803 70.1389 63.7903C68.6682 63.814 67.1975 63.7903 65.7268 63.7903C65.6337 63.7837 65.5412 63.7701 65.4501 63.7497L65.4097 63.3303L66.1079 63.2119C66.6071 63.1307 66.7825 62.965 66.7825 62.4678C66.7825 59.559 66.7825 56.6502 66.7825 53.7415C66.7825 53.1834 66.5869 53.0041 66.0337 52.9331L65.4501 52.8485V52.4224C65.5952 52.4224 65.7234 52.3953 65.8549 52.3953C67.2447 52.3953 68.6345 52.3953 70.0242 52.3953C70.3747 52.3939 70.7246 52.4233 71.0699 52.4832C71.4435 52.5478 71.7992 52.6906 72.1141 52.9023C72.4289 53.114 72.6957 53.3898 72.8972 53.7117C73.0986 54.0337 73.2302 54.3946 73.2833 54.771C73.3363 55.1473 73.3097 55.5306 73.2052 55.896C73.1172 56.2233 72.9647 56.5296 72.7567 56.7969C72.5487 57.0641 72.2895 57.2868 71.9942 57.4518L71.6501 57.6683ZM68.4017 58.1588C68.368 58.2163 68.3443 58.2365 68.3443 58.2602C68.3443 59.7484 68.3275 61.2333 68.3443 62.7181C68.3774 62.8183 68.4353 62.9084 68.5126 62.98C68.5899 63.0516 68.684 63.1023 68.7862 63.1274C69.3759 63.177 69.969 63.1691 70.5572 63.1037C70.8203 63.0683 71.0715 62.9712 71.2901 62.8201C71.5087 62.6691 71.6887 62.4684 71.8154 62.2344C72.3079 61.399 72.2876 60.4993 72.092 59.5996C72.0398 59.2105 71.8507 58.8528 71.5588 58.5911C71.2669 58.3294 70.8913 58.1809 70.4998 58.1723C69.8184 58.1148 69.1134 58.1588 68.395 58.1588H68.4017ZM68.3443 57.4823C68.9684 57.4823 69.5317 57.5026 70.0917 57.4823C70.9046 57.4451 71.36 56.9344 71.5759 56.2072C71.7786 55.5156 71.7679 54.7787 71.5455 54.0932C71.4924 53.8964 71.3957 53.7142 71.2626 53.5602C71.1294 53.4061 70.9632 53.2843 70.7765 53.2037C69.9905 52.8654 69.1742 53.0549 68.3443 53.0075V57.4823Z" fill="white"/>
<path d="M43.9934 52.994V52.693L46.5638 52.2363C46.5638 52.4359 46.6009 52.6152 46.6009 52.7978C46.6009 55.7697 46.6009 58.745 46.6009 61.7237C46.6009 61.8725 46.6009 62.0213 46.6009 62.1702C46.6009 62.9921 46.6853 63.0563 47.4915 63.1443C47.614 63.1873 47.7282 63.2513 47.8288 63.3337L47.7816 63.4724L45.4979 63.9154L45.255 62.8094C45.2314 62.8094 45.1909 62.8399 45.1741 62.8703C44.2869 64.4092 42.3068 64.1962 41.3185 63.2627C40.5615 62.5125 40.1136 61.5044 40.0637 60.4384C39.9355 59.0855 40.121 57.8137 40.9575 56.7179C41.2763 56.2853 41.7149 55.9563 42.2186 55.7717C42.7224 55.587 43.2692 55.555 43.791 55.6795C44.3679 55.8283 44.7187 56.2511 45.1403 56.7923V55.9636C45.1403 55.2872 45.1403 54.6107 45.1403 53.9343C45.1403 53.2578 45.002 53.0785 44.2599 53.0379C44.206 53.021 44.125 53.021 43.9934 52.994ZM45.1774 59.7586C45.2167 58.8939 45.0778 58.0303 44.7693 57.2218C44.432 56.4777 43.953 56.1463 43.2513 56.1801C42.5497 56.2139 42.1011 56.6807 41.9021 57.3267C41.748 57.8429 41.6452 58.3731 41.5951 58.9096C41.4351 60.0479 41.5508 61.208 41.9324 62.2919C42.0812 62.6646 42.3299 62.9889 42.6509 63.2288C43.3863 63.7362 44.3139 63.3979 44.7288 62.5321C45.1437 61.6662 45.1741 60.7767 45.1774 59.7417V59.7586Z" fill="white"/>
<path d="M90.1524 63.4487L90.1726 63.7463C90.1187 63.7768 90.0984 63.8004 90.0748 63.8004H86.5194C86.4958 63.7632 86.4587 63.7328 86.4587 63.699C86.4534 63.6258 86.4534 63.5523 86.4587 63.4791C86.5026 63.4554 86.5262 63.4318 86.5498 63.4284C87.6258 63.3303 87.5617 63.009 87.5617 62.1972C87.5617 60.9796 87.5617 59.762 87.5617 58.5443C87.5618 58.3002 87.5483 58.0563 87.5213 57.8137C87.3998 56.8227 87.0321 56.4372 86.172 56.3999C85.2039 56.3526 84.6136 56.7889 84.4247 57.7157C84.3739 57.9809 84.3502 58.2506 84.3539 58.5207C84.3539 59.7383 84.3539 60.9559 84.3539 62.1735C84.3539 63.2254 84.3539 63.2255 85.3995 63.4487L85.4198 63.7869H81.7666V63.4487C81.969 63.425 82.1545 63.4115 82.34 63.3776C82.6773 63.3168 82.8865 63.1578 82.8865 62.7891C82.8865 60.8003 82.8865 58.8115 82.8865 56.8227C82.8865 56.4541 82.6571 56.3323 82.3434 56.2985C82.1579 56.2985 81.9724 56.2748 81.7666 56.2613V55.9603L84.0266 55.4427C84.0941 55.8486 84.1582 56.2444 84.2324 56.7145L84.5158 56.4169C84.9438 55.9391 85.5316 55.635 86.168 55.5621C86.8044 55.4892 87.4454 55.6525 87.9699 56.0211C88.7593 56.5589 88.9583 57.374 88.9819 58.2568C89.0055 59.6098 88.9819 60.9897 88.9819 62.3562C88.9819 63.2288 89.0561 63.31 89.9297 63.4148C89.9837 63.4081 90.0411 63.4216 90.1524 63.4487Z" fill="white"/>
<path d="M54.2818 61.1386H54.9024C54.9868 62.3799 53.9411 63.6685 52.6896 63.8985C50.6454 64.2706 49.0769 63.2491 48.6249 61.213C48.3145 59.9264 48.433 58.5733 48.9622 57.3606C49.2829 56.619 49.8759 56.0297 50.6182 55.7148C51.3606 55.4 52.1953 55.3837 52.9494 55.6694C53.4795 55.8545 53.9329 56.2116 54.2379 56.6841C54.8012 57.5398 54.9463 58.5004 54.9564 59.5726H49.9337C49.9506 60.6481 49.9607 61.6493 50.5206 62.5321C51.2864 63.743 53.2192 63.6009 53.8938 62.2886C54.0471 61.9138 54.1767 61.5297 54.2818 61.1386ZM53.4992 58.8488C53.5257 58.1068 53.3607 57.3704 53.0202 56.7111C52.9163 56.5281 52.7726 56.371 52.5998 56.2514C52.427 56.1318 52.2295 56.0528 52.0221 56.0203C51.8146 55.9878 51.6025 56.0026 51.4015 56.0637C51.2005 56.1247 51.0159 56.2304 50.8613 56.3729C50.1867 57.0494 50.072 57.9186 49.9674 58.8555L53.4992 58.8488Z" fill="white"/>
<path d="M38.3736 61.1386H39.0146C38.989 61.8498 38.7156 62.5296 38.2421 63.0597C36.8085 64.6393 33.9143 64.1658 33.0271 62.177C32.6687 61.4067 32.4872 60.5656 32.4959 59.7156C32.5047 58.8657 32.7035 58.0285 33.0777 57.2658C34.0593 55.1891 36.94 54.8475 38.2488 56.5894C38.8107 57.4707 39.0657 58.5137 38.9741 59.5557H34.0121C34.0121 60.6549 34.0391 61.6696 34.6226 62.5524C35.3546 63.6584 37.1525 63.5874 37.8474 62.4306C38.056 62.0143 38.232 61.5823 38.3736 61.1386ZM34.0289 58.8589H37.5641C37.5869 58.1286 37.4269 57.4041 37.0986 56.7517C36.983 56.5359 36.8134 56.354 36.6064 56.2239C36.3994 56.0938 36.1622 56.02 35.9181 56.0098C35.674 55.9996 35.4315 56.0532 35.2144 56.1655C34.9973 56.2778 34.8131 56.4449 34.68 56.6503C34.2381 57.2861 34.1234 58.0302 34.0424 58.8555L34.0289 58.8589Z" fill="white"/>
<path d="M19.4365 59.5725H14.4239C14.4239 60.7496 14.4441 61.8657 15.2065 62.7688C16.0396 63.7531 17.8106 63.4453 18.3806 62.2513C18.5297 61.8903 18.6581 61.521 18.7652 61.1453H19.3994C19.5309 62.3156 18.4549 63.655 17.2101 63.8985C14.9939 64.3314 13.277 63.009 13.024 60.6786C12.8799 59.6293 12.9958 58.5606 13.3613 57.5668C13.6248 56.8169 14.1626 56.1953 14.8659 55.8279C15.5692 55.4606 16.3855 55.3749 17.1494 55.5882C17.5018 55.6646 17.8341 55.8146 18.1248 56.0285C18.4154 56.2424 18.6577 56.5153 18.836 56.8295C19.2773 57.6735 19.4846 58.6208 19.4365 59.5725ZM14.4441 58.8521H18.0939C17.9219 58.1756 17.8038 57.5296 17.6014 56.9242C17.5226 56.669 17.366 56.445 17.1536 56.2836C16.9412 56.1222 16.6838 56.0316 16.4174 56.0245C16.1336 55.9937 15.8472 56.0495 15.5956 56.1847C15.344 56.3199 15.139 56.5281 15.0074 56.7821C14.6662 57.4206 14.4736 58.1283 14.4441 58.8521Z" fill="white"/>
<path d="M76.0557 59.5692C76.0962 60.523 76.1199 61.372 76.4639 62.1702C76.5899 62.5149 76.8202 62.8114 77.1226 63.0182C77.4251 63.2251 77.7845 63.3318 78.1505 63.3236C78.5297 63.3643 78.9122 63.2855 79.2447 63.0982C79.5772 62.9109 79.8432 62.6243 80.0058 62.2784C80.1635 61.9074 80.3008 61.528 80.4173 61.142H81.065C81.0636 61.8221 80.8154 62.4786 80.3667 62.9887C78.9635 64.6798 75.9411 64.1759 75.0607 62.1025C74.7269 61.3436 74.5602 60.5214 74.5719 59.692C74.5835 58.8627 74.7732 58.0455 75.1281 57.2963C75.968 55.4529 78.3867 54.8813 79.881 56.1328C80.6467 56.7754 80.8929 57.6683 81.0278 58.612C81.0683 58.9029 81.065 59.2005 81.0852 59.5692H76.0557ZM76.1097 58.8657H79.6482C79.6111 58.0269 79.5369 57.2388 79.0579 56.5623C78.9401 56.4053 78.7905 56.2751 78.619 56.1801C78.4475 56.0852 78.2578 56.0277 78.0626 56.0114C77.8673 55.9951 77.6708 56.0204 77.486 56.0856C77.3012 56.1508 77.1322 56.2545 76.9901 56.3898C76.3121 57.0595 76.2008 57.9389 76.1097 58.8657Z" fill="white"/>
<path d="M91.296 57.9491H90.898C91.0329 57.1745 91.1611 56.4439 91.2927 55.6998H97.0001C95.4721 58.2196 93.9845 60.6684 92.4564 63.1815C92.6284 63.2052 92.7398 63.2322 92.8477 63.2356C93.3739 63.2356 93.9002 63.2356 94.4264 63.2356C94.7732 63.2585 95.1182 63.1697 95.4112 62.9824C95.7042 62.795 95.93 62.5188 96.0556 62.1939C96.1906 61.8996 96.3086 61.5986 96.4436 61.284H96.8449C96.6965 62.1228 96.5515 62.9244 96.4064 63.7463H90.4966L95.0706 56.1869H93.1142C92.8158 56.1656 92.5184 56.2392 92.2641 56.397C92.0098 56.5549 91.8115 56.7891 91.6974 57.0663C91.5692 57.3707 91.4343 57.6514 91.296 57.9491Z" fill="white"/>
<path d="M56.2314 61.1149L56.6194 61.0845C56.7341 61.4227 56.8218 61.761 56.9567 62.0992C57.1198 62.5592 57.4517 62.9396 57.8848 63.1627C58.3179 63.3858 58.8196 63.4349 59.2876 63.2999C59.5629 63.2549 59.8196 63.132 60.0275 62.9456C60.2355 62.7593 60.386 62.5172 60.4615 62.248C60.5534 62.0178 60.5615 61.7624 60.4844 61.5267C60.4073 61.2911 60.2499 61.0902 60.0398 60.9593C59.5875 60.6922 59.1214 60.4495 58.6433 60.2321C58.2217 60.0224 57.7899 59.8296 57.375 59.6064C57.0168 59.4388 56.7216 59.1604 56.5328 58.8122C56.344 58.464 56.2715 58.0643 56.3259 57.6717C56.3437 57.2836 56.4685 56.908 56.6865 56.5868C56.9044 56.2655 57.207 56.0112 57.5605 55.852C57.9726 55.6452 58.427 55.5375 58.8879 55.5375C59.3487 55.5375 59.8031 55.6452 60.2152 55.852L60.5863 56.0279L60.9033 55.4428L61.2407 55.4225V58.081H60.8494C60.7671 57.7303 60.6646 57.3848 60.5424 57.046C60.426 56.803 60.2523 56.5921 60.0364 56.4315C59.8205 56.2709 59.5689 56.1654 59.3032 56.1241C59.0376 56.0828 58.7659 56.107 58.5116 56.1945C58.2573 56.2821 58.0281 56.4304 57.8438 56.6266C57.7126 56.7502 57.6133 56.9039 57.5546 57.0745C57.4958 57.2452 57.4793 57.4276 57.5066 57.606C57.5338 57.7844 57.6039 57.9536 57.7109 58.0988C57.8178 58.244 57.9584 58.3609 58.1204 58.4395C58.7344 58.7778 59.382 59.0416 60.0162 59.3426C60.141 59.4001 60.2658 59.4508 60.3839 59.5117C61.4464 60.0529 61.8479 60.6854 61.7568 61.673C61.7167 62.1765 61.5199 62.6546 61.1943 63.04C60.8687 63.4253 60.4307 63.6984 59.942 63.8208C59.4929 63.9605 59.0189 64.0005 58.5529 63.938C58.0869 63.8755 57.64 63.712 57.2434 63.4589C57.1658 63.4081 57.0849 63.3608 56.9702 63.2931L56.5755 63.9696L56.2382 64.0068L56.2314 61.1149Z" fill="white"/>
<path d="M31.4617 61.1386C31.6709 62.5186 30.3992 63.9391 28.9183 63.9763C28.3394 64.0245 27.7594 63.8967 27.2539 63.6095C26.7485 63.3223 26.3411 62.8891 26.0848 62.3664C25.6185 61.5272 25.3879 60.577 25.4176 59.6168C25.4473 58.6567 25.7362 57.7226 26.2535 56.9141C26.5531 56.3958 27.0068 55.9844 27.5512 55.7375C28.0956 55.4907 28.7034 55.4207 29.2894 55.5375C29.7583 55.661 30.2111 55.8393 30.6387 56.0685C30.8815 55.9298 30.7837 55.3447 31.3403 55.3582V58.1858L31.003 58.2163C30.8276 57.7799 30.7027 57.3504 30.5004 56.958C30.3316 56.5876 30.0281 56.2958 29.6519 56.1424C29.2756 55.9889 28.8551 55.9855 28.4764 56.1328C28.2192 56.2384 27.9892 56.401 27.8034 56.6083C27.6177 56.8157 27.4811 57.0624 27.4038 57.3301C27.064 58.2618 26.9383 59.2584 27.0361 60.2456C27.086 60.9031 27.2081 61.5531 27.4004 62.1837C27.4852 62.5317 27.6912 62.8378 27.9813 63.0468C28.2714 63.2558 28.6265 63.354 28.9824 63.3236C29.3304 63.3335 29.6716 63.2259 29.9512 63.0179C30.2308 62.81 30.4325 62.5138 30.524 62.1769C30.6488 61.8387 30.7196 61.5005 30.8242 61.1386H31.4617Z" fill="white"/>
<path d="M19.9223 56.1767V55.8588L22.1756 55.4664L22.3645 56.7145C22.5466 56.4775 22.7426 56.2516 22.9515 56.038C23.2003 55.7852 23.5171 55.6104 23.8632 55.5347C24.2093 55.4591 24.57 55.4859 24.9012 55.6119C25.2022 55.7197 25.4553 55.9313 25.6153 56.2088C25.7753 56.4863 25.8319 56.8117 25.7749 57.1272C25.7625 57.2286 25.7289 57.3262 25.6762 57.4137C25.6234 57.5012 25.5529 57.5765 25.4691 57.6346C25.3853 57.6928 25.2901 57.7325 25.1899 57.7511C25.0897 57.7697 24.9867 57.7669 24.8877 57.7427C24.4829 57.6819 24.3176 57.4316 24.3513 56.9479C24.3513 56.7889 24.3513 56.6097 24.3513 56.4947C24.2669 56.4154 24.1657 56.3563 24.0553 56.3216C23.9449 56.287 23.8281 56.2778 23.7137 56.2947C23.5992 56.3116 23.4901 56.3542 23.3943 56.4193C23.2986 56.4843 23.2187 56.5702 23.1606 56.6705C22.8779 57.0618 22.6928 57.5153 22.6209 57.993C22.5231 59.2174 22.5399 60.452 22.5163 61.6797C22.5163 62.018 22.5163 62.3291 22.5163 62.6538C22.5163 63.1612 22.6884 63.3303 23.191 63.3844C23.336 63.4047 23.4811 63.4149 23.67 63.4351L23.6936 63.7734H19.9189V63.469C19.9675 63.4438 20.0183 63.4235 20.0707 63.4081C20.9815 63.3472 21.1164 63.2254 21.1131 62.1736C21.1131 60.5636 21.1131 58.9536 21.1131 57.3436C21.1131 57.1677 21.1131 57.0054 21.1131 56.8194C21.122 56.7344 21.1115 56.6485 21.0826 56.5682C21.0536 56.4879 21.0068 56.4152 20.9458 56.3556C20.8847 56.296 20.811 56.2511 20.7301 56.2242C20.6492 56.1973 20.5634 56.1892 20.4789 56.2004C20.2866 56.2038 20.1247 56.1869 19.9223 56.1767Z" fill="white"/>
<path d="M65.4841 58.8183V59.5793H62.2964V58.8183H65.4841Z" fill="white"/>
<path d="M48.6216 20.9195L49.4244 20.4663L57.7967 26.0573L57.7292 26.1723L48.6216 20.9195Z" fill="white"/>
<path d="M47.9197 9.5144V20.4832L47.1641 20.0503L47.8387 9.53132L47.9197 9.5144Z" fill="white"/>
<path d="M43.5449 23.189L46.962 20.5001L47.7344 20.9432L43.6023 23.277L43.5449 23.189Z" fill="white"/>
</g>
<defs>
<clipPath id="clip0_2_7318">
<rect width="97" height="64" fill="white"/>
</clipPath>
</defs>
</svg>
