<svg width="97" height="64" viewBox="0 0 97 64" fill="none" xmlns="http://www.w3.org/2000/svg">
<g clip-path="url(#clip0_165_27433)">
<path d="M49.7888 -0.000150083C50.9408 0.137837 52.0848 0.336544 53.2159 0.595139C61.595 2.96275 66.8707 8.42517 68.6349 16.9756C70.8174 27.5284 64.2834 38.0711 53.9749 41.0306C48.8778 42.5149 43.4082 41.9981 38.6774 39.5851C33.9465 37.1721 30.309 33.044 28.5038 28.0392C24.4391 16.9351 30.5109 4.54567 41.7774 0.950277C43.2282 0.47864 44.7276 0.17341 46.2469 0.0404359C46.3255 0.027227 46.4033 0.00916258 46.4797 -0.0136719L49.7888 -0.000150083ZM65.0222 30.8431C65.0998 30.7505 65.1719 30.6533 65.2381 30.5522C66.5999 28.1371 67.4335 25.4591 67.6836 22.6961C67.9336 19.9331 67.5945 17.1483 66.6885 14.5269C66.6603 14.4071 66.6456 14.2846 66.6447 14.1616L66.8201 14.1176C67.0394 14.7163 67.2789 15.3048 67.4678 15.9136C67.6567 16.5224 67.8388 17.1853 67.9805 17.8314C68.1222 18.4774 68.1997 19.0727 68.3178 19.695C68.3124 18.8834 68.2629 18.0727 68.1694 17.2665C67.9665 15.3261 67.4361 13.4344 66.6008 11.6722C64.5769 7.57622 61.2508 4.27227 57.1471 2.28132C53.0433 0.290364 48.3954 -0.274318 43.9362 0.676311C38.33 1.88379 33.9111 4.90757 30.8077 9.75442C27.9817 14.0688 26.9155 19.3065 27.8292 24.3863C28.3621 27.5995 29.4888 30.5691 31.7758 32.9875C32.0322 33.2581 32.2852 33.532 32.5382 33.8026C32.582 33.7113 32.5652 33.6673 32.5382 33.6301C31.4426 32.0854 30.544 30.4095 29.8632 28.6412C28.4889 25.3722 28.017 21.7926 28.4971 18.2778C29.0322 14.0022 30.963 10.0242 33.9887 6.96402C36.7255 4.15038 40.2376 2.21986 44.0752 1.41966C47.9128 0.619453 51.9013 0.985982 55.53 2.47231C60.7449 4.57611 64.3948 8.31357 66.5503 13.5156C66.6014 13.6644 66.6409 13.8171 66.6683 13.9722L66.4996 14.0466C65.7834 12.412 64.8384 10.8881 63.6931 9.52105C64.5811 11.0195 65.3114 12.6065 65.8722 14.2563C67.3168 18.0827 67.4661 22.2793 66.2973 26.1992C65.8824 27.6029 65.2583 28.9456 64.7287 30.3121H64.6174L65.0087 30.8634L64.4116 30.718C60.5156 36.6674 55.0847 39.9483 47.9773 39.8908C40.87 39.8333 35.4965 36.4611 31.705 30.4711L31.1585 30.6841C31.2597 30.8736 31.3306 31.0224 31.4115 31.1543C33.4024 34.4254 36.3036 37.0415 39.7581 38.6809C43.2125 40.3202 47.0696 40.9112 50.8547 40.3812C55.7108 39.7261 60.1373 37.2451 63.2378 33.4407C63.8989 32.6391 64.4184 31.7124 65.0222 30.8431ZM46.1322 20.0197L31.8939 30.0212L31.9479 30.1058L47.92 21.3118V24.6738L31.9647 30.3594C35.7765 36.336 41.1196 39.5999 48.1325 39.6067C55.0476 39.6067 60.3469 36.4205 64.1789 30.5725L48.4091 24.6501V21.3287L64.2295 30.3324L64.3003 30.2174L50.4297 19.9419L51.3708 19.4211L57.8575 24.7617C60.0231 26.5408 62.1921 28.3188 64.3644 30.0956C65.7149 27.6805 66.5142 24.9951 66.7047 22.2329C66.8953 19.4707 66.4723 16.7005 65.4662 14.122C64.4602 11.5435 62.8962 9.22091 60.8869 7.32163C58.8776 5.42235 56.4731 3.99369 53.8467 3.13863C52.1458 2.56041 50.3603 2.2723 48.5643 2.28629C49.4818 7.89077 50.3892 13.4175 51.2932 18.9611L48.3585 20.6116V2.43511H48.2303C47.5557 8.08357 46.8811 13.732 46.1895 19.4616L45.073 18.7852L48.1089 2.28629C42.678 2.12056 35.1895 5.06317 31.4385 12.6564C29.6226 16.2923 29.0569 20.4283 29.8295 24.4201C30.2035 26.3403 30.8582 28.1947 31.7725 29.9231L44.7829 19.2688L46.1322 20.0197ZM29.0267 20.155C28.7838 23.7741 29.3302 27.2376 31.0506 30.5285C31.1345 30.4422 31.2235 30.3608 31.3171 30.285C31.4001 30.2305 31.4869 30.1818 31.5768 30.1396C29.9189 27.0741 29.0418 23.6455 29.0233 20.1584L29.0267 20.155Z" fill="#0A0A26"/>
<path d="M0 63.3167C0.0404086 63.3201 0.0810219 63.3201 0.121431 63.3167C1.15701 63.2829 1.32231 63.0935 1.36279 62.0653C1.46061 59.4846 1.5753 56.9039 1.70011 54.3232C1.70011 54.2285 1.70011 54.1338 1.70011 54.0391C1.70011 53.0954 1.57529 52.9432 0.637541 52.8552L0.350827 52.8079L0.327212 52.3716H3.39345L6.49343 60.8273L9.64739 52.3716H12.6833L12.7069 52.7978L12.211 52.8654C11.5094 52.9499 11.2935 53.1799 11.3036 53.8801C11.3036 54.8948 11.3509 55.9365 11.3745 56.9614C11.4183 58.7202 11.4521 60.4756 11.5027 62.2344C11.5296 63.0969 11.6342 63.195 12.4842 63.293C12.6023 63.293 12.717 63.337 12.8216 63.3607C12.8454 63.4168 12.8613 63.476 12.8688 63.5366C12.8673 63.6084 12.8583 63.6798 12.8418 63.7496H8.59157L8.55783 63.3607L9.17851 63.2694C9.73509 63.1848 9.9476 62.9683 9.93748 62.4103C9.90037 59.5725 9.84977 56.7314 9.7452 53.8733C9.70473 53.9579 9.66088 54.0391 9.62715 54.1236C8.53423 57.1023 7.44017 60.0821 6.345 63.063C6.26872 63.2136 6.17472 63.3544 6.06502 63.4824L5.93686 63.4283L2.41523 53.8226H2.34438C2.34438 53.9241 2.31066 54.0289 2.30728 54.1304C2.20834 56.7799 2.11275 59.4282 2.02055 62.0754C2.02055 62.2107 2.02055 62.346 2.02055 62.4813C2.04079 62.9649 2.17911 63.1307 2.64798 63.2288C2.88411 63.2795 3.1236 63.3066 3.38334 63.3438L3.40695 63.7733H0V63.3167Z" fill="#0A0A26"/>
<path d="M71.6501 57.6686C71.9807 57.7985 72.3009 57.9534 72.6081 58.1319C74.3487 59.3022 74.1766 62.1231 72.3112 63.2392C71.6487 63.613 70.899 63.8033 70.1389 63.7905C68.6682 63.8142 67.1975 63.7905 65.7268 63.7905C65.6337 63.7839 65.5412 63.7703 65.4501 63.7499L65.4097 63.3305L66.1079 63.2122C66.6071 63.131 66.7825 62.9653 66.7825 62.4681C66.7825 59.5593 66.7825 56.6505 66.7825 53.7417C66.7825 53.1836 66.5869 53.0044 66.0337 52.9333L65.4501 52.8488V52.4226C65.5952 52.4226 65.7234 52.3956 65.8549 52.3956C67.2447 52.3956 68.6345 52.3956 70.0242 52.3956C70.3747 52.3942 70.7246 52.4236 71.0699 52.4835C71.4435 52.5481 71.7992 52.6909 72.1141 52.9026C72.4289 53.1142 72.6957 53.39 72.8972 53.712C73.0986 54.0339 73.2302 54.3949 73.2833 54.7712C73.3363 55.1476 73.3097 55.5309 73.2052 55.8962C73.1172 56.2235 72.9647 56.5299 72.7567 56.7971C72.5487 57.0643 72.2895 57.287 71.9942 57.4521L71.6501 57.6686ZM68.4017 58.159C68.368 58.2165 68.3443 58.2368 68.3443 58.2605C68.3443 59.7487 68.3275 61.2335 68.3443 62.7183C68.3774 62.8185 68.4353 62.9087 68.5126 62.9802C68.5899 63.0518 68.684 63.1025 68.7862 63.1276C69.3759 63.1773 69.969 63.1693 70.5572 63.1039C70.8203 63.0686 71.0715 62.9714 71.2901 62.8204C71.5087 62.6693 71.6887 62.4686 71.8154 62.2347C72.3079 61.3992 72.2876 60.4996 72.092 59.5999C72.0398 59.2107 71.8507 58.8531 71.5588 58.5914C71.2669 58.3297 70.8913 58.1811 70.4998 58.1725C69.8184 58.115 69.1134 58.159 68.395 58.159H68.4017ZM68.3443 57.4825C68.9684 57.4825 69.5317 57.5028 70.0917 57.4825C70.9046 57.4453 71.36 56.9346 71.5759 56.2074C71.7786 55.5158 71.7679 54.7789 71.5455 54.0935C71.4924 53.8967 71.3957 53.7144 71.2626 53.5604C71.1294 53.4064 70.9632 53.2845 70.7765 53.2039C69.9905 52.8657 69.1742 53.0551 68.3443 53.0078V57.4825Z" fill="#0A0A26"/>
<path d="M43.9934 52.994V52.693L46.5638 52.2363C46.5638 52.4359 46.6009 52.6152 46.6009 52.7978C46.6009 55.7697 46.6009 58.745 46.6009 61.7237C46.6009 61.8725 46.6009 62.0213 46.6009 62.1702C46.6009 62.9921 46.6853 63.0563 47.4915 63.1443C47.614 63.1873 47.7282 63.2513 47.8288 63.3337L47.7816 63.4724L45.4979 63.9154L45.255 62.8094C45.2314 62.8094 45.1909 62.8399 45.1741 62.8703C44.2869 64.4092 42.3068 64.1962 41.3185 63.2627C40.5615 62.5125 40.1136 61.5044 40.0637 60.4384C39.9355 59.0855 40.121 57.8137 40.9575 56.7179C41.2763 56.2853 41.7149 55.9563 42.2186 55.7717C42.7224 55.587 43.2692 55.555 43.791 55.6795C44.3679 55.8283 44.7187 56.2511 45.1403 56.7923V55.9636C45.1403 55.2872 45.1403 54.6107 45.1403 53.9343C45.1403 53.2578 45.002 53.0785 44.2599 53.0379C44.206 53.021 44.125 53.021 43.9934 52.994ZM45.1774 59.7586C45.2167 58.8939 45.0778 58.0303 44.7693 57.2218C44.432 56.4777 43.953 56.1463 43.2513 56.1801C42.5497 56.2139 42.1011 56.6807 41.9021 57.3267C41.748 57.8429 41.6452 58.3731 41.5951 58.9096C41.4351 60.0479 41.5508 61.208 41.9324 62.2919C42.0812 62.6646 42.3299 62.9889 42.6509 63.2288C43.3863 63.7362 44.3139 63.3979 44.7288 62.5321C45.1437 61.6662 45.1741 60.7767 45.1774 59.7417V59.7586Z" fill="#0A0A26"/>
<path d="M90.1524 63.4488L90.1726 63.7465C90.1187 63.7769 90.0984 63.8006 90.0748 63.8006H86.5194C86.4958 63.7634 86.4587 63.7329 86.4587 63.6991C86.4534 63.6259 86.4534 63.5524 86.4587 63.4792C86.5026 63.4556 86.5262 63.4319 86.5498 63.4285C87.6258 63.3304 87.5617 63.0091 87.5617 62.1973C87.5617 60.9797 87.5617 59.7621 87.5617 58.5445C87.5618 58.3004 87.5483 58.0565 87.5213 57.8139C87.3998 56.8229 87.0321 56.4373 86.172 56.4001C85.2039 56.3527 84.6136 56.789 84.4247 57.7158C84.3739 57.981 84.3502 58.2507 84.3539 58.5208C84.3539 59.7384 84.3539 60.956 84.3539 62.1737C84.3539 63.2256 84.3539 63.2256 85.3995 63.4488L85.4198 63.787H81.7666V63.4488C81.969 63.4251 82.1545 63.4116 82.34 63.3778C82.6773 63.3169 82.8865 63.1579 82.8865 62.7893C82.8865 60.8005 82.8865 58.8117 82.8865 56.8229C82.8865 56.4542 82.6571 56.3324 82.3434 56.2986C82.1579 56.2986 81.9724 56.2749 81.7666 56.2614V55.9604L84.0266 55.4429C84.0941 55.8487 84.1582 56.2445 84.2324 56.7146L84.5158 56.417C84.9438 55.9392 85.5316 55.6351 86.168 55.5622C86.8044 55.4893 87.4454 55.6526 87.9699 56.0213C88.7593 56.559 88.9583 57.3742 88.9819 58.257C89.0055 59.6099 88.9819 60.9899 88.9819 62.3563C88.9819 63.2289 89.0561 63.3101 89.9297 63.415C89.9837 63.4082 90.0411 63.4217 90.1524 63.4488Z" fill="#0A0A26"/>
<path d="M54.2818 61.1386H54.9024C54.9868 62.3799 53.9411 63.6685 52.6896 63.8985C50.6454 64.2706 49.0769 63.2491 48.6249 61.213C48.3145 59.9264 48.433 58.5733 48.9622 57.3606C49.2829 56.619 49.8759 56.0297 50.6182 55.7148C51.3606 55.4 52.1953 55.3837 52.9494 55.6694C53.4795 55.8545 53.9329 56.2116 54.2379 56.6841C54.8012 57.5398 54.9463 58.5004 54.9564 59.5726H49.9337C49.9506 60.6481 49.9607 61.6493 50.5206 62.5321C51.2864 63.743 53.2192 63.6009 53.8938 62.2886C54.0471 61.9138 54.1767 61.5297 54.2818 61.1386ZM53.4992 58.8488C53.5257 58.1068 53.3607 57.3704 53.0202 56.7111C52.9163 56.5281 52.7726 56.371 52.5998 56.2514C52.427 56.1318 52.2295 56.0528 52.0221 56.0203C51.8146 55.9878 51.6025 56.0026 51.4015 56.0637C51.2005 56.1247 51.0159 56.2304 50.8613 56.3729C50.1867 57.0494 50.072 57.9186 49.9674 58.8555L53.4992 58.8488Z" fill="#0A0A26"/>
<path d="M38.3736 61.1385H39.0146C38.989 61.8498 38.7156 62.5295 38.2421 63.0597C36.8085 64.6392 33.9143 64.1657 33.0271 62.1769C32.6687 61.4066 32.4872 60.5655 32.4959 59.7156C32.5047 58.8656 32.7035 58.0285 33.0777 57.2658C34.0593 55.189 36.94 54.8474 38.2488 56.5893C38.8107 57.4706 39.0657 58.5137 38.9741 59.5556H34.0121C34.0121 60.6549 34.0391 61.6695 34.6226 62.5523C35.3546 63.6583 37.1525 63.5873 37.8474 62.4306C38.056 62.0142 38.232 61.5823 38.3736 61.1385ZM34.0289 58.8588H37.5641C37.5869 58.1285 37.4269 57.404 37.0986 56.7517C36.983 56.5359 36.8134 56.354 36.6064 56.2239C36.3994 56.0938 36.1622 56.02 35.9181 56.0097C35.674 55.9995 35.4315 56.0532 35.2144 56.1655C34.9973 56.2778 34.8131 56.4448 34.68 56.6502C34.2381 57.2861 34.1234 58.0302 34.0424 58.8555L34.0289 58.8588Z" fill="#0A0A26"/>
<path d="M19.4365 59.5724H14.4239C14.4239 60.7495 14.4441 61.8656 15.2065 62.7687C16.0396 63.753 17.8106 63.4452 18.3806 62.2512C18.5297 61.8902 18.6581 61.5209 18.7652 61.1452H19.3994C19.5309 62.3155 18.4549 63.6549 17.2101 63.8984C14.9939 64.3313 13.277 63.0088 13.024 60.6784C12.8799 59.6292 12.9958 58.5605 13.3613 57.5667C13.6248 56.8167 14.1626 56.1952 14.8659 55.8278C15.5692 55.4605 16.3855 55.3748 17.1494 55.5881C17.5018 55.6644 17.8341 55.8145 18.1248 56.0283C18.4154 56.2422 18.6577 56.5152 18.836 56.8294C19.2773 57.6734 19.4846 58.6207 19.4365 59.5724ZM14.4441 58.852H18.0939C17.9219 58.1755 17.8038 57.5295 17.6014 56.9241C17.5226 56.6689 17.366 56.4448 17.1536 56.2835C16.9412 56.1221 16.6838 56.0315 16.4174 56.0244C16.1336 55.9935 15.8472 56.0494 15.5956 56.1846C15.344 56.3198 15.139 56.528 15.0074 56.782C14.6662 57.4205 14.4736 58.1282 14.4441 58.852Z" fill="#0A0A26"/>
<path d="M76.0557 59.5693C76.0962 60.5231 76.1199 61.3721 76.4639 62.1703C76.5899 62.515 76.8202 62.8115 77.1226 63.0184C77.4251 63.2252 77.7845 63.332 78.1505 63.3237C78.5297 63.3644 78.9122 63.2856 79.2447 63.0983C79.5772 62.911 79.8432 62.6245 80.0058 62.2785C80.1635 61.9075 80.3008 61.5281 80.4173 61.1421H81.065C81.0636 61.8223 80.8154 62.4787 80.3667 62.9888C78.9635 64.68 75.9411 64.176 75.0607 62.1026C74.7269 61.3437 74.5602 60.5215 74.5719 59.6922C74.5835 58.8628 74.7732 58.0457 75.1281 57.2964C75.968 55.453 78.3867 54.8814 79.881 56.1329C80.6467 56.7755 80.8929 57.6685 81.0278 58.6121C81.0683 58.903 81.065 59.2006 81.0852 59.5693H76.0557ZM76.1097 58.8658H79.6482C79.6111 58.027 79.5369 57.2389 79.0579 56.5624C78.9401 56.4054 78.7905 56.2752 78.619 56.1802C78.4475 56.0853 78.2578 56.0278 78.0626 56.0115C77.8673 55.9952 77.6708 56.0205 77.486 56.0857C77.3012 56.151 77.1322 56.2546 76.9901 56.3899C76.3121 57.0596 76.2008 57.939 76.1097 58.8658Z" fill="#0A0A26"/>
<path d="M91.296 57.9489H90.898C91.0329 57.1744 91.1611 56.4438 91.2927 55.6997H97.0001C95.4721 58.2195 93.9845 60.6683 92.4564 63.1814C92.6284 63.205 92.7398 63.2321 92.8477 63.2355C93.3739 63.2355 93.9002 63.2355 94.4264 63.2355C94.7732 63.2583 95.1182 63.1696 95.4112 62.9823C95.7042 62.7949 95.93 62.5187 96.0556 62.1937C96.1906 61.8995 96.3086 61.5985 96.4436 61.2839H96.8449C96.6965 62.1227 96.5515 62.9243 96.4064 63.7462H90.4966L95.0706 56.1868H93.1142C92.8158 56.1655 92.5184 56.239 92.2641 56.3969C92.0098 56.5548 91.8115 56.7889 91.6974 57.0662C91.5692 57.3706 91.4343 57.6513 91.296 57.9489Z" fill="#0A0A26"/>
<path d="M56.2314 61.1148L56.6194 61.0844C56.7341 61.4226 56.8218 61.7608 56.9567 62.0991C57.1198 62.5591 57.4517 62.9394 57.8848 63.1626C58.3179 63.3857 58.8196 63.4348 59.2876 63.2998C59.5629 63.2548 59.8196 63.1319 60.0275 62.9455C60.2355 62.7592 60.386 62.5171 60.4615 62.2479C60.5534 62.0176 60.5615 61.7623 60.4844 61.5266C60.4073 61.291 60.2499 61.0901 60.0398 60.9592C59.5875 60.6921 59.1214 60.4494 58.6433 60.232C58.2217 60.0223 57.7899 59.8295 57.375 59.6063C57.0168 59.4386 56.7216 59.1603 56.5328 58.8121C56.344 58.4639 56.2715 58.0642 56.3259 57.6716C56.3437 57.2835 56.4685 56.9079 56.6865 56.5866C56.9044 56.2654 57.207 56.0111 57.5605 55.8519C57.9726 55.6451 58.427 55.5374 58.8879 55.5374C59.3487 55.5374 59.8031 55.6451 60.2152 55.8519L60.5863 56.0278L60.9033 55.4427L61.2407 55.4224V58.0809H60.8494C60.7671 57.7302 60.6646 57.3846 60.5424 57.0459C60.426 56.8029 60.2523 56.592 60.0364 56.4314C59.8205 56.2708 59.5689 56.1653 59.3032 56.124C59.0376 56.0827 58.7659 56.1069 58.5116 56.1944C58.2573 56.282 58.0281 56.4302 57.8438 56.6265C57.7126 56.75 57.6133 56.9038 57.5546 57.0744C57.4958 57.245 57.4793 57.4274 57.5066 57.6059C57.5338 57.7843 57.6039 57.9534 57.7109 58.0986C57.8178 58.2439 57.9584 58.3608 58.1204 58.4394C58.7344 58.7776 59.382 59.0414 60.0162 59.3425C60.141 59.4 60.2658 59.4507 60.3839 59.5116C61.4464 60.0528 61.8479 60.6853 61.7568 61.6729C61.7167 62.1763 61.5199 62.6545 61.1943 63.0398C60.8687 63.4252 60.4307 63.6983 59.942 63.8206C59.4929 63.9604 59.0189 64.0004 58.5529 63.9379C58.0869 63.8754 57.64 63.7119 57.2434 63.4587C57.1658 63.408 57.0849 63.3607 56.9702 63.293L56.5755 63.9695L56.2382 64.0067L56.2314 61.1148Z" fill="#0A0A26"/>
<path d="M31.4617 61.1385C31.6709 62.5185 30.3992 63.9391 28.9183 63.9763C28.3394 64.0245 27.7594 63.8966 27.2539 63.6095C26.7485 63.3223 26.3411 62.8891 26.0848 62.3663C25.6185 61.5272 25.3879 60.5769 25.4176 59.6168C25.4473 58.6566 25.7362 57.7225 26.2535 56.914C26.5531 56.3957 27.0068 55.9843 27.5512 55.7375C28.0956 55.4906 28.7034 55.4207 29.2894 55.5374C29.7583 55.661 30.2111 55.8392 30.6387 56.0684C30.8815 55.9298 30.7837 55.3446 31.3403 55.3581V58.1858L31.003 58.2162C30.8276 57.7799 30.7027 57.3503 30.5004 56.958C30.3316 56.5875 30.0281 56.2957 29.6519 56.1423C29.2756 55.9889 28.8551 55.9855 28.4764 56.1327C28.2192 56.2384 27.9892 56.4009 27.8034 56.6083C27.6177 56.8156 27.4811 57.0623 27.4038 57.33C27.064 58.2618 26.9383 59.2584 27.0361 60.2456C27.086 60.9031 27.2081 61.5531 27.4004 62.1837C27.4852 62.5316 27.6912 62.8377 27.9813 63.0467C28.2714 63.2557 28.6265 63.3539 28.9824 63.3235C29.3304 63.3335 29.6716 63.2258 29.9512 63.0179C30.2308 62.8099 30.4325 62.5137 30.524 62.1769C30.6488 61.8387 30.7196 61.5004 30.8242 61.1385H31.4617Z" fill="#0A0A26"/>
<path d="M19.9223 56.1766V55.8587L22.1756 55.4663L22.3645 56.7144C22.5466 56.4774 22.7426 56.2515 22.9515 56.0379C23.2003 55.7851 23.5171 55.6103 23.8632 55.5346C24.2093 55.4589 24.57 55.4857 24.9012 55.6117C25.2022 55.7196 25.4553 55.9311 25.6153 56.2086C25.7753 56.4862 25.8319 56.8116 25.7749 57.127C25.7625 57.2285 25.7289 57.3261 25.6762 57.4136C25.6234 57.5011 25.5529 57.5764 25.4691 57.6345C25.3853 57.6927 25.2901 57.7323 25.1899 57.751C25.0897 57.7696 24.9867 57.7668 24.8877 57.7426C24.4829 57.6817 24.3176 57.4314 24.3513 56.9478C24.3513 56.7888 24.3513 56.6095 24.3513 56.4945C24.2669 56.4153 24.1657 56.3561 24.0553 56.3215C23.9449 56.2869 23.8281 56.2777 23.7137 56.2946C23.5992 56.3115 23.4901 56.3541 23.3943 56.4192C23.2986 56.4842 23.2187 56.5701 23.1606 56.6704C22.8779 57.0617 22.6928 57.5152 22.6209 57.9929C22.5231 59.2173 22.5399 60.4518 22.5163 61.6796C22.5163 62.0178 22.5163 62.329 22.5163 62.6537C22.5163 63.1611 22.6884 63.3302 23.191 63.3843C23.336 63.4046 23.4811 63.4147 23.67 63.435L23.6936 63.7733H19.9189V63.4689C19.9675 63.4437 20.0183 63.4233 20.0707 63.408C20.9815 63.3471 21.1164 63.2253 21.1131 62.1734C21.1131 60.5635 21.1131 58.9535 21.1131 57.3435C21.1131 57.1676 21.1131 57.0053 21.1131 56.8192C21.122 56.7343 21.1115 56.6484 21.0826 56.5681C21.0536 56.4878 21.0068 56.4151 20.9458 56.3555C20.8847 56.2959 20.811 56.251 20.7301 56.2241C20.6492 56.1972 20.5634 56.1891 20.4789 56.2003C20.2866 56.2037 20.1247 56.1868 19.9223 56.1766Z" fill="#0A0A26"/>
<path d="M65.4841 58.8184V59.5794H62.2964V58.8184H65.4841Z" fill="#0A0A26"/>
<path d="M48.6216 20.9195L49.4244 20.4663L57.7967 26.0573L57.7292 26.1723L48.6216 20.9195Z" fill="#0A0A26"/>
<path d="M47.9197 9.51465V20.4835L47.1641 20.0505L47.8387 9.53157L47.9197 9.51465Z" fill="#0A0A26"/>
<path d="M43.5449 23.1889L46.962 20.5L47.7344 20.9431L43.6023 23.2769L43.5449 23.1889Z" fill="#0A0A26"/>
</g>
<defs>
<clipPath id="clip0_165_27433">
<rect width="97" height="64" fill="white"/>
</clipPath>
</defs>
</svg>
