<svg width="376" height="227" viewBox="0 0 376 227" fill="none" xmlns="http://www.w3.org/2000/svg">
<g clip-path="url(#clip0_16_2)">
<path d="M139.719 0.259399V14.3339H143.441V20.752L149.862 14.3339H193.512V0.259399H139.719Z" fill="white"/>
<path d="M139.727 0.250975C139.727 4.99548 139.895 9.68979 139.903 14.3255L139.727 14.1498H143.625V14.3339V20.7519L143.273 20.6013L149.678 14.1749C149.753 14.0912 149.745 14.1079 149.846 14.1079C160.743 14.1079 182.623 14.041 193.496 14.0326L193.194 14.3339V0.259338L193.462 0.518749C180.049 0.518749 153.073 0.351383 139.669 0.259338L139.727 0.250975ZM139.727 0.250975L166.553 0.0836228L193.521 -0.00842285H193.781V0.250975L193.823 14.3255V14.6267H193.521H171.725C171.842 14.5514 149.259 14.7104 150.064 14.5096L143.617 20.9109L143.273 21.254V20.7687V14.3506L143.458 14.5347H139.551V14.359C139.551 9.61447 139.685 4.92017 139.727 0.28444V0.250975Z" fill="#263238"/>
<path d="M149.133 5.34692V7.23804H148.596V5.34692C148.61 5.17855 148.589 5.00912 148.534 4.84932C148.479 4.68952 148.392 4.54283 148.277 4.41852C148.163 4.29421 148.023 4.195 147.868 4.12713C147.713 4.05926 147.546 4.02421 147.377 4.02421C147.207 4.02421 147.04 4.05926 146.885 4.12713C146.73 4.195 146.591 4.29421 146.476 4.41852C146.361 4.54283 146.274 4.68952 146.219 4.84932C146.164 5.00912 146.143 5.17855 146.157 5.34692V7.23804H145.62V5.34692C145.604 5.10652 145.637 4.86527 145.718 4.63817C145.798 4.41107 145.925 4.20296 146.09 4.02679C146.254 3.85062 146.454 3.71016 146.675 3.61411C146.896 3.51807 147.135 3.46851 147.377 3.46851C147.618 3.46851 147.857 3.51807 148.078 3.61411C148.3 3.71016 148.499 3.85062 148.664 4.02679C148.828 4.20296 148.955 4.41107 149.036 4.63817C149.116 4.86527 149.149 5.10652 149.133 5.34692Z" fill="#263238"/>
<path d="M145.621 5.849L146.157 5.86573V7.23804H145.621V5.849Z" fill="#263238"/>
<path d="M149.124 5.99129V7.23808H148.588V5.96619L149.124 5.99129Z" fill="#263238"/>
<path d="M149.804 6.54346H144.933V10.5851H149.804V6.54346Z" fill="#263238"/>
<path d="M157.591 5.63137C156.901 6.90684 155.844 7.94714 154.557 8.61865C155.237 7.32732 156.296 6.27362 157.591 5.5979V5.63137Z" fill="#263238"/>
<path d="M154.557 5.63147C155.852 6.30719 156.911 7.36089 157.591 8.65222C156.299 7.97181 155.242 6.91934 154.557 5.63147Z" fill="#263238"/>
<path d="M158.212 7.13768C156.819 7.56865 155.329 7.56865 153.937 7.13768C155.329 6.70671 156.819 6.70671 158.212 7.13768Z" fill="#263238"/>
<path d="M156.074 5.00378C156.506 6.39366 156.506 7.88146 156.074 9.27134C155.643 7.88146 155.643 6.39366 156.074 5.00378Z" fill="#263238"/>
<path d="M164.969 5.63147C164.289 6.92062 163.234 7.97385 161.942 8.65222C162.622 7.36307 163.677 6.30984 164.969 5.63147Z" fill="#263238"/>
<path d="M161.942 5.63147C163.237 6.30507 164.294 7.35956 164.969 8.65222C163.681 7.96922 162.627 6.9172 161.942 5.63147Z" fill="#263238"/>
<path d="M165.597 7.13768C164.205 7.56865 162.714 7.56865 161.322 7.13768C162.714 6.70671 164.205 6.70671 165.597 7.13768Z" fill="#263238"/>
<path d="M163.46 5.00378C163.891 6.39366 163.891 7.88146 163.46 9.27134C163.028 7.88146 163.028 6.39366 163.46 5.00378Z" fill="#263238"/>
<path d="M172.354 5.63147C171.674 6.92062 170.619 7.97385 169.328 8.65222C170.007 7.36307 171.062 6.30984 172.354 5.63147Z" fill="#263238"/>
<path d="M169.328 5.63147C170.621 6.30725 171.677 7.36117 172.354 8.65222C171.066 7.96922 170.012 6.9172 169.328 5.63147Z" fill="#263238"/>
<path d="M172.982 7.13768C171.587 7.56881 170.094 7.56881 168.699 7.13768C170.094 6.70655 171.587 6.70655 172.982 7.13768Z" fill="#263238"/>
<path d="M170.845 5.00378C171.273 6.39428 171.273 7.88084 170.845 9.27134C170.409 7.88211 170.409 6.39301 170.845 5.00378Z" fill="#263238"/>
<path d="M179.739 5.63147C179.06 6.92062 178.004 7.97385 176.713 8.65222C177.39 7.36117 178.446 6.30725 179.739 5.63147Z" fill="#263238"/>
<path d="M176.713 5.63147C178.006 6.30725 179.062 7.36117 179.739 8.65222C178.451 7.96922 177.397 6.9172 176.713 5.63147Z" fill="#263238"/>
<path d="M180.368 7.13768C178.973 7.56881 177.48 7.56881 176.084 7.13768C177.48 6.70655 178.973 6.70655 180.368 7.13768Z" fill="#263238"/>
<path d="M178.23 5.00378C178.658 6.39428 178.658 7.88084 178.23 9.27134C177.794 7.88211 177.794 6.39301 178.23 5.00378Z" fill="#263238"/>
<path d="M187.124 5.63147C186.44 6.9172 185.386 7.96922 184.098 8.65222C184.775 7.36117 185.831 6.30725 187.124 5.63147Z" fill="#263238"/>
<path d="M184.098 5.63147C185.392 6.30725 186.447 7.36117 187.124 8.65222C185.836 7.96922 184.782 6.9172 184.098 5.63147Z" fill="#263238"/>
<path d="M187.753 7.13768C186.358 7.56881 184.865 7.56881 183.47 7.13768C184.865 6.70655 186.358 6.70655 187.753 7.13768Z" fill="#263238"/>
<path d="M185.607 5.00378C186.043 6.39301 186.043 7.88211 185.607 9.27134C185.18 7.88084 185.18 6.39428 185.607 5.00378Z" fill="#263238"/>
<path d="M80.795 170.258L32.3833 209.219H35.1078L91.0138 170.258H80.795Z" fill="#C7C7C7"/>
<path d="M85.3387 170.258L61.4221 209.219H64.1466L93.4618 170.258H85.3387Z" fill="#C7C7C7"/>
<path d="M97.0665 170.258L120.983 209.219H118.259L88.9434 170.258H97.0665Z" fill="#C7C7C7"/>
<path d="M101.241 170.258L149.653 209.219H146.92L91.0139 170.258H101.241Z" fill="#C7C7C7"/>
<path d="M182.036 155.966V144.561L115.559 141.842L80.4514 48.2651H0L28.4602 155.966L96.4712 175.02H100.73L182.036 155.966Z" fill="#455A64"/>
<path opacity="0.1" d="M0 48.2651H9.2045L38.8634 146.435L99.028 163.447L182.036 144.561V155.966L100.73 175.02H96.4712L28.4602 155.966L0 48.2651Z" fill="black"/>
<path d="M145.847 226.933C143.818 226.155 98.1897 188.843 97.3514 186.324C97.0245 185.371 102.079 178.417 108.434 170.191C109.8 168.418 111.234 166.593 112.692 164.744C122.148 152.745 132.468 140.235 132.468 140.235L163.066 165.096L142.443 188.918L137.917 194.148C137.917 194.148 148.991 216.239 149.611 219.101C150.231 221.963 147.876 227.703 145.847 226.933Z" fill="#AD6359"/>
<path d="M145.847 226.933C143.818 226.155 98.1895 188.843 97.3512 186.324C96.9572 185.153 104.51 175.137 112.692 164.744L142.443 188.935L137.916 194.165C137.916 194.165 148.99 216.256 149.611 219.118C150.231 221.979 147.875 227.703 145.847 226.933Z" fill="#EBEBEB"/>
<path d="M145.847 226.933C143.818 226.155 98.1897 188.843 97.3514 186.324C97.0245 185.371 102.079 178.417 108.434 170.191L137.917 194.165C137.917 194.165 148.991 216.256 149.611 219.118C150.231 221.979 147.876 227.703 145.847 226.933Z" fill="#FFC727"/>
<path d="M146.694 224.573C139.149 218.13 108.358 192.851 100.453 187.052C100.395 187.002 100.361 187.052 100.453 187.094C107.696 193.646 138.713 218.649 146.585 224.699C146.752 224.824 146.845 224.707 146.694 224.573Z" fill="#263238"/>
<path d="M148.018 215.076C147.187 214.359 146.215 213.822 145.164 213.499C144.114 213.177 143.007 213.075 141.916 213.202C139.957 213.417 138.156 214.376 136.886 215.879C136.886 215.921 136.936 215.996 136.978 215.955C138.477 214.653 140.36 213.873 142.343 213.732C144.325 213.592 146.299 214.099 147.968 215.176C147.975 215.183 147.983 215.187 147.991 215.19C148 215.192 148.01 215.193 148.018 215.191C148.027 215.19 148.036 215.186 148.043 215.181C148.051 215.175 148.057 215.168 148.061 215.16C148.065 215.152 148.067 215.143 148.067 215.134C148.067 215.124 148.065 215.115 148.061 215.107C148.056 215.099 148.051 215.092 148.043 215.087C148.036 215.081 148.027 215.078 148.018 215.076Z" fill="#263238"/>
<path d="M140.264 197.353C137.238 194.801 132.803 192.977 128.846 193.922C128.695 193.964 128.754 194.173 128.846 194.207C132.672 194.991 136.402 196.186 139.971 197.772C140.026 197.81 140.095 197.826 140.162 197.814C140.229 197.802 140.288 197.764 140.327 197.709C140.366 197.653 140.381 197.585 140.369 197.518C140.357 197.451 140.32 197.392 140.264 197.353Z" fill="#263238"/>
<path d="M141.873 200.24C138.847 197.73 134.412 195.864 130.456 196.809C130.305 196.809 130.355 197.06 130.456 197.094C134.281 197.879 138.011 199.074 141.58 200.658C141.635 200.697 141.704 200.712 141.771 200.701C141.838 200.689 141.897 200.651 141.936 200.596C141.975 200.54 141.99 200.472 141.978 200.405C141.967 200.338 141.929 200.279 141.873 200.24Z" fill="#263238"/>
<path d="M143.483 203.06C140.457 200.508 136.022 198.684 132.065 199.629C131.915 199.629 131.965 199.88 132.065 199.914C135.891 200.699 139.621 201.894 143.19 203.478C143.245 203.517 143.314 203.532 143.381 203.521C143.448 203.509 143.507 203.471 143.546 203.416C143.585 203.36 143.6 203.291 143.588 203.225C143.576 203.158 143.539 203.099 143.483 203.06Z" fill="#263238"/>
<path d="M145.092 205.905C142.066 203.395 137.632 201.537 133.675 202.483C133.524 202.483 133.574 202.734 133.675 202.759C137.5 203.551 141.229 204.749 144.799 206.332C144.856 206.371 144.926 206.385 144.993 206.373C145.061 206.36 145.121 206.321 145.159 206.265C145.198 206.208 145.213 206.138 145.201 206.071C145.188 206.004 145.149 205.944 145.092 205.905Z" fill="#263238"/>
<path d="M108.358 181.388C104.913 178.593 100.554 183.898 103.999 186.735C107.445 189.571 111.804 184.191 108.358 181.388Z" fill="white"/>
<path d="M150.265 191.872C149.77 189.32 146.786 188.977 144.74 189.529C141.231 190.533 138.05 192.444 135.519 195.069C135.505 195.077 135.494 195.088 135.485 195.102C135.477 195.116 135.473 195.132 135.473 195.148C135.473 195.164 135.477 195.18 135.485 195.194C135.494 195.208 135.505 195.22 135.519 195.228C135.484 195.295 135.465 195.37 135.463 195.446C135.462 195.522 135.479 195.598 135.513 195.666C135.546 195.734 135.595 195.794 135.656 195.84C135.717 195.886 135.788 195.917 135.863 195.931C139.283 196.207 142.896 196.926 146.291 196.148C148.328 195.73 150.734 194.316 150.265 191.872ZM141.177 195.295C139.501 195.194 137.824 195.019 136.148 194.985C137.908 193.854 139.724 192.813 141.588 191.864C142.501 191.42 143.442 191.037 144.405 190.718C145.897 190.257 150.994 190.157 148.596 193.73C147.23 195.738 143.181 195.437 141.177 195.328V195.295Z" fill="#263238"/>
<path d="M126.977 190.015C129.307 192.6 132.677 194.09 135.628 195.872C135.697 195.904 135.772 195.92 135.848 195.918C135.924 195.916 135.998 195.896 136.065 195.86C136.131 195.825 136.189 195.774 136.232 195.712C136.276 195.65 136.304 195.579 136.316 195.504C136.383 195.504 136.441 195.462 136.425 195.378C135.875 191.785 134.386 188.399 132.107 185.563C130.749 183.889 128.117 182.5 126.239 184.299C124.362 186.099 125.644 188.525 126.977 190.015ZM126.549 186.76C126.633 182.442 130.741 185.454 131.697 186.693C132.311 187.509 132.871 188.364 133.373 189.253C134.413 191.077 135.167 193.01 136.022 194.927C134.622 193.981 133.155 193.169 131.722 192.282C130.02 191.22 126.541 189.136 126.583 186.76H126.549Z" fill="#263238"/>
<path d="M194.879 118.378C192.565 134.378 152.453 180.149 147.817 185.396C147.13 186.165 146.761 186.592 146.761 186.592L114.344 161.096L114.729 160.61L144.003 123.307L58.0605 121.759L91.0056 96.8231C91.0056 96.8231 93.6295 98.3795 99.1455 97.6599C118.141 95.1496 160.978 89.5014 171.063 90.0285C184.023 90.7147 196.958 103.701 194.879 118.378Z" fill="#263238"/>
<path d="M154.473 109.433C153.389 110.624 152.381 111.882 151.455 113.199C150.424 114.521 149.368 115.826 148.337 117.148V117.19C148.521 116.797 148.697 116.412 148.89 116.027C149.552 114.705 150.08 113.341 150.851 112.078C150.856 112.07 150.86 112.061 150.861 112.052C150.863 112.043 150.863 112.034 150.861 112.025C150.859 112.016 150.855 112.008 150.85 112C150.845 111.993 150.838 111.986 150.831 111.981C150.823 111.976 150.814 111.973 150.805 111.971C150.796 111.97 150.787 111.97 150.778 111.972C150.769 111.974 150.761 111.977 150.753 111.983C150.746 111.988 150.739 111.995 150.734 112.002C149.938 113.257 149.058 114.446 148.337 115.759C148.018 116.379 147.708 117.006 147.423 117.642C147.272 117.994 147.113 118.345 146.97 118.705C146.892 118.869 146.828 119.04 146.777 119.215C146.308 119.826 145.855 120.445 145.411 121.073C144.422 122.462 143.55 123.935 142.544 125.315C142.494 125.382 142.611 125.458 142.67 125.391C143.676 124.094 144.807 122.88 145.83 121.6C146.853 120.32 147.867 118.939 148.848 117.584C149.829 116.228 150.743 114.923 151.698 113.592C152.745 112.29 153.708 110.924 154.582 109.5C154.591 109.486 154.594 109.469 154.59 109.452C154.586 109.436 154.575 109.421 154.561 109.412C154.547 109.404 154.529 109.401 154.513 109.405C154.496 109.409 154.482 109.419 154.473 109.433Z" fill="#37474F"/>
<path d="M151.187 179.078C149.342 177.471 147.364 175.99 145.419 174.501C143.474 173.011 141.513 171.514 139.551 170.041C135.619 167.087 131.696 164.108 127.723 161.213C125.543 159.615 123.347 158.05 121.075 156.569C120.974 156.51 120.865 156.669 120.958 156.744C124.696 159.933 128.67 162.836 132.593 165.782C136.516 168.727 140.482 171.639 144.464 174.568C146.643 176.149 148.814 177.781 151.086 179.229C151.178 179.321 151.287 179.145 151.187 179.078Z" fill="#37474F"/>
<path d="M81.4238 54.5744C90.3433 71.5191 100.923 89.5013 110.949 92.1037C120.48 94.614 143.173 70.8664 146.995 62.984C148.328 60.2728 130.364 48.3822 127.815 50.3738C123.029 54.1476 112.533 66.08 111.049 65.7788C109.565 65.4775 96.7982 54.1644 85.3387 44.6502C78.3557 38.8849 75.254 42.8345 81.4238 54.5744Z" fill="#AD6359"/>
<path d="M131.084 22.844L124.219 46.8343C124.128 46.9644 124.075 47.1178 124.068 47.2764C124.061 47.435 124.099 47.5924 124.178 47.7301C124.258 47.8679 124.374 47.9804 124.515 48.0543C124.656 48.1283 124.815 48.1608 124.973 48.148L137.472 48.5413C137.856 48.5238 138.226 48.3981 138.54 48.1789C138.855 47.9597 139.101 47.656 139.249 47.3029L146.115 23.3126C146.4 22.6097 146.056 22.024 145.361 22.0072L132.845 21.6223C132.466 21.6405 132.1 21.7648 131.789 21.9808C131.478 22.1969 131.233 22.496 131.084 22.844Z" fill="#A6A6A6"/>
<path d="M132.568 22.8858L125.702 46.8761C125.426 47.579 125.761 48.1648 126.457 48.1899L138.964 48.5832C139.346 48.564 139.715 48.4376 140.028 48.2185C140.34 47.9994 140.585 47.6965 140.733 47.3447L147.599 23.3544C147.884 22.6515 147.54 22.0658 146.844 22.049L134.345 21.6558C133.963 21.6726 133.593 21.797 133.279 22.0147C132.964 22.2324 132.718 22.5344 132.568 22.8858Z" fill="#DBDBDB"/>
<path d="M135.963 24.0991C135.965 24.2449 135.937 24.3895 135.881 24.524C135.825 24.6585 135.741 24.78 135.636 24.8809C135.53 24.9819 135.405 25.0601 135.268 25.1107C135.132 25.1614 134.986 25.1834 134.84 25.1753C134.694 25.1672 134.551 25.1293 134.421 25.0639C134.29 24.9985 134.175 24.907 134.081 24.7951C133.988 24.6831 133.918 24.5532 133.877 24.4133C133.836 24.2734 133.824 24.1266 133.842 23.982C133.84 23.8362 133.868 23.6916 133.924 23.5571C133.981 23.4226 134.064 23.3011 134.17 23.2002C134.275 23.0992 134.4 23.021 134.537 22.9704C134.674 22.9197 134.82 22.8977 134.966 22.9058C135.111 22.9139 135.254 22.9518 135.385 23.0172C135.515 23.0826 135.631 23.1741 135.724 23.286C135.818 23.398 135.887 23.5279 135.928 23.6678C135.969 23.8077 135.981 23.9545 135.963 24.0991Z" fill="#455A64"/>
<path d="M152.805 49.4032C153.861 42.4328 153.056 40.4832 157.08 35.0692C159.721 31.5129 158.581 28.3081 154.431 30.2996C147.641 33.5714 144.372 42.2822 144.128 45.6293L152.805 49.4032Z" fill="#AD6359"/>
<path d="M143.793 67.6783C143.793 67.6783 150.315 60.0804 152.176 52.7586C153.458 47.6961 155.026 36.3746 143.944 25.3961C141.312 22.7937 135.72 20.9445 138.461 26.7517C140.415 30.877 142.904 32.9103 143.6 35.5127C143.6 35.5127 136.198 34.0065 133.691 36.7344C131.496 39.1234 129.473 41.6652 127.639 44.3407C128.054 44.7861 128.496 45.2053 128.963 45.5958C128.963 45.5958 126.859 48.3739 127.287 53.6456L143.793 67.6783Z" fill="#AD6359"/>
<path d="M152.629 47.7379C151.388 45.2946 148.672 40.1651 144.992 36.7344C140.901 32.9354 131.99 26.6931 129.207 29.7473C127.17 31.9815 130.364 34.6508 130.364 34.6508C130.364 34.6508 126.172 32.8517 124.73 35.27C123.456 37.4791 126.046 39.3953 126.046 39.3953C126.046 39.3953 123.297 38.751 122.475 41.1107C121.486 43.9473 127.421 44.8427 128.905 48.5831C129.24 49.4199 152.629 47.7379 152.629 47.7379Z" fill="#AD6359"/>
<path d="M141.68 41.7216C138.755 38.2705 134.845 35.7922 130.472 34.6174C130.355 34.6174 130.28 34.6593 130.372 34.7095C134.405 36.5916 138.192 38.9606 141.647 41.7635C141.647 41.7635 141.697 41.7467 141.68 41.7216Z" fill="#263238"/>
<path d="M137.716 45.7297C136.198 44.0562 131.135 40.2656 126.097 39.3116C125.988 39.3116 125.912 39.3619 126.013 39.4037C130.13 41.0827 134.044 43.2187 137.682 45.7715C137.682 45.7715 137.732 45.7548 137.716 45.7297Z" fill="#263238"/>
<path d="M121.654 53.4615L140.39 73.2679C140.39 73.2679 120.631 95.3839 111.351 93.0744C102.071 90.7649 84.5256 65.6867 78.9006 49.7713C75.0025 38.7426 81.1221 40.525 87.577 45.9221C94.0319 51.3193 110.882 64.7245 111.619 64.532C112.357 64.3396 121.654 53.4615 121.654 53.4615Z" fill="#5CAD2F"/>
<path opacity="0.1" d="M115.316 92.8735C114.025 93.2801 112.651 93.3492 111.326 93.0744C102.046 90.7649 84.5003 65.6951 78.8753 49.7713C76.3102 42.5165 78.1041 40.8095 81.4741 42.0479C91.5839 57.0178 105.039 77.0836 115.316 92.8735Z" fill="black"/>
<path d="M134.295 76.5648C131.587 73.8286 120.882 62.2476 118.77 59.5951C118.619 59.411 118.703 59.2687 118.879 59.4444C127.195 67.4356 131.881 73.6696 134.404 76.4561C134.463 76.523 134.362 76.6318 134.295 76.5648Z" fill="#263238"/>
<path d="M102.239 108.195C102.239 108.195 40.8 119.408 40.4814 119.073C40.1629 118.738 47.2465 52.4072 68.0949 41.1945C71.4481 39.4205 79.3868 38.3745 82.7902 41.8388C92.4977 51.696 103.044 107.3 102.239 108.195Z" fill="#5CAD2F"/>
<path d="M101.593 102.697L41.0933 113.057C41.3196 111.232 41.6214 109.057 41.9986 106.605L100.478 96.5637C100.931 98.9067 101.3 100.974 101.593 102.697Z" fill="#EBEBEB"/>
<path d="M99.8327 93.3589L42.5435 103.174C42.7195 102.086 42.9123 100.974 43.1219 99.8272L99.1704 90.2294C99.4051 91.2837 99.6231 92.338 99.8327 93.3589Z" fill="#EBEBEB"/>
<path d="M80.0741 51.9051C76.6454 51.9051 72.2779 45.5958 71.054 41.027C70.9701 40.7174 72.0935 37.9226 73.3006 34.4584C74.0216 32.358 74.776 29.9983 75.3041 27.7642L88.3313 34.4584C86.8856 37.0229 85.7595 39.7544 84.9781 42.5918C84.9044 42.8963 84.8623 43.2075 84.8523 43.5206C84.8523 43.5624 84.8523 43.6127 84.8523 43.6712C84.6763 45.5121 83.3853 51.9135 80.0741 51.9051Z" fill="#AD6359"/>
<path d="M88.3397 34.5587C86.893 37.1228 85.7669 39.8544 84.9865 42.6922C84.9129 42.9967 84.8708 43.3079 84.8608 43.621C84.8644 43.6683 84.8644 43.7159 84.8608 43.7633C84.3727 43.7246 83.8898 43.6378 83.4189 43.5039C75.4132 41.3784 75.5473 30.8769 75.7401 28.057L88.3397 34.5587Z" fill="#263238"/>
<path d="M74.7509 12.6605C72.6636 17.497 73.7114 32.2577 76.9221 35.8809C81.5831 41.1275 90.008 42.4998 94.6689 36.7177C99.1957 31.128 97.4856 11.9157 93.8306 8.54353C88.4152 3.5982 77.8275 5.50604 74.7509 12.6605Z" fill="#AD6359"/>
<path d="M88.2391 23.2791C88.2391 23.2372 88.172 23.3293 88.172 23.3711C88.2978 24.3585 88.2726 25.5049 87.4092 25.8815C87.4092 25.8815 87.4092 25.9484 87.4092 25.94C88.499 25.7141 88.5157 24.1912 88.2391 23.2791Z" fill="#263238"/>
<path d="M87.2667 22.3335C85.6655 22.3335 85.8332 25.5467 87.317 25.5216C88.8008 25.4965 88.608 22.3084 87.2667 22.3335Z" fill="#263238"/>
<path d="M94.057 22.9611C94.057 22.9611 94.1408 23.0029 94.1408 23.0447C94.1408 24.0321 94.3504 25.1618 95.2641 25.4463V25.5048C94.1576 25.4044 93.9228 23.8982 94.057 22.9611Z" fill="#263238"/>
<path d="M94.8866 21.8817C96.471 21.6809 96.7644 24.8606 95.2974 25.0447C93.8304 25.2288 93.5621 22.0574 94.8866 21.8817Z" fill="#263238"/>
<path d="M85.9003 20.9361C86.3138 20.7897 86.7196 20.6221 87.1158 20.4341C87.57 20.3232 87.9723 20.0603 88.2559 19.6893C88.3317 19.554 88.3582 19.3966 88.3306 19.244C88.3031 19.0914 88.2234 18.953 88.105 18.8526C87.8576 18.6928 87.5723 18.6009 87.278 18.5862C86.9836 18.5715 86.6906 18.6345 86.4284 18.7689C85.8465 18.9644 85.359 19.3704 85.062 19.9069C84.9953 20.0319 84.967 20.1737 84.9806 20.3147C84.9943 20.4556 85.0493 20.5894 85.1388 20.6993C85.2283 20.8092 85.3483 20.8903 85.4838 20.9324C85.6192 20.9745 85.7641 20.9758 85.9003 20.9361Z" fill="#263238"/>
<path d="M96.0354 20.2081C95.5911 20.1579 95.1971 20.0408 94.7528 19.9487C94.2857 19.9171 93.8415 19.7351 93.487 19.4299C93.3917 19.3112 93.3398 19.1637 93.3398 19.0116C93.3398 18.8595 93.3917 18.7119 93.487 18.5932C93.7029 18.3795 93.973 18.2285 94.2683 18.1562C94.5637 18.084 94.8731 18.0933 95.1636 18.1831C95.7647 18.2661 96.3155 18.5633 96.7144 19.0199C96.8165 19.1323 96.8804 19.2741 96.8969 19.4249C96.9134 19.5758 96.8818 19.728 96.8065 19.8598C96.7311 19.9916 96.616 20.0962 96.4775 20.1588C96.3391 20.2213 96.1843 20.2386 96.0354 20.2081Z" fill="#263238"/>
<path d="M88.7505 29.1616C89.0221 29.5394 89.3696 29.8565 89.7709 30.0928C90.1721 30.3291 90.6183 30.4793 91.0809 30.5339C91.484 30.5929 91.8935 30.5929 92.2965 30.5339C92.4467 30.519 92.5954 30.491 92.7408 30.4502C92.7934 30.4392 92.8409 30.411 92.8758 30.3701C92.9107 30.3293 92.931 30.278 92.9336 30.2243L92.7575 28.1157C93.0426 28.2412 94.4928 28.8018 94.4341 28.4002C94.1658 24.9741 93.5479 21.5843 92.5899 18.2836C92.5871 18.2715 92.582 18.26 92.5749 18.2499C92.5677 18.2398 92.5586 18.2312 92.5481 18.2246C92.5375 18.218 92.5258 18.2135 92.5136 18.2114C92.5014 18.2093 92.4888 18.2097 92.4767 18.2124C92.4646 18.2152 92.4532 18.2203 92.443 18.2274C92.4329 18.2346 92.4243 18.2437 92.4176 18.2542C92.411 18.2647 92.4065 18.2764 92.4045 18.2886C92.4024 18.3008 92.4027 18.3133 92.4055 18.3254C92.6402 21.4884 93.4282 24.5928 93.7132 27.7726C93.1953 27.5642 92.6507 27.429 92.0953 27.3709C92.0366 27.3709 92.3803 29.9565 92.3719 29.9817C91.7504 30.0757 91.1162 30.0442 90.5071 29.8889C89.8979 29.7337 89.3263 29.4579 88.8259 29.0779C88.7673 29.011 88.6918 29.0863 88.7505 29.1616Z" fill="#263238"/>
<path d="M91.9778 30.375C91.5426 30.9486 90.9646 31.3986 90.3012 31.6803C89.9333 31.8272 89.5282 31.8535 89.1444 31.7556C88.3061 31.5465 88.3061 30.785 88.4402 30.1323C88.5244 29.7846 88.6481 29.4477 88.8091 29.1282C89.7062 29.8685 90.8159 30.3052 91.9778 30.375Z" fill="#263238"/>
<path d="M90.3012 31.6887C89.9334 31.8355 89.5282 31.8619 89.1444 31.764C88.3061 31.5548 88.3061 30.7933 88.4402 30.1406C88.8797 30.152 89.3025 30.3109 89.6402 30.5919C89.9779 30.8728 90.2108 31.2592 90.3012 31.6887Z" fill="#FF9CBD"/>
<path d="M73.3846 25.9902C77.2407 26.2915 79.2526 21.7143 78.4143 18.0158C78.4143 18.0158 88.6499 19.4467 89.2032 11.2379C90.0177 12.3729 91.077 13.3109 92.3029 13.9829C93.5289 14.6548 94.8903 15.0436 96.2868 15.1205L96.9658 18.0074C98.0221 17.7145 99.1622 14.7356 96.6054 12.3759C96.6054 12.3759 96.4629 8.2841 93.4534 5.79889C92.6407 5.08792 91.6397 4.62608 90.5706 4.46875C89.5016 4.31142 88.4097 4.4653 87.426 4.91191C85.6505 3.61148 83.4382 3.05042 81.2562 3.34713C80.1175 3.52012 79.0369 3.96292 78.1049 4.63844C77.1729 5.31396 76.4167 6.20253 75.8994 7.22976C75.8994 7.22976 70.811 8.15858 69.9224 11.7567C69.6466 12.7714 69.5892 13.8328 69.7539 14.8712C69.9186 15.9097 70.3017 16.9015 70.878 17.7815C70.878 17.7815 69.5871 19.1873 70.2158 22.2666C70.6182 24.2414 72.2277 25.8982 73.3846 25.9902Z" fill="#263238"/>
<path d="M88.9853 10.5016C89.0525 11.1693 89.0525 11.8421 88.9853 12.5098C88.933 13.1697 88.8036 13.8213 88.5997 14.4512C88.1967 15.693 87.341 16.7383 86.2022 17.3799C85.0292 17.9797 83.731 18.2951 82.4131 18.3003C81.7508 18.3003 81.0802 18.3003 80.4095 18.2334C79.7389 18.1664 79.0766 18.0744 78.406 18.0158C79.0599 18.1748 79.7221 18.3171 80.3844 18.4677C81.0466 18.6183 81.734 18.5932 82.4131 18.6601C83.8037 18.7257 85.1882 18.4378 86.4369 17.8234C87.6649 17.1151 88.5673 15.9561 88.9518 14.5934C89.3077 13.254 89.3192 11.8466 88.9853 10.5016Z" fill="#263238"/>
<path d="M94.2329 15.3131C93.1151 14.9322 92.0694 14.3665 91.1396 13.6395C90.6858 13.273 90.2827 12.8482 89.9408 12.376C89.6042 11.89 89.323 11.3679 89.1025 10.8196C89.1551 11.4377 89.341 12.0371 89.6474 12.5768C89.9465 13.1294 90.3542 13.6161 90.8462 14.0077C91.3286 14.398 91.8688 14.7113 92.4473 14.9365C93.0177 15.1594 93.621 15.2866 94.2329 15.3131Z" fill="#263238"/>
<path d="M86.2943 28.2662C85.489 28.2265 84.711 27.9621 84.0487 27.5029C83.3865 27.0438 82.8666 26.4083 82.5482 25.6689C82.2298 24.9294 82.1256 24.1156 82.2476 23.32C82.3695 22.5244 82.7126 21.7789 83.238 21.1683C83.7633 20.5577 84.4497 20.1065 85.2192 19.866C85.9887 19.6255 86.8103 19.6053 87.5907 19.8077C88.3711 20.0102 89.0789 20.4272 89.6337 21.0112C90.1885 21.5953 90.5679 22.3231 90.7289 23.1117C90.9521 24.2274 90.725 25.386 90.0971 26.3355C89.4692 27.285 88.4912 27.9488 87.3757 28.1826C87.0203 28.2564 86.6569 28.2846 86.2943 28.2662ZM86.6883 20.2416C86.3762 20.225 86.0632 20.2504 85.7578 20.3169C84.8313 20.5108 84.0136 21.0498 83.4712 21.8242C82.9287 22.5986 82.7022 23.5502 82.8379 24.4854C82.9735 25.4206 83.461 26.2691 84.2013 26.8582C84.9415 27.4472 85.8787 27.7326 86.8223 27.6562C87.7659 27.5799 88.6448 27.1475 89.2803 26.4471C89.9158 25.7467 90.26 24.8309 90.2429 23.8861C90.2259 22.9413 89.8488 22.0385 89.1884 21.3615C88.5281 20.6844 87.6341 20.2839 86.6883 20.2416Z" fill="#FFC727"/>
<path d="M96.161 27.5383C94.4844 27.4546 93.1012 25.6974 92.9503 23.4632C92.8507 22.3934 93.0975 21.32 93.6545 20.4006C93.8667 19.9913 94.1809 19.6435 94.5667 19.3905C94.9526 19.1374 95.3972 18.9877 95.8577 18.9558C96.3183 18.9239 96.7793 19.0107 97.1966 19.2081C97.6138 19.4054 97.9731 19.7066 98.24 20.0826C98.9048 20.9242 99.294 21.9497 99.3549 23.0197C99.5142 25.3878 98.2064 27.4128 96.446 27.5383H96.161ZM96.1107 19.522H95.8927C95.5276 19.5649 95.1781 19.6945 94.8733 19.8997C94.5685 20.1049 94.3173 20.38 94.1407 20.7018C93.6545 21.5214 93.4375 22.4724 93.5203 23.4214C93.6628 25.4715 94.9538 27.0613 96.4041 26.9609C97.8543 26.8605 98.919 25.1116 98.7765 23.0615C98.7301 22.1105 98.3871 21.1978 97.7957 20.4508C97.5982 20.182 97.346 19.9581 97.0556 19.7937C96.7651 19.6293 96.4431 19.5281 96.1107 19.4969V19.522Z" fill="#FFC727"/>
<path d="M90.6199 23.6138L90.2175 23.2038C90.8295 22.6097 92.2881 21.7729 93.4198 22.8189L93.0258 23.2373C92.0199 22.3001 90.6786 23.5636 90.6199 23.6138Z" fill="#FFC727"/>
<path d="M72.387 26.1325L71.8589 25.8982C71.9679 25.6555 72.9403 23.4883 74.2145 23.187C75.4887 22.8858 82.2957 23.0113 82.5975 23.0197V23.597C79.8388 23.4994 77.0768 23.5497 74.3235 23.7477C73.502 23.9485 72.6469 25.53 72.387 26.1325Z" fill="#FFC727"/>
<path d="M77.0228 25.7308C77.0228 25.7308 74.1642 20.7101 71.9259 21.7226C69.6877 22.7351 71.5487 29.7222 73.963 30.8769C74.2616 31.0514 74.593 31.1625 74.9366 31.2033C75.2802 31.244 75.6285 31.2136 75.9598 31.1138C76.291 31.0141 76.5981 30.8472 76.8618 30.6236C77.1255 30.4 77.3401 30.1244 77.4922 29.8142L77.0228 25.7308Z" fill="#AD6359"/>
<path d="M72.4874 23.7225C72.4874 23.7225 72.4371 23.7727 72.4874 23.7895C74.164 24.6263 74.952 26.3584 75.4466 28.0989C75.3614 27.9141 75.2369 27.7502 75.0817 27.6185C74.9264 27.4868 74.7443 27.3904 74.5479 27.3363C74.3515 27.2821 74.1457 27.2713 73.9448 27.3048C73.7438 27.3382 73.5526 27.415 73.3844 27.5299C73.3757 27.5351 73.3686 27.5424 73.3636 27.5512C73.3586 27.56 73.356 27.57 73.356 27.5801C73.356 27.5902 73.3586 27.6001 73.3636 27.6089C73.3686 27.6177 73.3757 27.6251 73.3844 27.6303C73.7015 27.5594 74.0328 27.5881 74.3329 27.7124C74.6331 27.8367 74.8874 28.0506 75.061 28.3248C75.3458 28.7902 75.5818 29.2837 75.7652 29.7975C75.8322 29.9565 76.1173 29.8979 76.0753 29.7138V29.672C76.3436 27.4462 74.885 24.166 72.4874 23.7225Z" fill="#263238"/>
<path d="M85.0117 45.2946H84.9698C84.8273 48.0894 84.3159 54.4991 79.8143 53.6623C78.0341 53.168 76.4301 52.1818 75.1869 50.8173C72.7614 48.2617 70.7352 45.3562 69.1763 42.1985C69.1344 42.1232 69.0338 42.1985 69.0589 42.2655C69.6015 43.8998 70.3359 45.4643 71.2469 46.9263C72.2602 48.6187 73.5012 50.1644 74.9354 51.5202C76.3018 52.7753 77.9532 54.0305 79.8813 54.3485C80.7077 54.4889 81.5574 54.3441 82.2904 53.938C83.0233 53.5319 83.5958 52.8886 83.9135 52.1143C84.8099 49.9584 85.1861 47.6223 85.0117 45.2946Z" fill="#263238"/>
<path d="M61.204 46.4577C51.6139 54.8254 27.0267 87.878 33.0624 94.9487C39.0981 102.019 77.0478 97.1159 87.9541 93.2082C91.2067 92.0451 81.3651 71.586 77.7772 70.7743C74.7761 70.0882 58.5718 75.6192 58.2113 74.6821C57.8508 73.7449 61.0112 66.4482 66.0913 53.3778C71.951 38.3158 65.4458 42.7508 61.204 46.4577Z" fill="#AD6359"/>
<path d="M93.7886 66.0884C101.425 65.7956 103.429 66.9252 109.716 63.2267C113.857 60.8251 117.177 62.4317 114.528 66.6491C110.194 73.5357 100.42 75.9791 96.7897 75.8536L93.7886 66.0884Z" fill="#AD6359"/>
<path d="M73.0659 71.3183C73.0659 71.3183 81.9938 67.4775 90.0917 66.3562C95.6999 65.5864 108.082 65.26 118.594 78.4727C121.109 81.6106 122.4 87.8362 116.473 84.1878C112.281 81.6022 110.379 78.6902 107.654 77.6275C107.654 77.6275 108.392 85.7442 105.139 88.1123C102.301 90.1797 99.3206 92.0448 96.2197 93.6936C95.7907 93.1943 95.3931 92.6689 95.0293 92.1205C95.0293 92.1205 91.7935 94.0451 86.1685 92.9572L73.0659 71.3183Z" fill="#AD6359"/>
<path d="M95.5658 66.4817C98.0806 68.105 103.245 71.6362 106.464 75.9958C110.068 80.8407 115.685 91.1498 112.097 93.7689C109.448 95.6935 106.95 91.9447 106.95 91.9447C106.95 91.9447 108.375 96.6892 105.6 97.9026C103.085 99.0071 101.316 95.9947 101.316 95.9947C101.316 95.9947 101.694 99.0238 99.0531 99.6263C95.8759 100.346 95.616 93.8777 91.7766 91.8276C90.93 91.3674 95.5658 66.4817 95.5658 66.4817Z" fill="#AD6359"/>
<path d="M100.722 78.9078C104.086 82.464 106.285 86.959 107.026 91.7941C107.026 91.9197 106.95 91.995 106.917 91.8862C105.368 87.3362 103.274 82.9897 100.68 78.9413C100.68 78.9413 100.705 78.9078 100.722 78.9078Z" fill="#263238"/>
<path d="M95.9599 82.7235C97.5862 84.5477 101.057 90.4302 101.484 95.9529C101.484 96.0784 101.4 96.1537 101.367 96.0366C100.056 91.4172 98.2281 86.9598 95.918 82.7486C95.918 82.7486 95.9096 82.6984 95.9599 82.7235Z" fill="#263238"/>
<path d="M107.646 77.5857C110.027 78.5564 111.502 79.912 113.43 81.5604C114.372 82.3857 115.36 83.1568 116.389 83.8699C117.336 84.5142 118.728 85.4765 119.877 84.7066C120.15 84.4677 120.355 84.1603 120.47 83.8162C120.585 83.472 120.606 83.1035 120.53 82.7486C120.328 81.7251 119.966 80.7397 119.457 79.8283C119.457 79.8283 119.499 79.7613 119.516 79.8283C120.017 80.6588 120.43 81.5394 120.748 82.4557C120.939 83.086 120.939 83.7584 120.748 84.3887C120.254 85.7024 118.636 85.7191 117.546 85.2254C116.897 84.9151 116.282 84.5394 115.71 84.1042C115.149 83.7025 114.604 83.2674 114.034 82.8323C112.944 81.9286 111.913 80.9663 110.84 80.0458C109.776 79.1776 108.656 78.381 107.487 77.661C107.477 77.6399 107.475 77.6158 107.483 77.5938C107.491 77.5718 107.507 77.5539 107.528 77.5439C107.55 77.5339 107.574 77.5327 107.596 77.5405C107.618 77.5484 107.636 77.5646 107.646 77.5857Z" fill="#263238"/>
<path d="M73.0659 71.3182L82.4212 97.434C82.4212 97.434 34.9569 103.174 31.763 94.7228C28.569 86.2714 49.7696 56.4906 58.8148 48.1145C69.3019 38.3996 70.1402 42.1483 67.1139 51.3779C63.9536 61.051 58.3202 74.9247 58.3202 74.9247L73.0659 71.3182Z" fill="#5CAD2F"/>
<path d="M43.5496 80.1463C45.8574 78.8816 48.2526 77.7826 50.717 76.8577C53.1671 75.9616 55.6805 75.2484 58.2365 74.724C59.6868 74.3976 61.1454 74.1466 62.6124 73.8872C62.6124 73.8872 62.6627 73.9458 62.6124 73.9541C60.0588 74.5073 57.5396 75.2086 55.0678 76.0544C52.592 76.8633 50.1414 77.7196 47.7159 78.6233C46.3327 79.1421 44.983 79.7112 43.625 80.2969C43.605 80.3069 43.5818 80.3085 43.5606 80.3015C43.5394 80.2944 43.5218 80.2792 43.5118 80.2592C43.5018 80.2393 43.5002 80.2161 43.5073 80.195C43.5143 80.1738 43.5296 80.1563 43.5496 80.1463Z" fill="#263238"/>
<path d="M72.9485 71.2346C72.7054 71.2764 59.5945 74.1884 59.1585 74.339C59.2256 74.1549 62.1848 67.6448 62.6207 66.6909L62.7464 66.4064C63.0231 65.988 63.2997 65.5696 63.5847 65.1429C63.8698 64.7161 64.247 64.0467 64.5739 63.4693L63.5177 65.0676C63.3584 65.3186 63.1991 65.5696 63.0482 65.829C63.3416 65.1512 63.6267 64.4735 63.8865 63.7957C64.3392 62.7079 64.7248 61.6117 65.1775 60.5155H65.1188C64.2805 62.415 63.3165 64.281 62.4447 66.1805C61.5728 68.08 58.2532 75.0419 58.2532 75.0419C58.2532 75.0419 72.7306 71.5191 73.0156 71.427C73.0412 71.4182 73.0621 71.3995 73.0739 71.3752C73.0857 71.3509 73.0874 71.3229 73.0785 71.2973C73.0696 71.2718 73.0509 71.2509 73.0265 71.2391C73.0021 71.2273 72.9741 71.2257 72.9485 71.2346Z" fill="#263238"/>
<path d="M72.1689 87.5768C71.1378 84.6648 70.1402 81.7194 69.0001 78.866C68.3546 77.2343 67.7175 75.6026 67.0636 73.9709C67.0636 73.9123 66.9295 73.9709 66.9463 73.9709C67.86 76.933 68.7821 79.9036 69.8384 82.8239C70.8947 85.7443 71.9006 88.6813 72.982 91.5431C73.6024 93.1832 74.2674 94.8065 74.9772 96.4131C74.9772 96.4131 75.0442 96.4131 75.0358 96.4131C74.2227 93.4342 73.2 90.5139 72.1689 87.5768Z" fill="#263238"/>
<path d="M82.9831 97.8775C82.5975 97.0408 82.1448 95.9027 81.7005 95.1078C81.5916 94.8902 81.4323 94.9237 81.5161 95.1078C81.8011 95.8358 82.0107 96.6475 82.2957 97.4006C81.6251 97.4591 80.9628 97.5093 80.3006 97.5847L77.9953 97.8273C76.4863 97.9835 74.9774 98.1258 73.4685 98.2541C70.4171 98.5051 67.3601 98.692 64.2975 98.8147C58.1522 99.0981 51.9962 99.059 45.855 98.6976C44.1784 98.5888 42.4263 98.4465 40.7162 98.2541C39.0061 98.0616 37.1115 97.8273 35.6864 97.5093C35.6445 97.5093 35.6277 97.5679 35.6864 97.5847C37.1024 98.0344 38.5515 98.3729 40.0204 98.5971C41.5629 98.8231 43.1054 99.0155 44.6562 99.1494C47.7495 99.4256 50.8512 99.5343 53.9529 99.5594C60.1004 99.6096 66.2479 99.4032 72.3954 98.9402C74.114 98.8147 75.8241 98.6641 77.5426 98.4967L80.1329 98.2206C80.988 98.1536 83.0502 98.0198 82.9831 97.8775Z" fill="#263238"/>
<path d="M144.137 97.3001H84.3745V99.9694H144.137V97.3001Z" fill="#C7C7C7"/>
<path d="M144.137 97.3001V99.9778H103.513L105.558 97.3001H144.137Z" fill="#A6A6A6"/>
<path d="M111.728 99.9778H164.029L171.599 63.143H119.298L111.728 99.9778Z" fill="#A6A6A6"/>
<path d="M114.167 99.9778H166.477L174.047 63.143H121.737L114.167 99.9778Z" fill="#C7C7C7"/>
<path d="M148.823 80.1797C148.881 81.0017 148.659 81.8191 148.194 82.4996C147.728 83.18 147.046 83.6835 146.258 83.9285C144.765 84.2465 143.516 83.0917 143.458 81.3429C143.414 80.5219 143.648 79.7102 144.12 79.0369C144.593 78.3635 145.277 77.8674 146.065 77.6276C147.515 77.2845 148.773 78.4476 148.823 80.1797Z" fill="white"/>
<path d="M265.933 176.434C265.153 178.459 227.623 223.879 225.091 224.716C224.136 225.034 217.186 219.963 208.971 213.595C207.194 212.223 205.366 210.792 203.522 209.327C191.534 199.847 179.035 189.513 179.035 189.513L204.1 159.054L227.891 179.706L233.122 184.241C233.122 184.241 255.236 173.262 258.112 172.626C260.987 171.991 266.713 174.409 265.933 176.434Z" fill="#AD6359"/>
<path d="M265.933 176.434C265.153 178.459 227.623 223.879 225.091 224.716C223.926 225.092 213.908 217.536 203.521 209.327L227.832 179.706L233.063 184.241C233.063 184.241 255.236 173.262 258.111 172.626C260.987 171.991 266.712 174.409 265.933 176.434Z" fill="#EBEBEB"/>
<path d="M265.933 176.434C265.153 178.459 227.623 223.879 225.091 224.716C224.136 225.034 217.186 219.963 208.971 213.595L233.08 184.241C233.08 184.241 255.236 173.262 258.112 172.626C260.987 171.991 266.713 174.409 265.933 176.434Z" fill="#FFC727"/>
<path d="M263.569 175.589C257.089 183.044 231.672 213.746 225.846 221.611C225.804 221.678 225.846 221.712 225.896 221.611C232.477 214.356 257.659 183.446 263.712 175.647C263.829 175.522 263.712 175.43 263.569 175.589Z" fill="#263238"/>
<path d="M254.063 174.225C253.341 175.054 252.799 176.023 252.472 177.072C252.144 178.12 252.038 179.225 252.16 180.316C252.374 182.268 253.328 184.064 254.825 185.337C254.876 185.337 254.943 185.287 254.901 185.245C253.609 183.739 252.838 181.857 252.703 179.879C252.569 177.901 253.078 175.933 254.155 174.267C254.205 174.241 254.113 174.166 254.063 174.225Z" fill="#263238"/>
<path d="M236.282 181.915C233.717 184.927 231.881 189.345 232.812 193.295C232.812 193.445 233.063 193.395 233.088 193.295C233.894 189.478 235.105 185.759 236.702 182.199C236.739 182.144 236.754 182.076 236.741 182.01C236.728 181.944 236.69 181.885 236.635 181.848C236.579 181.81 236.511 181.796 236.445 181.808C236.379 181.821 236.32 181.859 236.282 181.915Z" fill="#263238"/>
<path d="M239.141 180.316C236.584 183.329 234.74 187.747 235.671 191.697C235.671 191.847 235.93 191.797 235.956 191.697C236.755 187.88 237.964 184.16 239.56 180.601C239.598 180.545 239.612 180.477 239.6 180.411C239.587 180.345 239.549 180.287 239.493 180.249C239.438 180.212 239.369 180.198 239.303 180.21C239.237 180.223 239.179 180.261 239.141 180.316Z" fill="#263238"/>
<path d="M242.008 178.718C239.443 181.731 237.607 186.149 238.537 190.098C238.537 190.257 238.789 190.199 238.814 190.098C239.618 186.282 240.829 182.562 242.427 179.003C242.465 178.947 242.479 178.879 242.467 178.813C242.454 178.747 242.416 178.689 242.36 178.651C242.305 178.614 242.236 178.599 242.17 178.612C242.104 178.625 242.046 178.663 242.008 178.718Z" fill="#263238"/>
<path d="M244.867 177.12C242.31 180.132 240.466 184.559 241.396 188.508C241.438 188.659 241.656 188.609 241.681 188.508C242.483 184.692 243.692 180.973 245.286 177.413C245.325 177.357 245.34 177.289 245.328 177.222C245.316 177.155 245.279 177.096 245.223 177.057C245.167 177.018 245.099 177.003 245.032 177.015C244.965 177.027 244.906 177.064 244.867 177.12Z" fill="#263238"/>
<path d="M220.187 213.712C217.37 217.134 222.702 221.511 225.527 218.072C228.352 214.633 223.012 210.281 220.187 213.712Z" fill="white"/>
<path d="M230.85 171.907C228.335 172.401 227.941 175.371 228.486 177.421C229.49 180.919 231.394 184.093 234.011 186.626C234.069 186.684 234.136 186.626 234.178 186.626C234.245 186.661 234.32 186.68 234.395 186.682C234.471 186.683 234.546 186.666 234.614 186.632C234.682 186.599 234.741 186.55 234.786 186.489C234.832 186.428 234.862 186.357 234.874 186.283C235.167 182.877 235.897 179.262 235.125 175.873C234.681 173.857 233.273 171.447 230.85 171.907ZM234.279 180.994C234.178 182.668 233.994 184.341 233.952 186.015C232.827 184.255 231.792 182.44 230.85 180.576C230.403 179.667 230.022 178.728 229.71 177.764C229.249 176.275 229.165 171.179 232.745 173.58C234.681 174.953 234.371 178.986 234.279 180.994Z" fill="#263238"/>
<path d="M228.888 195.119C231.487 192.801 232.988 189.446 234.757 186.5C234.941 186.199 234.673 185.881 234.388 185.814C234.389 185.798 234.387 185.783 234.381 185.768C234.376 185.753 234.367 185.74 234.356 185.728C234.345 185.717 234.331 185.709 234.317 185.703C234.302 185.698 234.286 185.696 234.27 185.697C230.668 186.24 227.271 187.717 224.42 189.981C222.744 191.328 221.344 193.956 223.138 195.839C224.932 197.721 227.363 196.475 228.888 195.119ZM225.627 195.529C221.302 195.437 224.336 191.345 225.577 190.391C226.395 189.794 227.252 189.251 228.142 188.768C229.992 187.792 231.892 186.915 233.834 186.14C232.887 187.529 232.066 188.994 231.177 190.416C230.087 192.115 228.008 195.579 225.627 195.529Z" fill="#263238"/>
<path d="M226.625 175.053L198.768 208.005L114.754 148.293L106.472 142.436C106.472 142.436 104.091 144 100.512 145.917C95.5406 148.586 88.2558 151.95 81.8428 152.812C71.0791 154.217 54.8832 153.866 45.9721 141.666C38.4274 131.39 41.0345 118.144 41.0345 118.144L52.8964 113.216C52.8964 113.216 81.0968 90.3382 99.1872 89.8612C106.866 89.6436 117.982 95.5931 128.259 101.785C138.537 107.977 226.625 175.053 226.625 175.053Z" fill="#263238"/>
<path d="M106.472 142.402C106.472 142.402 104.091 143.967 100.512 145.883C94.3169 138.294 81.1724 124.487 80.77 123.993L106.472 142.402Z" fill="#37474F"/>
<path d="M63.216 105.593C61.5394 106.731 59.8628 107.935 58.2449 109.107C56.627 110.278 54.8917 111.333 53.3744 112.588C51.8571 113.843 50.2895 115.232 48.7973 116.613C48.0764 117.274 47.3638 117.943 46.668 118.638C45.9361 119.303 45.2551 120.022 44.631 120.788C44.5807 120.864 44.6813 120.947 44.7567 120.905C45.5467 120.358 46.3 119.76 47.0117 119.115L49.3674 117.165C50.8847 115.91 52.4271 114.655 53.9445 113.433C55.4618 112.211 56.8366 110.814 58.3287 109.542C59.8209 108.27 61.5897 106.931 63.2663 105.685C63.2663 105.626 63.2663 105.567 63.216 105.593Z" fill="#37474F"/>
<path d="M218.024 171.882C216.348 173.656 214.772 175.564 213.196 177.438C211.62 179.312 210.044 181.203 208.485 183.103C205.358 186.902 202.214 190.684 199.138 194.525C197.461 196.634 195.784 198.759 194.217 200.96C194.15 201.052 194.309 201.169 194.384 201.085C197.738 197.487 200.814 193.655 203.924 189.856C207.034 186.057 210.161 182.241 213.221 178.4C214.898 176.292 216.624 174.216 218.167 171.991C218.234 171.907 218.091 171.79 218.024 171.882Z" fill="#37474F"/>
<path d="M154.875 176.71C150.609 173.271 140.901 166.543 136.475 163.322C132.049 160.1 127.673 156.887 123.205 153.766C121.922 152.87 120.623 151.992 119.332 151.113C118.041 150.234 116.691 149.439 115.434 148.502C115.358 148.452 115.291 148.578 115.358 148.628C116.523 149.465 117.613 150.435 118.753 151.314C119.893 152.192 120.924 152.987 122.023 153.824C124.169 155.448 126.331 157.037 128.494 158.636C132.87 161.882 137.288 165.079 141.748 168.225C144.263 169.999 152.092 175.271 154.683 176.961C154.834 177.07 155.018 176.81 154.875 176.71Z" fill="#37474F"/>
<path d="M182.464 141.356C178.524 138.009 169.537 131.583 165.404 128.487C161.271 125.391 157.021 122.202 152.83 119.09L140.389 109.868C136.349 106.881 132.333 103.844 128.067 101.191C125.728 99.7351 123.33 98.3879 120.866 97.1746C118.475 95.9117 115.978 94.859 113.405 94.0283C113.329 94.0283 113.287 94.112 113.354 94.1538C115.459 95.3588 117.672 96.3796 119.809 97.5511C121.947 98.7226 124.001 99.9108 126.029 101.183C130.263 103.819 134.262 106.806 138.277 109.76C146.618 115.902 154.942 122.069 163.342 128.169C168.037 131.516 177.4 138.553 182.288 141.683C182.43 141.708 182.606 141.473 182.464 141.356Z" fill="#37474F"/>
</g>
<g clip-path="url(#clip1_16_2)">
<path d="M326.169 116.332C326.975 121.836 326.699 127.443 325.353 132.841C324.717 135.34 323.869 137.78 322.819 140.136C321.502 143.161 320.127 146.109 320.451 149.408C320.775 149.624 319.675 149.595 319.635 149.271C310.793 144.238 299.416 143.318 292.598 135.093C289.365 131.176 287.734 126.281 286.958 121.385C286.123 116.009 285.887 110.056 287.282 104.739C288.452 100.264 291.085 95.9265 295.299 93.7429C299.662 91.4811 305.37 91.6769 309.968 93.0967C319.852 96.1321 324.774 106.795 326.169 116.332Z" fill="#5CAD2F"/>
<path d="M330.728 181.711C329.509 177.697 328.301 173.672 327.063 169.667C324.636 161.834 322.101 154.001 319.301 146.265C317.631 141.631 315.866 137.045 314.006 132.508C314.21 129.649 314.561 126.803 315.057 123.98C315.804 120.552 316.875 117.243 317.877 113.894C317.936 113.689 317.602 113.581 317.523 113.777C315.558 118.389 312.935 124.293 312.866 129.766C310.705 124.626 308.396 119.564 305.9 114.57C305.619 110.35 305.751 106.113 306.293 101.919C306.293 101.723 306.028 101.664 305.999 101.86C305.237 105.533 304.947 109.287 305.134 113.032C303.228 109.279 301.211 105.578 299.082 101.929C298.886 101.606 298.434 101.929 298.601 102.262C301.934 108.652 305.042 115.161 307.924 121.786C303.839 118.264 299.122 115.543 294.022 113.767C293.806 113.689 293.639 114.012 293.865 114.11C299.429 116.493 304.519 119.849 308.897 124.019C310.98 128.869 312.964 133.765 314.851 138.706C309.3 133.291 301.715 129.727 294.376 127.818C294.13 127.749 294.062 128.131 294.297 128.21C302.796 130.755 309.398 135.553 315.853 141.321C316.6 143.279 317.336 145.306 318.063 147.293C320.795 154.866 323.415 162.48 325.923 170.137C327.109 173.813 328.281 177.488 329.441 181.163C330.678 185.128 331.651 189.309 333.262 193.128C333.41 193.5 334.068 193.412 333.989 192.981C333.096 189.172 332.007 185.41 330.728 181.711Z" fill="#263238"/>
<path d="M316.02 108.597C314.45 111.009 313.365 113.703 312.827 116.528C312.827 116.597 312.935 116.646 312.954 116.528C313.947 113.867 315.105 111.27 316.423 108.754C316.511 108.528 316.177 108.372 316.02 108.597Z" fill="#263238"/>
<path d="M300.212 126.995C297.744 125.639 295.052 124.737 292.263 124.332C292.185 124.332 292.145 124.43 292.214 124.459C293.501 124.988 294.837 125.36 296.144 125.85C297.451 126.339 298.708 126.956 300.025 127.407C300.052 127.419 300.081 127.426 300.111 127.427C300.141 127.428 300.17 127.423 300.198 127.412C300.226 127.402 300.251 127.386 300.273 127.366C300.295 127.345 300.312 127.321 300.325 127.294C300.337 127.267 300.344 127.238 300.345 127.208C300.346 127.179 300.341 127.149 300.33 127.121C300.32 127.094 300.304 127.068 300.283 127.047C300.263 127.025 300.239 127.008 300.212 126.995Z" fill="#263238"/>
<path d="M295.761 104.837C294.962 104.227 294.103 103.699 293.197 103.26C293.167 103.249 293.135 103.247 293.104 103.257C293.074 103.267 293.048 103.286 293.031 103.313C293.013 103.339 293.006 103.371 293.009 103.403C293.013 103.434 293.027 103.463 293.05 103.486C293.838 104.106 294.683 104.65 295.575 105.111C295.742 105.238 295.879 104.964 295.761 104.837Z" fill="#263238"/>
<path d="M356.046 146.324C349.67 148.214 343.274 149.957 336.868 151.827C336.318 151.993 325.53 131.382 329.421 120.768C333.027 110.976 341.279 103.593 351.124 100.254C355.673 98.7171 361.283 97.4148 366.097 98.4723C370.371 99.4515 373.397 102.908 374.792 106.922C376.688 112.376 376.049 118.878 375.018 124.45C374.201 129.679 372.038 134.608 368.74 138.755C365.35 142.77 361.027 144.855 356.046 146.324Z" fill="#5CAD2F"/>
<path d="M365.301 126.741C361.265 128.701 357.08 130.338 352.784 131.637C349.921 132.403 347.127 133.409 344.433 134.643C347.125 128.66 350.092 122.795 353.226 117.018C357.353 115.823 361.685 113.972 364.8 111.064C364.818 111.049 364.833 111.03 364.843 111.009C364.854 110.988 364.861 110.965 364.862 110.941C364.864 110.917 364.861 110.894 364.854 110.871C364.847 110.849 364.835 110.828 364.819 110.81C364.804 110.792 364.785 110.777 364.764 110.766C364.743 110.756 364.719 110.749 364.696 110.747C364.672 110.745 364.648 110.748 364.626 110.756C364.603 110.763 364.582 110.775 364.564 110.79C361.165 113.189 357.411 114.628 353.649 116.244C354.503 114.687 355.358 113.121 356.233 111.564C356.468 111.133 355.869 110.702 355.584 111.123C352.227 115.976 349.198 121.047 346.516 126.3C345.825 121.7 345.604 117.041 345.858 112.396C345.851 112.376 345.839 112.359 345.822 112.347C345.805 112.335 345.785 112.329 345.764 112.329C345.744 112.329 345.723 112.335 345.707 112.347C345.69 112.359 345.677 112.376 345.671 112.396C344.873 117.464 344.926 122.63 345.828 127.681C343.588 132.136 341.544 136.699 339.717 141.311C338.99 138.54 338.047 135.808 337.408 133.007C336.444 129.003 336.135 124.87 336.495 120.768C336.488 120.748 336.476 120.731 336.459 120.719C336.442 120.707 336.422 120.701 336.401 120.701C336.381 120.701 336.36 120.707 336.344 120.719C336.327 120.731 336.314 120.748 336.308 120.768C335.171 128.379 336.097 136.154 338.99 143.289C337.919 146.069 336.907 148.86 335.974 151.651C331.165 165.916 328.316 180.764 327.505 195.791C327.505 195.862 327.533 195.929 327.583 195.978C327.632 196.028 327.7 196.056 327.77 196.056C327.84 196.056 327.908 196.028 327.958 195.978C328.007 195.929 328.035 195.862 328.035 195.791C329.711 180.966 332.901 166.349 337.556 152.17C339.403 146.628 341.535 141.242 343.873 135.955C347.636 134.848 351.399 133.34 355.103 132.038C358.807 130.736 362.412 129.345 365.448 126.976C365.566 126.868 365.438 126.672 365.301 126.741Z" fill="#263238"/>
<path d="M371.255 120.758C367.325 122.139 363.65 124.077 359.75 125.478C359.573 125.546 359.671 125.83 359.858 125.801C363.984 124.949 368.081 123.676 371.402 120.983C371.53 120.876 371.392 120.709 371.255 120.758Z" fill="#263238"/>
<path d="M339.383 112.367C339.432 112.161 339.127 112.043 339.059 112.249C337.988 115.833 337.251 119.642 338.292 123.304C338.292 123.451 338.558 123.461 338.567 123.304C338.754 119.593 338.548 115.999 339.383 112.367Z" fill="#263238"/>
<path d="M355.505 104.083C354.259 105.86 353.662 108.01 353.816 110.173C353.816 110.31 354.042 110.398 354.081 110.232C354.552 108.186 355.348 106.315 355.977 104.357C356.013 104.295 356.024 104.22 356.005 104.151C355.987 104.081 355.941 104.021 355.879 103.985C355.816 103.949 355.742 103.938 355.672 103.957C355.602 103.975 355.542 104.021 355.505 104.083Z" fill="#263238"/>
<path d="M280.159 155.411C282.036 161.335 286.476 169.511 293.521 169.579C298.08 169.579 302.678 169.08 307.276 169.021C312.188 168.943 317.1 168.953 322.013 169.246C322.416 169.246 321.423 154.627 309.653 147.489C306.352 145.531 302.314 144.865 298.571 144.052C294.285 143.043 289.887 142.586 285.484 142.691C282.782 142.799 280.572 143.377 279.589 146.138C278.607 148.899 279.236 152.601 280.159 155.411Z" fill="#5CAD2F"/>
<path d="M285.199 148.008C288.058 148.743 290.947 149.585 293.816 150.495C293.068 149.684 292.278 148.912 291.448 148.185C290.21 147.205 288.854 146.344 287.518 145.453C287.41 145.374 287.518 145.169 287.616 145.218C290.402 146.374 292.808 148.283 294.562 150.73C298.139 151.876 301.685 153.149 305.104 154.549C307.458 155.513 309.715 156.696 311.844 158.084C311.162 156.604 310.346 155.188 309.408 153.854C307.846 151.837 305.723 150.711 303.68 149.281C303.648 149.252 303.627 149.213 303.621 149.171C303.615 149.129 303.623 149.086 303.645 149.049C303.667 149.012 303.701 148.984 303.741 148.969C303.782 148.954 303.826 148.954 303.867 148.968C306.006 149.894 307.927 151.254 309.509 152.962C311.091 154.67 312.298 156.688 313.053 158.887C315.506 160.641 317.748 162.671 319.734 164.938C327.525 173.751 333.655 185.501 333.675 197.466C333.675 197.75 333.223 197.828 333.164 197.534C331.163 185.795 326.032 174.807 318.309 165.721C317.749 165.075 317.179 164.458 316.59 163.861C314.456 163.572 312.307 163.415 310.154 163.391C307.649 163.391 305.163 163.753 302.668 163.959C298.551 164.292 294.012 164.341 290.299 162.275C290.141 162.187 290.249 161.903 290.436 161.971C298.699 164.967 307.364 161.158 315.656 162.95C312.114 159.595 307.967 156.937 303.434 155.117L302.678 154.813C297.372 155.45 291.772 156.821 286.604 155.107C286.576 155.096 286.553 155.075 286.539 155.047C286.525 155.02 286.521 154.989 286.528 154.96C286.535 154.93 286.553 154.904 286.578 154.886C286.602 154.868 286.633 154.86 286.663 154.862C291.664 156.106 296.488 154.539 301.401 154.295C296.036 152.209 290.593 150.554 285.19 148.488C284.718 148.292 284.708 147.92 285.199 148.008Z" fill="#263238"/>
<path d="M282.851 153.217C285.413 153.547 287.991 153.739 290.574 153.795C290.633 153.795 290.652 153.893 290.574 153.903C287.976 154.378 285.3 154.21 282.783 153.413C282.77 153.409 282.758 153.402 282.748 153.393C282.737 153.384 282.729 153.373 282.723 153.36C282.717 153.348 282.714 153.335 282.713 153.321C282.712 153.308 282.714 153.294 282.719 153.281C282.723 153.268 282.73 153.256 282.739 153.246C282.748 153.236 282.76 153.228 282.772 153.222C282.784 153.216 282.798 153.212 282.811 153.212C282.825 153.211 282.838 153.213 282.851 153.217Z" fill="#263238"/>
<path d="M300.3 148.136C301.728 148.776 303.024 149.676 304.122 150.789C304.25 150.907 304.073 151.142 303.925 151.034C303.277 150.564 302.609 150.123 301.96 149.692C301.315 149.339 300.691 148.946 300.094 148.517C299.897 148.371 300.084 148.067 300.3 148.136Z" fill="#263238"/>
<path d="M341.879 167.19C341.79 167.386 342.075 167.572 342.183 167.366C342.205 167.397 342.233 167.424 342.265 167.444C342.297 167.464 342.332 167.478 342.37 167.484C347.121 168.611 351.938 169.442 356.793 169.971C360.722 170.323 365.173 170.539 368.582 168.287C373.2 165.232 376.236 157.075 373.74 151.886C370.793 145.727 361.882 149.076 357.421 151.259C350.531 154.595 345.031 160.232 341.879 167.19Z" fill="#5CAD2F"/>
<path d="M338.42 170.039C341.02 167.538 343.905 165.35 347.017 163.518C349.256 159.997 352.224 156.992 355.722 154.706C355.898 154.588 356.036 154.853 355.889 154.97C353.106 157.176 350.634 159.745 348.54 162.608C352.018 160.716 355.63 159.079 359.347 157.712C360.675 155.266 362.69 153.259 365.143 151.935C365.143 151.935 365.252 151.935 365.202 152.013C363.176 153.542 361.411 155.387 359.976 157.477C362.157 156.664 364.377 155.91 366.588 155.176C366.784 155.117 366.853 155.411 366.666 155.489C362.736 157.017 358.708 158.632 354.808 160.502C359.568 161.24 364.416 161.223 369.172 160.453C369.299 160.453 369.358 160.62 369.231 160.659C364.267 162.118 358.997 162.196 353.992 160.884C351.507 162.092 349.093 163.439 346.761 164.918C348.723 164.762 350.697 164.924 352.607 165.398C355.973 166.179 359.418 166.566 362.874 166.554C362.905 166.554 362.935 166.566 362.957 166.588C362.979 166.61 362.992 166.64 362.992 166.671C362.992 166.702 362.979 166.732 362.957 166.754C362.935 166.776 362.905 166.789 362.874 166.789C356.92 167.768 351.291 165.114 345.386 165.809C343.197 167.297 341.143 168.971 339.245 170.813C335.559 174.493 332.523 178.766 330.266 183.454C327.78 188.497 326.434 193.833 324.43 199.042C324.417 199.09 324.385 199.131 324.342 199.156C324.298 199.181 324.247 199.187 324.199 199.175C324.151 199.162 324.109 199.13 324.085 199.087C324.06 199.044 324.053 198.992 324.066 198.944C325.795 188.683 330.924 177.354 338.42 170.039Z" fill="#263238"/>
<path d="M356.38 155.959C356.773 155.259 357.289 154.636 357.903 154.118C358.403 153.577 358.999 153.132 359.661 152.806C359.674 152.802 359.688 152.803 359.7 152.807C359.712 152.812 359.723 152.821 359.73 152.832C359.736 152.843 359.739 152.857 359.737 152.87C359.736 152.883 359.73 152.895 359.72 152.904C359.229 153.462 358.551 153.883 358.031 154.392C357.51 154.902 357.048 155.548 356.518 156.067C356.449 156.145 356.341 156.047 356.38 155.959Z" fill="#263238"/>
<path d="M366.205 159.151C367.079 158.926 368.023 158.946 368.917 158.759C369.811 158.573 370.665 158.25 371.55 157.976C371.574 157.972 371.599 157.976 371.621 157.988C371.643 158 371.66 158.019 371.669 158.042C371.678 158.065 371.679 158.091 371.672 158.114C371.664 158.138 371.649 158.158 371.628 158.172C370.006 159.167 368.101 159.608 366.205 159.425C366.168 159.425 366.133 159.411 366.108 159.385C366.082 159.359 366.067 159.325 366.067 159.288C366.067 159.252 366.082 159.217 366.108 159.191C366.133 159.166 366.168 159.151 366.205 159.151Z" fill="#263238"/>
<path d="M313.888 186.294L314.674 195.135L317.326 225H340.788L344.109 195.135L345.081 186.294H313.888Z" fill="#37474F"/>
<path d="M313.888 186.294L314.674 195.135H344.109L345.081 186.294H313.888Z" fill="#263238"/>
<path d="M311.559 191.052H347.4V183.875H311.559V191.052Z" fill="#37474F"/>
</g>
<defs>
<clipPath id="clip0_16_2">
<rect width="266" height="227" fill="white"/>
</clipPath>
<clipPath id="clip1_16_2">
<rect width="97" height="133" fill="white" transform="translate(279 92)"/>
</clipPath>
</defs>
</svg>
