<svg width="79" height="114" viewBox="0 0 79 114" fill="none" xmlns="http://www.w3.org/2000/svg">
<g clip-path="url(#clip0_2_6979)">
<path d="M60.9919 78.685H19.2593V84.4607H60.9919V78.685Z" fill="#263238"/>
<path d="M61.0656 84.5348H19.1919V78.6171H61.0656V84.5348ZM19.3575 84.3927H60.9491V78.7591H19.333L19.3575 84.3927Z" fill="#263238"/>
<path d="M23.1294 82.5396L29.1403 112.388H51.3682L57.1705 84.4607L23.1294 82.5396Z" fill="#263238"/>
<path d="M23.1294 109.565L26.3372 114H53.3493L57.1705 109.565H23.1294Z" fill="#455A64"/>
<path d="M38.5617 83.4167C38.482 83.4167 38.3777 69.586 38.3286 52.5308C38.2796 35.4756 38.3286 21.6448 38.39 21.6448C38.4513 21.6448 38.5801 35.4694 38.623 52.5308C38.666 69.5922 38.6476 83.4105 38.5617 83.4167Z" fill="#263238"/>
<path d="M47.8599 48.8121C47.8324 48.9222 47.7954 49.0297 47.7495 49.1333L47.3753 50.029C47.2895 50.2267 47.1975 50.4367 47.0993 50.6468L46.8233 51.4313C46.7252 51.7154 46.6148 52.0181 46.5044 52.3331C46.394 52.6482 46.302 53.0003 46.1916 53.3586C45.6976 55.0478 45.3083 56.7663 45.0262 58.5041C44.7114 60.6376 44.5067 62.786 44.4128 64.9408C44.2614 68.8559 44.37 72.7769 44.7379 76.6774C44.8728 78.1785 45.0078 79.3892 45.1121 80.2293C45.155 80.6185 45.1856 80.9397 45.2163 81.193C45.2312 81.3057 45.2312 81.42 45.2163 81.5327C45.1844 81.4254 45.1599 81.316 45.1427 81.2053C45.0998 80.952 45.0507 80.6308 44.9833 80.2417C44.8483 79.4077 44.6827 78.197 44.5171 76.696C44.0832 72.7835 43.9438 68.8435 44.1 64.9099C44.2073 62.7432 44.4325 60.5842 44.7747 58.4424C45.0674 56.6951 45.4772 54.9698 46.0014 53.2782C46.1179 52.92 46.21 52.574 46.3326 52.2528C46.4553 51.9316 46.5657 51.6351 46.6761 51.3571L46.9767 50.5726C47.0809 50.3379 47.1852 50.1279 47.2772 49.9549L47.7004 49.0839C47.7418 48.9868 47.7954 48.8955 47.8599 48.8121Z" fill="#263238"/>
<path d="M46.7927 37.6252C46.7589 37.7807 46.7138 37.9335 46.6578 38.0823L46.2223 39.3672C46.1303 39.6513 46.0199 39.9849 45.9034 40.2938C45.7868 40.6026 45.6887 41.0103 45.5722 41.4118C45.3268 42.2149 45.0447 43.1229 44.7932 44.1422L44.37 45.7421C44.2473 46.3042 44.1185 46.8848 43.9836 47.4902C43.6892 48.6948 43.4806 50.0043 43.2107 51.3695C42.7507 54.1122 42.3459 57.1513 42.0638 60.3511C41.7816 63.5509 41.6896 66.621 41.6467 69.4069C41.6038 72.1928 41.6467 74.7007 41.7877 76.8195C41.8246 77.8758 41.892 78.8271 41.9472 79.661C42.0024 80.4949 42.0454 81.2177 42.1006 81.8045C42.1558 82.3913 42.1742 82.8175 42.1987 83.1573C42.215 83.3154 42.215 83.4748 42.1987 83.6329C42.1589 83.4792 42.1343 83.322 42.1251 83.1635C42.0822 82.8299 42.0331 82.379 41.9656 81.8168C41.8982 81.2547 41.8246 80.5073 41.7632 79.6733C41.7019 78.8394 41.6099 77.8882 41.5608 76.8319C41.4197 74.7254 41.3645 72.2113 41.3523 69.4192C41.34 66.6271 41.4872 63.5509 41.7509 60.3388C42.0147 57.1266 42.444 54.0813 42.9225 51.3324C43.1985 49.9611 43.4193 48.6515 43.7198 47.447C43.8609 46.8292 44.002 46.2609 44.1308 45.6988L44.5724 44.0989C44.8361 43.0797 45.1305 42.1716 45.3943 41.3748C45.5231 40.9794 45.6396 40.6088 45.75 40.2629L46.0996 39.3425L46.5842 38.0762C46.6409 37.9202 46.7107 37.7694 46.7927 37.6252Z" fill="#263238"/>
<path d="M35.9241 85.8629C35.9175 85.8075 35.9175 85.7515 35.9241 85.6961C35.9241 85.5726 35.9241 85.4181 35.8812 85.2205C35.8812 84.7819 35.8137 84.1703 35.7585 83.3673C35.6604 81.7551 35.5193 79.4571 35.3414 76.6342C34.9796 70.945 34.4582 63.0876 33.5014 54.4519C33.0168 50.1279 32.4525 46.0324 31.8698 42.3137C31.557 40.4606 31.2565 38.6877 30.9559 37.0446C30.6554 35.4014 30.3426 33.8695 30.0543 32.4796C29.766 31.0898 29.4716 29.8296 29.2263 28.7239C28.981 27.6182 28.7479 26.6731 28.5577 25.9009L28.1222 24.1219C28.0793 23.9304 28.0425 23.776 28.018 23.6586C28.004 23.6038 27.9937 23.5481 27.9873 23.4918C28.0124 23.5413 28.033 23.593 28.0486 23.6463C28.0793 23.7698 28.1222 23.918 28.1774 24.1034L28.6681 25.8762C28.8828 26.6422 29.1281 27.5873 29.3858 28.6868C29.6434 29.7864 29.9684 31.0342 30.2567 32.4302C30.545 33.8263 30.8701 35.352 31.1952 37.0013C31.5202 38.6506 31.8085 40.4111 32.1397 42.2705C32.7531 45.9768 33.3112 50.097 33.7958 54.421C34.7465 63.069 35.2372 70.9264 35.5438 76.6218C35.6972 79.4633 35.8076 81.7674 35.8689 83.3611C35.8996 84.1394 35.9241 84.751 35.9364 85.2143V85.6899C35.9392 85.7479 35.9351 85.8059 35.9241 85.8629Z" fill="#263238"/>
<path d="M38.2241 28.2977C38.0401 26.3396 36.0774 24.857 34.1208 24.8385C33.1424 24.8829 32.1867 25.1507 31.3261 25.6215C30.4654 26.0924 29.7222 26.754 29.1527 27.5565C28.0276 29.1718 27.216 30.9869 26.7606 32.9059C25.4419 37.5203 24.7242 42.3694 25.2885 47.1134C25.8528 51.8575 27.7726 56.5707 31.1706 59.9435C31.7226 60.487 32.4341 61.0368 33.1947 60.8762C33.6019 60.7509 33.9697 60.521 34.2619 60.2091C37.5915 57.1485 40.2325 53.406 42.0077 49.2327C43.7828 45.0595 44.651 40.552 44.554 36.013C44.5049 34.2031 44.2657 32.3067 43.2721 30.8057C42.2784 29.3046 39.9477 27.7171 38.2548 28.2977" fill="#5CAD2F"/>
<path d="M23.6326 12.6076L20.8848 17.6235C20.8173 17.7409 20.7376 17.8706 20.6027 17.8829C20.4677 17.8953 20.3512 17.7594 20.2715 17.6359L12.9971 6.39337L14.6715 5.43591L23.6326 12.6076Z" fill="#5CAD2F"/>
<g opacity="0.2">
<path opacity="0.2" d="M23.6326 12.6076L20.8848 17.6235C20.8173 17.7409 20.7376 17.8706 20.6027 17.8829C20.4677 17.8953 20.3512 17.7594 20.2715 17.6359L12.9971 6.39337L14.6715 5.43591L23.6326 12.6076Z" fill="black"/>
</g>
<path d="M38.4203 21.651L13.5794 6.9061C13.3047 6.78577 13.0856 6.56503 12.9661 6.28838C12.8679 5.91775 13.144 5.56565 13.4077 5.28768C15.1135 3.50453 17.1812 2.11295 19.4697 1.20788C21.7582 0.302821 24.2136 -0.0944387 26.6684 0.0432336C29.121 0.220316 31.4939 0.996211 33.5821 2.30386C35.6702 3.61151 37.4108 5.41159 38.6533 7.54853C41.0516 11.8726 41.1068 17.5556 38.3835 21.651" fill="#5CAD2F"/>
<path d="M17.1553 2.19912C17.2612 2.17012 17.3706 2.15557 17.4804 2.15587C17.695 2.15587 18.0079 2.10645 18.4188 2.11263C19.5717 2.09364 20.7238 2.18465 21.8597 2.38442C25.6435 3.02676 29.1659 4.74587 32.0112 7.33882C34.8564 9.93178 36.9058 13.2904 37.9173 17.0182C38.2284 18.139 38.4338 19.2868 38.5307 20.4465C38.558 20.6865 38.5723 20.9277 38.5736 21.1693C38.5514 21.3654 38.4842 21.5536 38.3773 21.719C38.4545 21.3119 38.469 20.8952 38.4203 20.4836C38.276 19.34 38.0402 18.21 37.7149 17.1047C36.6779 13.434 34.6386 10.1303 31.8291 7.56943C29.0195 5.00856 25.5526 3.2934 21.8229 2.61916C20.6977 2.40457 19.5574 2.28063 18.4127 2.24853C17.603 2.21146 17.1553 2.22383 17.1553 2.19912Z" fill="#263238"/>
<path d="M35.0285 11.471C34.6429 11.7095 34.2313 11.9023 33.8017 12.0455C33.0105 12.3605 31.9065 12.762 30.6675 13.1574C29.4285 13.5527 28.3 13.8678 27.4781 14.0716C27.0366 14.2059 26.5822 14.2929 26.1226 14.331C26.5387 14.1298 26.9745 13.9724 27.4229 13.8616L30.5816 12.8732L33.7281 11.8478C34.1482 11.6794 34.5838 11.5532 35.0285 11.471Z" fill="#263238"/>
<path d="M31.1215 0.901855C31.464 2.73542 31.5117 4.61253 31.2626 6.46132C31.1429 5.5358 31.0957 4.60222 31.1215 3.66924C31.0526 2.74809 31.0526 1.82301 31.1215 0.901855Z" fill="#263238"/>
<path d="M13.3589 6.63427C13.9422 6.37916 14.5453 6.17256 15.1621 6.01655C16.2907 5.66445 17.8609 5.22587 19.6089 4.78112C21.357 4.33636 22.9579 4.02751 24.1232 3.82366C24.7449 3.68582 25.3767 3.59904 26.0124 3.56421C25.4117 3.7673 24.7966 3.92425 24.1723 4.03368C23.0253 4.28695 21.4368 4.6514 19.6948 5.07144C17.9529 5.49149 16.3705 5.90536 15.2357 6.20186C14.6218 6.39342 13.9944 6.53798 13.3589 6.63427Z" fill="#263238"/>
<path d="M27.9259 24.0478C25.7914 22.417 23.5343 22.0958 20.8539 22.1946C18.1759 22.3757 15.5549 23.0586 13.1257 24.2084C8.93648 26.0615 5.00488 28.7733 2.50853 32.6217C0.012176 36.4701 -0.83426 41.5724 1.0058 45.7729C1.15202 46.212 1.45618 46.58 1.85837 46.8045C2.322 46.939 2.81813 46.9018 3.25682 46.6995C8.01645 45.1367 12.8067 43.5553 17.1799 41.1092C21.5532 38.663 25.54 35.2594 27.8891 30.8056C28.4951 29.7553 28.8793 28.5902 29.0177 27.3835C29.0827 26.7812 29.0188 26.1719 28.8305 25.5965C28.6422 25.0212 28.3338 24.4931 27.9259 24.0478Z" fill="#5CAD2F"/>
<path d="M27.9936 23.5413C27.8872 23.6021 27.7739 23.6498 27.6562 23.6833L26.6564 24.0231L25.9327 24.2702C25.6751 24.3628 25.3929 24.4802 25.0924 24.5976C24.479 24.8446 23.7921 25.0917 23.0561 25.45L21.8846 25.9874C21.4859 26.1727 21.0811 26.4013 20.6578 26.6051C19.793 27.0314 18.9221 27.575 17.9959 28.1309C14.0036 30.6184 10.4541 33.763 7.49525 37.4337C6.83283 38.2924 6.18267 39.0892 5.65519 39.9046C5.38531 40.3061 5.10317 40.6768 4.87009 41.0598C4.63702 41.4428 4.41009 41.8072 4.18928 42.1531C3.74153 42.845 3.41032 43.5121 3.09751 44.0804C2.93804 44.3707 2.79084 44.6364 2.66203 44.8835L2.33082 45.5753L1.86466 46.5266C1.81805 46.6415 1.75616 46.7496 1.68066 46.8478C1.71465 46.7293 1.75771 46.6137 1.80946 46.5019L2.22654 45.5259L2.53322 44.8217C2.65589 44.5684 2.79697 44.2966 2.95031 44.0063C3.25085 43.4256 3.56365 42.7708 4.0114 42.0481C4.21994 41.6898 4.44689 41.3192 4.67384 40.9362C4.90078 40.5532 5.18291 40.1703 5.45279 39.7626C5.97414 38.9472 6.61816 38.1318 7.29285 37.2917C8.79104 35.4506 10.4318 33.7321 12.1997 32.1523C13.9792 30.5942 15.8806 29.1833 17.8855 27.9332C18.8239 27.3835 19.7255 26.8399 20.5781 26.4198C21.0136 26.2036 21.4245 25.9813 21.8048 25.8021L22.9886 25.2832C23.7369 24.9311 24.4422 24.6964 25.0495 24.4678C25.3561 24.3566 25.6628 24.2455 25.9081 24.159L26.638 23.9428L27.6562 23.6463C27.7645 23.5989 27.8776 23.5636 27.9936 23.5413Z" fill="#263238"/>
<path d="M11.2919 32.6341C9.59458 33.2907 7.86225 33.8516 6.10297 34.3143C4.37029 34.8744 2.60958 35.3425 0.828125 35.7165C2.52591 35.0594 4.25817 34.4964 6.01711 34.0301C7.74881 33.4683 9.50971 33.0023 11.2919 32.6341Z" fill="#263238"/>
<path d="M11.0834 44.1669C10.9874 43.6311 10.9483 43.0865 10.9668 42.5423C10.9362 41.5354 10.9362 40.1394 10.9668 38.6013C10.9975 37.0631 11.0895 35.6795 11.1754 34.6726C11.187 34.1275 11.2548 33.5851 11.3778 33.0541C11.427 33.5966 11.427 34.1425 11.3778 34.6849C11.341 35.7906 11.3042 37.1558 11.2551 38.6136C11.2061 40.0714 11.1877 41.4366 11.157 42.5423C11.176 43.085 11.1514 43.6283 11.0834 44.1669Z" fill="#263238"/>
<path d="M20.891 39.1325C20.8113 39.1325 20.5475 36.3095 20.3083 32.8194C20.0691 29.3293 19.9403 26.4816 20.0262 26.4754C20.112 26.4692 20.3696 29.2984 20.6089 32.7947C20.8481 36.291 20.9769 39.1263 20.891 39.1325Z" fill="#263238"/>
<path d="M8.6792 26.2036C9.23065 26.1366 9.78697 26.1201 10.3414 26.1542C11.3657 26.1542 12.7948 26.1912 14.3466 26.2407C15.8984 26.2901 17.3275 26.358 18.3518 26.4198C18.9075 26.4225 19.4618 26.4762 20.0078 26.5804C19.4564 26.6478 18.9 26.6643 18.3456 26.6298C17.3213 26.6298 15.8922 26.5928 14.3404 26.5434C12.7887 26.4939 11.3595 26.426 10.3352 26.3642C9.77952 26.3616 9.22521 26.3078 8.6792 26.2036Z" fill="#263238"/>
<path d="M32.2318 60.6229C32.2075 60.5134 32.1952 60.4016 32.195 60.2894C32.195 60.0361 32.195 59.7211 32.152 59.3257C32.1152 58.4918 32.1091 57.2811 32.152 55.7862C32.195 54.2913 32.2808 52.5185 32.4587 50.5479C32.6366 48.5774 32.931 46.4216 33.3297 44.1731C33.7283 41.9246 34.2374 39.8058 34.7404 37.8971C35.2433 35.9883 35.7953 34.2834 36.2922 32.8688C36.789 31.4543 37.2183 30.3238 37.5189 29.5579L37.8991 28.6684C37.9379 28.5627 37.9872 28.4612 38.0464 28.3657C38.0293 28.4782 37.9984 28.5882 37.9543 28.6931C37.8685 28.9278 37.7581 29.2243 37.6293 29.5949C37.3349 30.3794 36.9362 31.5222 36.4639 32.9368C35.9916 34.3514 35.4887 36.0563 34.9857 37.965C34.4828 39.8738 34.0105 41.9864 33.5995 44.2287C33.1886 46.471 32.9003 48.6392 32.7163 50.5727C32.5323 52.5061 32.4035 54.279 32.3483 55.7986C32.2931 57.3181 32.287 58.5227 32.287 59.3257C32.287 59.7149 32.287 60.0361 32.287 60.2894C32.2831 60.4025 32.2645 60.5146 32.2318 60.6229Z" fill="#263238"/>
<path d="M33.5442 44.2595C33.2522 44.6601 32.9191 45.0286 32.5506 45.3591C31.9066 45.9768 30.9988 46.8663 29.9561 47.7867C28.9134 48.7071 27.9443 49.4978 27.2267 50.0599C26.8516 50.3869 26.4399 50.6689 26 50.9C26.3278 50.5333 26.6869 50.1964 27.0734 49.8931L29.7415 47.5581L32.3912 45.2046C32.7456 44.8543 33.1316 44.5379 33.5442 44.2595Z" fill="#263238"/>
<path d="M41.3954 50.6344C41.0051 50.1737 40.6523 49.682 40.3404 49.1642C39.6657 48.1635 38.8193 46.9281 37.887 45.5568L35.3845 41.9925C35.0118 41.5178 34.6775 41.0138 34.3848 40.4853C34.815 40.9086 35.207 41.3696 35.5563 41.8628C36.2432 42.7461 37.1632 43.9878 38.1323 45.39C39.1014 46.7922 39.9356 48.0956 40.5183 49.0469C40.8605 49.5465 41.1542 50.0782 41.3954 50.6344Z" fill="#263238"/>
<path d="M37.2796 30.5956C37.3225 30.6636 34.7157 32.4488 31.4527 34.549C28.1896 36.6493 25.5093 38.3171 25.4663 38.2553C25.4234 38.1935 28.0302 36.4022 31.2932 34.3081C34.5563 32.214 37.2366 30.5277 37.2796 30.5956Z" fill="#263238"/>
<path d="M44.6399 38.595C41.9408 36.2204 39.375 33.6962 36.9546 31.0342C39.6538 33.4087 42.2196 35.9329 44.6399 38.595Z" fill="#263238"/>
<path d="M46.4863 38.4345L48.7251 38.243C50.3155 38.1122 51.8593 37.6381 53.2516 36.8531C53.9293 36.4517 54.632 36.0947 55.3554 35.7845C58.1278 34.6664 61.213 34.8641 64.1939 34.7158C69.0852 34.4703 73.878 33.2394 78.2887 31.096C78.5458 30.9767 78.76 30.7804 78.9021 30.5339C79.3682 29.6876 78.5095 28.9401 77.7735 28.483C74.0014 26.1419 70.1618 23.7698 65.8806 22.6085C61.5994 21.4472 56.7477 21.6387 53.0983 24.1714C48.8048 27.1426 47.2469 33.2457 46.5231 38.4345" fill="#5CAD2F"/>
<path d="M78.9017 30.2558C78.768 30.2123 78.6403 30.1521 78.5214 30.0767L77.4603 29.5207C76.5403 29.0328 75.2154 28.2853 73.541 27.5008C71.5886 26.5402 69.5568 25.7527 67.4688 25.1473C64.9142 24.4188 62.2414 24.2088 59.6056 24.5296C56.9636 24.8248 54.4671 25.8993 52.4293 27.6182C50.8428 29.1052 49.5739 30.9023 48.7001 32.8997C48.0879 34.2417 47.5453 35.6149 47.0747 37.0137L46.6761 38.1503C46.6395 38.2863 46.5859 38.4171 46.5166 38.5394C46.5401 38.4009 46.575 38.2645 46.6209 38.1317C46.7067 37.8414 46.8233 37.4584 46.9643 36.9766C47.396 35.5588 47.9122 34.1685 48.51 32.8132C49.3681 30.7696 50.6427 28.9303 52.2514 27.4143C54.3173 25.6387 56.8637 24.5264 59.5626 24.2207C62.2384 23.9018 64.9506 24.1308 67.5362 24.894C69.6371 25.5131 71.6761 26.3279 73.6268 27.3279C75.2952 28.1618 76.6016 28.9092 77.5094 29.4281L78.5459 30.0458C78.6699 30.1061 78.7889 30.1764 78.9017 30.2558Z" fill="#263238"/>
<path d="M73.5414 33.1962C73.4923 33.2642 70.5666 31.3431 66.9969 28.934C63.4272 26.5249 60.5751 24.4925 60.6242 24.4246C60.6732 24.3567 63.5989 26.2778 67.1625 28.6869C70.7261 31.096 73.5843 33.0974 73.5414 33.1962Z" fill="#263238"/>
<path d="M70.4132 24.2393C69.7282 24.48 69.0101 24.6113 68.2848 24.6284C67.5616 24.7289 66.8275 24.7185 66.1074 24.5976C66.818 24.4655 67.5379 24.3911 68.2603 24.3752C68.9738 24.2781 69.6932 24.2326 70.4132 24.2393Z" fill="#263238"/>
<path d="M57.594 22.5591C57.3519 23.1084 57.0271 23.6168 56.631 24.0663C56.2887 24.587 55.8758 25.0569 55.4043 25.4624C55.6416 24.9086 55.9669 24.3975 56.3673 23.9489C56.7042 23.426 57.1178 22.9574 57.594 22.5591Z" fill="#263238"/>
<path d="M60.219 34.9073C59.7244 34.6979 59.2518 34.4392 58.8082 34.1351C57.9618 33.6162 56.821 32.8626 55.5943 31.967C54.3676 31.0713 53.3003 30.225 52.5275 29.6073C52.0855 29.2984 51.6747 28.9466 51.3008 28.5571C51.7744 28.8096 52.224 29.1053 52.644 29.4405L55.766 31.726C56.9927 32.6155 58.1029 33.3939 58.9186 33.956C59.3764 34.2379 59.8112 34.556 60.219 34.9073Z" fill="#263238"/>
<path d="M49.786 48.0215C47.6516 47.4532 45.1 49.5472 44.6645 51.7278C44.229 53.9083 45.0325 56.1383 45.9832 58.1459C48.0168 62.6472 51.0365 66.626 54.8155 69.7837C58.6237 72.9386 63.3791 74.704 68.3093 74.7934C67.4016 70.5682 68.5485 66.1453 68.0394 61.8645C67.5952 58.0835 65.8909 54.5659 63.2048 51.8866C60.5188 49.2072 57.0099 47.5245 53.2515 47.1134C51.8898 46.9652 50.3135 46.7551 49.7676 48.0215" fill="#5CAD2F"/>
<path d="M68.3278 74.7872C68.2217 74.749 68.119 74.7015 68.0212 74.6451C67.7397 74.4884 67.4728 74.3065 67.2238 74.1015C66.3271 73.3194 65.6075 72.3525 65.1138 71.2662C64.7704 70.5991 64.3901 69.8763 64.0221 69.0733L62.869 66.516C62.4571 65.5744 61.9859 64.6604 61.4583 63.7795C60.8791 62.843 60.2291 61.9529 59.5139 61.1171C58.0542 59.3875 56.484 57.8926 55.1223 56.4595C53.8909 55.2118 52.7703 53.8579 51.7734 52.4134C51.1031 51.4316 50.5532 50.3718 50.1357 49.2569C50.0008 48.8554 49.9027 48.5465 49.8536 48.3303C49.816 48.2249 49.7932 48.1147 49.7861 48.0029C49.7861 48.0029 49.9333 48.4415 50.2461 49.2384C50.6991 50.3272 51.2688 51.3628 51.9451 52.327C52.9604 53.7412 54.0886 55.0696 55.3186 56.2989C56.6864 57.7135 58.2627 59.2083 59.7409 60.9565C60.4651 61.8039 61.1234 62.7064 61.7097 63.6559C62.2353 64.5508 62.7064 65.477 63.1204 66.4295C63.513 67.3375 63.8933 68.1961 64.2429 68.9992C64.5925 69.8022 64.9728 70.5249 65.2979 71.1983C65.7663 72.2739 66.4465 73.2427 67.2974 74.0459C67.923 74.5834 68.3401 74.7563 68.3278 74.7872Z" fill="#263238"/>
<path d="M57.2812 71.2785C57.2867 70.7883 57.3526 70.3007 57.4775 69.8269C57.6431 68.9436 57.9191 67.7267 58.2872 66.3986C58.6552 65.0705 59.0538 63.8968 59.3728 63.0505C59.5146 62.5824 59.7102 62.1326 59.9555 61.7101C59.868 62.1901 59.7387 62.6614 59.5691 63.1185C59.3053 63.9771 58.9557 65.1631 58.5754 66.4851C58.1951 67.807 57.9007 69.0053 57.6799 69.8763C57.5856 70.354 57.4522 70.823 57.2812 71.2785Z" fill="#263238"/>
<path d="M67.923 60.9071C67.4106 60.8385 66.9056 60.7227 66.4142 60.5611C65.4942 60.314 64.2245 59.9867 62.8077 59.6655C61.3908 59.3442 60.1089 59.091 59.1705 58.918C58.6584 58.8505 58.1535 58.7367 57.6616 58.5783C58.1799 58.5662 58.6981 58.6097 59.2073 58.708C60.1519 58.8315 61.4522 59.0477 62.8874 59.3689C64.3227 59.6902 65.58 60.0608 66.4878 60.3573C66.9846 60.4875 67.4659 60.6718 67.923 60.9071Z" fill="#263238"/>
<path d="M49.3506 63.9215C49.3749 63.3553 49.453 62.7926 49.5837 62.2413C49.7738 61.2159 50.0682 59.8075 50.4669 58.2632C50.8656 56.7189 51.2949 55.3414 51.6261 54.3531C51.781 53.8098 51.9864 53.2824 52.2395 52.7779C52.1487 53.3343 52.0112 53.8819 51.8285 54.4148C51.5464 55.4155 51.1538 56.7992 50.7552 58.3374C50.3565 59.8755 50.0314 61.2715 49.7861 62.2846C49.6865 62.8415 49.5408 63.3891 49.3506 63.9215Z" fill="#263238"/>
<path d="M63.0223 51.8699C63.0223 51.9502 60.342 51.7339 57.0666 51.3818C53.7913 51.0297 51.1294 50.6838 51.1416 50.6035C53.1336 50.6636 55.1214 50.8244 57.0973 51.0853C60.3788 51.4374 63.0284 51.7895 63.0223 51.8699Z" fill="#263238"/>
<path d="M61.0656 84.4669C61.0656 84.5472 51.6935 84.6151 40.1318 84.6151C28.5701 84.6151 19.1919 84.5472 19.1919 84.4669C19.1919 84.3866 28.564 84.3124 40.1318 84.3124C51.6997 84.3124 61.0656 84.3557 61.0656 84.4669Z" fill="#455A64"/>
<path d="M54.5453 96.5865C54.5453 96.673 48.2278 96.7409 40.4382 96.7409C32.6486 96.7409 26.3311 96.673 26.3311 96.5865C26.3311 96.5 32.6486 96.4382 40.4382 96.4382C48.2278 96.4382 54.5453 96.5062 54.5453 96.5865Z" fill="#455A64"/>
<path d="M54.3003 98.3285C54.3003 98.4088 48.0931 98.4768 40.4385 98.4768C32.7838 98.4768 26.5767 98.4088 26.5767 98.3285C26.5767 98.2482 32.7838 98.1741 40.4385 98.1741C48.0931 98.1741 54.3003 98.242 54.3003 98.3285Z" fill="#455A64"/>
<path d="M54.7908 95.1596C54.7908 95.2399 48.2586 95.3078 40.1991 95.3078C32.1396 95.3078 25.6074 95.2399 25.6074 95.1596C25.6074 95.0793 32.1396 95.0051 40.1991 95.0051C48.2586 95.0051 54.7908 95.0731 54.7908 95.1596Z" fill="#455A64"/>
</g>
<defs>
<clipPath id="clip0_2_6979">
<rect width="79" height="114" fill="white"/>
</clipPath>
</defs>
</svg>
