<svg width="90" height="79" viewBox="0 0 90 79" fill="none" xmlns="http://www.w3.org/2000/svg">
<g clip-path="url(#clip0_165_27407)">
<path d="M46.8192 45.1764H43.2721C43.2721 42.4854 43.2721 39.9544 43.2721 37.4176C43.3519 30.3843 43.4603 23.351 43.523 16.3178C43.563 11.747 42.8786 11.0043 38.3906 11.5699C30.9771 12.5183 23.5636 13.6553 16.1501 14.6952C15.3175 14.8151 14.4393 14.8437 13.561 14.9237C16.7774 6.35351 32.0378 -0.502644 46.2432 0.0344213C60.6653 0.605767 74.1237 7.34765 76.1311 14.5352C67.1778 13.5239 58.0022 12.484 48.8208 11.4956C48.3247 11.4442 47.7829 11.8613 46.7393 12.2612C45.9124 23.0482 46.9674 34.0123 46.8192 45.1764Z" fill="#0A0A26"/>
<path d="M34.4728 43.908C23.096 42.5424 8.29173 32.4296 11.9301 18.4316C19.5203 17.6546 27.3958 16.7176 35.3111 16.1177C38.2423 15.8949 39.3999 17.2604 38.9038 20.2142C37.5523 28.1217 35.9555 36.0062 34.4728 43.908Z" fill="#0A0A26"/>
<path d="M78.0872 18.3917C81.5773 32.3554 66.7331 42.4396 55.5501 43.8509C54.0332 35.9034 52.4194 27.9389 51.0336 19.9286C50.5831 17.329 51.8662 15.872 54.6605 16.0891C62.5588 16.6948 70.4285 17.6261 78.0872 18.3917Z" fill="#0A0A26"/>
<path d="M90.0001 79.0002H81.2978C79.8721 75.0921 78.3723 70.9671 76.5988 66.0992C74.9792 70.7271 73.5649 74.7551 72.105 78.9202H63.3628C66.2141 71.3499 68.9971 64.0309 71.8028 56.6377H81.4061L90.0001 79.0002Z" fill="#0A0A26"/>
<path d="M28.063 78.9315H19.355L27.7836 56.6147H37.3755C40.1584 63.8251 42.9984 71.2069 45.9809 78.8972H37.1873C35.8015 74.995 34.3359 70.8984 32.6251 66.0305C30.9657 70.8184 29.4887 74.9035 28.063 78.9315Z" fill="#0A0A26"/>
<path d="M14.4278 78.8343H7.07133C6.88314 78.6115 6.69495 78.3944 6.50106 78.1773V63.3337H0V56.689H21.579V63.1852H15.5684C15.5684 67.6017 15.6026 71.7554 15.5684 75.9033C15.4821 76.8831 15.3143 77.854 15.0665 78.8058L14.7529 78.4687L14.4278 78.8343Z" fill="#0A0A26"/>
<path d="M58.3385 78.8343H50.982L50.4117 78.1773V63.3337H44.1958V56.689H65.5239V63.1223H59.479C59.479 67.6074 59.5132 71.7611 59.479 75.9148C59.3903 76.8909 59.2206 77.8579 58.9715 78.8058L58.6521 78.4858C58.5039 78.6001 58.4126 78.7201 58.3385 78.8343Z" fill="#0A0A26"/>
<path d="M6.47803 78.1885C6.67192 78.4056 6.86011 78.6227 7.0483 78.8455C6.86011 78.6341 6.67192 78.417 6.47803 78.1885Z" fill="#375FA8"/>
<path d="M14.4277 78.8344L14.7243 78.4688L15.0379 78.8059L14.4277 78.8344Z" fill="#375FA8"/>
<path d="M50.4062 78.1885L50.9765 78.8455L50.4062 78.1885Z" fill="#375FA8"/>
<path d="M58.3384 78.8344C58.4353 78.7201 58.5266 78.6001 58.6292 78.4858L58.9486 78.8058L58.3384 78.8344Z" fill="#375FA8"/>
</g>
<defs>
<clipPath id="clip0_165_27407">
<rect width="90" height="79" fill="white"/>
</clipPath>
</defs>
</svg>
