<svg width="90" height="79" viewBox="0 0 90 79" fill="none" xmlns="http://www.w3.org/2000/svg">
<g clip-path="url(#clip0_2_7292)">
<path d="M46.8192 45.1763H43.2721C43.2721 42.4853 43.2721 39.9542 43.2721 37.4175C43.3519 30.3842 43.4603 23.3509 43.523 16.3177C43.563 11.7469 42.8786 11.0041 38.3906 11.5698C30.9771 12.5182 23.5636 13.6552 16.1501 14.695C15.3175 14.815 14.4393 14.8436 13.561 14.9236C16.7774 6.35338 32.0378 -0.502766 46.2432 0.0342992C60.6653 0.605645 74.1237 7.34753 76.1311 14.5351C67.1778 13.5238 58.0022 12.4839 48.8208 11.4955C48.3247 11.4441 47.7829 11.8612 46.7393 12.2611C45.9124 23.0481 46.9674 34.0122 46.8192 45.1763Z" fill="white"/>
<path d="M34.4728 43.908C23.096 42.5424 8.29173 32.4296 11.9301 18.4316C19.5203 17.6546 27.3958 16.7176 35.3111 16.1177C38.2423 15.8949 39.3999 17.2604 38.9038 20.2142C37.5523 28.1217 35.9555 36.0062 34.4728 43.908Z" fill="white"/>
<path d="M78.0872 18.3917C81.5773 32.3554 66.7331 42.4396 55.5501 43.8509C54.0332 35.9034 52.4194 27.9389 51.0336 19.9286C50.5831 17.329 51.8662 15.872 54.6605 16.0891C62.5588 16.6948 70.4285 17.6261 78.0872 18.3917Z" fill="white"/>
<path d="M90.0001 79H81.2978C79.8721 75.092 78.3723 70.9669 76.5988 66.099C74.9792 70.7269 73.5649 74.7549 72.105 78.92H63.3628C66.2141 71.3497 68.9971 64.0307 71.8028 56.6375H81.4061L90.0001 79Z" fill="white"/>
<path d="M28.063 78.9315H19.355L27.7836 56.6147H37.3755C40.1584 63.8251 42.9984 71.2069 45.9809 78.8972H37.1873C35.8015 74.9949 34.3359 70.8983 32.6251 66.0305C30.9657 70.8183 29.4887 74.9035 28.063 78.9315Z" fill="white"/>
<path d="M14.4278 78.8343H7.07133C6.88314 78.6115 6.69495 78.3944 6.50106 78.1773V63.3337H0V56.689H21.579V63.1852H15.5684C15.5684 67.6017 15.6026 71.7554 15.5684 75.9033C15.4821 76.8831 15.3143 77.854 15.0665 78.8058L14.7529 78.4687L14.4278 78.8343Z" fill="white"/>
<path d="M58.3385 78.8343H50.982L50.4117 78.1773V63.3337H44.1958V56.689H65.5239V63.1223H59.479C59.479 67.6074 59.5132 71.7611 59.479 75.9148C59.3903 76.8909 59.2206 77.8579 58.9715 78.8058L58.6521 78.4858C58.5039 78.6001 58.4126 78.7201 58.3385 78.8343Z" fill="white"/>
<path d="M6.47803 78.1887C6.67192 78.4058 6.86011 78.623 7.0483 78.8458C6.86011 78.6344 6.67192 78.4173 6.47803 78.1887Z" fill="#375FA8"/>
<path d="M14.4277 78.8343L14.7243 78.4686L15.0379 78.8057L14.4277 78.8343Z" fill="#375FA8"/>
<path d="M50.4062 78.1887L50.9765 78.8458L50.4062 78.1887Z" fill="#375FA8"/>
<path d="M58.3384 78.8343C58.4353 78.72 58.5266 78.6 58.6292 78.4858L58.9486 78.8057L58.3384 78.8343Z" fill="#375FA8"/>
</g>
<defs>
<clipPath id="clip0_2_7292">
<rect width="90" height="79" fill="white"/>
</clipPath>
</defs>
</svg>
