<svg width="76" height="98" viewBox="0 0 76 98" fill="none" xmlns="http://www.w3.org/2000/svg">
<g clip-path="url(#clip0_2_7265)">
<path d="M39.3949 68.4228C36.1551 50.436 32.9146 32.4425 29.6733 14.4421C29.582 14.42 29.4891 14.405 29.3955 14.3972C27.1891 14.4094 24.9869 14.4533 22.7959 14.7635C21.9216 14.8805 21.0624 15.0898 20.2327 15.388C18.4672 16.037 17.4737 17.2911 17.2184 19.1391C17.204 19.2412 17.1835 19.3493 17.1548 19.5198C15.5383 18.8838 13.9984 18.0698 12.5637 17.0932C10.7367 15.8687 9.10341 14.4339 7.8208 12.5339C15.6303 9.01852 23.7914 7.1542 32.2826 6.63684L39.44 15.3105C41.8361 12.4063 44.1922 9.55119 46.5943 6.64194C55.0672 7.15216 63.2324 9.01852 71.0706 12.5431C68.6858 15.8901 65.4213 17.9452 61.7335 19.5432C61.6658 19.1993 61.6156 18.931 61.5592 18.6555C61.268 17.252 60.4748 16.2442 59.1795 15.6319C58.2906 15.2084 57.3443 14.9819 56.3775 14.8258C54.005 14.4431 51.611 14.4452 49.1514 14.3972L39.4964 68.4258L39.3949 68.4228Z" fill="white"/>
<path d="M6.74508 10.6747C6.02096 9.40055 5.37589 8.08344 4.81348 6.73079C4.9806 6.65834 5.12106 6.59201 5.26254 6.53691C14.0976 3.08491 23.4022 0.968895 32.8668 0.259225C36.3855 -0.0155516 39.918 -0.0700817 43.4435 0.0959563C45.8495 0.215687 48.2489 0.423174 50.6419 0.718418C58.5077 1.68579 66.1234 3.64501 73.5053 6.49201C73.6516 6.54915 73.7972 6.60834 73.9421 6.66956C73.9819 6.69656 74.019 6.72732 74.0528 6.7614C73.5402 8.10633 72.8543 9.3788 72.1448 10.6707C71.948 10.5931 71.788 10.5339 71.6322 10.4666C66.2577 8.18221 60.6428 6.50502 54.8927 5.46648C51.5305 4.85765 48.1327 4.46397 44.72 4.28788C40.8809 4.07918 37.0329 4.09656 33.1959 4.33992C24.1972 4.93279 15.5306 6.93998 7.23106 10.4758C7.08855 10.538 6.94193 10.5941 6.74508 10.6747Z" fill="white"/>
<path d="M42.8971 96.0091V93.9682H34.0798V88.1844H44.8553C44.7975 88.361 44.7233 88.5318 44.6339 88.6947C44.0546 89.5426 43.3113 90.0926 42.2173 90.0824C40.3113 90.0641 38.4054 90.0824 36.4984 90.0824H35.9724V92.0304C38.8975 92.0407 41.8164 92.0304 44.7313 92.0366C44.8338 92.3825 44.8584 97.3785 44.7651 97.9785H33.5518C33.591 97.8732 33.638 97.7709 33.6922 97.6724C34.1738 96.9261 34.903 96.3715 35.753 96.105C35.9653 96.0474 36.1853 96.023 36.4051 96.0326C38.39 96.0254 40.3749 96.0265 42.3598 96.0244L42.8971 96.0091Z" fill="white"/>
<path d="M73.8929 94.0377H66.9262C66.8739 94.4693 66.9077 94.904 66.9016 95.3357C66.8954 95.7673 66.9016 96.1816 66.9016 96.6041V97.9807C66.2587 97.9949 65.6415 97.9868 65.0059 97.9807V92.0621H75.7301C75.8327 92.4101 75.8706 96.848 75.7804 97.9735C75.4789 97.9796 75.1714 97.9888 74.8638 97.9919C74.5562 97.9949 74.2681 97.9919 73.9164 97.9919C73.8795 97.5357 73.9021 97.1021 73.898 96.6653C73.8939 96.2286 73.898 95.8194 73.898 95.3959L73.8929 94.0377Z" fill="white"/>
<path d="M0 88.1671H12.3534C12.2325 89.1631 10.9109 90.1865 10.0302 90.1202C9.24689 90.062 8.45538 90.108 7.67208 90.108H7.13996C7.10716 91.4488 7.12971 92.7437 7.12561 94.0376C7.12151 95.3315 7.12561 96.6061 7.12561 97.9245H5.21246C5.19298 97.3051 5.20631 96.6693 5.20426 96.0336C5.20426 95.3744 5.20426 94.7162 5.20426 94.057V90.1467C5.01663 90.1335 4.85157 90.111 4.6865 90.11C3.86629 90.11 3.04607 90.11 2.22586 90.11C1.2252 90.0998 0.182498 89.2049 0 88.1671Z" fill="white"/>
<path d="M52.2325 96.0581H60.8171C60.7903 96.1885 60.756 96.3173 60.7145 96.4439C60.497 97.0046 60.0947 97.4752 59.5734 97.7786C59.3328 97.9278 59.054 98.0047 58.7706 98C56.1049 97.9919 53.4474 98 50.7858 97.9949C50.6464 97.9949 50.507 97.9816 50.3398 97.9735V88.1774H52.2284L52.2325 96.0581Z" fill="white"/>
<path d="M28.5065 96.0541C28.2173 96.9 27.7385 97.4949 26.9768 97.8306C26.7473 97.9315 26.4997 97.9849 26.2488 97.9878C23.9676 98 21.6853 97.9878 19.4031 97.997C19.0072 97.9919 18.6224 97.8658 18.3009 97.6357C17.7361 97.2654 17.3258 96.7032 17.1465 96.0541H28.5065Z" fill="white"/>
<path d="M17.1074 88.157H28.451C28.2377 89.2427 27.2145 90.0958 26.1451 90.0958C23.9921 90.0958 21.8329 90.0764 19.6778 90.105C18.6874 90.1182 18.0004 89.6703 17.4806 88.8937C17.3423 88.6554 17.2177 88.4094 17.1074 88.157Z" fill="white"/>
<path d="M17.1587 92.0406H28.4531C28.4439 92.1444 28.4243 92.2469 28.3946 92.3468C28.1666 92.9373 27.7373 93.4293 27.1817 93.7366C26.8661 93.915 26.508 94.0052 26.1452 93.9979C23.9737 93.9887 21.8011 93.9764 19.6296 93.9979C18.7161 94.0091 18.0722 93.5968 17.5555 92.909C17.3569 92.6544 17.221 92.357 17.1587 92.0406Z" fill="white"/>
<path d="M76.0012 88.1732C75.8239 89.1987 74.7883 90.1018 73.7856 90.1039C71.5957 90.109 69.4057 90.0865 67.2167 90.1141C66.2007 90.1273 65.5179 89.6447 65.0001 88.8477C64.8786 88.63 64.7714 88.4047 64.6792 88.1732H76.0012Z" fill="white"/>
</g>
<defs>
<clipPath id="clip0_2_7265">
<rect width="76" height="98" fill="white"/>
</clipPath>
</defs>
</svg>
