<svg width="140" height="140" viewBox="0 0 140 140" fill="none" xmlns="http://www.w3.org/2000/svg">
<circle cx="70" cy="70" r="70" fill="#F4F4F4"/>
<path d="M133.5 70C133.5 105.63 105.063 134.5 70 134.5C34.9372 134.5 6.5 105.63 6.5 70C6.5 34.3703 34.9372 5.5 70 5.5C105.063 5.5 133.5 34.3703 133.5 70Z" fill="white" stroke="white"/>
<path fill-rule="evenodd" clip-rule="evenodd" d="M30.9814 48.1561C41.1814 44.0249 58.0106 43.4874 65.321 43.7624L70.0002 49.7707L74.6814 43.7624C81.9919 43.4874 98.821 44.0228 109.019 48.1561C107.611 50.8311 101.484 54.6353 98.1169 55.4811C97.9252 50.2249 90.496 49.129 83.3689 49.129L69.9981 120.833L56.6294 49.127C49.4939 49.127 42.0648 50.2228 41.8731 55.479C38.5106 54.6353 32.3877 50.8311 30.9814 48.1561Z" fill="#0A0A26"/>
<path fill-rule="evenodd" clip-rule="evenodd" d="M26.25 41.0294L28.8604 44.8606C38.7625 41.3856 50.5146 39.7148 62.9167 39.3398C67.6104 39.196 72.3896 39.196 77.0792 39.3398C89.4813 39.7127 101.235 41.3835 111.137 44.8606L113.75 41.0294C102.056 37.0669 89.6312 35.746 77.225 35.4252C72.4188 35.3023 67.5792 35.3023 62.7812 35.4252C50.3646 35.746 37.9458 37.0669 26.25 41.0294Z" fill="#0A0A26"/>
</svg>
