<svg width="140" height="140" viewBox="0 0 140 140" fill="none" xmlns="http://www.w3.org/2000/svg">
<circle cx="70" cy="70" r="70" fill="#173846"/>
<path d="M133.5 70C133.5 105.63 105.063 134.5 70 134.5C34.9372 134.5 6.5 105.63 6.5 70C6.5 34.3703 34.9372 5.5 70 5.5C105.063 5.5 133.5 34.3703 133.5 70Z" fill="#173846" stroke="white"/>
<path fill-rule="evenodd" clip-rule="evenodd" d="M30.9814 48.1562C41.1814 44.025 58.0106 43.4875 65.321 43.7625L70.0002 49.7708L74.6814 43.7625C81.9919 43.4875 98.821 44.0229 109.019 48.1562C107.611 50.8312 101.484 54.6354 98.1169 55.4812C97.9252 50.225 90.496 49.1292 83.3689 49.1292L69.9981 120.833L56.6294 49.1271C49.4939 49.1271 42.0648 50.2229 41.8731 55.4792C38.5106 54.6354 32.3877 50.8312 30.9814 48.1562Z" fill="#B71C1C"/>
<path fill-rule="evenodd" clip-rule="evenodd" d="M26.25 41.0291L28.8604 44.8604C38.7625 41.3854 50.5146 39.7145 62.9167 39.3395C67.6104 39.1958 72.3896 39.1958 77.0792 39.3395C89.4813 39.7125 101.235 41.3833 111.137 44.8604L113.75 41.0291C102.056 37.0666 89.6312 35.7458 77.225 35.425C72.4188 35.302 67.5792 35.302 62.7812 35.425C50.3646 35.7458 37.9458 37.0666 26.25 41.0291Z" fill="#B71C1C"/>
</svg>
