<svg width="76" height="98" viewBox="0 0 76 98" fill="none" xmlns="http://www.w3.org/2000/svg">
<g clip-path="url(#clip0_165_27380)">
<path d="M39.3949 68.4227C36.1551 50.4359 32.9146 32.4423 29.6733 14.442C29.582 14.4199 29.4891 14.4049 29.3955 14.3971C27.1891 14.4093 24.9869 14.4532 22.7959 14.7634C21.9216 14.8804 21.0624 15.0897 20.2327 15.3879C18.4672 16.0369 17.4737 17.291 17.2184 19.139C17.204 19.2411 17.1835 19.3492 17.1548 19.5196C15.5383 18.8836 13.9984 18.0697 12.5637 17.0931C10.7367 15.8685 9.10341 14.4338 7.8208 12.5338C15.6303 9.0184 23.7914 7.15408 32.2826 6.63672L39.44 15.3104C41.8361 12.4062 44.1922 9.55106 46.5943 6.64182C55.0672 7.15204 63.2324 9.0184 71.0706 12.543C68.6858 15.89 65.4213 17.9451 61.7335 19.5431C61.6658 19.1992 61.6156 18.9308 61.5592 18.6553C61.268 17.2519 60.4748 16.2441 59.1795 15.6318C58.2906 15.2083 57.3443 14.9818 56.3775 14.8257C54.005 14.443 51.611 14.445 49.1514 14.3971L39.4964 68.4257L39.3949 68.4227Z" fill="#0A0A26"/>
<path d="M6.74508 10.6745C6.02096 9.40031 5.37589 8.08319 4.81348 6.73055C4.9806 6.65809 5.12106 6.59177 5.26254 6.53666C14.0976 3.08467 23.4022 0.968651 32.8668 0.258981C36.3855 -0.0157958 39.918 -0.0703259 43.4435 0.0957122C45.8495 0.215443 48.2489 0.42293 50.6419 0.718174C58.5077 1.68554 66.1234 3.64477 73.5053 6.49176C73.6516 6.54891 73.7972 6.60809 73.9421 6.66932C73.9819 6.69632 74.019 6.72708 74.0528 6.76116C73.5402 8.10608 72.8543 9.37856 72.1448 10.6704C71.948 10.5929 71.788 10.5337 71.6322 10.4663C66.2577 8.18197 60.6428 6.50478 54.8927 5.46623C51.5305 4.8574 48.1327 4.46373 44.72 4.28764C40.8809 4.07894 37.0329 4.09631 33.1959 4.33968C24.1972 4.93255 15.5306 6.93973 7.23106 10.4755C7.08855 10.5378 6.94193 10.5939 6.74508 10.6745Z" fill="#0A0A26"/>
<path d="M42.8971 96.0092V93.9684H34.0798V88.1846H44.8553C44.7975 88.3611 44.7233 88.5319 44.6339 88.6948C44.0546 89.5428 43.3113 90.0928 42.2173 90.0826C40.3113 90.0642 38.4054 90.0826 36.4984 90.0826H35.9724V92.0306C38.8975 92.0408 41.8164 92.0306 44.7313 92.0367C44.8338 92.3826 44.8584 97.3786 44.7651 97.9787H33.5518C33.591 97.8733 33.638 97.771 33.6922 97.6725C34.1738 96.9262 34.903 96.3716 35.753 96.1051C35.9653 96.0475 36.1853 96.0231 36.4051 96.0327C38.39 96.0255 40.3749 96.0266 42.3598 96.0245L42.8971 96.0092Z" fill="#0A0A26"/>
<path d="M73.8929 94.0376H66.9262C66.8739 94.4692 66.9077 94.9039 66.9016 95.3356C66.8954 95.7672 66.9016 96.1815 66.9016 96.604V97.9805C66.2587 97.9948 65.6415 97.9867 65.0059 97.9805V92.062H75.7301C75.8327 92.41 75.8706 96.8479 75.7804 97.9734C75.4789 97.9795 75.1714 97.9887 74.8638 97.9918C74.5562 97.9948 74.2681 97.9918 73.9164 97.9918C73.8795 97.5356 73.9021 97.1019 73.898 96.6652C73.8939 96.2284 73.898 95.8193 73.898 95.3958L73.8929 94.0376Z" fill="#0A0A26"/>
<path d="M0 88.167H12.3534C12.2325 89.1629 10.9109 90.1864 10.0302 90.1201C9.24689 90.0619 8.45538 90.1078 7.67208 90.1078H7.13996C7.10716 91.4487 7.12971 92.7436 7.12561 94.0375C7.12151 95.3314 7.12561 96.6059 7.12561 97.9243H5.21246C5.19298 97.3049 5.20631 96.6692 5.20426 96.0335C5.20426 95.3743 5.20426 94.7161 5.20426 94.0569V90.1466C5.01663 90.1334 4.85157 90.1109 4.6865 90.1099C3.86629 90.1099 3.04607 90.1099 2.22586 90.1099C1.2252 90.0997 0.182498 89.2048 0 88.167Z" fill="#0A0A26"/>
<path d="M52.2325 96.058H60.8171C60.7903 96.1884 60.756 96.3172 60.7145 96.4437C60.497 97.0044 60.0947 97.475 59.5734 97.7785C59.3328 97.9277 59.054 98.0045 58.7706 97.9999C56.1049 97.9917 53.4474 97.9999 50.7858 97.9948C50.6464 97.9948 50.507 97.9815 50.3398 97.9734V88.1772H52.2284L52.2325 96.058Z" fill="#0A0A26"/>
<path d="M28.5065 96.0542C28.2173 96.9001 27.7385 97.495 26.9768 97.8308C26.7473 97.9316 26.4997 97.9851 26.2488 97.9879C23.9676 98.0002 21.6853 97.9879 19.4031 97.9971C19.0072 97.992 18.6224 97.8659 18.3009 97.6359C17.7361 97.2655 17.3258 96.7034 17.1465 96.0542H28.5065Z" fill="#0A0A26"/>
<path d="M17.1074 88.1567H28.451C28.2377 89.2425 27.2145 90.0956 26.1451 90.0956C23.9921 90.0956 21.8329 90.0762 19.6778 90.1047C18.6874 90.118 18.0004 89.67 17.4806 88.8935C17.3423 88.6551 17.2177 88.4091 17.1074 88.1567Z" fill="#0A0A26"/>
<path d="M17.1587 92.0405H28.4531C28.4439 92.1443 28.4243 92.2468 28.3946 92.3467C28.1666 92.9372 27.7373 93.4291 27.1817 93.7365C26.8661 93.9149 26.508 94.0051 26.1452 93.9977C23.9737 93.9886 21.8011 93.9763 19.6296 93.9977C18.7161 94.009 18.0722 93.5967 17.5555 92.9089C17.3569 92.6543 17.221 92.3569 17.1587 92.0405Z" fill="#0A0A26"/>
<path d="M76.0012 88.1733C75.8239 89.1989 74.7883 90.1019 73.7856 90.104C71.5957 90.1091 69.4057 90.0866 67.2167 90.1142C66.2007 90.1274 65.5179 89.6448 65.0001 88.8478C64.8786 88.6301 64.7714 88.4048 64.6792 88.1733H76.0012Z" fill="#0A0A26"/>
</g>
<defs>
<clipPath id="clip0_165_27380">
<rect width="76" height="98" fill="white"/>
</clipPath>
</defs>
</svg>
