<svg width="390" height="410" viewBox="0 0 390 410" fill="none" xmlns="http://www.w3.org/2000/svg">
<g clip-path="url(#clip0_2_2331)">
<g opacity="0.18">
<path opacity="0.69" d="M357.779 252.756C357.779 252.756 401.054 204.166 387.298 119.621C373.542 35.0756 302.876 3.92643 256.011 20.1992C209.145 36.4719 198.574 64.7947 160.298 80.9913C122.021 97.1879 49.2878 86.0686 12.917 140.472C-23.4539 194.875 22.9795 285.022 82.0927 341.55C141.206 398.077 292.051 362.688 357.779 252.756Z" fill="white"/>
</g>
<path d="M100.947 389.268H119.649" stroke="#0E2831" stroke-miterlimit="10"/>
<path d="M92.0452 260.651L105.496 389.098" stroke="#0E2831" stroke-width="2" stroke-miterlimit="10"/>
<path d="M103.107 362.747L97.1273 356.435" stroke="#0E2831" stroke-width="2" stroke-miterlimit="10"/>
<path d="M98.9484 358.33C98.9377 357.363 98.7197 356.409 98.3092 355.534C97.8986 354.658 97.305 353.88 96.5683 353.253C95.0352 351.882 86.9546 348.489 86.1923 351.332C85.3538 354.429 93.6207 360.505 98.9484 358.33Z" fill="#92E3A9" stroke="#0E2831" stroke-miterlimit="10"/>
<path d="M98.9483 358.33L91.2574 353.541" stroke="#0E2831" stroke-width="0.5" stroke-miterlimit="10"/>
<path d="M104.606 377.108L98.6265 370.795" stroke="#0E2831" stroke-width="2" stroke-miterlimit="10"/>
<path d="M100.448 372.69C100.437 371.723 100.219 370.77 99.8083 369.894C99.3978 369.018 98.8041 368.24 98.0674 367.613C96.5343 366.242 88.4538 362.849 87.6915 365.692C86.8529 368.789 95.1198 374.857 100.448 372.69Z" fill="#92E3A9" stroke="#0E2831" stroke-miterlimit="10"/>
<path d="M100.448 372.682L92.7567 367.901" stroke="#0E2831" stroke-width="0.5" stroke-miterlimit="10"/>
<path d="M99.4481 327.706L93.4681 321.401" stroke="#0E2831" stroke-width="2" stroke-miterlimit="10"/>
<path d="M95.2892 323.288C95.2785 322.321 95.0605 321.368 94.65 320.492C94.2394 319.616 93.6458 318.838 92.9091 318.211C91.376 316.849 83.2955 313.447 82.5332 316.29C81.6946 319.396 89.9615 325.463 95.2892 323.288Z" fill="#92E3A9" stroke="#0E2831" stroke-miterlimit="10"/>
<path d="M95.2893 323.288L87.5984 318.499" stroke="#0E2831" stroke-width="0.5" stroke-miterlimit="10"/>
<path d="M100.947 342.066L94.9674 335.761" stroke="#0E2831" stroke-width="2" stroke-miterlimit="10"/>
<path d="M96.7885 337.649C96.7778 336.682 96.5598 335.728 96.1493 334.852C95.7387 333.976 95.1451 333.199 94.4084 332.571C92.8753 331.2 84.7947 327.807 84.0324 330.65C83.1939 333.748 91.4777 339.823 96.7885 337.649Z" fill="#92E3A9" stroke="#0E2831" stroke-miterlimit="10"/>
<path d="M96.7884 337.649L89.0975 332.859" stroke="#0E2831" stroke-width="0.5" stroke-miterlimit="10"/>
<path d="M97.0087 304.384L91.0288 298.071" stroke="#0E2831" stroke-width="2" stroke-miterlimit="10"/>
<path d="M92.8498 299.967C92.8391 299 92.6212 298.046 92.2106 297.17C91.8 296.294 91.2064 295.517 90.4697 294.889C88.9366 293.518 80.8561 290.125 80.0938 292.968C79.2637 296.066 87.5306 302.141 92.8498 299.967Z" fill="#92E3A9" stroke="#0E2831" stroke-miterlimit="10"/>
<path d="M92.8498 299.967L85.1589 295.177" stroke="#0E2831" stroke-width="0.5" stroke-miterlimit="10"/>
<path d="M94.5608 280.952L88.5894 274.648" stroke="#0E2831" stroke-width="2" stroke-miterlimit="10"/>
<path d="M90.402 276.509C90.3913 275.542 90.1733 274.589 89.7627 273.713C89.3522 272.837 88.7586 272.06 88.0218 271.432C86.4887 270.061 78.4167 266.668 77.6459 269.511C76.8158 272.642 85.0827 278.71 90.402 276.509Z" fill="#92E3A9" stroke="#0E2831" stroke-miterlimit="10"/>
<path d="M90.402 276.535L82.7111 271.754" stroke="#0E2831" stroke-width="0.5" stroke-miterlimit="10"/>
<path d="M102.099 354.251L106.648 346.847" stroke="#0E2831" stroke-width="2" stroke-miterlimit="10"/>
<path d="M105.267 349.072C105.079 348.126 105.096 347.149 105.316 346.209C105.537 345.269 105.956 344.388 106.546 343.623C107.766 341.93 114.965 336.98 116.304 339.603C117.735 342.455 110.959 350.13 105.267 349.072Z" fill="#92E3A9" stroke="#0E2831" stroke-miterlimit="10"/>
<path d="M105.259 349.064L112.187 342.455" stroke="#0E2831" stroke-width="0.5" stroke-miterlimit="10"/>
<path d="M98.1521 316.468L102.701 309.055" stroke="#0E2831" stroke-width="2" stroke-miterlimit="10"/>
<path d="M101.32 311.28C101.133 310.335 101.151 309.36 101.371 308.422C101.592 307.483 102.01 306.603 102.599 305.839C103.819 304.147 111.018 299.188 112.357 301.811C113.814 304.663 106.978 312.313 101.32 311.28Z" fill="#92E3A9" stroke="#0E2831" stroke-miterlimit="10"/>
<path d="M101.312 311.28L108.24 304.672" stroke="#0E2831" stroke-width="0.5" stroke-miterlimit="10"/>
<path d="M96.4242 299.857L100.964 292.452" stroke="#0E2831" stroke-width="2" stroke-miterlimit="10"/>
<path d="M99.5836 294.678C99.3955 293.731 99.4123 292.755 99.6329 291.815C99.8535 290.875 100.273 289.993 100.863 289.228C102.082 287.578 109.282 282.585 110.62 285.209C112.077 288.06 105.242 295.71 99.5836 294.678Z" fill="#92E3A9" stroke="#0E2831" stroke-miterlimit="10"/>
<path d="M99.5836 294.678L106.504 288.069" stroke="#0E2831" stroke-width="0.5" stroke-miterlimit="10"/>
<path d="M93.8748 275.519L98.4232 268.106" stroke="#0E2831" stroke-width="2" stroke-miterlimit="10"/>
<path d="M97.0426 270.332C96.8545 269.385 96.8713 268.409 97.0919 267.469C97.3125 266.529 97.7317 265.647 98.3216 264.883C99.5413 263.232 106.741 258.24 108.079 260.863C109.536 263.715 102.701 271.365 97.0426 270.332Z" fill="#92E3A9" stroke="#0E2831" stroke-miterlimit="10"/>
<path d="M97.0341 270.332L103.963 263.723" stroke="#0E2831" stroke-width="0.5" stroke-miterlimit="10"/>
<path d="M91.935 259.949C91.7482 259.003 91.7656 258.029 91.9862 257.09C92.2068 256.152 92.6254 255.272 93.214 254.508C94.4337 252.815 101.633 247.857 102.972 250.48C104.429 253.332 97.5931 260.981 91.935 259.949Z" fill="#92E3A9" stroke="#0E2831" stroke-miterlimit="10"/>
<path d="M91.9351 259.949L98.8552 253.34" stroke="#0E2831" stroke-width="0.5" stroke-miterlimit="10"/>
<path d="M92.3246 260.237C91.3616 260.325 90.3909 260.205 89.4778 259.887C88.5647 259.569 87.7303 259.059 87.0308 258.392C85.5062 257.013 81.2965 249.329 84.0493 248.28C87.0562 247.129 93.9509 254.728 92.3246 260.237Z" fill="#92E3A9" stroke="#0E2831" stroke-miterlimit="10"/>
<path d="M92.3331 260.237L86.4802 252.663" stroke="#0E2831" stroke-width="0.5" stroke-miterlimit="10"/>
<path d="M126.832 278.041L115.711 389.098" stroke="#0E2831" stroke-width="2" stroke-miterlimit="10"/>
<path d="M116.617 380.222L112.069 372.817" stroke="#0E2831" stroke-width="2" stroke-miterlimit="10"/>
<path d="M113.5 375.043C113.687 374.095 113.669 373.119 113.447 372.179C113.225 371.239 112.804 370.357 112.213 369.593C110.993 367.943 103.793 362.959 102.455 365.582C100.956 368.434 107.8 376.075 113.5 375.043Z" fill="#92E3A9" stroke="#0E2831" stroke-miterlimit="10"/>
<path d="M113.449 375.043L106.919 368.772" stroke="#0E2831" stroke-width="0.5" stroke-miterlimit="10"/>
<path d="M120.259 345.18L115.702 337.776" stroke="#0E2831" stroke-width="2" stroke-miterlimit="10"/>
<path d="M117.091 339.976C117.28 339.029 117.263 338.053 117.042 337.113C116.822 336.173 116.402 335.291 115.812 334.526C114.593 332.876 107.385 327.892 106.055 330.515C104.598 333.392 111.433 341.033 117.091 339.976Z" fill="#92E3A9" stroke="#0E2831" stroke-miterlimit="10"/>
<path d="M117.091 340.001L110.552 333.731" stroke="#0E2831" stroke-width="0.5" stroke-miterlimit="10"/>
<path d="M118.76 359.54L114.212 352.136" stroke="#0E2831" stroke-width="2" stroke-miterlimit="10"/>
<path d="M115.601 354.361C115.789 353.414 115.772 352.438 115.551 351.498C115.331 350.558 114.911 349.676 114.322 348.912C113.102 347.262 105.894 342.277 104.556 344.901C103.107 347.752 109.943 355.394 115.601 354.361Z" fill="#92E3A9" stroke="#0E2831" stroke-miterlimit="10"/>
<path d="M115.601 354.361L109.062 348.091" stroke="#0E2831" stroke-width="0.5" stroke-miterlimit="10"/>
<path d="M122.682 321.858L118.125 314.454" stroke="#0E2831" stroke-width="2" stroke-miterlimit="10"/>
<path d="M119.514 316.679C119.702 315.732 119.685 314.756 119.465 313.816C119.244 312.876 118.825 311.994 118.235 311.23C117.015 309.537 109.765 304.587 108.477 307.21C107.02 310.062 113.856 317.703 119.514 316.679Z" fill="#92E3A9" stroke="#0E2831" stroke-miterlimit="10"/>
<path d="M119.514 316.671L112.975 310.409" stroke="#0E2831" stroke-width="0.5" stroke-miterlimit="10"/>
<path d="M125.113 298.426L120.564 291.022" stroke="#0E2831" stroke-width="2" stroke-miterlimit="10"/>
<path d="M121.97 293.248C122.157 292.3 122.139 291.324 121.917 290.384C121.695 289.444 121.274 288.562 120.683 287.798C119.463 286.148 112.263 281.164 110.925 283.787C109.451 286.664 116.295 294.28 121.97 293.248Z" fill="#92E3A9" stroke="#0E2831" stroke-miterlimit="10"/>
<path d="M121.945 293.248L115.414 286.977" stroke="#0E2831" stroke-width="0.5" stroke-miterlimit="10"/>
<path d="M117.379 371.7L123.359 365.387" stroke="#0E2831" stroke-width="2" stroke-miterlimit="10"/>
<path d="M121.547 367.283C121.556 366.317 121.773 365.364 122.182 364.488C122.591 363.612 123.183 362.834 123.918 362.206C125.451 360.835 133.532 357.433 134.303 360.276C135.133 363.374 126.874 369.449 121.547 367.283Z" fill="#92E3A9" stroke="#0E2831" stroke-miterlimit="10"/>
<path d="M121.547 367.283L129.678 362.231" stroke="#0E2831" stroke-width="0.5" stroke-miterlimit="10"/>
<path d="M121.31 333.917L127.281 327.604" stroke="#0E2831" stroke-width="2" stroke-miterlimit="10"/>
<path d="M125.468 329.491C125.479 328.524 125.697 327.57 126.108 326.695C126.518 325.819 127.112 325.041 127.848 324.414C129.382 323.043 137.454 319.65 138.224 322.484C139.063 325.59 130.796 331.666 125.468 329.491Z" fill="#92E3A9" stroke="#0E2831" stroke-miterlimit="10"/>
<path d="M125.468 329.491L133.608 324.448" stroke="#0E2831" stroke-width="0.5" stroke-miterlimit="10"/>
<path d="M123.029 317.306L129.009 310.993" stroke="#0E2831" stroke-width="2" stroke-miterlimit="10"/>
<path d="M127.196 312.897C127.206 311.93 127.423 310.977 127.832 310.101C128.241 309.226 128.833 308.448 129.568 307.819C131.101 306.449 139.182 303.047 139.952 305.89C140.782 308.979 132.524 315.054 127.196 312.897Z" fill="#92E3A9" stroke="#0E2831" stroke-miterlimit="10"/>
<path d="M127.196 312.888L135.328 307.836" stroke="#0E2831" stroke-width="0.5" stroke-miterlimit="10"/>
<path d="M125.562 292.96L131.533 286.647" stroke="#0E2831" stroke-width="2" stroke-miterlimit="10"/>
<path d="M129.72 288.543C129.731 287.576 129.949 286.622 130.36 285.746C130.77 284.87 131.364 284.093 132.101 283.465C133.634 282.095 141.706 278.693 142.477 281.536C143.315 284.633 135.048 290.709 129.72 288.543Z" fill="#92E3A9" stroke="#0E2831" stroke-miterlimit="10"/>
<path d="M129.72 288.543L137.86 283.499" stroke="#0E2831" stroke-width="0.5" stroke-miterlimit="10"/>
<path d="M126.866 277.356C126.877 276.389 127.095 275.435 127.505 274.559C127.916 273.683 128.509 272.906 129.246 272.278C130.779 270.907 138.851 267.514 139.622 270.357C140.461 273.429 132.194 279.505 126.866 277.356Z" fill="#92E3A9" stroke="#0E2831" stroke-miterlimit="10"/>
<path d="M126.866 277.33L135.006 272.287" stroke="#0E2831" stroke-width="0.5" stroke-miterlimit="10"/>
<path d="M127.205 277.694C126.245 277.581 125.321 277.264 124.494 276.765C123.668 276.266 122.957 275.596 122.411 274.8C121.199 273.108 118.667 264.755 121.564 264.29C124.74 263.816 129.924 272.634 127.205 277.694Z" fill="#92E3A9" stroke="#0E2831" stroke-miterlimit="10"/>
<path d="M127.196 277.694L123.029 269.08" stroke="#0E2831" stroke-width="0.5" stroke-miterlimit="10"/>
<path d="M111.806 226.625L110.976 389.293" stroke="#0E2831" stroke-width="2" stroke-miterlimit="10"/>
<path d="M111.933 362.282L106.639 355.394" stroke="#0E2831" stroke-width="2" stroke-miterlimit="10"/>
<path d="M108.249 357.458C108.336 356.498 108.218 355.531 107.901 354.62C107.584 353.709 107.076 352.877 106.411 352.178C105.03 350.655 97.3476 346.441 96.2888 349.182C95.1368 352.178 102.726 359.066 108.249 357.458Z" fill="#92E3A9" stroke="#0E2831" stroke-miterlimit="10"/>
<path d="M108.249 357.458L101.1 351.899" stroke="#0E2831" stroke-width="0.5" stroke-miterlimit="10"/>
<path d="M111.933 332.284L106.639 325.387" stroke="#0E2831" stroke-width="2" stroke-miterlimit="10"/>
<path d="M108.249 327.452C108.336 326.491 108.218 325.524 107.901 324.613C107.584 323.702 107.076 322.87 106.411 322.171C105.03 320.648 97.3476 316.434 96.2888 319.184C95.1368 322.205 102.726 329.059 108.249 327.452Z" fill="#92E3A9" stroke="#0E2831" stroke-miterlimit="10"/>
<path d="M108.249 327.452L101.1 321.892" stroke="#0E2831" stroke-width="0.5" stroke-miterlimit="10"/>
<path d="M111.933 297.056L106.639 290.159" stroke="#0E2831" stroke-width="2" stroke-miterlimit="10"/>
<path d="M108.249 292.224C108.336 291.264 108.218 290.296 107.901 289.385C107.584 288.474 107.076 287.642 106.411 286.943C105.03 285.42 97.3476 281.206 96.2888 283.956C95.1368 286.943 102.726 293.832 108.249 292.224Z" fill="#92E3A9" stroke="#0E2831" stroke-miterlimit="10"/>
<path d="M108.249 292.224L101.1 286.664" stroke="#0E2831" stroke-width="0.5" stroke-miterlimit="10"/>
<path d="M111.933 273.598L106.639 266.702" stroke="#0E2831" stroke-width="2" stroke-miterlimit="10"/>
<path d="M108.249 268.775C108.338 267.814 108.22 266.844 107.903 265.932C107.585 265.02 107.077 264.186 106.411 263.486C105.03 261.971 97.3476 257.757 96.2888 260.499C95.1368 263.486 102.726 270.383 108.249 268.775Z" fill="#92E3A9" stroke="#0E2831" stroke-miterlimit="10"/>
<path d="M108.249 268.775L101.1 263.215" stroke="#0E2831" stroke-width="0.5" stroke-miterlimit="10"/>
<path d="M111.933 250.048L106.639 243.152" stroke="#0E2831" stroke-width="2" stroke-miterlimit="10"/>
<path d="M108.249 245.199C108.338 244.238 108.22 243.269 107.903 242.356C107.585 241.444 107.077 240.61 106.411 239.911C105.03 238.387 97.3476 234.173 96.2888 236.923C95.1368 239.936 102.726 246.833 108.249 245.199Z" fill="#92E3A9" stroke="#0E2831" stroke-miterlimit="10"/>
<path d="M108.249 245.216L101.1 239.657" stroke="#0E2831" stroke-width="0.5" stroke-miterlimit="10"/>
<path d="M111.814 371.446L117.1 364.55" stroke="#0E2831" stroke-width="2" stroke-miterlimit="10"/>
<path d="M115.499 366.623C115.41 365.661 115.528 364.692 115.845 363.78C116.162 362.868 116.671 362.034 117.337 361.334C118.718 359.819 126.4 355.605 127.459 358.347C128.611 361.334 121.013 368.231 115.499 366.623Z" fill="#92E3A9" stroke="#0E2831" stroke-miterlimit="10"/>
<path d="M115.491 366.623L123.063 360.767" stroke="#0E2831" stroke-width="0.5" stroke-miterlimit="10"/>
<path d="M111.814 323.728L117.1 316.832" stroke="#0E2831" stroke-width="2" stroke-miterlimit="10"/>
<path d="M115.499 318.905C115.41 317.943 115.528 316.974 115.845 316.062C116.162 315.15 116.671 314.316 117.337 313.616C118.718 312.093 126.4 307.879 127.459 310.629C128.611 313.616 121.013 320.513 115.499 318.905Z" fill="#92E3A9" stroke="#0E2831" stroke-miterlimit="10"/>
<path d="M115.491 318.896L123.063 313.041" stroke="#0E2831" stroke-width="0.5" stroke-miterlimit="10"/>
<path d="M111.814 300.17L117.1 293.273" stroke="#0E2831" stroke-width="2" stroke-miterlimit="10"/>
<path d="M115.499 295.346C115.41 294.385 115.528 293.415 115.845 292.503C116.162 291.591 116.671 290.757 117.337 290.057C118.718 288.543 126.4 284.329 127.459 287.07C128.611 290.049 121.013 296.954 115.499 295.346Z" fill="#92E3A9" stroke="#0E2831" stroke-miterlimit="10"/>
<path d="M115.491 295.346L123.063 289.49" stroke="#0E2831" stroke-width="0.5" stroke-miterlimit="10"/>
<path d="M111.814 269.037L117.1 262.141" stroke="#0E2831" stroke-width="2" stroke-miterlimit="10"/>
<path d="M115.499 264.214C115.41 263.252 115.528 262.283 115.845 261.371C116.162 260.459 116.671 259.625 117.337 258.925C118.718 257.41 126.4 253.196 127.459 255.938C128.611 258.925 121.013 265.822 115.499 264.214Z" fill="#92E3A9" stroke="#0E2831" stroke-miterlimit="10"/>
<path d="M115.491 264.214L123.063 258.358" stroke="#0E2831" stroke-width="0.5" stroke-miterlimit="10"/>
<path d="M111.814 244.565L117.1 237.668" stroke="#0E2831" stroke-width="2" stroke-miterlimit="10"/>
<path d="M115.499 239.741C115.41 238.78 115.528 237.81 115.845 236.898C116.162 235.986 116.671 235.152 117.337 234.453C118.718 232.929 126.4 228.715 127.459 231.465C128.611 234.453 121.013 241.349 115.499 239.741Z" fill="#92E3A9" stroke="#0E2831" stroke-miterlimit="10"/>
<path d="M115.491 239.741L123.063 233.877" stroke="#0E2831" stroke-width="0.5" stroke-miterlimit="10"/>
<path d="M111.501 228.884C111.412 227.923 111.53 226.953 111.847 226.041C112.164 225.129 112.673 224.295 113.339 223.596C114.72 222.072 122.402 217.867 123.461 220.608C124.613 223.596 117.015 230.492 111.501 228.884Z" fill="#92E3A9" stroke="#0E2831" stroke-miterlimit="10"/>
<path d="M111.493 228.884L119.065 223.029" stroke="#0E2831" stroke-width="0.5" stroke-miterlimit="10"/>
<path d="M111.865 229.206C110.897 229.195 109.943 228.978 109.066 228.567C108.19 228.157 107.411 227.564 106.783 226.828C105.411 225.288 102.023 217.215 104.869 216.454C107.978 215.624 114.051 223.892 111.865 229.206Z" fill="#92E3A9" stroke="#0E2831" stroke-miterlimit="10"/>
<path d="M111.865 229.206L106.826 221.065" stroke="#0E2831" stroke-width="0.5" stroke-miterlimit="10"/>
<path d="M326.982 409.577L322.078 353.193H206.164L199.769 409.577H326.982Z" fill="#0E2831" stroke="#0E2831" stroke-miterlimit="10"/>
<path d="M255.985 182.3C255.985 182.3 222.105 191.609 207.282 202.812C192.459 214.016 182.21 225.474 184.599 247.18C186.987 268.885 202.505 328.272 202.505 328.272C202.505 328.272 200.353 352.364 200.353 353.794C200.353 355.224 200.116 359.278 205.367 359.515C210.619 359.752 273.645 362.383 287.731 362.62C301.817 362.857 320.443 361.427 322.586 359.76C323.647 358.88 324.513 357.789 325.13 356.556C325.746 355.324 326.1 353.977 326.169 352.601C326.406 349.741 328.795 314.674 328.795 314.674L329.032 298.934C329.032 298.934 344.558 247.417 345.506 230.721C346.455 214.025 340.255 208.541 333.335 203.295C326.415 198.048 304.866 189.163 293.228 185.643C281.59 182.122 255.985 182.3 255.985 182.3Z" fill="#5CAD2F" stroke="#0E2831" stroke-miterlimit="10"/>
<path d="M264.345 262.352C262.651 285.581 259.551 328.357 259.822 335.728C260.203 345.882 256.061 348.886 256.061 352.652" stroke="#0E2831" stroke-miterlimit="10"/>
<path d="M265.472 247.366C265.472 247.366 265.167 251.318 264.701 257.571" stroke="#0E2831" stroke-miterlimit="10"/>
<path d="M280.599 277.203L282.768 302.759L294.906 301.896L280.599 277.203Z" fill="#0E2831" stroke="#0E2831" stroke-miterlimit="10"/>
<path d="M269.097 321.765C269.097 321.765 298.742 317.111 300.97 317.602C303.198 318.092 318.376 325.438 320.587 325.928C322.025 326.269 323.422 326.762 324.754 327.401L328.083 330.185L326.948 321.765C326.948 321.765 322.535 316.375 312.727 312.457C302.918 308.539 298.014 310.764 295.786 311.483C293.559 312.203 269.097 321.765 269.097 321.765Z" fill="#0E2831" stroke="#0E2831" stroke-miterlimit="10"/>
<path d="M223.511 299.417L300.589 299.171C300.589 299.171 325.424 296.793 326.372 296.548C327.321 296.302 337.121 298.934 338.078 299.653C339.035 300.373 339.027 302.514 338.552 304.663L338.078 306.804C338.427 308.618 338.665 310.452 338.789 312.296C338.789 313.988 336.884 314.437 336.638 315.156C336.392 315.875 338.078 318.49 336.164 320.166L334.258 321.858C334.258 321.858 334.012 326.394 333.064 327.587C332.115 328.78 329.244 330.921 328.049 330.21C326.855 329.499 327.329 327.587 327.329 326.394C327.329 325.201 326.855 324.008 325.424 324.008C323.992 324.008 323.729 325.201 316.352 323.288C308.974 321.376 300.835 314.945 300.115 314.699C299.395 314.454 234.7 331.877 215.599 334.264C196.499 336.65 194.831 334.027 194.111 330.879C193.391 327.731 192.205 320.386 192.205 320.386L188.817 305.839L223.511 299.417Z" fill="white" stroke="#0E2831" stroke-miterlimit="10"/>
<path d="M273.628 210.259C273.628 210.259 277.618 206.07 280.134 207.949C282.649 209.828 284.953 219.889 288.095 219.051C291.238 218.214 297.531 198.742 297.531 190.991C297.531 183.24 292.076 178.636 290.823 178.213C289.569 177.79 257.493 177.367 253.715 178.848C249.937 180.329 248.481 193.504 247.015 201.459C245.55 209.413 248.896 211.3 250.996 210.259C253.097 209.218 261.262 205.859 263.151 205.859C265.04 205.859 273.628 210.259 273.628 210.259Z" fill="#5CAD2F" stroke="#0E2831" stroke-miterlimit="10"/>
<path d="M295.1 166.112C295.1 166.112 292.093 180.955 290.925 184.619C289.756 188.283 281.243 199.461 279.066 201.797C276.89 204.133 270.554 215.633 268.902 215.971C267.25 216.31 262.575 200.629 262.575 200.629C262.575 200.629 256.561 190.288 255.392 187.623C254.223 184.957 252.411 177.121 252.411 177.121C252.411 177.121 262.253 185.583 272.739 183.789C283.225 181.996 288.587 171.452 288.587 171.452L295.1 166.112Z" fill="white" stroke="#0E2831" stroke-miterlimit="10"/>
<path d="M254.35 136.545C254.35 136.545 251.411 133.397 249.734 138.238C248.057 143.078 251.428 151.633 251.428 151.633L254.35 136.545Z" fill="white" stroke="#0E2831" stroke-miterlimit="10"/>
<path d="M254.876 126.729C254.876 126.729 250.039 161.077 250.039 163.117C250.039 165.156 248.701 171.782 250.708 176.123C252.716 180.464 258.713 185.787 263.558 186.455C268.402 187.124 277.906 186.125 283.251 181.953C288.595 177.781 294.762 168.786 294.762 168.786C294.762 168.786 301.445 167.779 305.773 165.951C310.101 164.124 313.447 159.943 313.286 155.611C313.093 152.836 312.109 150.176 310.448 147.944L307.907 143.273L314.582 130.766C314.582 130.766 310.745 123.598 298.395 116.761C286.046 109.923 275.026 107.757 269.859 107.757C264.693 107.757 258.171 109.923 256.307 114.095C254.444 118.267 254.876 126.729 254.876 126.729Z" fill="white" stroke="#0E2831" stroke-miterlimit="10"/>
<path d="M270.732 109.923C270.732 109.923 280.244 125.595 287.426 124.935C294.609 124.275 296.744 120.933 296.744 120.933L301.58 127.432C301.58 127.432 296.413 129.598 297.413 132.272C298.412 134.946 302.918 140.937 302.918 140.937L299.242 156.609C299.242 156.609 302.08 157.108 302.588 156.11C303.096 155.111 305.586 148.942 305.586 148.942C306.26 148.511 306.989 148.175 307.755 147.944C308.637 147.754 309.549 147.754 310.431 147.944C310.431 147.944 312.261 141.775 312.972 141.606C313.684 141.436 320.316 139.6 322.823 133.101C325.33 126.602 321.485 116.262 312.803 108.096C304.121 99.9296 285.766 97.7548 284.767 96.2485C283.767 94.7423 289.442 96.9086 288.273 93.5745C287.104 90.2404 279.761 85.9078 270.418 90.5789C261.076 95.25 262.406 100.412 263.405 102.079L264.404 103.771C264.404 103.771 256.561 101.106 251.055 104.44C245.55 107.774 242.882 114.442 245.38 115.111C247.879 115.779 251.055 114.264 251.055 114.264C251.055 114.264 247.718 119.765 248.718 120.933C249.717 122.1 254.892 126.763 254.892 126.763C254.892 126.763 256.9 115.094 261.067 113.427C265.235 111.76 270.732 109.923 270.732 109.923Z" fill="#0E2831" stroke="#0E2831" stroke-miterlimit="10"/>
<path d="M267.725 132.433L269.232 137.273L260.72 153.275L269.732 156.778" stroke="#0E2831" stroke-miterlimit="10"/>
<path d="M266.056 130.596C266.056 130.596 262.058 127.432 258.713 128.269C255.367 129.107 257.383 129.598 259.721 130.436C262.058 131.273 266.725 133.431 266.056 130.596Z" fill="#0E2831" stroke="#0E2831" stroke-miterlimit="10"/>
<path d="M278.414 129.936C278.414 129.936 274.569 130.935 276.407 131.764C278.245 132.594 283.75 130.918 285.919 131.764C288.087 132.61 290.925 135.437 290.764 134.1C290.517 132.95 289.975 131.884 289.191 131.007C288.407 130.13 287.407 129.472 286.291 129.099C283.251 128.1 278.414 129.936 278.414 129.936Z" fill="#0E2831" stroke="#0E2831" stroke-miterlimit="10"/>
<path d="M263.854 138.001C263.557 139.211 262.744 140.049 262.024 139.871C261.304 139.693 260.966 138.585 261.254 137.375C261.542 136.164 262.372 135.327 263.083 135.496C263.795 135.665 264.142 136.791 263.854 138.001Z" fill="#0E2831"/>
<path d="M282.056 142.757C281.76 143.958 280.938 144.796 280.227 144.627C279.515 144.457 279.168 143.332 279.456 142.088C279.744 140.844 280.566 140.04 281.285 140.218C282.005 140.396 282.336 141.546 282.056 142.757Z" fill="#0E2831"/>
<path d="M255.545 158.775L262.389 163.277" stroke="#0E2831" stroke-miterlimit="10"/>
<path d="M325.932 199.233C325.932 199.233 349.564 208.304 354.104 221.895C358.644 235.485 352.909 252.663 350.521 259.822C348.132 266.981 333.335 294.881 330.946 301.557C328.558 308.234 324.975 316.349 324.975 316.349C324.975 316.349 321.637 296.311 312.549 283.914C303.46 271.517 301.326 260.296 301.326 260.296C301.326 260.296 317.8 231.194 322.095 222.132" fill="#5CAD2F"/>
<path d="M325.932 199.233C325.932 199.233 349.564 208.304 354.104 221.895C358.644 235.485 352.909 252.663 350.521 259.822C348.132 266.981 333.335 294.881 330.946 301.557C328.558 308.234 324.975 316.349 324.975 316.349C324.975 316.349 321.637 296.311 312.549 283.914C303.46 271.517 301.326 260.296 301.326 260.296C301.326 260.296 317.8 231.194 322.095 222.132" stroke="#0E2831" stroke-miterlimit="10"/>
<path d="M303.85 255.252C303.85 255.252 308.686 252.841 310.296 253.645C311.905 254.449 332.598 265.492 335.283 278.075C337.222 287.54 335.896 297.383 331.522 306C329.1 310.57 324.534 319.421 321.044 320.496C317.555 321.57 314.59 292.85 307.34 277.821C300.089 262.792 303.85 255.252 303.85 255.252Z" fill="#5CAD2F" stroke="#0E2831" stroke-miterlimit="10"/>
<path d="M311.846 241.451C311.846 241.451 316.14 226.904 317.817 221.184" stroke="#0E2831" stroke-miterlimit="10"/>
<path d="M268.733 189.789C268.733 189.789 262.058 180.481 256.875 174.287C251.691 168.092 246.355 164.445 244.525 164.978C242.695 165.511 241.984 167.314 243.187 169.48C244.389 171.646 249.861 176.487 250.861 177.824C251.86 179.161 253.402 183.993 253.402 183.993C253.402 183.993 248.565 184.323 247.727 185.321C246.947 186.48 246.278 187.71 245.728 188.994C244.72 189.503 243.849 190.246 243.187 191.16C242.688 191.857 242.347 192.654 242.187 193.496C242.018 194.164 239.646 195.332 239.85 198.328C240.053 201.323 242.856 205.664 243.856 207.636C244.855 209.608 252.199 218.467 253.537 219.974C254.876 221.48 262.55 234.808 264.548 239.31C266.547 243.812 285.91 296.006 291.585 303.842C297.26 311.678 307.772 319.176 313.447 321.85C319.122 324.524 323.128 320.013 325.796 314.344C328.464 308.674 330.802 297.335 325.635 284.328C320.468 271.322 310.279 260.152 302.436 253.484C294.592 246.816 279.905 230.145 278.236 227.141C276.568 224.137 274.433 217.469 274.433 217.469C274.433 217.469 278.77 204.776 279.1 201.797C279.431 198.818 277.77 193.462 278.253 191.126C278.736 188.791 280.752 184.12 281.59 182.123C282.429 180.125 285.258 176.783 283.759 175.285C282.26 173.787 276.085 175.615 273.916 179.118C271.983 182.572 270.252 186.135 268.733 189.789Z" fill="white" stroke="#0E2831" stroke-miterlimit="10"/>
<path d="M217.15 225.897C217.649 223.249 217.997 221.421 217.997 221.421L217.15 225.897Z" fill="#92E3A9"/>
<path d="M217.15 225.897C217.649 223.249 217.997 221.421 217.997 221.421" stroke="#0E2831" stroke-miterlimit="10"/>
<path d="M215.633 198.522C215.633 198.522 202.979 200.215 189.85 214.262C176.721 228.309 182.447 261.726 183.642 268.648C184.836 275.57 186.75 296.819 186.75 296.819L220.411 285.606C220.411 285.606 214.922 248.161 214.439 244.819C214.202 243.126 215.117 237.203 216.082 231.702" fill="#5CAD2F"/>
<path d="M215.633 198.522C215.633 198.522 202.979 200.215 189.85 214.262C176.721 228.309 182.447 261.726 183.642 268.648C184.836 275.57 186.75 296.819 186.75 296.819L220.411 285.606C220.411 285.606 214.922 248.161 214.439 244.819C214.202 243.126 215.117 237.203 216.082 231.702" stroke="#0E2831" stroke-miterlimit="10"/>
<path d="M183.404 289.397C183.404 289.397 186.75 307.286 188.419 308.234C190.087 309.182 216.108 302.04 218.979 301.557C221.85 301.075 223.511 301.794 223.511 299.416C223.511 297.039 221.122 285.818 219.691 283.914C218.259 282.01 187.224 286.055 184.599 286.774C181.973 287.493 183.404 289.397 183.404 289.397Z" fill="#5CAD2F" stroke="#0E2831" stroke-miterlimit="10"/>
<path d="M202.437 275.57C208.366 277.942 214.121 280.73 219.657 283.914C219.657 283.914 211.542 268.682 208.196 265.542" stroke="#0E2831" stroke-miterlimit="10"/>
<path d="M197.965 273.895C198.922 274.225 199.87 274.572 200.802 274.919" stroke="#0E2831" stroke-miterlimit="10"/>
<path d="M276.263 351.975C282.437 349.775 288.121 347.355 291.509 344.968" stroke="#0E2831" stroke-miterlimit="10"/>
<path d="M247.151 360.471C247.151 360.471 260.339 357.348 272.858 353.151" stroke="#0E2831" stroke-miterlimit="10"/>
<path d="M302.622 343.978C296.134 347.211 285.859 351.933 277.465 354.031" stroke="#0E2831" stroke-miterlimit="10"/>
<path d="M308.983 340.678C308.983 340.678 307.653 341.414 305.442 342.548" stroke="#0E2831" stroke-miterlimit="10"/>
<g opacity="0.28">
<path opacity="0.28" d="M85.6503 17.6859C28.8409 45.0271 18.0669 125.299 54.0989 173.55C61.6289 183.637 71.4712 192.167 83.1346 197.084C122.944 213.949 154.851 180.413 174.257 149.594C205.24 100.403 209.111 88.2434 208.561 96.5278C208.01 104.812 222.392 113.664 230.693 70.0328C241.306 14.1826 163.076 1.48932 123.478 6.7697C110.372 8.39583 97.6055 12.08 85.6503 17.6859Z" fill="white" stroke="#0E2831" stroke-miterlimit="10"/>
<path opacity="0.28" d="M225.888 119.218C229.22 113.208 228.995 106.717 225.385 104.72C221.776 102.723 216.149 105.976 212.817 111.986C209.486 117.996 209.711 124.487 213.32 126.484C216.929 128.481 222.556 125.228 225.888 119.218Z" fill="white" stroke="#0E2831" stroke-miterlimit="10"/>
<path opacity="0.28" d="M231.82 120.45C229.855 123.996 229.99 127.838 232.116 129.014C234.242 130.19 237.579 128.269 239.545 124.724C241.51 121.178 241.383 117.336 239.248 116.16C237.114 114.984 233.776 116.896 231.82 120.45Z" fill="white" stroke="#0E2831" stroke-miterlimit="10"/>
</g>
<path d="M88.9367 12.4902C32.1104 39.7975 21.3364 120.07 57.3684 168.321C64.8984 178.408 74.7492 186.938 86.4041 191.854C126.214 208.719 158.121 175.184 177.526 144.364C208.51 95.1739 212.389 83.0138 211.83 91.2982C211.271 99.5827 225.662 108.434 233.963 64.7694C244.576 8.91912 166.346 -3.77411 126.748 1.50628C113.644 3.15559 100.883 6.86256 88.9367 12.4902Z" fill="#173846" stroke="white" stroke-miterlimit="10"/>
<path d="M216.091 106.759C212.753 112.767 212.982 119.257 216.59 121.254C220.199 123.251 225.823 119.993 229.16 113.985C232.497 107.977 232.26 101.487 228.652 99.4895C225.044 97.4925 219.419 100.75 216.091 106.759Z" fill="#173846" stroke="white" stroke-miterlimit="10"/>
<path d="M235.098 115.221C233.124 118.775 233.26 122.608 235.394 123.784C237.529 124.961 240.849 123.048 242.814 119.494C244.779 115.94 244.652 112.107 242.518 110.93C240.383 109.754 237.063 111.667 235.098 115.221Z" fill="#173846" stroke="white" stroke-miterlimit="10"/>
<g clip-path="url(#clip1_2_2331)">
<g opacity="0.08">
<path opacity="0.08" d="M173.153 71.1761C172.317 66.3439 170.722 61.6737 168.427 57.3381C164.414 49.7979 157.144 38.3498 148.172 33.8946C134.314 27.01 121.204 26.6822 108.456 37.5008C95.7077 48.3193 85.8493 79.136 81.1302 84.3813C76.4112 89.6267 63.5217 90.6102 57.893 98.8061C52.2644 107.002 52.1527 126.344 52.1527 126.344H175.061C175.061 126.344 178.782 103.137 173.153 71.1761Z" fill="#C6FF00"/>
<path opacity="0.8" d="M173.153 71.1761C172.317 66.3439 170.722 61.6737 168.427 57.3381C164.414 49.7979 157.144 38.3498 148.172 33.8946C134.314 27.01 121.204 26.6822 108.456 37.5008C95.7077 48.3193 85.8493 79.136 81.1302 84.3813C76.4112 89.6267 63.5217 90.6102 57.893 98.8061C52.2644 107.002 52.1527 126.344 52.1527 126.344H175.061C175.061 126.344 178.782 103.137 173.153 71.1761Z" fill="white"/>
</g>
<path d="M158.385 59.4035C156.92 58.6036 156.257 59.2691 155.725 58.6036C155.193 57.9381 157.186 56.2137 153.193 54.486C153.193 54.486 152.927 50.765 147.469 50.6306C142.011 50.4962 143.476 54.3516 142.011 55.2728C140.547 56.194 140.146 54.7417 138.681 55.6727C137.217 56.6038 137.883 58.4626 136.685 58.7282C135.486 58.9937 133.89 57.5316 132.416 58.4626C130.941 59.3937 130.951 60.1903 130.284 60.1903C129.618 60.1903 128.288 59.6592 127.49 60.1903C126.692 60.7214 125.759 61.3869 125.759 61.3869H159.452C159.452 61.3869 159.85 60.1903 158.385 59.4035Z" fill="white"/>
<path opacity="0.5" d="M158.385 59.4035C156.92 58.6036 156.257 59.2691 155.725 58.6036C155.193 57.9381 157.186 56.2137 153.193 54.486C153.193 54.486 152.927 50.765 147.469 50.6306C142.011 50.4962 143.476 54.3516 142.011 55.2728C140.547 56.194 140.146 54.7417 138.681 55.6727C137.217 56.6038 137.883 58.4626 136.685 58.7282C135.486 58.9937 133.89 57.5316 132.416 58.4626C130.941 59.3937 130.951 60.1903 130.284 60.1903C129.618 60.1903 128.288 59.6592 127.49 60.1903C126.692 60.7214 125.759 61.3869 125.759 61.3869H159.452C159.452 61.3869 159.85 60.1903 158.385 59.4035Z" fill="white"/>
<path d="M129.348 41.402C128.481 40.9299 128.087 41.3233 127.772 40.9299C127.457 40.5365 128.639 39.5104 126.271 38.4875C126.271 38.4875 126.114 36.2812 122.879 36.1927C119.644 36.1042 120.511 38.399 119.644 38.9498C118.777 39.5005 118.541 38.6219 117.674 39.1858C116.807 39.7497 117.201 40.8414 116.492 40.9988C115.782 41.1561 114.85 40.2874 113.966 40.8414C113.083 41.3954 113.099 41.8642 112.702 41.8642C112.305 41.8642 111.52 41.5364 111.06 41.8642C110.6 42.1921 110.036 42.5724 110.036 42.5724H129.999C129.999 42.5724 130.219 41.8741 129.348 41.402Z" fill="white"/>
<path opacity="0.5" d="M129.348 41.402C128.481 40.9299 128.087 41.3233 127.772 40.9299C127.457 40.5365 128.639 39.5104 126.271 38.4875C126.271 38.4875 126.114 36.2812 122.879 36.1927C119.644 36.1042 120.511 38.399 119.644 38.9498C118.777 39.5005 118.541 38.6219 117.674 39.1858C116.807 39.7497 117.201 40.8414 116.492 40.9988C115.782 41.1561 114.85 40.2874 113.966 40.8414C113.083 41.3954 113.099 41.8642 112.702 41.8642C112.305 41.8642 111.52 41.5364 111.06 41.8642C110.6 42.1921 110.036 42.5724 110.036 42.5724H129.999C129.999 42.5724 130.219 41.8741 129.348 41.402Z" fill="white"/>
<path d="M119.493 73.0382C118.626 72.5661 118.232 72.9595 117.917 72.5661C117.602 72.1727 118.784 71.1466 116.416 70.1238C116.416 70.1238 116.259 67.9174 113.024 67.8289C109.789 67.7404 110.656 70.0352 109.789 70.586C108.922 71.1368 108.683 70.2582 107.819 70.8221C106.955 71.3859 107.346 72.4612 106.637 72.635C105.927 72.8087 104.995 71.9269 104.111 72.4776C103.228 73.0284 103.241 73.5005 102.847 73.5005C102.453 73.5005 101.665 73.1726 101.205 73.5005C100.745 73.8283 100.177 74.2119 100.177 74.2119H120.14C120.14 74.2119 120.36 73.5103 119.493 73.0382Z" fill="white"/>
<path opacity="0.5" d="M119.493 73.0382C118.626 72.5661 118.232 72.9595 117.917 72.5661C117.602 72.1727 118.784 71.1466 116.416 70.1238C116.416 70.1238 116.259 67.9174 113.024 67.8289C109.789 67.7404 110.656 70.0352 109.789 70.586C108.922 71.1368 108.683 70.2582 107.819 70.8221C106.955 71.3859 107.346 72.4612 106.637 72.635C105.927 72.8087 104.995 71.9269 104.111 72.4776C103.228 73.0284 103.241 73.5005 102.847 73.5005C102.453 73.5005 101.665 73.1726 101.205 73.5005C100.745 73.8283 100.177 74.2119 100.177 74.2119H120.14C120.14 74.2119 120.36 73.5103 119.493 73.0382Z" fill="white"/>
<path d="M148.527 126.102H165.449C165.12 124.036 163.807 124.4 163.62 121.184C163.531 119.571 165.025 117.578 164.894 115.457C164.789 113.713 163.065 111.923 162.923 109.926C162.805 108.126 164.273 106.127 164.132 104.186C163.997 102.35 162.25 100.58 162.096 98.6815C161.941 96.7834 163.386 94.7999 163.216 92.9182C163.045 91.0364 161.268 89.312 161.078 87.4531C160.884 85.5451 162.28 83.4929 162.063 81.6701C161.836 79.7326 160.004 78.0639 159.764 76.2739C159.485 74.2872 160.782 72.1629 160.48 70.4483C160.109 68.3468 158.148 66.8257 157.735 65.275C156.966 62.3868 157.078 59.6002 156.155 59.4199C155.186 59.2264 154.966 61.954 154.234 64.9931C153.863 66.5273 151.935 68.0813 151.633 70.1827C151.377 71.8875 152.733 73.9561 152.51 75.9363C152.313 77.7098 150.54 79.4113 150.352 81.339C150.191 83.1519 151.64 85.1485 151.495 87.0433C151.357 88.8858 149.627 90.6495 149.505 92.5117C149.384 94.3738 150.881 96.3408 150.779 98.1898C150.677 100.039 148.973 101.868 148.888 103.691C148.796 105.615 150.316 107.559 150.244 109.346C150.162 111.313 148.484 113.142 148.421 114.873C148.346 116.975 149.893 118.912 149.847 120.512C149.742 123.984 148.149 123.266 148.093 126.059L148.527 126.102Z" fill="#5CAD2F"/>
<path d="M155.791 64.9866V125.322" stroke="#0E2831" stroke-miterlimit="10"/>
<path d="M158.434 71.3105L155.679 73.6873L153.423 70.6843" stroke="#0E2831" stroke-miterlimit="10"/>
<path d="M158.434 81.8111L155.679 84.1879L153.423 81.1882" stroke="#0E2831" stroke-miterlimit="10"/>
<path d="M158.434 91.6888L155.679 94.0656L153.423 91.0659" stroke="#0E2831" stroke-miterlimit="10"/>
<path d="M158.434 103.442L155.679 105.819L153.423 102.816" stroke="#0E2831" stroke-miterlimit="10"/>
<path d="M158.434 115.319L155.679 117.696L153.423 114.696" stroke="#0E2831" stroke-miterlimit="10"/>
<path d="M130.728 126.102H145.404C145.121 124.312 143.968 124.626 143.814 121.84C143.739 120.44 145.036 118.709 144.924 116.873C144.829 115.362 143.335 113.808 143.22 112.077C143.115 110.516 144.392 108.782 144.267 107.097C144.149 105.507 142.625 103.979 142.501 102.327C142.376 100.675 143.62 98.9602 143.486 97.3276C143.351 95.6949 141.794 94.1967 141.634 92.5903C141.463 90.9347 142.671 89.1546 142.487 87.5744C142.29 85.8926 140.704 84.4436 140.487 82.8962C140.248 81.1718 141.374 79.3293 141.111 77.8443C140.783 76.0215 139.088 74.7003 138.731 73.3562C138.074 70.8515 138.149 68.4386 137.361 68.2813C136.52 68.1108 136.33 70.4778 135.693 73.1267C135.365 74.438 133.723 75.8018 133.44 77.6246C133.217 79.1031 134.392 80.903 134.199 82.6143C134.028 84.1518 132.481 85.6271 132.33 87.299C132.189 88.8694 133.443 90.6036 133.315 92.2461C133.187 93.8886 131.696 95.3671 131.591 96.9866C131.486 98.6061 132.783 100.308 132.695 101.904C132.606 103.501 131.128 105.094 131.053 106.674C130.974 108.346 132.294 110.031 132.228 111.592C132.159 113.31 130.705 114.87 130.652 116.385C130.586 118.207 131.926 119.889 131.887 121.276C131.795 124.286 130.416 123.663 130.366 126.085L130.728 126.102Z" fill="#5CAD2F"/>
<path d="M137.023 73.1038V125.426" stroke="#0E2831" stroke-miterlimit="10"/>
<path d="M139.312 78.5884L136.924 80.6505L134.967 78.0475" stroke="#0E2831" stroke-miterlimit="10"/>
<path d="M139.312 87.6957L136.924 89.7578L134.967 87.1548" stroke="#0E2831" stroke-miterlimit="10"/>
<path d="M139.312 96.2621L136.924 98.3209L134.967 95.7179" stroke="#0E2831" stroke-miterlimit="10"/>
<path d="M139.312 106.451L136.924 108.513L134.967 105.91" stroke="#0E2831" stroke-miterlimit="10"/>
<path d="M139.312 116.752L136.924 118.811L134.967 116.211" stroke="#0E2831" stroke-miterlimit="10"/>
<path d="M79.0645 126.102H99.4775C99.0868 123.61 97.4809 124.049 97.2675 120.201C97.1624 118.253 98.9653 115.847 98.8076 113.293C98.6795 111.188 96.6008 109.031 96.4399 106.622C96.2954 104.448 98.0819 102.032 97.898 99.6945C97.7338 97.4817 95.6255 95.3573 95.4416 93.0559C95.2577 90.8135 96.9949 88.3776 96.7913 86.1057C96.5877 83.8338 94.44 81.7521 94.2134 79.5162C93.9802 77.2214 95.6616 74.7397 95.4055 72.5366C95.1296 70.2024 92.9228 68.1829 92.624 66.029C92.2956 63.6326 93.8554 61.0722 93.4876 59.0035C93.041 56.4693 90.6766 54.6335 90.1774 52.7746C89.2513 49.2897 89.3663 45.9294 88.2727 45.7098C87.1036 45.477 86.8376 48.7717 85.9543 52.4501C85.5076 54.2991 83.1957 56.1743 82.8181 58.7085C82.5094 60.764 84.1317 63.2621 83.8755 65.6488C83.6358 67.7862 81.4848 69.8418 81.2746 72.1661C81.0776 74.3495 82.8247 76.7558 82.6539 79.0507C82.4864 81.2701 80.3978 83.388 80.2533 85.6435C80.1088 87.899 81.8953 90.266 81.7869 92.492C81.6589 94.7868 79.6097 96.9309 79.5046 99.1274C79.3929 101.452 81.2287 103.796 81.1466 105.95C81.048 108.34 79.0251 110.539 78.9496 112.615C78.8609 115.149 80.7262 117.489 80.6671 119.417C80.5423 123.607 78.6212 122.738 78.5522 126.108L79.0645 126.102Z" fill="#5CAD2F"/>
<path d="M87.8293 52.3845V125.161" stroke="#0E2831" stroke-miterlimit="10"/>
<path d="M91.0149 60.0165L87.6915 62.8785L84.9724 59.2625" stroke="#0E2831" stroke-miterlimit="10"/>
<path d="M91.0149 72.6809L87.6915 75.5462L84.9724 71.9269" stroke="#0E2831" stroke-miterlimit="10"/>
<path d="M91.0149 84.5944L87.6915 87.4596L84.9724 83.8403" stroke="#0E2831" stroke-miterlimit="10"/>
<path d="M91.0149 98.77L87.6915 101.635L84.9724 98.016" stroke="#0E2831" stroke-miterlimit="10"/>
<path d="M91.0149 113.097L87.6915 115.962L84.9724 112.343" stroke="#0E2831" stroke-miterlimit="10"/>
<path d="M74.5721 103.583V121.342C74.5721 122.196 74.9122 123.016 75.5176 123.62C76.123 124.225 76.9441 124.564 77.8003 124.564H114.695C115.552 124.564 116.373 124.225 116.978 123.62C117.583 123.016 117.924 122.196 117.924 121.342V119.319" stroke="#0E2831" stroke-width="2" stroke-linecap="round" stroke-linejoin="round"/>
<path d="M75.7379 100.114H72.9893V102.137H75.7379V100.114Z" fill="#0E2831" stroke="#0E2831" stroke-linecap="round" stroke-linejoin="round"/>
<path d="M73.3341 90.4169H59.8108V127.082H73.3341V90.4169Z" fill="white"/>
<path d="M59.8108 127.082H65.8434V95.2721L65.8073 90.4169H59.8108V127.082Z" fill="#C6FF00"/>
<path opacity="0.5" d="M59.8108 127.082H65.8434V95.2721L65.8073 90.4169H59.8108V127.082Z" fill="white"/>
<path d="M68.4804 107.809H67.528L68.2308 105.91H65.9484L64.9665 108.569H65.6529L64.4608 111.795L68.4804 107.809Z" fill="#0E2831"/>
<path d="M73.3341 90.4169H59.8108V127.082H73.3341V90.4169Z" stroke="#0E2831" stroke-miterlimit="10"/>
<path d="M66.5724 101.255C70.3068 101.255 73.3341 96.636 73.3341 90.9381C73.3341 85.2402 70.3068 80.6211 66.5724 80.6211C62.8381 80.6211 59.8108 85.2402 59.8108 90.9381C59.8108 96.636 62.8381 101.255 66.5724 101.255Z" fill="white" stroke="#0E2831" stroke-linecap="round" stroke-linejoin="round"/>
<path d="M68.152 87.6991H64.9896C64.7048 87.6991 64.474 87.9295 64.474 88.2138V90.5054C64.474 90.7896 64.7048 91.0201 64.9896 91.0201H68.152C68.4368 91.0201 68.6676 90.7896 68.6676 90.5054V88.2138C68.6676 87.9295 68.4368 87.6991 68.152 87.6991Z" fill="#C6FF00" stroke="#0E2831" stroke-linecap="round" stroke-linejoin="round"/>
<path d="M68.8844 97.085C68.8844 96.6311 68.7496 96.1874 68.497 95.8101C68.2444 95.4327 67.8854 95.1385 67.4653 94.9648C67.0453 94.7912 66.5831 94.7457 66.1372 94.8343C65.6912 94.9228 65.2816 95.1414 64.9602 95.4623C64.6387 95.7832 64.4197 96.1922 64.331 96.6373C64.2423 97.0825 64.2879 97.5439 64.4618 97.9632C64.6358 98.3825 64.9305 98.741 65.3085 98.9931C65.6865 99.2453 66.131 99.3799 66.5856 99.3799C66.8875 99.3799 67.1864 99.3205 67.4653 99.2052C67.7442 99.0899 67.9976 98.9208 68.2111 98.7077C68.4246 98.4946 68.5939 98.2416 68.7094 97.9632C68.8249 97.6848 68.8844 97.3864 68.8844 97.085Z" fill="#0E2831" stroke="#0E2831" stroke-linecap="round" stroke-linejoin="round"/>
<path opacity="0.2" d="M67.7284 97.085C67.7284 96.8568 67.6606 96.6337 67.5336 96.4439C67.4066 96.2541 67.226 96.1062 67.0148 96.0189C66.8036 95.9315 66.5712 95.9087 66.3469 95.9532C66.1227 95.9977 65.9167 96.1076 65.7551 96.269C65.5934 96.4304 65.4833 96.636 65.4387 96.8599C65.3941 97.0837 65.417 97.3158 65.5045 97.5266C65.592 97.7375 65.7401 97.9177 65.9302 98.0445C66.1203 98.1713 66.3438 98.239 66.5725 98.239C66.8788 98.2381 67.1723 98.1163 67.3889 97.9001C67.6055 97.6838 67.7275 97.3908 67.7284 97.085Z" fill="white"/>
<path d="M67.2949 83.9454C67.2949 83.8027 67.2525 83.6633 67.1732 83.5447C67.0938 83.4261 66.9809 83.3336 66.8489 83.279C66.7169 83.2244 66.5716 83.2102 66.4315 83.238C66.2914 83.2658 66.1626 83.3345 66.0616 83.4354C65.9605 83.5362 65.8917 83.6647 65.8639 83.8047C65.836 83.9446 65.8503 84.0896 65.905 84.2214C65.9597 84.3532 66.0523 84.4658 66.1711 84.545C66.2899 84.6243 66.4296 84.6666 66.5724 84.6666C66.7638 84.6657 66.947 84.5895 67.0823 84.4544C67.2177 84.3193 67.294 84.1364 67.2949 83.9454Z" fill="#0E2831" stroke="#0E2831" stroke-linecap="round" stroke-linejoin="round"/>
<path d="M75.1928 101.95H73.9941V103.973H75.1928V101.95Z" fill="#0E2831" stroke="#0E2831" stroke-linecap="round" stroke-linejoin="round"/>
<path d="M73.3341 120.329H59.8108V127.082H73.3341V120.329Z" fill="#C6FF00" stroke="#0E2831" stroke-linecap="round" stroke-linejoin="round"/>
<path d="M177.836 124.804H51.1642V127.259H177.836V124.804Z" fill="white" stroke="#0E2831" stroke-linecap="round" stroke-linejoin="round"/>
<path d="M177.836 126.679H51.1642V127.833H177.836V126.679Z" fill="#0E2831" stroke="#0E2831" stroke-linecap="round" stroke-linejoin="round"/>
<path d="M98.0162 99.1799H97.8389C97.6624 99.1799 97.4885 99.1381 97.3313 99.058C97.1742 98.9779 97.0383 98.8617 96.9348 98.7191C96.8313 98.5764 96.7631 98.4113 96.7359 98.2372C96.7087 98.0632 96.7232 97.8851 96.7782 97.7178C97.0015 97.0293 97.3791 96.3343 98.0162 96.2294C99.3298 96.0097 102.942 97.1047 102.942 97.8686C102.942 98.6324 102.942 98.9603 102.502 98.9603H99.7666L97.5762 101.367L97.5302 101.327C97.4171 101.233 97.3261 101.115 97.2636 100.981C97.2012 100.848 97.1688 100.702 97.1688 100.555C97.1688 100.408 97.2012 100.262 97.2636 100.129C97.3261 99.9957 97.4171 99.8776 97.5302 99.7831C97.7255 99.6112 97.8899 99.4072 98.0162 99.1799Z" fill="#0E2831" stroke="#0E2831" stroke-linecap="round" stroke-linejoin="round"/>
<path d="M122.754 119.506H159.098C159.098 119.506 164.352 116.008 163.255 106.828C162.158 97.6489 156.25 103.77 154.06 109.89H137.86C137.86 109.89 134.356 102.894 128.665 103.77C122.974 104.645 122.754 119.506 122.754 119.506Z" fill="#0E2831" stroke="#0E2831" stroke-linecap="round" stroke-linejoin="round"/>
<path d="M131.683 117.689C131.683 114.991 130.912 112.565 129.674 110.851V108.294H125.293C121.759 108.294 118.899 112.5 118.899 117.689C118.899 122.879 121.759 127.069 125.293 127.069H129.674V124.512C130.912 122.807 131.683 120.384 131.683 117.689Z" fill="#0E2831" stroke="#0E2831" stroke-linecap="round" stroke-linejoin="round"/>
<path d="M129.673 127.079C133.205 127.079 136.067 122.874 136.067 117.686C136.067 112.499 133.205 108.294 129.673 108.294C126.142 108.294 123.28 112.499 123.28 117.686C123.28 122.874 126.142 127.079 129.673 127.079Z" fill="#0E2831"/>
<path opacity="0.2" d="M129.673 127.079C133.205 127.079 136.067 122.874 136.067 117.686C136.067 112.499 133.205 108.294 129.673 108.294C126.142 108.294 123.28 112.499 123.28 117.686C123.28 122.874 126.142 127.079 129.673 127.079Z" fill="white"/>
<path d="M129.673 127.079C133.205 127.079 136.067 122.874 136.067 117.686C136.067 112.499 133.205 108.294 129.673 108.294C126.142 108.294 123.28 112.499 123.28 117.686C123.28 122.874 126.142 127.079 129.673 127.079Z" stroke="#0E2831" stroke-linecap="round" stroke-linejoin="round"/>
<path d="M92.1905 108.294H88.0364C84.6999 108.294 81.9939 112.5 81.9939 117.689C81.9939 122.879 84.713 127.069 88.0364 127.069H92.1774C95.5139 127.069 98.2199 122.863 98.2199 117.676C98.2199 112.49 95.527 108.294 92.1905 108.294Z" fill="#0E2831" stroke="#0E2831" stroke-linecap="round" stroke-linejoin="round"/>
<path d="M129.673 125.181C132.49 125.181 134.773 121.825 134.773 117.686C134.773 113.547 132.49 110.192 129.673 110.192C126.857 110.192 124.573 113.547 124.573 117.686C124.573 121.825 126.857 125.181 129.673 125.181Z" fill="white" stroke="#0E2831" stroke-linecap="round" stroke-linejoin="round"/>
<path d="M161.623 117.689C161.623 114.991 161.13 112.565 160.342 110.851V108.294H156.474C154.227 108.294 152.405 112.5 152.405 117.689C152.405 122.879 154.227 127.069 156.474 127.069H160.342V124.512C161.13 122.807 161.623 120.384 161.623 117.689Z" fill="#0E2831" stroke="#0E2831" stroke-linecap="round" stroke-linejoin="round"/>
<path d="M160.342 127.079C162.589 127.079 164.411 122.874 164.411 117.686C164.411 112.499 162.589 108.294 160.342 108.294C158.095 108.294 156.273 112.499 156.273 117.686C156.273 122.874 158.095 127.079 160.342 127.079Z" fill="#0E2831"/>
<path opacity="0.2" d="M160.342 127.079C162.589 127.079 164.411 122.874 164.411 117.686C164.411 112.499 162.589 108.294 160.342 108.294C158.095 108.294 156.273 112.499 156.273 117.686C156.273 122.874 158.095 127.079 160.342 127.079Z" fill="white"/>
<path d="M160.342 127.079C162.589 127.079 164.411 122.874 164.411 117.686C164.411 112.499 162.589 108.294 160.342 108.294C158.095 108.294 156.273 112.499 156.273 117.686C156.273 122.874 158.095 127.079 160.342 127.079Z" stroke="#0E2831" stroke-linecap="round" stroke-linejoin="round"/>
<path d="M160.342 125.181C162.134 125.181 163.587 121.825 163.587 117.686C163.587 113.547 162.134 110.192 160.342 110.192C158.55 110.192 157.098 113.547 157.098 117.686C157.098 121.825 158.55 125.181 160.342 125.181Z" fill="white" stroke="#0E2831" stroke-linecap="round" stroke-linejoin="round"/>
<path d="M124.285 119.981C124.285 112.497 126.892 106.428 130.104 106.428C133.315 106.428 135.923 112.497 135.923 119.981C135.923 120.394 135.923 120.801 135.897 121.201H156.628C156.615 120.801 156.609 120.394 156.609 119.981C156.609 112.497 158.507 106.428 160.848 106.428C162.411 106.428 163.777 109.14 164.51 113.172V102.117C164.51 101.613 164.333 101.125 164.01 100.738C163.688 100.351 163.239 100.088 162.743 99.9962L162.644 99.9765C161.206 99.688 158.622 96.9637 154.599 93.5215C150.576 90.0792 146.983 89.7939 146.983 89.7939H110.696C110.009 89.7966 109.342 90.0273 108.801 90.4496L96.4237 99.9864C96.4237 99.9864 85.3601 102.137 82.9168 104.576C80.4735 107.015 80.7625 121.211 80.7625 121.211H124.311C124.294 120.801 124.285 120.394 124.285 119.981Z" fill="#5CAD2F"/>
<path opacity="0.3" d="M131.47 99.9765L133.391 89.7939H110.696C110.009 89.7966 109.342 90.0273 108.801 90.4496L96.4237 99.9864C96.4237 99.9864 85.3601 102.137 82.9168 104.576C80.4735 107.015 80.7625 121.211 80.7625 121.211H119.618C119.901 113.546 121.661 109.9 121.661 109.9H110.932C119.25 100.927 131.47 99.9765 131.47 99.9765Z" fill="black"/>
<path d="M124.285 119.981C124.285 112.497 126.892 106.428 130.104 106.428C133.315 106.428 135.923 112.497 135.923 119.981C135.923 120.394 135.923 120.801 135.897 121.201H156.628C156.615 120.801 156.609 120.394 156.609 119.981C156.609 112.497 158.507 106.428 160.848 106.428C162.411 106.428 163.777 109.14 164.51 113.172V102.117C164.51 101.613 164.333 101.125 164.01 100.738C163.688 100.351 163.239 100.088 162.743 99.9962L162.644 99.9765C161.206 99.688 158.622 96.9637 154.599 93.5215C150.576 90.0792 146.983 89.7939 146.983 89.7939H110.696C110.009 89.7966 109.342 90.0273 108.801 90.4496L96.4237 99.9864C96.4237 99.9864 85.3601 102.137 82.9168 104.576C80.4735 107.015 80.7625 121.211 80.7625 121.211H124.311C124.294 120.801 124.285 120.394 124.285 119.981Z" stroke="#0E2831" stroke-linecap="round" stroke-linejoin="round"/>
<path d="M138.077 89.7939H110.696C110.009 89.7966 109.342 90.0273 108.801 90.4496L96.4236 99.9864H131.47L138.077 89.7939Z" fill="#5CAD2F" stroke="#0E2831" stroke-linecap="round" stroke-linejoin="round"/>
<path d="M123.733 103.812C121.763 103.838 118.311 103.97 116.817 104.566C115.579 105.052 114.378 105.627 113.224 106.287H120.262L123.733 103.812Z" fill="#0E2831" stroke="#0E2831" stroke-linecap="round" stroke-linejoin="round"/>
<path d="M120.695 108.438V107.146H113.224L114.577 108.392C114.556 108.405 114.536 108.42 114.518 108.438H120.695Z" fill="#0E2831" stroke="#0E2831" stroke-linecap="round" stroke-linejoin="round"/>
<path d="M121.411 106.573V108.448C121.702 108.423 121.983 108.331 122.232 108.18C122.482 108.028 122.693 107.822 122.849 107.576C123.569 106.428 125.184 103.812 125.184 103.812L121.411 106.573Z" fill="#0E2831" stroke="#0E2831" stroke-linecap="round" stroke-linejoin="round"/>
<path d="M83.6063 108.382L84.9593 107.136H81.7706C81.6721 107.54 81.5802 107.972 81.5013 108.428H83.6655C83.647 108.411 83.6273 108.396 83.6063 108.382Z" fill="#0E2831" stroke="#0E2831" stroke-linecap="round" stroke-linejoin="round"/>
<path d="M82.539 105.061C82.3188 105.449 82.1426 105.86 82.0135 106.287H84.9691C84.1821 105.835 83.3708 105.425 82.539 105.061Z" fill="#0E2831" stroke="#0E2831" stroke-linecap="round" stroke-linejoin="round"/>
<path d="M131.47 99.9765H152.73C152.73 99.9765 155.748 98.9733 154.884 95.2425C154.592 93.9771 148.563 91.0856 147.702 91.0856H137.358L131.47 99.9765Z" fill="#0E2831"/>
<path opacity="0.2" d="M131.47 99.9765H152.73C152.73 99.9765 155.748 98.9733 154.884 95.2425C154.592 93.9771 148.563 91.0856 147.702 91.0856H137.358L131.47 99.9765Z" fill="white" stroke="#0E2831" stroke-linecap="round" stroke-linejoin="round"/>
<path d="M131.47 99.9765H152.73C152.73 99.9765 155.748 98.9733 154.884 95.2425C154.592 93.9771 148.563 91.0856 147.702 91.0856H137.358L131.47 99.9765Z" stroke="#0E2831" stroke-linecap="round" stroke-linejoin="round"/>
<path d="M107.957 91.0856L96.417 99.9765H131.47L137.24 91.0856H107.957Z" fill="#0E2831" stroke="#0E2831" stroke-linecap="round" stroke-linejoin="round"/>
<path d="M85.4978 106.573V109.585L87.6521 111.162H105.034L109.057 109.441V106.573H85.4978Z" fill="#0E2831" stroke="#0E2831" stroke-linecap="round" stroke-linejoin="round"/>
<path opacity="0.3" d="M86.3024 106.573H85.4978V107.376H86.3024V106.573Z" fill="white"/>
<path opacity="0.3" d="M87.1891 107.461H86.3845V108.264H87.1891V107.461Z" fill="white"/>
<path opacity="0.3" d="M88.079 108.346H87.2744V109.149H88.079V108.346Z" fill="white"/>
<path opacity="0.3" d="M88.9657 109.235H88.1611V110.038H88.9657V109.235Z" fill="white"/>
<path opacity="0.3" d="M108.899 106.573H108.095V107.376H108.899V106.573Z" fill="white"/>
<path opacity="0.3" d="M108.013 107.461H107.208V108.264H108.013V107.461Z" fill="white"/>
<path opacity="0.3" d="M107.123 108.346H106.318V109.149H107.123V108.346Z" fill="white"/>
<path opacity="0.3" d="M106.236 109.235H105.431V110.038H106.236V109.235Z" fill="white"/>
<path opacity="0.3" d="M90.2004 109.235H89.3959V110.038H90.2004V109.235Z" fill="white"/>
<path opacity="0.3" d="M91.4319 109.235H90.6273V110.038H91.4319V109.235Z" fill="white"/>
<path opacity="0.3" d="M92.6667 109.235H91.8622V110.038H92.6667V109.235Z" fill="white"/>
<path opacity="0.3" d="M93.9015 109.235H93.0969V110.038H93.9015V109.235Z" fill="white"/>
<path opacity="0.3" d="M95.1329 109.235H94.3284V110.038H95.1329V109.235Z" fill="white"/>
<path opacity="0.3" d="M96.3677 109.235H95.5631V110.038H96.3677V109.235Z" fill="white"/>
<path opacity="0.3" d="M97.5992 109.235H96.7947V110.038H97.5992V109.235Z" fill="white"/>
<path opacity="0.3" d="M98.834 109.235H98.0294V110.038H98.834V109.235Z" fill="white"/>
<path opacity="0.3" d="M100.069 109.235H99.2642V110.038H100.069V109.235Z" fill="white"/>
<path opacity="0.3" d="M101.3 109.235H100.496V110.038H101.3V109.235Z" fill="white"/>
<path opacity="0.3" d="M102.535 109.235H101.73V110.038H102.535V109.235Z" fill="white"/>
<path opacity="0.3" d="M103.766 109.235H102.962V110.038H103.766V109.235Z" fill="white"/>
<path opacity="0.3" d="M105.001 109.235H104.197V110.038H105.001V109.235Z" fill="white"/>
<path d="M117.388 114.89H81.6195L81.14 111.064C80.92 113.169 80.8116 115.408 80.7755 117.25L80.9003 117.758L81.6195 116.326H84.6867L82.782 117.89H111.224L110.21 116.313H117.401L119.414 117.46H120.849V110.159L117.388 114.89Z" fill="#0E2831" stroke="#0E2831" stroke-linecap="round" stroke-linejoin="round"/>
<path d="M138.954 99.1799H138.777C138.6 99.1794 138.427 99.1372 138.27 99.0569C138.113 98.9765 137.978 98.8603 137.875 98.7177C137.772 98.5751 137.704 98.4102 137.677 98.2364C137.65 98.0626 137.664 97.8849 137.719 97.7178C137.939 97.0293 138.32 96.3343 138.954 96.2294C140.267 96.0097 143.88 97.1047 143.88 97.8686C143.88 98.6324 143.88 98.9603 143.443 98.9603H140.707L138.517 101.367L138.471 101.327C138.358 101.233 138.267 101.115 138.205 100.981C138.142 100.848 138.11 100.702 138.11 100.555C138.11 100.408 138.142 100.262 138.205 100.129C138.267 99.9957 138.358 99.8776 138.471 99.7831C138.665 99.6111 138.829 99.4071 138.954 99.1799Z" fill="#AAFF00"/>
<path d="M145.482 99.9765H146.684C146.556 98.216 146.054 94.341 144.08 91.0856H142.878C143.571 92.5838 145.213 96.449 145.482 99.9765Z" fill="#0E2831" stroke="#0E2831" stroke-linecap="round" stroke-linejoin="round"/>
<path d="M119.579 93.4984L120.019 94.6983C119.478 95.2128 119.163 95.9199 119.142 96.6653V99.9765H116.446L118.705 93.4984H119.579ZM106.991 95.1376C105.142 96.2621 102.351 98.7438 100.995 99.9765H109.996L114.653 92.8428L111.589 93.0591C109.972 93.5484 108.426 94.2472 106.991 95.1376ZM125.601 94.2623L124.505 94.0427H122.974L122.534 94.482C122.534 94.482 123.631 94.5901 123.739 95.2458C123.814 95.8988 123.85 96.5556 123.848 97.2128H124.616C124.616 97.2128 124.616 96.0097 125.161 95.4655C125.471 95.1531 125.8 94.8608 126.146 94.5901L125.601 94.2623Z" fill="white" stroke="#0E2831" stroke-linecap="round" stroke-linejoin="round"/>
<path d="M138.471 101.327L138.517 101.367L140.707 98.9603H143.443C143.804 98.9603 143.867 98.7341 143.876 98.2227H137.676C137.714 98.4877 137.845 98.7305 138.047 98.9064C138.25 99.0822 138.508 99.1794 138.777 99.1799H138.954C138.828 99.4074 138.663 99.6114 138.468 99.7832C138.355 99.8779 138.264 99.9961 138.202 100.13C138.14 100.263 138.108 100.409 138.108 100.556C138.108 100.703 138.141 100.849 138.204 100.982C138.267 101.115 138.358 101.233 138.471 101.327Z" fill="#0E2831" stroke="#0E2831" stroke-linecap="round" stroke-linejoin="round"/>
<path d="M145.226 102.616H142.763V103.143H145.226V102.616Z" fill="#0E2831"/>
<path d="M156.316 102.616H153.853V103.143H156.316V102.616Z" fill="#0E2831"/>
<path d="M156.49 100.514C156.49 100.514 158.273 101.724 159.308 105.963C159.308 105.963 154.907 106.487 154.907 118.614" stroke="#0E2831" stroke-linecap="round" stroke-linejoin="round"/>
<path d="M154.372 119.132H135.91C135.91 119.414 135.91 119.696 135.91 119.981C135.91 120.394 135.91 120.801 135.883 121.201H156.615C156.602 120.801 156.595 120.394 156.595 119.981V119.899L154.372 119.132Z" fill="#0E2831" stroke="#0E2831" stroke-linecap="round" stroke-linejoin="round"/>
<path d="M124.285 119.981C124.285 119.696 124.285 119.414 124.285 119.132H80.7493C80.7493 120.394 80.7493 121.201 80.7493 121.201H124.311C124.294 120.801 124.285 120.394 124.285 119.981Z" fill="#0E2831" stroke="#0E2831" stroke-linecap="round" stroke-linejoin="round"/>
<path d="M163.738 101.563C163.519 101.563 163.304 101.62 163.114 101.728C162.924 101.836 162.765 101.992 162.653 102.18C162.542 102.368 162.481 102.581 162.477 102.8C162.473 103.018 162.526 103.234 162.631 103.425L164.51 106.868V102.117C164.507 101.93 164.481 101.744 164.431 101.563H163.738Z" fill="#0E2831" stroke="#0E2831" stroke-linecap="round" stroke-linejoin="round"/>
<path d="M146.835 101.803C146.835 101.803 150.776 107.484 146.835 117.103" stroke="#0E2831" stroke-linecap="round" stroke-linejoin="round"/>
</g>
</g>
<defs>
<clipPath id="clip0_2_2331">
<rect width="390" height="410" fill="white"/>
</clipPath>
<clipPath id="clip1_2_2331">
<rect width="127" height="99" fill="white" transform="translate(51 29)"/>
</clipPath>
</defs>
</svg>
