<svg width="317" height="181" viewBox="0 0 317 181" fill="none" xmlns="http://www.w3.org/2000/svg">
<g opacity="0.6" clip-path="url(#clip0_2_7049)">
<path d="M305.186 134.79C305.373 137.527 305.616 140.259 305.737 142.997C305.825 145.158 307.392 144.426 308.545 144.598C304.507 149.392 302.643 154.756 304.303 161.029C303.366 163.062 302.466 165.107 301.463 167.124C301.286 167.484 300.696 167.634 300.293 167.878C300.382 166.975 300.475 166.066 300.564 165.163C300.564 164.935 300.564 164.708 300.564 164.481C300.492 163.772 300.42 163.068 300.343 162.364C300.398 162.298 300.503 162.203 300.486 162.17C300.416 162.036 300.335 161.908 300.244 161.788L298.705 157.881C299.023 157.432 299.292 156.951 299.51 156.446C299.973 154.988 300.354 153.498 300.768 152.013C299.284 151.974 297.795 151.896 296.305 151.907C295.754 151.907 295.235 152.162 294.695 152.212C289.245 152.711 283.796 153.197 278.347 153.67C277.97 148.679 276.138 143.91 273.079 139.96C269.5 135.283 264.451 131.961 258.753 130.535C253.055 129.11 247.045 129.664 241.701 132.108C233.979 135.726 228.744 141.589 228.397 150.766C228.276 153.891 227.994 157.011 227.785 160.136C227.741 160.214 227.658 160.292 227.652 160.375C227.525 162.109 228.022 164.403 227.101 165.401C226.312 166.26 223.924 165.678 222.247 165.683C216.908 165.683 211.569 165.761 206.252 165.683C204.796 165.656 203.317 164.78 201.894 164.897C198.96 165.124 196.064 166.077 193.136 166.16C186.153 166.359 179.159 166.293 172.176 166.199C167.058 166.132 161.95 165.789 156.832 165.695C153.478 165.639 150.119 165.816 146.76 165.883C141.537 165.988 136.28 166.138 131.079 166.177C127.08 166.177 123.081 166.105 119.077 166.033C115.889 165.972 112.696 165.888 109.502 165.761C105.746 165.606 101.995 165.368 98.2391 165.207C97.7809 165.254 97.3414 165.414 96.9594 165.672C95.0234 166.714 92.1388 165.944 92.5469 164.509C93.1536 162.503 91.9953 162.087 90.7047 161.549L90.5503 160.713V159.56C90.5503 159.006 90.5503 158.452 90.5503 157.898C90.5889 157.039 90.622 156.174 90.6551 155.31L90.3903 153.492C89.9895 151.645 89.5887 149.785 89.1879 147.912C89.243 147.851 89.3534 147.762 89.3423 147.729C89.2723 147.603 89.1931 147.483 89.1052 147.369L87.3677 142.808C87.3525 142.719 87.3159 142.636 87.2611 142.564C87.2063 142.493 87.135 142.436 87.0533 142.398L85.713 139.677L85.2663 139.029C81.6976 134.762 77.3513 131.748 71.8247 130.662C57.0042 127.747 44.4616 133.31 41.1688 149.591L41.0198 150.755L40.6117 153.465L40.4738 155.681C40.4738 157.709 40.4885 159.741 40.5179 161.777C39.9167 162.331 39.4148 163.134 38.6812 163.373C37.4771 163.686 36.2479 163.891 35.0078 163.988V155.121L35.5594 154.013L35.0078 152.644L34.4562 154.013V155.121L33.9047 163.434C29.5253 163.672 25.3775 162.879 21.8696 160.109C19.7626 158.446 17.5067 156.723 17.9093 153.459C18.4609 152.572 19.2882 151.747 19.4923 150.788C20.2811 147.042 20.7775 143.235 21.5827 139.489C21.9799 137.638 22.8183 135.876 23.4581 134.075H24.3902C26.6516 133.338 29.0675 132.889 31.1579 131.809C36.8059 128.872 42.3602 125.713 47.8427 122.493C48.7417 121.939 49.0837 120.465 49.6794 119.418C48.5376 119.174 47.3959 118.914 46.2432 118.703C45.9669 118.709 45.6941 118.765 45.4379 118.869C46.3755 118.365 47.2525 117.678 48.2508 117.395C59.2821 114.226 70.3409 111.122 81.3943 107.975C82.9 107.731 84.5768 107.831 85.8895 107.182C99.0609 100.677 112.177 94.0492 125.304 87.4549C128.36 86.5461 131.371 85.4545 134.477 84.7618C143.853 82.6727 153.169 80.2898 162.64 78.8768C170.889 77.7452 179.205 77.1695 187.532 77.1534C193.476 77.1291 199.411 77.6559 205.259 78.7272C216.417 80.6833 227.487 83.1603 238.584 85.4157C241.706 86.0585 244.8 86.8066 247.911 87.5103C249.014 88.4247 249.952 89.7269 251.221 90.1924C258.777 93.1017 266.35 95.9943 274.033 98.5433C276.896 99.4909 280.073 99.4909 283.101 99.9232C283.526 100.211 283.95 100.743 284.381 100.754C287.458 100.832 290.536 100.804 293.619 100.804C295.274 104.068 291.595 102.611 290.972 103.852C286.587 104.002 284.16 107.836 286.057 111.882C287.613 115.206 289.433 118.365 291.11 121.618C294.11 127.464 296.929 128.822 303.349 127.381L305.219 129.121C304.612 129.598 303.426 130.229 303.503 130.523C303.96 131.985 304.522 133.411 305.186 134.79ZM42.6911 134.092L42.5752 134.313L42.6966 134.097L43.2482 133.543L44.6657 132.59L44.1913 132.113C43.8714 132.584 43.557 133.061 43.2426 133.538L42.6911 134.092ZM110.991 101.397L111.057 101.364L109.838 101.918L109.905 101.874C106.297 103.597 102.641 105.199 99.094 107.077C96.2203 108.579 93.4846 110.341 90.6881 111.992C88.7908 112.353 88.6308 113.367 89.7946 114.68C93.6942 119.063 98.6527 120.992 104.45 120.886L105.001 121.707L105.553 120.931L107.759 116.686L111.068 111.749C111.361 111.383 111.653 111.017 111.951 110.64C113.109 110.125 114.234 109.532 115.437 109.111C121.206 107.21 125.657 109.665 125.646 114.652L125.409 116.342C124.24 117.495 123.07 118.637 121.912 119.795C121.743 119.988 121.588 120.194 121.449 120.41C121.646 120.529 121.862 120.612 122.089 120.654C126.292 120.499 130.5 120.393 134.703 120.155C145.922 119.512 157.146 118.819 168.348 118.143C168.348 124.594 168.348 131.038 168.348 137.489C168.398 137.991 168.495 138.488 168.635 138.974C168.755 138.548 168.838 138.112 168.883 137.671C169.089 131.155 169.273 124.636 169.435 118.116C177.631 117.562 185.827 116.941 194.024 116.403C208.706 115.45 223.378 114.287 238.071 113.71C246.268 113.389 252.059 108.856 257.861 104.09C259.682 102.594 259.02 100.959 256.626 100.278C253.212 98.7816 249.88 97.0305 246.361 95.8447C238.413 93.1515 230.366 90.7355 222.363 88.203L215.744 86.4962L192.027 82.6837L178.563 82.4178L176.622 82.5341L173.864 82.6727L169.451 83.382C164.223 84.2353 158.917 84.7618 153.793 86.0252C147.063 87.6877 140.478 89.9042 133.831 91.9158L127.632 94.3208L112.188 100.843L110.991 101.397ZM70.8208 124.671L71.9239 125.225H76.535L71.9239 124.117H70.2693C68.5704 123.945 66.8716 123.713 65.1618 123.629C64.704 123.629 64.2186 124.045 63.7498 124.272C64.2645 124.455 64.7969 124.583 65.3383 124.655C66.993 124.704 68.6477 124.655 70.2693 124.655L70.8208 124.671ZM40.4848 137.417C40.54 137.139 40.5896 136.862 40.6448 136.585L39.9333 137.417H40.4848ZM90.6771 136.308L91.2287 136.862C92.227 139.605 90.7543 143.318 94.4112 145.047C94.6318 145.152 94.6428 145.712 94.7366 146.067C95.2275 147.918 95.6963 149.774 96.2258 151.608C96.3953 151.962 96.6228 152.284 96.8988 152.561C97.0146 152.234 97.2903 151.874 97.2242 151.592C95.9556 146.383 94.8524 141.102 91.2397 136.846L90.6881 136.292L90.2193 134.912L89.8167 135.133C90.1255 135.505 90.3958 135.898 90.6771 136.308ZM54.8255 125.78C54.7538 125.835 54.6159 125.907 54.6269 125.935C54.6799 126.072 54.7464 126.204 54.8255 126.328L56.4802 125.774L60.8927 125.22L62.2495 124.555L60.8927 124.671L56.4802 125.225L54.8255 125.78ZM223.604 140.741L225.81 137.417L225.926 137.189L225.799 137.405C225.064 138.514 224.328 139.622 223.593 140.73C223.225 141.469 222.857 142.208 222.49 142.947C222.12 143.85 221.508 144.731 221.431 145.657C221.138 149.12 220.879 152.606 220.879 156.075C220.879 158.33 220.295 159.156 217.961 159.056C213.753 158.884 209.528 159 205.314 159.056C204.902 159.135 204.505 159.281 204.139 159.488C204.465 159.699 204.79 160.098 205.121 160.098C209.886 160.098 214.652 160.17 219.412 160.042C220.774 160.003 221.96 159.488 221.971 157.537C221.971 152.683 222.291 147.829 222.473 142.969L223.604 140.741ZM167.344 158.474C166.302 158.38 165.265 158.286 164.223 158.225C164.156 158.225 164.068 158.507 163.991 158.662L167.074 159.028C167.164 159.034 167.254 159.034 167.344 159.028H167.896C168.448 159.394 168.955 160.075 169.496 160.081C179.552 160.236 189.609 160.33 199.666 160.364C200.355 160.364 201.039 159.809 201.729 159.494C201.078 159.271 200.405 159.12 199.721 159.045C189.3 159.015 178.878 159.015 168.453 159.045C168.635 154.839 168.861 150.633 168.972 146.421C168.999 145.418 168.635 144.41 168.453 143.401C168.205 144.395 168.021 145.404 167.902 146.421C167.675 150.383 167.515 154.407 167.344 158.43V158.474ZM271.358 129.93C272.095 129.945 272.827 129.808 273.51 129.529C274.192 129.249 274.811 128.833 275.327 128.305C275.843 127.776 276.247 127.148 276.513 126.457C276.779 125.767 276.902 125.029 276.874 124.289C276.874 123.551 276.728 122.821 276.443 122.141C276.159 121.461 275.742 120.845 275.218 120.329C274.693 119.813 274.071 119.407 273.389 119.135C272.706 118.864 271.976 118.732 271.242 118.747C269.766 118.794 268.364 119.409 267.326 120.465C266.288 121.521 265.694 122.938 265.666 124.422C265.681 125.156 265.84 125.879 266.134 126.551C266.428 127.223 266.851 127.83 267.378 128.338C267.906 128.846 268.528 129.243 269.209 129.509C269.89 129.775 270.617 129.903 271.347 129.886L271.358 129.93ZM217.752 125.225C219.774 125.307 221.799 125.283 223.819 125.153C224.514 125.081 225.733 124.017 225.65 123.646C225.463 122.804 224.641 121.496 224.029 121.468C219.908 121.274 215.755 121.274 211.651 121.468C211.017 121.496 210.173 122.759 209.958 123.591C209.864 123.962 211.061 125.081 211.723 125.153C213.73 125.285 215.742 125.309 217.752 125.225ZM157.416 125.225C159.429 125.225 161.465 125.408 163.439 125.131C164.206 125.026 164.829 123.89 165.513 123.219C164.807 122.593 164.123 121.468 163.395 121.435C159.468 121.252 155.524 121.263 151.597 121.435C150.946 121.463 149.854 122.66 149.86 123.308C149.865 123.956 150.963 125.026 151.663 125.126C153.522 125.381 155.469 125.225 157.416 125.225ZM145.982 158.989C147.268 158.989 148.553 159.028 149.843 158.989C150.235 158.892 150.607 158.731 150.946 158.513C150.599 158.319 150.257 157.959 149.91 157.959C147.896 157.914 145.878 157.892 143.842 158.008C143.051 158.15 142.281 158.388 141.548 158.718C142.281 158.823 143.009 158.962 143.754 159.011C144.499 159.061 145.221 158.984 145.955 158.978L145.982 158.989ZM34.914 150.057L35.4656 151.276C35.7302 150.942 35.9406 150.568 36.0889 150.167C36.4474 148.505 36.7342 146.843 37.0155 145.147C36.8199 145.076 36.6188 145.023 36.4143 144.986C35.9013 146.643 35.427 148.283 34.914 150.057ZM121.201 159.194L123.92 158.474C123.153 158.186 122.352 157.999 121.537 157.92C120.562 158.029 119.6 158.232 118.663 158.524L121.201 159.194ZM97.9964 156.656C97.8364 156.041 97.6158 155.221 97.4007 154.401C97.1856 154.988 96.7498 155.604 96.8105 156.169C96.9867 157.105 97.2527 158.022 97.6047 158.906C97.7206 158.241 97.8474 157.582 97.9964 156.656ZM46.028 130.285L46.5796 131.088L49.0672 129.193C48.9072 129.043 48.6535 128.728 48.5928 128.761C47.7379 129.221 46.9271 129.731 46.028 130.285ZM53.601 127.01C53.3694 126.76 53.1322 126.422 53.0495 126.456C52.2607 126.794 51.5051 127.193 50.7329 127.564C50.8763 127.808 51.119 128.268 51.141 128.257C51.9463 127.891 52.713 127.475 53.601 127.01ZM103.738 127.725L104.29 127.841C104.607 127.368 104.844 126.846 104.99 126.295C105.034 125.879 104.648 125.425 104.439 124.982C104.185 125.523 103.962 126.078 103.771 126.644C103.71 127.001 103.699 127.365 103.738 127.725ZM104.163 136.68L103.424 134.94C103.238 135.352 103.112 135.788 103.049 136.236C103.091 136.896 103.179 137.551 103.313 138.198L104.163 136.68ZM103.705 144.321C104.152 143.518 104.433 143.246 104.422 142.98C104.373 142.362 104.282 141.747 104.152 141.14C103.898 141.401 103.462 141.645 103.435 141.927C103.451 142.732 103.541 143.533 103.705 144.321ZM113.749 120.909L115.453 120.532C114.743 120.198 114.004 119.928 113.247 119.723C112.933 119.656 112.519 120.066 112.144 120.277L113.749 120.909ZM106.027 150.323L104.891 147.818C104.792 148.1 104.56 148.422 104.626 148.66C104.825 149.419 105.139 150.14 105.409 150.877L106.027 150.323ZM86.8162 130.318C85.6634 129.542 85.1284 129.138 84.5437 128.816C84.3783 128.728 84.0749 128.899 83.8322 128.949C84.2804 129.457 84.7573 129.938 85.2607 130.39C85.4042 130.523 85.7847 130.379 86.8162 130.318ZM115.779 159.067L117.158 158.768C116.721 158.475 116.248 158.242 115.751 158.075C115.453 158.014 115.078 158.341 114.742 158.491L115.779 159.067ZM132.508 159.117L134.162 158.668C133.555 158.559 132.942 158.485 132.326 158.446C131.708 158.48 131.092 158.552 130.483 158.662L132.508 159.117ZM104.632 130.34C104.367 129.941 104.196 129.675 104.019 129.415C103.821 129.642 103.468 129.864 103.468 130.107C103.468 130.351 103.705 130.662 103.843 130.972L104.632 130.34ZM128.349 158.335C127.593 158.108 127.273 157.903 126.992 157.953C126.711 158.003 126.518 158.313 126.286 158.507C126.549 158.689 126.842 158.82 127.152 158.895C127.417 158.912 127.687 158.668 128.349 158.335ZM107.472 153.514C107.218 153.742 106.888 153.947 106.921 154.024C107.028 154.33 107.219 154.599 107.472 154.8C107.549 154.855 107.902 154.534 108.129 154.384L107.472 153.514ZM154.471 158.33L153.081 158.779C153.42 158.881 153.77 158.944 154.123 158.967C154.652 158.924 155.177 158.848 155.695 158.74L154.471 158.33ZM103.915 145.812L104.367 146.532C104.549 146.383 104.858 146.261 104.885 146.083C104.913 145.906 104.703 145.646 104.593 145.424L103.915 145.812ZM112.74 157.255L112.089 157.737C112.323 157.972 112.589 158.173 112.878 158.335C113.01 158.385 113.264 158.136 113.462 158.02L112.74 157.255ZM79.0391 126.855C79.1969 126.65 79.3251 126.424 79.4197 126.184C79.4197 126.106 79.1715 125.868 79.0557 125.885C78.8394 125.942 78.6343 126.036 78.4489 126.162C78.5813 126.334 78.7413 126.544 79.0115 126.855H79.0391ZM39.2162 139.456C39.0673 139.395 38.8853 139.245 38.7805 139.284C38.6757 139.323 38.6426 139.556 38.5764 139.705C38.7253 139.772 38.9018 139.921 39.0066 139.877C39.1114 139.833 39.1225 139.633 39.1887 139.456H39.2162ZM37.9146 142.709C37.9807 142.565 38.1241 142.382 38.08 142.276C38.0359 142.171 37.8097 142.138 37.6608 142.071C37.6002 142.221 37.4568 142.404 37.4954 142.509C37.534 142.614 37.727 142.648 37.8869 142.709H37.9146ZM82.1168 128.118C82.2657 128.184 82.4423 128.329 82.5471 128.29C82.6519 128.251 82.6905 128.018 82.7511 127.869C82.6077 127.808 82.4257 127.658 82.3209 127.697C82.2161 127.736 82.1554 127.996 82.0893 128.118H82.1168ZM110.247 156.983C110.303 156.846 110.344 156.703 110.368 156.557C110.368 156.512 110.213 156.401 110.18 156.418C110.068 156.49 109.964 156.576 109.872 156.673L110.247 156.983Z" fill="#FAFAFA"/>
<path d="M173.125 50.7209L173.5 49.923C173.743 49.4519 173.985 48.9809 174.234 48.5099C174.482 48.0389 174.636 47.5845 174.84 47.1245C174.918 46.9638 175 46.8087 175.083 46.6535C175.353 46.0994 175.635 45.5009 175.899 44.9246C175.993 44.7584 176.092 44.5921 176.192 44.4259C176.341 44.0213 176.495 43.6113 176.649 43.2067C176.701 43.167 176.74 43.1124 176.761 43.0501C176.782 42.9879 176.783 42.9208 176.765 42.8576L177.002 42.1262C176.88 41.8126 176.739 41.5072 176.578 41.2118C174.007 42.0818 171.459 43.0073 168.905 43.9271L166.986 44.5533L165.706 44.9745C165.593 45.051 165.456 45.0826 165.32 45.0631L163.952 45.4787C160.908 46.4817 157.885 47.5124 154.813 48.4379C154.581 48.5099 153.754 47.7119 153.815 47.4737C156.021 38.6461 158.321 29.8353 160.599 21.0244C162.254 14.7016 163.908 8.39544 165.458 2.05604C165.833 0.526603 166.44 -0.0220114 168.045 0.000154339C174.561 0.0888173 181.077 0.0888173 187.592 0.000154339C189.655 0.000154339 189.97 0.554304 189.06 2.34419C185.149 10.0468 181.305 17.7826 177.477 25.5129C177.107 26.25 176.842 27.0479 176.467 27.7849C175.684 29.3587 176.396 29.6967 177.841 29.6524C182.706 29.5194 187.57 29.4307 192.43 29.3255C192.981 29.3255 193.533 29.2756 194.04 29.2479C193.826 29.8279 193.554 30.3848 193.229 30.9103C186.261 40.0241 179.275 49.1306 172.27 58.2296L171.84 58.8724L171.399 59.4819L169.805 58.5233L170.356 57.1102L170.61 56.5561L171.967 53.8574L173.125 50.7209Z" fill="#FEB707"/>
<path d="M17.8704 138.885C14.5224 136.707 10.9428 134.812 7.89813 132.263C5.69188 130.39 6.21036 128.079 8.91302 126.816C10.9428 125.863 13.2704 125.552 15.4546 124.915C16.0233 124.708 16.5763 124.46 17.1092 124.173C16.7232 123.618 16.4474 122.931 15.9344 122.577C12.2555 120.005 8.51591 117.517 4.82043 114.974C3.9986 114.42 2.96164 113.866 2.55348 113.04C1.89712 111.738 1.10287 110.025 1.45035 108.845C1.7482 107.931 3.71178 107.498 4.98037 106.972C5.4492 106.778 6.0835 106.972 6.63506 106.933C9.39288 106.872 9.94443 105.98 8.68686 103.481C6.17725 98.3772 3.48562 93.3622 1.16905 88.1754C0.319002 86.1494 -0.0800768 83.9612 -0.000260632 81.764C0.100414 81.0728 0.356998 80.414 0.749891 79.8377C1.14278 79.2615 1.66162 78.7831 2.26669 78.4391C3.20435 77.9958 5.32233 78.4391 5.92905 79.2371C8.36659 82.4082 10.5398 85.7759 12.4265 89.3058C14.1584 92.6307 15.3056 96.2714 16.6956 99.7792C17.7435 102.422 18.5433 102.55 20.4793 100.444C20.6062 100.306 20.711 100.15 20.8323 100.017C22.1064 98.6099 23.215 96.6316 25.5426 97.5349C27.953 98.4659 28.1405 100.721 27.9254 102.899C27.4566 107.57 26.8223 112.225 26.3424 116.897C26.2597 117.733 26.5851 118.615 26.723 119.473C27.5251 119.162 28.3031 118.792 29.0506 118.365C30.7053 117.257 32.2111 115.844 33.9705 114.957C36.1492 113.849 38.1128 114.264 39.0559 116.891C34.2132 120.216 29.3724 123.541 24.5333 126.866L23.4964 125.203C23.3364 124.81 23.1765 124.416 23.022 124.023C22.4153 122.51 21.8251 120.992 21.1798 119.496C21.0529 119.202 20.7275 118.997 20.4903 118.753C20.4903 119.074 20.3193 119.457 20.4407 119.706C21.1853 121.236 21.9851 122.743 22.7683 124.256L23.3199 125.364L24.0479 126.977L21.3508 131.016C20.1042 130.767 18.8577 130.462 17.6057 130.285C17.3244 130.24 16.9989 130.506 16.6956 130.634C16.9548 130.856 17.1975 131.249 17.4788 131.277C18.6591 131.393 19.856 131.404 21.0419 131.448L17.8704 138.885ZM20.6282 111.86C20.483 112.037 20.3467 112.222 20.2201 112.414C20.3112 112.497 20.409 112.573 20.5124 112.641L20.7606 111.954L21.1798 110.818C21.5769 109.92 21.9795 109.022 22.3712 108.119L22.5863 107.127L22.1064 107.908L21.2184 110.818L20.6282 111.86ZM17.3188 111.926L16.9217 111.316L17.3409 111.904C17.5174 112.458 17.6939 113.012 17.8649 113.566L19.4865 116.93L19.6961 117.667C19.7976 117.601 19.8953 117.528 19.9884 117.451C19.8781 117.229 19.7402 117.03 19.6133 116.819C19.0618 115.711 18.4716 114.602 17.9035 113.539C17.727 113.034 17.534 112.48 17.3188 111.926ZM12.9063 112.48L11.2516 111.926L8.89094 110.352L8.63172 110.79L11.2682 111.898L12.9063 112.48L14.0867 113.461L14.3459 113.112L12.9063 112.48ZM12.3548 100.843L12.5368 101.591L12.7519 101.458L12.3437 100.854L11.9301 99.3913L11.5164 99.5409L12.3548 100.843ZM23.9376 103.614C23.6342 104.384 23.3309 105.154 23.033 105.93C23.1709 105.93 23.4302 105.93 23.4412 105.897C23.6177 105.138 23.7666 104.367 23.921 103.603C24.0645 103.409 24.2134 103.215 24.3458 103.01C24.3458 103.01 24.2134 102.905 24.1472 102.849L23.9376 103.614ZM13.4579 103.614L13.0884 103.004L13.4855 103.592L14.71 106.407L15.0298 106.207C14.561 105.348 14.0095 104.484 13.4579 103.614ZM16.0116 108.601C15.9179 108.934 15.7579 109.189 15.8186 109.366C15.8793 109.543 16.1495 109.721 16.326 109.892C16.4308 109.643 16.6349 109.382 16.6128 109.144C16.5908 108.906 16.2984 108.823 16.0282 108.601H16.0116ZM10.7663 96.7424C10.6161 96.8125 10.4706 96.8921 10.3305 96.9808C10.4574 97.3132 10.6063 97.6346 10.7497 97.9616C10.8821 97.8895 11.1414 97.7842 11.1303 97.7565C11.0531 97.413 10.9207 97.0916 10.7828 96.7314L10.7663 96.7424ZM9.5473 94.8362C9.49766 94.9858 9.37633 95.1742 9.42597 95.2573C9.47561 95.3405 9.70177 95.4402 9.85069 95.5289C9.90033 95.3737 10.0327 95.1798 9.97754 95.0745C9.92238 94.9692 9.7183 94.9027 9.56386 94.8251L9.5473 94.8362ZM7.69958 90.5638C7.62787 90.6192 7.50652 90.6746 7.51203 90.7078C7.54658 90.8489 7.59461 90.9862 7.65544 91.1179C7.71611 91.0736 7.83746 91.0182 7.83195 90.9794C7.80643 90.8339 7.76768 90.691 7.71614 90.5527L7.69958 90.5638ZM16.9548 114.492C16.9548 114.431 16.9548 114.337 16.8997 114.314C16.8257 114.285 16.7474 114.268 16.668 114.264L16.7397 114.569L16.9548 114.492ZM8.87441 93.473C8.81925 93.473 8.73653 93.473 8.71447 93.5174C8.68952 93.5828 8.67644 93.6523 8.67585 93.7224L8.95164 93.667L8.87441 93.473Z" fill="#05AE70"/>
<path d="M262.048 176.063C256.195 178.711 250.205 179.26 244.072 177.171C242.915 176.708 241.782 176.185 240.68 175.603C236.141 173.286 233.201 169.468 231.375 164.869C230.653 163.051 229.864 161.755 228 161.212C230.277 161.577 230.305 160.103 230.206 158.507C229.654 151.254 231.601 144.936 237.233 140.049C249.494 129.42 267.53 134.989 272.174 149.425C273.404 153.249 272.919 157.626 273.222 161.749C271.275 167.895 267.867 172.937 262.048 176.063ZM250.239 141.961C238.203 143.845 234.354 155.942 239.02 163.949C240.521 166.501 242.747 168.544 245.413 169.814C248.078 171.085 251.061 171.526 253.978 171.081C256.755 170.663 259.345 169.424 261.418 167.521C263.491 165.618 264.952 163.138 265.616 160.397C267.635 151.752 263.36 144.809 254.414 142.182L250.239 141.961Z" fill="#2D222F"/>
<path d="M273.206 161.738C272.902 157.615 273.388 153.237 272.158 149.414C267.514 135.006 249.477 129.409 237.216 140.038C231.585 144.925 229.66 151.242 230.189 158.496C230.305 160.092 230.277 161.566 227.983 161.2C227.906 160.84 227.834 160.486 227.757 160.125C227.966 157 228.248 153.88 228.369 150.755C228.717 141.578 233.923 135.715 241.673 132.097C247.017 129.653 253.027 129.098 258.725 130.524C264.423 131.95 269.472 135.272 273.051 139.949C276.11 143.902 277.942 148.672 278.319 153.664C278.363 154.218 278.639 154.867 278.418 155.249C277.265 157.266 280.183 160.873 275.947 161.649H274.292L273.206 161.738Z" fill="#111114"/>
<path d="M247.9 87.5436C244.789 86.8398 241.695 86.0917 238.573 85.4489C227.476 83.1714 216.406 80.7165 205.248 78.7604C199.4 77.6892 193.465 77.1624 187.521 77.1866C179.194 77.2027 170.878 77.7785 162.629 78.91C153.158 80.3231 143.831 82.7059 134.466 84.795C131.366 85.4877 128.349 86.5794 125.293 87.4882L125.227 83.8308C133.699 81.6807 142.088 79.0929 150.66 77.4748C165.424 74.6539 180.511 73.9395 195.474 75.3524C203.273 76.095 211.117 76.7932 218.805 78.2506C228.469 80.0904 237.989 82.6838 247.575 84.9502L247.9 87.5436Z" fill="#D6D3D2"/>
<path d="M17.8707 138.885L21.0808 131.36C21.1612 131.316 21.2307 131.254 21.2841 131.179C21.3376 131.104 21.3737 131.018 21.3896 130.928L24.0868 126.888H24.3295L24.5611 126.81C29.3965 123.485 34.2374 120.161 39.0838 116.836C45.151 114.963 51.1575 112.824 57.313 111.294C64.8749 109.388 72.5637 107.969 80.1973 106.346L81.4052 107.98C70.374 111.106 59.2986 114.209 48.2618 117.401C47.2635 117.683 46.3865 118.371 45.4544 118.875L38.9624 121.346L37.76 121.901H37.7876L36.6569 122.455H36.6845L34.4782 123.563L32.8235 124.815L32.272 125.187L30.6173 125.796L26.2048 129.675L24.5501 132.446L23.447 134.108C22.8072 135.909 21.9688 137.671 21.5717 139.522C20.7664 143.268 20.27 147.075 19.4812 150.821C19.2771 151.78 18.4443 152.606 17.8982 153.492C17.7162 152.938 17.5287 152.384 17.3467 151.797C17.3467 148.302 17.3467 144.801 17.3467 141.296C17.5232 140.475 17.6887 139.683 17.8707 138.885Z" fill="#D5D1D1"/>
<path d="M303.321 127.403C296.901 128.822 294.082 127.486 291.082 121.64C289.427 118.387 287.585 115.212 286.03 111.904C284.132 107.859 286.581 104.024 290.944 103.874C296.537 109.682 301.286 115.993 302.907 124.15C303.122 125.225 303.189 126.334 303.321 127.403Z" fill="#FC0607"/>
<path d="M81.3831 107.997L80.1973 106.384C94.0614 96.7396 109.234 89.1478 125.249 83.8419L125.315 87.4993C112.188 94.0936 99.0718 100.721 85.9004 107.227C84.5657 107.853 82.8889 107.753 81.3831 107.997Z" fill="#0E3F56"/>
<path d="M275.964 161.649C280.2 160.873 277.282 157.266 278.435 155.249C278.655 154.867 278.38 154.196 278.336 153.664C283.785 153.176 289.234 152.7 294.684 152.201C295.235 152.151 295.787 151.902 296.294 151.896C297.784 151.896 299.273 151.963 300.757 152.002C300.343 153.476 299.962 154.966 299.499 156.435C299.281 156.94 299.012 157.421 298.694 157.87L293.702 162.159C289.251 162.647 284.805 163.323 280.338 163.511C278.909 163.556 277.426 162.303 275.964 161.649Z" fill="#2D222F"/>
<path d="M247.9 87.5437L247.553 84.9669C259.216 88.894 270.88 92.8284 282.544 96.7702C283.368 97.1277 284.16 97.556 284.91 98.0503L283.073 99.9565C280.045 99.5243 276.868 99.5243 274.006 98.5767C266.322 96.0276 258.749 93.135 251.193 90.2258C249.941 89.727 248.976 88.447 247.9 87.5437Z" fill="#0E3F56"/>
<path d="M304.298 161.029C302.643 154.756 304.502 149.392 308.539 144.598C312.19 142.853 314.661 144.598 314.248 148.904C313.784 153.703 310.85 157 307.155 159.732C306.498 160.214 305.831 160.691 305.169 161.173L304.298 161.029Z" fill="#09AE70"/>
<path d="M10.0442 164.653C6.9003 161.694 5.56552 154.789 7.11541 150.882C8.00343 148.666 9.80152 149.375 11.3183 149.048L11.2742 148.993L12.3773 150.14C12.9987 151.813 13.6202 153.485 14.2416 155.155C14.2043 155.233 14.1917 155.32 14.2055 155.405C14.2193 155.49 14.2589 155.569 14.3188 155.631L14.4181 158.02L14.1258 159.544L13.9603 160.098C13.861 160.486 13.7617 160.879 13.6569 161.267C13.5521 161.655 13.4804 161.998 13.3867 162.375V162.536L13.0006 163.445L12.5207 164.57L12.2063 164.669C11.8975 163.345 11.6272 162.015 11.2577 160.707C11.0637 160.261 10.8095 159.843 10.502 159.466C10.3564 159.866 10.2546 160.28 10.1987 160.702C10.1656 161.965 10.1987 163.229 10.1987 164.492L10.0442 164.653ZM10.866 156.557L9.50369 153.925C9.37683 154.207 9.06794 154.562 9.14516 154.772C9.55332 155.831 10.0608 156.85 10.5296 157.887L10.866 156.557Z" fill="#09AE70"/>
<path d="M17.3634 141.296V151.797L16.2989 151.703L12.3552 150.118L11.252 148.971L11.2962 149.026C7.82685 143.074 8.22948 142.332 15.4274 141.395C16.0837 141.334 16.7236 141.296 17.3634 141.296Z" fill="#09AE70"/>
<path d="M305.473 167.739C307.26 163.273 311.286 161.732 315.445 164.104C316.234 164.547 317.066 165.811 317 166.62C316.934 167.429 315.82 168.837 315.103 168.875C312.251 169.025 309.378 168.748 306.51 168.626L305.473 167.739Z" fill="#09AE70"/>
<path d="M10.1486 173.635C6.20493 173.735 2.93415 172.339 0.832689 168.925C0.31422 168.077 0.584488 166.742 0.490723 165.6C1.5056 165.534 2.63078 165.151 3.51328 165.462C5.11655 166.023 6.58829 166.909 7.83765 168.064C9.08701 169.219 10.0875 170.619 10.7774 172.178C10.8326 172.427 10.8932 172.677 10.9484 172.921L10.1486 173.635ZM8.83588 170.643C7.95889 170.061 7.28599 169.607 6.59653 169.18C6.59653 169.18 6.35935 169.457 6.238 169.601C6.89988 170.061 7.55076 170.527 8.23469 170.953C8.3064 171.003 8.53803 170.804 8.83036 170.665L8.83588 170.643Z" fill="#09AE70"/>
<path d="M293.702 162.148L298.694 157.859L300.233 161.766L300.332 162.32C300.409 163.024 300.481 163.727 300.547 164.437C300.547 164.664 300.547 164.891 300.547 165.118L300.277 167.834L299.554 168.088L293.702 162.148Z" fill="#09AE70"/>
<path d="M283.073 99.9454L284.91 98.0391C286.405 98.0391 287.999 98.4104 289.378 98.0391C292.091 97.2689 293.239 98.3495 293.592 100.849C290.508 100.849 287.431 100.849 284.353 100.799C283.923 100.766 283.498 100.234 283.073 99.9454Z" fill="#D5D1D1"/>
<path d="M299.565 168.111L300.288 167.856C300.69 167.612 301.28 167.462 301.457 167.102C302.461 165.107 303.36 163.062 304.297 161.006L305.169 161.151L302.339 168.859C302.29 169.141 302.234 169.413 302.185 169.701L302.554 169.042L305.472 167.717L306.509 168.604L301.087 172.272L299.89 170.178L299.565 168.111Z" fill="#A4DAC1"/>
<path d="M305.186 134.79C304.513 133.419 303.942 132 303.476 130.545C303.399 130.251 304.579 129.62 305.191 129.143C307.221 131.205 307.221 133.682 305.186 134.79Z" fill="#FDD446"/>
<path d="M169.799 58.501L171.393 59.4597C170.113 61.3271 168.85 63.2112 167.532 65.0565C167.355 65.3003 166.931 65.3668 166.622 65.5109C166.622 65.1784 166.495 64.785 166.622 64.519C167.659 62.5019 168.734 60.507 169.799 58.501Z" fill="#FDD446"/>
<path d="M12.4046 180.839C12.4046 179.825 12.4046 178.817 12.377 177.803L11.2021 173.924L13.5573 174.76C13.7063 175.813 13.8607 176.872 14.0151 177.924C14.0151 178.939 14.0151 179.953 14.0151 180.967L12.4046 180.839Z" fill="#82868B"/>
<path d="M168.905 43.927C171.459 43.0071 174.007 42.0817 176.577 41.2117C176.738 41.507 176.88 41.8124 177.002 42.126L176.142 42.6801L168.905 43.927Z" fill="#FDD446"/>
<path d="M299.891 170.2L301.087 172.294L298.274 176.063C298.699 174.727 299.146 173.397 299.538 172.051C299.72 171.452 299.775 170.82 299.891 170.2Z" fill="#59C296"/>
<path d="M11.8037 171.718C11.436 169.723 11.0793 167.728 10.7336 165.733C10.6658 165.6 10.6519 165.445 10.695 165.301L11.7982 165.639H11.9361L12.0519 165.711C12.1457 166.094 12.2339 166.476 12.3277 166.864L12.7579 172.184L11.8037 171.718Z" fill="#928D8D"/>
<path d="M11.8036 171.718L12.7523 172.173C12.9674 172.56 13.1825 172.948 13.4031 173.336C13.4031 173.824 13.4473 174.312 13.4748 174.799H13.5355L11.1803 173.962H11.252L10.9542 172.954C10.899 172.71 10.8384 172.461 10.7832 172.211L11.8036 171.718Z" fill="#C6CCCD"/>
<path d="M173.125 50.7208L171.972 53.824L173.125 50.7208Z" fill="#FDD446"/>
<path d="M163.952 45.4786L165.32 45.063L163.952 45.4786Z" fill="#FDD446"/>
<path d="M174.234 48.5098C173.985 48.9808 173.743 49.4518 173.5 49.9228C173.743 49.4518 173.963 48.9808 174.234 48.5098Z" fill="#FDD446"/>
<path d="M10.943 172.948L11.2408 173.957L10.1377 173.635L10.943 172.948Z" fill="#A4DAC1"/>
<path d="M10.7555 165.733L10.0439 164.625L10.2149 164.475C10.3804 164.741 10.5459 165.03 10.7169 165.273C10.6917 165.349 10.6822 165.428 10.6888 165.507C10.6955 165.587 10.7181 165.663 10.7555 165.733Z" fill="#09AE70"/>
<path d="M165.689 44.9744L166.969 44.5532L165.689 44.9744Z" fill="#FDD446"/>
<path d="M176.765 42.8575C176.783 42.9206 176.782 42.9877 176.761 43.05C176.74 43.1122 176.701 43.1668 176.649 43.2066L176.164 42.6525L176.765 42.8575Z" fill="#FDD446"/>
<path d="M176.169 44.4258C176.07 44.592 175.971 44.7583 175.877 44.9245C175.993 44.7583 176.092 44.592 176.169 44.4258Z" fill="#FDD446"/>
<path d="M175.066 46.6533C174.984 46.8085 174.901 46.9637 174.824 47.1244L175.066 46.6533Z" fill="#FDD446"/>
<path d="M170.615 56.5116L170.361 57.0657L170.615 56.5116Z" fill="#FDD446"/>
<path d="M171.834 58.8501L172.264 58.2073L171.834 58.8501Z" fill="#FDD446"/>
<path d="M127.632 94.3208L133.925 91.8936C136.005 91.7163 138.25 90.4417 139.899 93.0019C140.103 93.3122 141.272 93.146 141.939 93.0019C150.959 90.8407 159.979 88.6519 168.999 86.4353C168.631 94.5627 168.264 102.699 167.896 110.845C167.846 111.915 167.896 112.984 167.896 114.059L163.577 114.32L162.91 114.386L161.895 114.431L159.76 114.165L154.146 114.636L151.939 114.669C151.852 114.044 151.685 113.433 151.443 112.851C149.319 109.205 147.345 105.448 144.945 101.985C139.104 93.545 142.304 92.1929 131.256 96.7646C130.919 96.9031 130.379 96.8089 130.219 97.0305C129.937 97.424 129.59 98.1388 129.766 98.438C131.493 101.303 133.379 104.074 135.106 106.939C136.76 109.648 138.25 112.441 139.81 115.201L130.985 115.921L130.384 115.96H129.353L128.713 115.999L126.534 116.115C126.27 115.611 125.983 115.107 125.729 114.602C125.729 109.582 121.317 107.133 115.52 109.061C114.317 109.46 113.192 110.075 112.034 110.59C112.15 109.637 112.083 108.612 112.414 107.737C113.164 105.769 114.113 103.858 114.985 101.951C118.261 100.876 121.493 99.5962 124.835 98.7927C127.472 98.1554 129.22 97.424 127.632 94.3208Z" fill="#023A50"/>
<path d="M129.33 115.993H130.362L130.963 115.955L139.788 115.234L151.922 114.68L154.129 114.647L159.578 114.58L161.878 114.442L162.893 114.397L163.56 114.331L167.879 114.071L171.867 113.904L197.702 112.397L209.837 111.815L213.201 111.638L214.023 111.461L220.487 111.195L221.21 110.951L222.44 111.039C222.925 111.333 223.416 111.898 223.89 111.887C227.237 111.795 230.579 111.621 233.918 111.366C234.409 111.328 234.85 110.729 235.313 110.385C242.975 111.183 248.551 107.061 253.978 102.489L256.797 100.272C259.191 100.954 259.852 102.589 258.032 104.085C252.23 108.85 246.449 113.383 238.242 113.705C223.548 114.259 208.877 115.445 194.194 116.398C185.998 116.952 177.802 117.539 169.606 118.11L168.502 118.138C157.284 118.814 146.059 119.507 134.857 120.15C130.654 120.388 126.446 120.493 122.243 120.648C122.017 120.606 121.8 120.524 121.603 120.404C121.742 120.188 121.897 119.983 122.066 119.789C123.225 118.631 124.394 117.49 125.563 116.337L126.606 116.16L128.784 116.043L129.33 115.993Z" fill="#C6CCCD"/>
<path d="M197.68 112.397L171.839 113.904C172.181 108.734 172.468 103.558 172.882 98.3883C173.147 95.1299 173.593 91.8882 173.985 88.6409C174.818 89.2393 175.899 89.6716 176.417 90.4751C177.421 92.0322 178 93.8609 178.943 95.4624C182.032 100.693 185.115 105.936 188.458 110.978C188.949 111.715 190.846 111.533 192.093 111.743C191.938 110.956 191.949 110.081 191.591 109.399C191.012 108.291 190.096 107.343 189.489 106.235C186.213 100.21 182.975 94.1676 179.776 88.1089C179.399 87.2133 179.114 86.2811 178.927 85.3271C181.023 84.9392 182.269 82.2849 184.834 83.1105C184.989 83.1549 185.242 82.9055 185.452 82.7891C185.196 82.7131 184.934 82.6576 184.669 82.6229C182.667 82.5453 180.67 82.4843 178.668 82.4178L192.131 82.6838C191.922 82.8454 191.694 82.9812 191.453 83.0884C190.979 83.2491 190.477 83.3488 189.986 83.4707C190.493 83.5483 191.089 83.4707 191.475 83.7312C192.295 84.4042 193.077 85.122 193.819 85.8812C190.664 85.5211 187.515 85.1332 184.36 84.8062C182.512 84.6178 182.06 85.0611 183.196 86.8732C187.675 94.029 192.067 101.233 196.373 108.485C197.068 109.637 197.255 111.084 197.68 112.397Z" fill="#043C52"/>
<path d="M41.064 161.649L40.5124 161.76C40.5124 159.732 40.4977 157.7 40.4683 155.665L40.6062 153.448L41.0143 150.738L41.1632 149.575C44.4726 133.294 56.9986 127.73 71.8191 130.645C77.3348 131.753 81.6921 134.746 85.2607 139.013L85.7075 139.661L87.0644 142.382L87.3787 142.792L89.0831 147.341L89.1658 147.895C89.5703 149.743 89.9711 151.603 90.3682 153.476L90.633 155.293C90.5999 156.158 90.5668 157.022 90.5282 157.881C90.5282 158.435 90.5282 158.989 90.5282 159.544V160.691L90.098 161.616L89.5464 161.666H88.9948L86.7886 161.832C88.4433 151.303 85.6854 142.803 75.9834 137.339C69.4915 133.682 62.7459 133.46 56.2264 136.785C47.8702 141.052 43.4247 148.023 43.8052 157.643C43.9542 159.865 43.8218 161.566 41.064 161.649Z" fill="#101013"/>
<path d="M235.264 110.385C234.8 110.729 234.359 111.327 233.868 111.366C230.529 111.617 227.187 111.791 223.841 111.887C223.367 111.887 222.876 111.333 222.385 111.039C222.798 109.083 223.058 107.083 223.648 105.182C224.514 102.411 224.012 100.067 222.363 97.7066C220.592 95.1686 219.119 92.4201 217.52 89.7657C216.961 88.6574 216.409 87.5602 215.865 86.4741L222.484 88.1809L224.139 91.4282L224.69 92.5365C226.108 95.1853 227.448 97.895 228.976 100.472C230.967 103.835 233.151 107.088 235.264 110.385Z" fill="#29242F"/>
<path d="M173.963 88.6519C173.599 91.8992 173.152 95.141 172.86 98.3993C172.446 103.558 172.159 108.734 171.817 113.915L167.835 114.082C167.835 113.007 167.796 111.937 167.835 110.868C168.203 102.74 168.57 94.6034 168.938 86.4575C169.115 85.4268 169.297 84.4016 169.49 83.3709L173.902 82.6616C173.902 82.8223 173.902 82.983 173.902 83.1382C173.902 83.2933 173.902 83.5095 173.902 83.6923V85.9089C173.963 86.8177 173.963 87.732 173.963 88.6519Z" fill="#29242F"/>
<path d="M32.2663 125.192L32.8179 124.821L34.4725 123.569L36.6788 122.46H36.6512L37.7819 121.906H37.7544L38.9568 121.352L45.4487 118.869C45.7026 118.764 45.9739 118.708 46.2484 118.703C47.4012 118.914 48.5429 119.174 49.6847 119.418C49.089 120.465 48.747 121.962 47.848 122.493C42.3654 125.735 36.8167 128.872 31.1632 131.809C29.0727 132.917 26.6569 133.338 24.3955 134.075C24.4507 133.521 24.5113 132.967 24.5665 132.413L26.2212 129.642L30.6337 125.763L32.2663 125.192Z" fill="#FDD446"/>
<path d="M169.55 83.3599C169.368 84.3906 169.186 85.4157 168.999 86.4465C159.975 88.6372 150.954 90.8187 141.934 92.9909C141.266 93.1516 140.097 93.3178 139.893 92.9909C138.238 90.4252 135.999 91.6997 133.919 91.8826C140.566 89.8932 147.157 87.6489 153.88 85.992C158.999 84.7397 164.305 84.2188 169.55 83.3599Z" fill="#0D2B39"/>
<path d="M224.122 91.4227L222.468 88.1754C230.476 90.7079 238.518 93.1239 246.466 95.817C249.985 97.0085 253.317 98.7595 256.731 100.25L253.912 102.467C253.223 101.913 252.616 101.153 251.833 100.86C246.93 98.9978 242.043 97.0583 237.04 95.5067C232.992 94.2488 228.767 93.4896 224.652 92.5143L224.122 91.4227Z" fill="#0D2B39"/>
<path d="M271.347 129.886C270.612 129.905 269.88 129.777 269.194 129.51C268.508 129.242 267.882 128.841 267.352 128.328C266.822 127.816 266.399 127.203 266.106 126.525C265.814 125.846 265.659 125.117 265.649 124.378C265.677 122.894 266.271 121.477 267.309 120.421C268.347 119.365 269.749 118.75 271.226 118.703C271.96 118.688 272.689 118.82 273.372 119.091C274.055 119.363 274.676 119.768 275.201 120.284C275.725 120.801 276.142 121.417 276.426 122.097C276.711 122.777 276.857 123.507 276.857 124.245C276.885 124.984 276.762 125.721 276.497 126.412C276.231 127.102 275.828 127.73 275.312 128.258C274.796 128.786 274.179 129.203 273.497 129.483C272.815 129.763 272.083 129.9 271.347 129.886Z" fill="#262240"/>
<path d="M215.882 86.4741C216.433 87.5824 216.985 88.6796 217.537 89.7657C216.726 89.6438 215.915 89.5386 215.11 89.3945L194.922 85.8812H193.819C193.071 85.1194 192.281 84.3998 191.453 83.7256C191.089 83.4596 190.471 83.5427 189.964 83.4651C190.455 83.3432 190.957 83.2435 191.431 83.0828C191.672 82.9756 191.9 82.8398 192.109 82.6782L215.882 86.4741Z" fill="#0D2B39"/>
<path d="M114.946 101.951C114.074 103.88 113.126 105.769 112.376 107.737C112.045 108.612 112.111 109.637 111.995 110.59L111.118 111.699L107.809 116.636L103.948 116.354L107.869 105.276L109.927 101.791L109.861 101.835L111.079 101.281L111.013 101.314L112.188 100.843C112.948 100.771 113.712 100.771 114.472 100.843C114.698 100.843 114.803 101.558 114.946 101.951Z" fill="#29242F"/>
<path d="M103.915 116.359L107.776 116.642C107.04 118.053 106.305 119.466 105.569 120.881L104.466 120.842C98.6692 120.947 93.7107 119.019 89.8111 114.636C88.6473 113.322 88.8073 112.308 90.7046 111.948L91.8078 112.325C95.5584 114.481 99.2704 116.841 103.915 116.359Z" fill="#C6CCCD"/>
<path d="M217.752 125.225C215.729 125.309 213.704 125.283 211.684 125.148C211.006 125.076 209.826 123.956 209.919 123.585C210.134 122.754 210.978 121.491 211.613 121.463C215.733 121.274 219.886 121.274 223.99 121.463C224.602 121.463 225.424 122.798 225.611 123.641C225.694 124.012 224.475 125.076 223.78 125.148C221.773 125.278 219.761 125.304 217.752 125.225Z" fill="#D6D3D2"/>
<path d="M157.416 125.225C155.497 125.225 153.555 125.397 151.664 125.137C150.947 125.037 149.871 123.962 149.86 123.319C149.849 122.676 150.963 121.474 151.597 121.446C155.525 121.269 159.468 121.258 163.395 121.446C164.123 121.479 164.807 122.604 165.513 123.231C164.829 123.901 164.206 125.037 163.439 125.142C161.437 125.397 159.402 125.225 157.416 125.225Z" fill="#D6D3D2"/>
<path d="M114.946 101.951C114.786 101.552 114.681 100.843 114.466 100.81C113.707 100.738 112.942 100.738 112.183 100.81L127.626 94.2876C129.226 97.3908 127.477 98.1223 124.819 98.7651C121.471 99.6018 118.255 100.882 114.946 101.951Z" fill="#0D2B39"/>
<path d="M168.447 158.984C178.872 158.984 189.294 158.984 199.715 158.984C200.399 159.059 201.072 159.21 201.723 159.433C201.034 159.732 200.35 160.303 199.66 160.303C189.603 160.27 179.547 160.175 169.49 160.02C168.938 160.02 168.42 159.333 167.89 158.967L168.447 158.984Z" fill="#F6F6F6"/>
<path d="M222.5 142.925C222.318 147.785 222.026 152.639 221.999 157.493C221.999 159.46 220.802 159.959 219.439 159.998C214.679 160.125 209.914 160.081 205.148 160.053C204.817 160.053 204.492 159.654 204.167 159.444C204.532 159.237 204.929 159.091 205.341 159.011C209.555 158.978 213.78 158.862 217.989 159.011C220.322 159.111 220.934 158.286 220.906 156.03C220.862 152.561 221.149 149.076 221.458 145.612C221.535 144.687 222.147 143.806 222.517 142.903L222.5 142.925Z" fill="#F6F6F6"/>
<path d="M91.7804 112.297L90.6772 111.92C93.4737 110.258 96.1929 108.507 99.0831 107.005C102.63 105.154 106.286 103.525 109.894 101.802L107.869 105.276C102.139 106.772 96.6231 108.751 91.7804 112.297Z" fill="#0D2B39"/>
<path d="M91.2288 136.824C94.8416 141.079 95.9447 146.36 97.2133 151.569C97.2795 151.852 97.0037 152.212 96.8879 152.539C96.6119 152.262 96.3844 151.939 96.2149 151.586C95.6634 149.752 95.2166 147.895 94.7257 146.045C94.632 145.69 94.6209 145.13 94.4003 145.025C90.7434 143.296 92.194 139.583 91.2178 136.84L91.2288 136.824Z" fill="#F6F6F6"/>
<path d="M168.447 118.127L169.55 118.099C169.363 124.62 169.179 131.138 168.999 137.655C168.954 138.095 168.871 138.531 168.751 138.957C168.61 138.472 168.514 137.975 168.464 137.472C168.447 131.022 168.447 124.577 168.447 118.127Z" fill="#F5F6F5"/>
<path d="M168.447 158.984H167.344V158.43C167.526 154.407 167.686 150.384 167.896 146.36C168.015 145.343 168.199 144.334 168.447 143.34C168.629 144.349 168.999 145.357 168.966 146.36C168.85 150.572 168.624 154.778 168.447 158.984Z" fill="#F5F6F5"/>
<path d="M173.963 83.6646C173.963 83.4762 173.963 83.2934 173.963 83.1105L176.721 82.4954L178.662 82.379C180.664 82.4455 182.661 82.5065 184.663 82.5841C184.928 82.6187 185.19 82.6743 185.446 82.7503C185.237 82.8667 184.983 83.116 184.829 83.0717C182.264 82.2737 181.017 84.9281 178.921 85.2883H178.37L173.963 83.6646Z" fill="#0D2B39"/>
<path d="M145.954 158.984C145.221 158.984 144.487 159.028 143.748 158.984C143.009 158.94 142.287 158.796 141.542 158.69C142.275 158.36 143.046 158.122 143.837 157.981C145.85 157.865 147.868 157.887 149.904 157.931C150.251 157.931 150.593 158.297 150.941 158.485C150.601 158.704 150.229 158.865 149.838 158.962C148.525 159.028 147.24 158.978 145.954 158.984Z" fill="#F5F6F5"/>
<path d="M34.9967 163.971L33.8936 163.417C34.0774 160.646 34.2613 157.876 34.4451 155.105H34.9967V163.971Z" fill="#F5F6F5"/>
<path d="M34.9141 150.057C35.427 148.283 35.9013 146.643 36.4033 145.014C36.6078 145.05 36.8089 145.104 37.0045 145.175C36.7232 146.837 36.4529 148.533 36.0779 150.195C35.9295 150.595 35.7192 150.969 35.4546 151.303L34.9141 150.057Z" fill="#F6F6F6"/>
<path d="M70.269 124.671C68.6143 124.671 66.9596 124.704 65.338 124.671C64.7967 124.6 64.2643 124.472 63.7495 124.289C64.2183 124.062 64.7037 123.624 65.1615 123.646C66.8714 123.729 68.5702 123.962 70.269 124.134V124.671Z" fill="#F6F6F6"/>
<path d="M121.2 159.194L118.663 158.529C119.609 158.234 120.58 158.029 121.564 157.92C122.379 157.999 123.18 158.186 123.947 158.474L121.2 159.194Z" fill="#F5F6F5"/>
<path d="M97.9963 156.656C97.8363 157.582 97.7205 158.241 97.6047 158.906C97.2526 158.022 96.9866 157.105 96.8104 156.169C96.7498 155.615 97.1855 154.989 97.4006 154.401C97.6157 155.221 97.8474 156.041 97.9963 156.656Z" fill="#F6F6F6"/>
<path d="M71.9238 124.117L76.5349 125.225H71.9238V124.117Z" fill="#F5F6F5"/>
<path d="M46.0278 130.285C46.9269 129.731 47.7377 129.221 48.5705 128.761C48.6312 128.728 48.8849 129.043 49.0449 129.193L46.5518 131.088L46.0278 130.285Z" fill="#F6F6F6"/>
<path d="M53.6008 127.01C52.7128 127.475 51.9461 127.891 51.1518 128.262C51.1518 128.262 50.8871 127.813 50.7437 127.569C51.5158 127.187 52.2715 126.788 53.0602 126.461C53.1319 126.422 53.3691 126.76 53.6008 127.01Z" fill="#F5F6F5"/>
<path d="M103.738 127.725C103.688 127.368 103.688 127.006 103.738 126.65C103.929 126.083 104.152 125.528 104.405 124.987C104.598 125.43 104.984 125.885 104.957 126.301C104.81 126.851 104.574 127.374 104.256 127.847L103.738 127.725Z" fill="#F5F6F5"/>
<path d="M104.163 136.68L103.313 138.198C103.179 137.551 103.09 136.896 103.048 136.236C103.112 135.788 103.238 135.352 103.423 134.94L104.163 136.68Z" fill="#F5F6F5"/>
<path d="M56.48 125.225L60.8925 124.671V125.225L56.48 125.78V125.225Z" fill="#F6F6F6"/>
<path d="M103.705 144.321C103.541 143.533 103.45 142.732 103.435 141.927C103.435 141.645 103.898 141.401 104.152 141.14C104.282 141.747 104.372 142.362 104.422 142.98C104.433 143.246 104.152 143.512 103.705 144.321Z" fill="#F5F6F5"/>
<path d="M113.749 120.909L112.144 120.266C112.508 120.066 112.922 119.656 113.247 119.712C114.005 119.917 114.743 120.187 115.453 120.521L113.749 120.909Z" fill="#D6D3D2"/>
<path d="M167.344 158.43V158.984C167.254 158.989 167.164 158.989 167.074 158.984L163.991 158.618C164.068 158.463 164.156 158.175 164.222 158.18C165.254 158.241 166.291 158.336 167.344 158.43Z" fill="#F6F6F6"/>
<path d="M106.044 150.323L105.426 150.877C105.156 150.14 104.841 149.419 104.643 148.66C104.576 148.422 104.808 148.106 104.907 147.818L106.044 150.323Z" fill="#F5F6F5"/>
<path d="M86.816 130.318C85.8011 130.379 85.4205 130.523 85.2606 130.39C84.7572 129.938 84.2802 129.457 83.832 128.949C84.0747 128.899 84.3836 128.728 84.5435 128.816C85.1116 129.138 85.6467 129.542 86.816 130.318Z" fill="#F6F6F6"/>
<path d="M225.81 137.417L223.604 140.741C224.339 139.633 225.074 138.525 225.81 137.417Z" fill="#F6F6F6"/>
<path d="M115.762 159.067L114.725 158.513C115.062 158.363 115.437 158.036 115.734 158.097C116.232 158.265 116.705 158.498 117.141 158.79L115.762 159.067Z" fill="#F5F6F5"/>
<path d="M132.491 159.117L130.478 158.663C131.087 158.552 131.702 158.48 132.32 158.446C132.936 158.485 133.55 158.559 134.157 158.668L132.491 159.117Z" fill="#F5F6F5"/>
<path d="M40.6008 153.487L40.4629 155.703L40.6008 153.487Z" fill="#443D44"/>
<path d="M104.631 130.34L103.843 130.972C103.705 130.684 103.446 130.385 103.468 130.107C103.49 129.83 103.821 129.642 104.019 129.415C104.196 129.659 104.367 129.941 104.631 130.34Z" fill="#F5F6F5"/>
<path d="M128.349 158.336C127.687 158.668 127.417 158.89 127.152 158.89C126.842 158.815 126.549 158.683 126.286 158.502C126.518 158.302 126.733 157.992 126.992 157.948C127.251 157.903 127.593 158.108 128.349 158.336Z" fill="#F5F6F5"/>
<path d="M43.2427 133.538C43.5571 133.061 43.8714 132.584 44.1913 132.113L44.6657 132.59L43.2702 133.538H43.2427Z" fill="#F5F6F5"/>
<path d="M107.472 153.514L108.107 154.384C107.88 154.534 107.527 154.855 107.45 154.8C107.197 154.599 107.006 154.33 106.899 154.024C106.888 153.947 107.224 153.742 107.472 153.514Z" fill="#F5F6F5"/>
<path d="M154.471 158.33L155.695 158.74C155.177 158.848 154.652 158.924 154.124 158.967C153.77 158.944 153.42 158.881 153.081 158.779L154.471 158.33Z" fill="#F5F6F5"/>
<path d="M103.915 145.812L104.593 145.424C104.703 145.646 104.918 145.884 104.885 146.083C104.852 146.283 104.549 146.383 104.367 146.532L103.915 145.812Z" fill="#F5F6F5"/>
<path d="M34.4453 154.002L34.9969 152.633L35.5484 154.002H34.4453Z" fill="#F5F6F5"/>
<path d="M112.74 157.255L113.462 158.02C113.264 158.136 113.01 158.385 112.878 158.335C112.589 158.173 112.323 157.972 112.089 157.737L112.74 157.255Z" fill="#F5F6F5"/>
<path d="M222.5 142.925C222.868 142.186 223.236 141.447 223.604 140.708L222.5 142.925Z" fill="#F6F6F6"/>
<path d="M56.4799 125.225V125.78L54.8252 126.334V125.78L56.4799 125.225Z" fill="#F5F6F5"/>
<path d="M176.721 82.512L173.963 83.1104C173.963 82.9553 173.963 82.7946 173.963 82.6339L176.721 82.512Z" fill="#023A50"/>
<path d="M90.677 136.308L89.811 135.139L90.2137 134.917L90.6825 136.297L90.677 136.308Z" fill="#F6F6F6"/>
<path d="M24.5499 132.429C24.4947 132.983 24.4341 133.538 24.3789 134.092H23.4468L24.5499 132.429Z" fill="#ECE3E2"/>
<path d="M79.0115 126.855C78.7413 126.544 78.5813 126.35 78.4214 126.162C78.6067 126.036 78.8118 125.942 79.0281 125.885C79.1439 125.885 79.4087 126.107 79.3921 126.184C79.2975 126.425 79.1693 126.65 79.0115 126.855Z" fill="#F6F6F6"/>
<path d="M60.8926 125.225V124.671L62.2494 124.56L60.8926 125.225Z" fill="#F5F6F5"/>
<path d="M39.9609 137.417L40.6725 136.585L40.5125 137.417H39.9609Z" fill="#F5F6F5"/>
<path d="M39.1887 139.456C39.1225 139.605 39.0894 139.838 38.9791 139.877C38.8688 139.916 38.6978 139.772 38.5488 139.705C38.615 139.556 38.6481 139.328 38.7529 139.284C38.8577 139.24 39.0397 139.395 39.1887 139.456Z" fill="#F5F6F5"/>
<path d="M41.1577 149.608L41.0088 150.771L41.1577 149.608Z" fill="#443D44"/>
<path d="M34.4453 154.002H35.5484L34.9969 155.11H34.4453V154.002Z" fill="#F6F6F6"/>
<path d="M90.1255 161.616L90.5557 160.691C90.6054 160.968 90.6605 161.245 90.7101 161.527L90.1255 161.616Z" fill="#2C212F"/>
<path d="M104.466 120.792L105.569 120.831L105.018 121.612L104.466 120.792Z" fill="#F5F6F5"/>
<path d="M71.9239 124.117V125.225L70.8208 124.671V124.117H71.9239Z" fill="#F6F6F6"/>
<path d="M126.529 116.149L125.486 116.326C125.564 115.772 125.646 115.218 125.723 114.636C125.977 115.14 126.247 115.644 126.529 116.149Z" fill="#928D8D"/>
<path d="M37.8867 142.709C37.7378 142.648 37.5116 142.614 37.4675 142.509C37.4234 142.404 37.5723 142.221 37.633 142.071C37.7819 142.138 38.0136 142.171 38.0522 142.276C38.0908 142.382 37.9529 142.565 37.8867 142.709Z" fill="#F6F6F6"/>
<path d="M82.0894 128.118C82.1555 127.968 82.1886 127.741 82.2934 127.697C82.3982 127.653 82.5803 127.808 82.7237 127.869C82.663 128.018 82.6299 128.246 82.5196 128.29C82.4093 128.334 82.2383 128.185 82.0894 128.118Z" fill="#F6F6F6"/>
<path d="M90.6275 155.299L90.3628 153.481L90.6275 155.299Z" fill="#F6F6F6"/>
<path d="M90.5502 159.538C90.5502 158.984 90.5502 158.43 90.5502 157.876C90.5337 158.441 90.5447 158.989 90.5502 159.538Z" fill="#2C212F"/>
<path d="M110.191 156.983L109.816 156.673C109.909 156.576 110.012 156.49 110.125 156.418C110.158 156.418 110.318 156.512 110.313 156.557C110.289 156.703 110.248 156.846 110.191 156.983Z" fill="#F5F6F5"/>
<path d="M111.085 101.314L109.866 101.868L111.085 101.314Z" fill="#0D2B39"/>
<path d="M112.188 100.843L111.002 101.347L112.188 100.843Z" fill="#0D2B39"/>
<path d="M111.118 111.677L111.995 110.568L111.118 111.677Z" fill="#023A50"/>
<path d="M300.332 162.353L300.232 161.799C300.324 161.92 300.405 162.047 300.475 162.181C300.492 162.181 300.387 162.276 300.332 162.353Z" fill="#A4DAC1"/>
<path d="M89.1604 147.901L89.0776 147.347C89.1655 147.461 89.2448 147.581 89.3148 147.707C89.3259 147.751 89.2155 147.84 89.1604 147.901Z" fill="#F6F6F6"/>
<path d="M225.81 137.383L225.937 137.167L225.821 137.394L225.81 137.383Z" fill="#F6F6F6"/>
<path d="M90.6772 136.275L91.2288 136.829L90.6772 136.275Z" fill="#F6F6F6"/>
<path d="M42.7185 134.092L42.5972 134.308L42.713 134.086L42.7185 134.092Z" fill="#F6F6F6"/>
<path d="M42.6909 134.092L43.2425 133.538L42.6909 134.092Z" fill="#F5F6F5"/>
<path d="M300.558 165.124C300.558 164.897 300.558 164.669 300.558 164.442C300.553 164.686 300.558 164.913 300.558 165.124Z" fill="#A4DAC1"/>
<path d="M87.3676 142.808L87.0532 142.398C87.1349 142.436 87.2062 142.493 87.261 142.564C87.3158 142.636 87.3524 142.719 87.3676 142.808Z" fill="#F6F6F6"/>
<path d="M85.7129 139.678L85.2661 139.029L85.7129 139.678Z" fill="#F6F6F6"/>
<path d="M54.8255 125.78V126.334C54.7465 126.21 54.68 126.078 54.627 125.94C54.627 125.94 54.7759 125.813 54.8255 125.78Z" fill="#F6F6F6"/>
<path d="M70.8206 124.117V124.671H70.269V124.117H70.8206Z" fill="#F5F6F5"/>
<path d="M41.064 161.649C43.8218 161.566 43.9542 159.865 43.8604 157.61C43.4798 147.99 47.9254 141.018 56.2816 136.752C62.8232 133.427 69.5467 133.659 76.0386 137.306C85.7296 142.77 88.5039 151.292 86.8437 161.799C85.7406 167.861 81.8797 171.973 77.2741 175.58L73.6062 176.794C72.8395 176.401 72.0673 175.686 71.3062 175.686C67.903 175.724 64.4944 175.93 61.0967 176.179C60.0446 176.33 59.0061 176.565 57.9914 176.883L54.4118 175.525L52.7571 174.716C52.7098 174.643 52.6442 174.583 52.5667 174.543C52.4893 174.503 52.4028 174.484 52.3159 174.489L45.4434 165.622L45.1621 164.769L44.3568 162.298L43.8053 161.832L41.064 161.649ZM63.9263 141.988C61.6593 142.914 59.1939 143.512 57.1696 144.82C50.6612 149.015 49.2437 158.197 53.8216 165.085C57.9694 171.319 67.0592 173.175 73.2753 169.086C78.7909 165.478 81.0523 160.336 79.894 153.936C78.7247 147.347 74.3784 143.629 68.0189 142.143L63.2092 141.351L63.9263 141.988Z" fill="#2C212F"/>
<path d="M57.9912 176.888C59.0059 176.571 60.0443 176.335 61.0965 176.184C64.4941 175.935 67.9028 175.73 71.306 175.691C72.0671 175.691 72.8393 176.412 73.606 176.8C68.4158 179.415 63.209 179.398 57.9912 176.888Z" fill="#443D44"/>
<path d="M52.3433 174.494C52.4302 174.49 52.5168 174.509 52.5942 174.549C52.6716 174.589 52.7373 174.648 52.7846 174.722L52.0676 176.173L47.1421 176.279L52.3433 174.494Z" fill="#FAFAFA"/>
<path d="M29.4536 176.866L30.5567 175.658L31.704 176.766L29.4536 176.866Z" fill="#FAFAFA"/>
<path d="M52.0674 176.173L52.7624 174.722L54.417 175.531L52.0674 176.173Z" fill="#F5F6F5"/>
<path d="M38.8633 176.545C39.0839 176.129 39.3101 175.719 39.5362 175.303L39.9554 176.523L38.8633 176.545Z" fill="#FAFAFA"/>
<path d="M36.6514 176.661L37.2029 175.326C37.396 175.758 37.5835 176.19 37.7545 176.622L36.6514 176.661Z" fill="#FAFAFA"/>
<path d="M34.4561 176.462L34.8973 175.353L35.4489 176.523L34.4561 176.462Z" fill="#FAFAFA"/>
<path d="M176.765 42.8575L176.142 42.6968L177.002 42.1427C176.919 42.3699 176.842 42.6137 176.765 42.8575Z" fill="#F8F8F7"/>
<path d="M22.7741 124.184C21.9909 122.671 21.1911 121.164 20.4465 119.634C20.3252 119.385 20.4741 119.002 20.4962 118.681C20.7333 118.925 21.0477 119.13 21.1856 119.424C21.8309 120.92 22.4211 122.438 23.0278 123.951L22.7741 124.184Z" fill="#59C296"/>
<path d="M21.3676 130.928C21.3516 131.018 21.3155 131.104 21.2621 131.179C21.2086 131.254 21.1391 131.316 21.0587 131.36C19.8729 131.315 18.676 131.304 17.4956 131.188C17.2143 131.188 16.9441 130.767 16.7124 130.545C17.0158 130.418 17.3412 130.152 17.6225 130.196C18.8745 130.396 20.1211 130.678 21.3676 130.928Z" fill="#59C296"/>
<path d="M17.9258 113.555C18.4774 114.663 19.062 115.744 19.6357 116.836L19.5033 116.947C18.9517 115.838 18.4002 114.73 17.8872 113.583L17.9258 113.555Z" fill="#59C296"/>
<path d="M11.2903 111.926L8.65381 110.818L8.91306 110.38L11.2517 111.926H11.2903Z" fill="#59C296"/>
<path d="M13.458 103.614C14.0096 104.473 14.517 105.337 15.0299 106.207L14.7101 106.407L13.5021 103.614H13.458Z" fill="#59C296"/>
<path d="M23.9378 103.614C23.7834 104.378 23.6345 105.149 23.458 105.908C23.458 105.947 23.1877 105.908 23.0498 105.941C23.3476 105.165 23.651 104.395 23.9544 103.625L23.9378 103.614Z" fill="#59C296"/>
<path d="M22.3991 108.102C22.0019 109.006 21.5993 109.903 21.2021 110.801L22.1122 107.881C22.2226 107.958 22.3108 108.047 22.3991 108.102Z" fill="#59C296"/>
<path d="M16.0285 108.601C16.2988 108.834 16.6132 108.978 16.6297 109.155C16.6463 109.333 16.4477 109.654 16.3429 109.903C16.1664 109.732 15.9072 109.587 15.8355 109.377C15.7638 109.166 15.9347 108.922 16.0285 108.601Z" fill="#59C296"/>
<path d="M10.7829 96.7313C10.9208 97.0915 11.0532 97.4129 11.1469 97.7454C11.1469 97.7731 10.8987 97.8784 10.7664 97.9505C10.623 97.6235 10.474 97.3021 10.3472 96.9696C10.4872 96.881 10.6328 96.8014 10.7829 96.7313Z" fill="#59C296"/>
<path d="M24.5389 126.821L24.3072 126.899H24.0645L23.3364 125.281L23.5019 125.142L24.5389 126.821Z" fill="#59C296"/>
<path d="M12.3936 100.843L11.5552 99.5409L11.9688 99.3912L12.3825 100.854L12.3936 100.843Z" fill="#59C296"/>
<path d="M12.9509 112.447L14.3518 113.128L14.0926 113.478L12.9067 112.48L12.9509 112.447Z" fill="#59C296"/>
<path d="M9.56423 94.8251C9.71867 94.9027 9.93928 94.9414 9.99443 95.0634C10.0496 95.1853 9.91722 95.3626 9.86758 95.5178C9.71866 95.4291 9.5256 95.3737 9.44287 95.2462C9.36014 95.1188 9.51459 94.9747 9.56423 94.8251Z" fill="#59C296"/>
<path d="M11.252 111.926L12.9066 112.447V112.48L11.2906 111.926H11.252Z" fill="#59C296"/>
<path d="M17.8707 113.588C17.6997 113.034 17.5232 112.48 17.3467 111.926C17.5397 112.48 17.7328 113.034 17.9313 113.555L17.8707 113.588Z" fill="#59C296"/>
<path d="M7.71654 90.5526C7.77308 90.6868 7.81738 90.8259 7.84891 90.9682C7.84891 91.007 7.73307 91.0624 7.6724 91.1068C7.61157 90.975 7.56354 90.8377 7.52899 90.6967C7.52347 90.6634 7.64483 90.608 7.71654 90.5526Z" fill="#59C296"/>
<path d="M16.9714 114.481L16.7563 114.558L16.6846 114.253C16.764 114.257 16.8423 114.274 16.9163 114.303C16.9549 114.325 16.9548 114.42 16.9714 114.481Z" fill="#59C296"/>
<path d="M22.1289 107.892L22.6088 107.11C22.5371 107.443 22.4654 107.77 22.3992 108.102C22.311 108.047 22.2227 107.958 22.1289 107.892Z" fill="#59C296"/>
<path d="M23.9765 103.614L24.1861 102.849C24.2523 102.905 24.3902 103.004 24.3847 103.01C24.2523 103.215 24.1034 103.409 23.96 103.603L23.9765 103.614Z" fill="#59C296"/>
<path d="M13.5021 103.614L13.105 103.026L13.458 103.614H13.5021Z" fill="#59C296"/>
<path d="M20.7388 111.976L20.4906 112.663C20.3872 112.595 20.2894 112.519 20.1982 112.436C20.3249 112.244 20.4612 112.059 20.6064 111.882L20.7388 111.976Z" fill="#59C296"/>
<path d="M19.6358 116.836C19.7626 117.046 19.9005 117.246 20.0108 117.467C19.9177 117.545 19.82 117.617 19.7185 117.684L19.5034 116.947L19.6358 116.836Z" fill="#59C296"/>
<path d="M8.87482 93.473L8.95205 93.667L8.67627 93.7224C8.67686 93.6523 8.68994 93.5828 8.71488 93.5174C8.73695 93.4786 8.81967 93.4841 8.87482 93.473Z" fill="#59C296"/>
<path d="M20.6284 111.859L21.2406 110.812L20.7774 111.987L20.6284 111.859Z" fill="#59C296"/>
<path d="M23.0278 123.951C23.1823 124.344 23.3423 124.738 23.5022 125.131L23.3367 125.27L22.7852 124.162L23.0278 123.951Z" fill="#59C296"/>
<path d="M12.3828 100.843L12.791 101.447L12.5759 101.58L12.3939 100.832L12.3828 100.843Z" fill="#59C296"/>
<path d="M17.363 111.926L16.9438 111.339L17.3189 111.926H17.363Z" fill="#59C296"/>
<path d="M254.414 142.182C263.36 144.809 267.652 151.752 265.616 160.397C264.952 163.138 263.491 165.618 261.418 167.521C259.345 169.424 256.755 170.663 253.978 171.081C251.066 171.52 248.089 171.077 245.429 169.806C242.769 168.535 240.547 166.496 239.047 163.949C234.381 155.942 238.231 143.845 250.266 141.961L254.414 142.182ZM251.143 145.136C244.563 144.853 240.349 150.904 240.162 156.49C239.952 162.613 245.749 168.504 251.529 168.382C257.431 168.255 263.41 162.63 263.145 157.033C262.825 150.162 258.578 145.047 251.143 145.136Z" fill="#ECE3E2"/>
<path d="M254.414 142.182L250.239 141.961L254.414 142.182Z" fill="#111114"/>
<path d="M30.6283 125.78L26.2158 129.659L30.6283 125.78Z" fill="#ECE3E2"/>
<path d="M26.205 129.659L24.5503 132.429L26.205 129.659Z" fill="#ECE3E2"/>
<path d="M36.6843 122.455L34.478 123.563L36.6843 122.455Z" fill="#ECE3E2"/>
<path d="M34.4838 123.563L32.8291 124.815L34.4838 123.563Z" fill="#ECE3E2"/>
<path d="M32.2665 125.192L30.6118 125.802L32.2665 125.192Z" fill="#ECE3E2"/>
<path d="M38.9627 121.346L37.7603 121.901L38.9627 121.346Z" fill="#ECE3E2"/>
<path d="M37.7874 121.901L36.6567 122.455L37.7874 121.901Z" fill="#ECE3E2"/>
<path d="M16.2822 151.675C16.0892 153.808 16.023 155.969 15.6259 158.064C15.4825 158.807 14.5227 159.399 13.9712 160.064L14.1366 159.51C14.2359 159 14.3297 158.491 14.429 157.986L14.3297 155.598C14.3683 155.543 14.44 155.476 14.429 155.437C14.3798 155.327 14.3207 155.221 14.2525 155.121C13.6274 153.455 13.0059 151.784 12.3882 150.106L16.2822 151.675Z" fill="#FAFAFA"/>
<path d="M12.5205 164.57L15.3114 166.232C15.157 166.975 14.997 167.712 14.8426 168.449C14.7985 168.487 14.7157 168.537 14.7212 168.57C14.748 168.684 14.7849 168.796 14.8316 168.903L15.0191 169.019V170.471L13.4416 173.325C13.221 172.937 13.0059 172.549 12.7908 172.161L12.3606 166.842C12.2668 166.454 12.1786 166.071 12.0848 165.689L11.9689 165.617H11.8311L12.2227 164.658L12.5205 164.57Z" fill="#FAFAFA"/>
<path d="M12.2062 164.68L11.8146 165.639L10.7115 165.301C10.5405 165.035 10.375 164.747 10.2096 164.503C10.2096 163.24 10.1599 161.976 10.2096 160.713C10.2655 160.291 10.3672 159.877 10.5129 159.477C10.8204 159.854 11.0747 160.272 11.2686 160.718C11.6271 162.026 11.8973 163.356 12.2062 164.68Z" fill="#05AE70"/>
<path d="M10.8659 156.557L10.5295 157.887C10.0606 156.85 9.55319 155.831 9.14504 154.772C9.06782 154.562 9.37671 154.218 9.50357 153.925L10.8659 156.557Z" fill="#05AE70"/>
<path d="M11.252 148.993L12.3551 150.14L11.252 148.993Z" fill="#F8F8F7"/>
<path d="M14.4178 157.998C14.3185 158.502 14.2248 159.012 14.1255 159.521C14.2248 159.028 14.3185 158.502 14.4178 157.998Z" fill="#F5F6F5"/>
<path d="M13.6565 161.245C13.5682 161.61 13.48 161.976 13.3862 162.353C13.4579 161.965 13.5682 161.599 13.6565 161.245Z" fill="#F5F6F5"/>
<path d="M13.3973 162.492C13.265 162.796 13.1381 163.096 13.0112 163.4C13.1381 163.096 13.265 162.796 13.3973 162.492Z" fill="#F5F6F5"/>
<path d="M14.2413 155.149C14.3095 155.249 14.3686 155.355 14.4178 155.465C14.4178 155.504 14.3571 155.57 14.3185 155.626C14.2585 155.564 14.219 155.485 14.2052 155.4C14.1913 155.314 14.204 155.227 14.2413 155.149Z" fill="#F5F6F5"/>
<path d="M8.83075 170.665C8.53842 170.826 8.27921 171.025 8.22957 170.976C7.54563 170.549 6.89479 170.083 6.23291 169.623C6.35425 169.479 6.56383 169.186 6.59141 169.202C7.28086 169.607 7.94274 170.061 8.83075 170.665Z" fill="#05AE70"/>
<path d="M302.555 169.064L302.185 169.723C302.235 169.446 302.29 169.169 302.34 168.881C302.413 168.936 302.485 168.997 302.555 169.064Z" fill="#F8F8F7"/>
<path d="M12.0684 165.678C12.1621 166.06 12.2504 166.443 12.3441 166.831C12.2504 166.465 12.1621 166.083 12.0684 165.678Z" fill="#F5F6F5"/>
<path d="M13.4253 173.336L15.0028 170.482H15.7639C15.7748 170.615 15.754 170.748 15.7033 170.87L13.497 174.788C13.4584 174.311 13.4584 173.824 13.4253 173.336Z" fill="#928D8D"/>
<path d="M151.901 114.697L139.766 115.251C138.205 112.48 136.699 109.709 135.061 106.989C133.335 104.124 131.449 101.353 129.722 98.488C129.546 98.1999 129.893 97.474 130.175 97.0805C130.334 96.8589 130.875 96.953 131.211 96.8145C142.243 92.2428 139.06 93.595 144.901 102.035C147.301 105.498 149.275 109.238 151.399 112.901C151.641 113.476 151.809 114.079 151.901 114.697Z" fill="#02435D"/>
<path d="M159.551 114.58L154.101 114.647L159.71 114.176C159.638 114.302 159.584 114.438 159.551 114.58Z" fill="#02435D"/>
<path d="M159.551 114.58C159.584 114.438 159.638 114.302 159.711 114.176L161.851 114.442L159.551 114.58Z" fill="#82868B"/>
<path d="M163.533 114.331L162.866 114.397L163.533 114.331Z" fill="#82868B"/>
<path d="M130.941 115.932L130.34 115.971L130.941 115.932Z" fill="#928D8D"/>
<path d="M129.331 115.993L128.691 116.032L129.331 115.993Z" fill="#928D8D"/>
<path d="M194.922 85.8812L215.115 89.3779C215.92 89.5219 216.731 89.6272 217.542 89.7491C219.142 92.4035 220.614 95.1521 222.385 97.69C224.039 100.051 224.536 102.395 223.67 105.165C223.08 107.066 222.82 109.044 222.407 111.023L221.182 110.934L220.46 111.178L213.995 111.444L213.174 111.621L209.809 111.799C206.935 106.966 204.018 102.156 201.21 97.2855C199.02 93.5395 196.991 89.6993 194.922 85.8812Z" fill="#023A50"/>
<path d="M194.923 85.8813C197.013 89.6827 199.043 93.5229 201.211 97.2855C204.018 102.156 206.936 106.966 209.809 111.799L197.675 112.38C197.256 111.067 197.068 109.61 196.384 108.468C192.064 101.216 187.672 94.0124 183.208 86.8566C182.071 85.0445 182.524 84.6012 184.371 84.7896C187.526 85.1166 190.676 85.5044 193.831 85.8646L194.923 85.8813Z" fill="#02435D"/>
<path d="M224.668 92.5309C228.805 93.5062 233.008 94.2654 237.057 95.5233C242.059 97.0749 246.946 99.0144 251.849 100.876C252.633 101.17 253.239 101.935 253.929 102.483C248.524 107.061 242.898 111.172 235.264 110.374C233.151 107.049 230.967 103.824 228.954 100.466C227.415 97.9005 226.086 95.1908 224.668 92.5309Z" fill="#023A50"/>
<path d="M213.152 111.638L213.974 111.46L213.152 111.638Z" fill="#02435D"/>
<path d="M220.438 111.195L221.16 110.951L220.438 111.195Z" fill="#29242F"/>
<path d="M14.8428 168.449C14.9972 167.706 15.1572 166.969 15.3116 166.232L16.7953 164.503L18.7864 163.528L19.0015 163.478L20.1047 163.312H21.7594C24.1366 164.459 24.6054 166.326 22.4819 167.806C20.4853 169.202 17.9977 169.889 15.7253 170.887C15.7756 170.766 15.7964 170.635 15.7859 170.505L16.3375 169.108L15.0303 169.036L14.8428 168.92C14.875 168.89 14.9007 168.853 14.9183 168.813C14.9359 168.772 14.945 168.728 14.945 168.684C14.945 168.64 14.9359 168.596 14.9183 168.556C14.9007 168.515 14.875 168.479 14.8428 168.449ZM18.3562 166.908L18.0639 167.274C18.1866 167.336 18.3162 167.382 18.45 167.412C18.4941 167.412 18.6155 167.263 18.5989 167.23C18.5294 167.118 18.4481 167.014 18.3562 166.919V166.908Z" fill="#09AE70"/>
<path d="M18.7861 163.533L16.795 164.509C16.6902 162.608 17.7216 163.04 18.7861 163.533Z" fill="#FAFAFA"/>
<path d="M20.1046 163.317L19.0015 163.484L20.1046 162.863C20.1046 163.013 20.1046 163.168 20.1046 163.317Z" fill="#FAFAFA"/>
<path d="M20.1045 163.317C20.1045 163.168 20.1045 163.013 20.1045 162.863L21.7592 163.306L20.1045 163.317Z" fill="#F5F6F5"/>
<path d="M43.7939 161.843L44.3455 162.309L43.7939 161.843Z" fill="#ECE3E2"/>
<path d="M45.1895 164.78L45.4707 165.634L45.1895 164.78Z" fill="#C6CCCD"/>
<path d="M178.375 85.327H178.927C179.106 86.2897 179.383 87.2312 179.754 88.1365C182.946 94.1989 186.184 100.241 189.467 106.263C190.074 107.371 190.99 108.307 191.569 109.427C191.927 110.108 191.916 110.984 192.071 111.771C190.824 111.538 188.927 111.743 188.436 111.006C185.093 105.941 182.01 100.699 178.921 95.49C177.978 93.8886 177.399 92.0599 176.395 90.5027C175.877 89.6992 174.796 89.267 173.963 88.6685C173.963 87.7487 173.963 86.8343 173.963 85.8978L178.375 85.327Z" fill="#02435D"/>
<path d="M224.122 91.4226L224.674 92.5309L224.122 91.4226Z" fill="#023A50"/>
<path d="M178.375 85.3271L173.963 85.8812V83.6647L178.375 85.3271Z" fill="#023A50"/>
<path d="M91.7803 112.297C96.6175 108.751 102.133 106.756 107.864 105.287L103.915 116.359C99.2705 116.841 95.5585 114.481 91.7803 112.297Z" fill="#043A51"/>
<path d="M68.063 142.143C74.4335 143.629 78.7688 147.347 79.9382 153.936C81.0744 160.336 78.7909 165.478 73.3194 169.086C67.0867 173.175 58.0135 171.302 53.8658 165.085C49.2878 158.197 50.7053 149.015 57.2137 144.82C59.238 143.512 61.7035 142.914 63.9704 141.988L68.063 142.143ZM76.9377 156.579C77.6547 150.273 71.5379 145.003 65.9064 145.058C60.6279 145.114 54.0864 149.863 54.2629 156.512C54.4394 163.162 59.1056 168.149 66.4634 168.299C70.7105 168.393 77.8698 162.575 76.9156 156.579H76.9377Z" fill="#ECE3E2"/>
<path d="M68.063 142.143L63.9484 141.988L63.2534 141.351L68.063 142.143Z" fill="#101013"/>
<path d="M251.143 145.136C258.578 145.047 262.825 150.184 263.145 157.033C263.41 162.63 257.431 168.255 251.529 168.382C245.749 168.504 239.946 162.613 240.162 156.49C240.349 150.904 244.563 144.853 251.143 145.136ZM255.059 156.74C254.938 154.656 253.995 153.138 251.783 153.077C249.676 153.021 248.17 154.312 248.11 156.402C248.064 156.868 248.118 157.339 248.267 157.783C248.415 158.228 248.656 158.636 248.973 158.98C249.289 159.324 249.675 159.597 250.104 159.781C250.533 159.965 250.997 160.056 251.463 160.048C253.669 160.186 254.844 158.967 255.043 156.74H255.059Z" fill="#D5D1D1"/>
<path d="M15.0192 169.031L16.3264 169.103L15.7748 170.499H15.0137L15.0192 169.031Z" fill="#05AE70"/>
<path d="M14.8425 168.449C14.9024 168.509 14.9361 168.591 14.9361 168.676C14.9361 168.761 14.9024 168.843 14.8425 168.903C14.7958 168.796 14.7589 168.684 14.7321 168.571C14.7156 168.548 14.7983 168.498 14.8425 168.449Z" fill="#928D8D"/>
<path d="M18.3558 166.919C18.4483 167.017 18.5297 167.125 18.5985 167.241C18.5985 167.274 18.4937 167.429 18.4496 167.423C18.3158 167.393 18.1862 167.347 18.0635 167.285L18.3558 166.919Z" fill="#05AE70"/>
<path d="M76.9157 156.579C77.8699 162.575 70.7106 168.393 66.436 168.299C59.0782 168.138 54.4119 163.184 54.2354 156.512C54.0589 149.84 60.6005 145.114 65.8789 145.058C71.5159 145.003 77.6328 150.273 76.9157 156.579ZM69.1938 156.579C68.9567 154.451 67.7929 153.06 65.6969 153.11C65.2096 153.088 64.7232 153.172 64.2713 153.357C63.8193 153.541 63.4125 153.822 63.0787 154.179C62.7449 154.537 62.4921 154.962 62.3375 155.427C62.183 155.892 62.1305 156.385 62.1835 156.873C62.2662 158.967 63.5513 160.197 65.7907 160.125C68.03 160.053 68.8905 158.585 69.1663 156.568L69.1938 156.579Z" fill="#D5D1D1"/>
<path d="M255.043 156.74C254.828 158.956 253.653 160.186 251.447 160.064C250.98 160.073 250.517 159.982 250.088 159.798C249.659 159.614 249.273 159.341 248.956 158.997C248.64 158.652 248.399 158.245 248.25 157.8C248.102 157.356 248.048 156.885 248.093 156.418C248.154 154.324 249.66 153.032 251.767 153.093C253.995 153.138 254.938 154.656 255.043 156.74Z" fill="#82868B"/>
<path d="M69.1662 156.568C68.8849 158.585 68.063 160.042 65.763 160.114C63.463 160.186 62.2385 158.956 62.1558 156.862C62.1027 156.374 62.1553 155.881 62.3099 155.416C62.4644 154.952 62.7172 154.526 63.051 154.168C63.3848 153.811 63.7916 153.53 64.2436 153.346C64.6955 153.161 65.1819 153.077 65.6692 153.099C67.7707 153.049 68.9345 154.44 69.1662 156.568Z" fill="#82868B"/>
</g>
<defs>
<clipPath id="clip0_2_7049">
<rect width="317" height="181" fill="white"/>
</clipPath>
</defs>
</svg>
