<svg width="36" height="37" viewBox="0 0 36 37" fill="none" xmlns="http://www.w3.org/2000/svg">
<path d="M32.565 17.4235L19.065 3.64796C18.9262 3.50607 18.7614 3.39349 18.58 3.31668C18.3985 3.23988 18.204 3.20034 18.0075 3.20034C17.8111 3.20034 17.6165 3.23988 17.4351 3.31668C17.2536 3.39349 17.0888 3.50607 16.95 3.64796L3.45002 17.4235C3.31096 17.5651 3.20064 17.7333 3.12537 17.9184C3.0501 18.1036 3.01135 18.3021 3.01135 18.5026C3.01135 18.703 3.0501 18.9015 3.12537 19.0867C3.20064 19.2718 3.31096 19.44 3.45002 19.5816L16.95 33.3571C17.535 33.9541 18.48 33.9541 19.065 33.3571L32.565 19.5816C32.7041 19.44 32.8144 19.2718 32.8897 19.0867C32.9649 18.9015 33.0037 18.703 33.0037 18.5026C33.0037 18.3021 32.9649 18.1036 32.8897 17.9184C32.8144 17.7333 32.7041 17.5651 32.565 17.4235ZM21 22.3367V18.5102H15V21.5714C15 22.4133 14.325 23.102 13.5 23.102C12.675 23.102 12 22.4133 12 21.5714V16.9796C12 16.1378 12.675 15.449 13.5 15.449H21V11.6224L25.725 16.4439C26.025 16.75 26.025 17.2245 25.725 17.5306L21 22.3367Z" fill="#19E024"/>
</svg>
