<svg width="36" height="36" viewBox="0 0 36 36" fill="none" xmlns="http://www.w3.org/2000/svg">
<g clip-path="url(#clip0_233_4122)">
<circle cx="18" cy="16" r="14" fill="white"/>
<path d="M3.37241 8.98072C1.28506 8.34173 -0.115447 7.08751 0.00528639 4.72958C0.0760002 3.98071 0.370639 3.26926 0.851986 2.6851C1.33333 2.10093 1.9798 1.67026 2.70971 1.4475C4.55828 0.919404 5.96951 1.52935 7.61953 3.66284C14.4745 -1.19296 21.3805 -1.22993 28.3749 3.68396C29.6011 1.77227 31.2591 0.705528 33.6201 1.60592C34.3276 1.8466 34.939 2.3025 35.3658 2.9077C35.7927 3.5129 36.0129 4.23603 35.9946 4.97251C36.0241 7.18785 34.6531 8.4051 32.6489 8.96752C32.6248 9.12067 32.5738 9.21572 32.6006 9.28701C35.0958 15.8195 33.9421 22.1038 31.1008 28.198C29.6972 31.2853 27.2397 33.7917 24.1546 35.2823C23.7591 35.4848 23.3483 35.6569 22.9258 35.7972C20.8761 36.4362 19.3924 35.5068 19.3575 33.3812C19.3334 31.9157 19.6446 30.445 19.8136 28.9056C24.8925 27.8257 28.6245 25.3014 30.634 20.6832C31.8513 17.9105 32.0487 14.8068 31.1921 11.9063C30.3801 9.01931 28.6015 6.48665 26.1443 4.71873C23.6871 2.95081 20.6954 2.05121 17.6538 2.1657C11.2147 2.39806 5.87293 6.83667 4.7273 12.9916C4.26399 15.3387 4.4493 17.7652 5.2639 20.0178C6.09175 22.2632 7.5101 24.2523 9.3742 25.782C11.2523 27.353 13.4764 28.227 15.8831 28.7868C16.5136 30.4344 16.8543 32.0583 16.6182 33.7429C16.3499 35.5913 15.0406 36.4045 13.2242 35.8263C10.3336 34.9199 7.87085 33.0201 6.28611 30.474C2.17312 23.96 0.767247 17.0262 3.31606 9.55634C3.35388 9.43178 3.38257 9.30471 3.40192 9.17611C3.40097 9.10998 3.39105 9.04427 3.37241 8.98072V8.98072Z" fill="#24E6C1"/>
<g clip-path="url(#clip1_233_4122)">
<path d="M15.5791 25.9858C15.6391 25.7966 15.698 25.6074 15.7591 25.4168C16.0207 24.6089 16.2825 23.801 16.5446 22.9933L17.0914 21.306L17.8694 18.9081C17.99 18.5362 18.1099 18.164 18.2292 17.7915C18.244 17.7457 18.2529 17.6984 18.2662 17.6443C18.2292 17.6393 18.2021 17.6336 18.1754 17.6329C17.8572 17.6244 17.5393 17.6144 17.2211 17.6091C16.4968 17.5967 15.7721 17.5874 15.0478 17.5757C14.5217 17.5671 13.9958 17.5575 13.4699 17.5469C13.0414 17.5386 12.6125 17.5299 12.1832 17.5209L10.8124 17.4939C10.379 17.485 9.94512 17.4779 9.51166 17.4669C9.34235 17.4622 9.17303 17.4487 8.99854 17.4391C9.00446 17.4199 9.00483 17.4053 9.01261 17.3968C9.24207 17.1486 9.47177 16.9009 9.70172 16.6536C9.90178 16.4402 10.1044 16.2269 10.3034 16.0135C10.6618 15.6273 11.0192 15.2404 11.3756 14.8528L12.467 13.6732L13.5414 12.5118L14.604 11.3593C14.9614 10.9719 15.3195 10.5847 15.6784 10.1975C15.8495 10.0123 16.0222 9.82843 16.1937 9.64316C16.5511 9.25626 16.9092 8.86912 17.2681 8.48175C17.6386 8.08181 18.0091 7.68187 18.3796 7.28193C18.5596 7.0867 18.7367 6.89076 18.9168 6.69447C19.0968 6.49817 19.2873 6.3001 19.4699 6.10096C19.774 5.76906 20.0771 5.43645 20.3795 5.10313C20.4095 5.07005 20.4361 5.03449 20.4643 5L20.4925 5.01814C20.4957 5.03261 20.4965 5.04752 20.4947 5.06223C20.3546 5.52132 20.2127 5.98005 20.0734 6.43914C19.8737 7.09844 19.6766 7.75809 19.477 8.41738C19.3766 8.74881 19.2721 9.07952 19.1709 9.4113C18.9733 10.0614 18.7758 10.7119 18.5782 11.3629C18.4955 11.6349 18.4111 11.9066 18.3292 12.1786C18.2304 12.5063 18.1323 12.8339 18.035 13.1615C18.0299 13.186 18.0262 13.2107 18.0239 13.2355C18.1491 13.2455 18.2677 13.2607 18.3862 13.2629C19.1428 13.276 19.8997 13.2856 20.6562 13.2984C21.1038 13.3056 21.5513 13.3159 21.9985 13.3251L23.2163 13.3511L24.5722 13.3785L25.8037 13.4044C26.1777 13.4127 26.5512 13.4212 26.9244 13.43C26.9426 13.43 26.9615 13.4339 27.0041 13.4396C26.9344 13.5299 26.8792 13.6135 26.8122 13.6868C26.6781 13.8329 26.5336 13.9712 26.4006 14.1178C26.1805 14.361 25.9671 14.6099 25.7485 14.8542C25.6311 14.9854 25.5066 15.1103 25.388 15.2401C25.1094 15.5466 24.8323 15.8556 24.5544 16.1618C24.297 16.4445 24.0358 16.7229 23.7764 17.0064C23.5315 17.2763 23.2948 17.5522 23.0492 17.8221C22.7898 18.1087 22.5227 18.3911 22.2597 18.6756C22.049 18.9043 21.839 19.1335 21.6298 19.363C21.4479 19.5621 21.266 19.7612 21.0863 19.9625C20.8552 20.2207 20.6292 20.4828 20.3961 20.7395C20.1327 21.0297 19.8641 21.3156 19.5981 21.604C19.3845 21.8354 19.1714 22.0677 18.959 22.301C18.8016 22.4738 18.646 22.6484 18.4904 22.8234C18.275 23.0652 18.06 23.3072 17.8453 23.5495C17.8001 23.6 17.7523 23.648 17.7064 23.6978C17.443 23.9823 17.1774 24.2646 16.9173 24.5513C16.685 24.8077 16.4608 25.0708 16.2293 25.3279C16.0996 25.4701 15.9611 25.6085 15.8292 25.7507C15.7551 25.8314 15.6843 25.9161 15.6121 25.9996L15.5791 25.9858Z" fill="#24E6C1"/>
</g>
</g>
<defs>
<clipPath id="clip0_233_4122">
<rect width="36" height="36" fill="white"/>
</clipPath>
<clipPath id="clip1_233_4122">
<rect width="18" height="21" fill="white" transform="translate(9 5)"/>
</clipPath>
</defs>
</svg>
