<svg width="205" height="81" viewBox="0 0 205 81" fill="none" xmlns="http://www.w3.org/2000/svg">
<path d="M4.577 31.103L4.02973 31.94L4.03705 31.9447L4.577 31.103ZM1.73 27.437L0.78445 27.7625L0.786142 27.7674L1.73 27.437ZM1.73 4.973L2.67387 5.30335L2.67554 5.29851L1.73 4.973ZM4.577 1.307L4.04842 0.458069L4.04118 0.462668L4.577 1.307ZM15.458 1.151L14.9487 2.01161L14.9563 2.01603L15.458 1.151ZM18.188 4.349L17.2524 4.70206L17.2553 4.70973L17.2583 4.71736L18.188 4.349ZM19.007 11.798V12.798H20.007V11.798H19.007ZM12.767 11.798H11.767V12.798H12.767V11.798ZM12.65 6.806L11.6571 6.92515L11.6577 6.93003L12.65 6.806ZM11.987 5.246L11.2109 5.87659L11.2325 5.90323L11.2559 5.92832L11.987 5.246ZM8.321 5.246L7.59146 4.56206L7.59146 4.56206L8.321 5.246ZM7.58 6.884L8.56746 7.04199L8.56837 7.03606L7.58 6.884ZM7.619 25.76L6.63699 25.9488L6.6413 25.9712L6.64661 25.9934L7.619 25.76ZM8.438 27.281L7.75568 28.0121L7.78077 28.0355L7.80741 28.0571L8.438 27.281ZM11.948 27.203L11.1954 26.5445L11.1923 26.5481L11.948 27.203ZM12.611 25.565L11.6226 25.4129L11.6198 25.4316L11.6176 25.4504L12.611 25.565ZM12.767 20.339V19.339H11.767V20.339H12.767ZM19.007 20.339H20.007V19.339H19.007V20.339ZM18.227 27.866L19.1648 28.2133L19.1668 28.2077L18.227 27.866ZM15.536 31.22L16.0706 32.0651L16.0767 32.0612L16.0828 32.0573L15.536 31.22ZM10.154 31.429C7.92719 31.429 6.27866 31.0066 5.11695 30.2613L4.03705 31.9447C5.63134 32.9674 7.70081 33.429 10.154 33.429V31.429ZM5.12425 30.266C3.96121 29.5056 3.1489 28.4639 2.67386 27.1066L0.786142 27.7674C1.4031 29.5301 2.48879 30.9324 4.02975 31.94L5.12425 30.266ZM2.67554 27.1115C2.17306 25.6519 1.911 23.9328 1.911 21.938H-0.0889999C-0.0889999 24.1032 0.194939 26.0501 0.784462 27.7625L2.67554 27.1115ZM1.911 21.938V10.589H-0.0889999V21.938H1.911ZM1.911 10.589C1.911 8.48347 2.1748 6.72923 2.67386 5.30335L0.786142 4.64265C0.193198 6.33677 -0.0889999 8.32652 -0.0889999 10.589H1.911ZM2.67554 5.29851C3.15151 3.91592 3.96184 2.88176 5.11283 2.15133L4.04118 0.462668C2.48816 1.44824 1.40049 2.85808 0.784462 4.64749L2.67554 5.29851ZM5.10556 2.15589C6.26966 1.43108 7.92278 1.02 10.154 1.02V-0.980002C7.70522 -0.980002 5.64034 -0.53308 4.04844 0.458101L5.10556 2.15589ZM10.154 1.02C12.3239 1.02 13.8897 1.38484 14.9487 2.01158L15.9673 0.290423C14.4783 -0.590842 12.5081 -0.980002 10.154 -0.980002V1.02ZM14.9563 2.01603C16.0614 2.65701 16.8155 3.54433 17.2524 4.70206L19.1236 3.99594C18.5205 2.39767 17.4546 1.15299 15.9597 0.285968L14.9563 2.01603ZM17.2583 4.71736C17.7486 5.95473 18.007 7.42427 18.007 9.146H20.007C20.007 7.22773 19.7194 5.49927 19.1177 3.98063L17.2583 4.71736ZM18.007 9.146V11.798H20.007V9.146H18.007ZM19.007 10.798H12.767V12.798H19.007V10.798ZM13.767 11.798V8.834H11.767V11.798H13.767ZM13.767 8.834C13.767 8.07083 13.7261 7.35292 13.6423 6.68196L11.6577 6.93003C11.7299 7.50708 11.767 8.14116 11.767 8.834H13.767ZM13.6429 6.68685C13.5454 5.87484 13.2571 5.14127 12.7181 4.56368L11.2559 5.92832C11.4449 6.13073 11.5986 6.43716 11.6571 6.92515L13.6429 6.68685ZM12.7631 4.61541C12.1452 3.85487 11.1722 3.622 10.193 3.622V5.622C10.9298 5.622 11.1528 5.80513 11.2109 5.87659L12.7631 4.61541ZM10.193 3.622C9.19766 3.622 8.24825 3.86149 7.59146 4.56206L9.05054 5.92994C9.17375 5.79851 9.47234 5.622 10.193 5.622V3.622ZM7.59146 4.56206C7.03795 5.15248 6.72007 5.89707 6.59163 6.73194L8.56837 7.03606C8.64793 6.51892 8.82405 6.17152 9.05054 5.92994L7.59146 4.56206ZM6.59256 6.72601C6.47859 7.43831 6.424 8.22036 6.424 9.068H8.424C8.424 8.30364 8.47341 7.62968 8.56744 7.04199L6.59256 6.72601ZM6.424 9.068V23.42H8.424V9.068H6.424ZM6.424 23.42C6.424 24.3505 6.49221 25.196 6.63699 25.9488L8.60101 25.5712C8.48579 24.972 8.424 24.2575 8.424 23.42H6.424ZM6.64661 25.9934C6.83681 26.7859 7.18984 27.4839 7.75568 28.0121L9.12032 26.5499C8.90616 26.3501 8.71319 26.0341 8.59139 25.5266L6.64661 25.9934ZM7.80741 28.0571C8.46187 28.5889 9.30122 28.788 10.193 28.788V26.788C9.57678 26.788 9.24613 26.6491 9.06859 26.5049L7.80741 28.0571ZM10.193 28.788C11.1408 28.788 12.0855 28.5712 12.7037 27.8579L11.1923 26.5481C11.1345 26.6148 10.9092 26.788 10.193 26.788V28.788ZM12.7006 27.8615C13.2263 27.2607 13.5086 26.5101 13.6044 25.6796L11.6176 25.4504C11.5574 25.9719 11.3977 26.3133 11.1954 26.5445L12.7006 27.8615ZM13.5994 25.7171C13.7119 24.9859 13.767 24.2198 13.767 23.42H11.767C11.767 24.1282 11.7181 24.7921 11.6226 25.4129L13.5994 25.7171ZM13.767 23.42V20.339H11.767V23.42H13.767ZM12.767 21.339H19.007V19.339H12.767V21.339ZM18.007 20.339V22.952H20.007V20.339H18.007ZM18.007 22.952C18.007 24.7055 17.7599 26.2243 17.2872 27.5243L19.1668 28.2077C19.7341 26.6477 20.007 24.8905 20.007 22.952H18.007ZM17.2893 27.5187C16.845 28.7182 16.0869 29.6659 14.9892 30.3827L16.0828 32.0573C17.5331 31.1101 18.569 29.8218 19.1647 28.2133L17.2893 27.5187ZM15.0014 30.3749C13.9514 31.0392 12.3724 31.429 10.154 31.429V33.429C12.5636 33.429 14.5726 33.0128 16.0706 32.0651L15.0014 30.3749ZM26.2506 31.181L26.7747 30.3293L26.2506 31.181ZM23.3256 27.632L22.3868 27.9763L22.3903 27.9858L22.3939 27.9952L23.3256 27.632ZM23.3256 4.739L22.3939 4.37579L22.3912 4.38268L22.3887 4.38962L23.3256 4.739ZM26.2506 1.229L26.7627 2.08795L26.2506 1.229ZM37.2876 1.268L36.7635 2.11966L36.7731 2.12553L36.7828 2.13119L37.2876 1.268ZM40.2126 4.778L39.2757 5.12738L39.2793 5.13704L39.2831 5.14663L40.2126 4.778ZM40.2126 27.632L39.2789 27.274L39.2757 27.2826L40.2126 27.632ZM37.2876 31.181L36.7708 30.3249L36.7635 30.3293L37.2876 31.181ZM33.5826 27.242L34.265 27.9731L34.2776 27.9613L34.2897 27.9491L33.5826 27.242ZM34.3626 25.721L35.3417 25.925L35.3432 25.9171L34.3626 25.721ZM34.3626 6.689L33.3837 6.89295V6.89295L34.3626 6.689ZM33.5826 5.207L32.8755 5.91411L32.8877 5.92629L32.9003 5.93805L33.5826 5.207ZM29.9946 5.207L30.677 5.93805L30.6896 5.92629L30.7017 5.91411L29.9946 5.207ZM29.2146 6.689L30.1936 6.89295V6.89295L29.2146 6.689ZM29.1756 25.721L28.1882 25.879L28.1919 25.9021L28.1967 25.925L29.1756 25.721ZM29.9556 27.242L29.2485 27.9491L29.2607 27.9613L29.2733 27.9731L29.9556 27.242ZM31.7496 31.429C29.541 31.429 27.9128 31.0297 26.7747 30.3293L25.7265 32.0327C27.2925 32.9963 29.3303 33.429 31.7496 33.429V31.429ZM26.7747 30.3293C25.6154 29.6159 24.7794 28.608 24.2573 27.2688L22.3939 27.9952C23.0679 29.724 24.1819 31.0821 25.7265 32.0327L26.7747 30.3293ZM24.2645 27.2877C23.743 25.8654 23.4676 24.1288 23.4676 22.055H21.4676C21.4676 24.2972 21.7643 26.2786 22.3868 27.9763L24.2645 27.2877ZM23.4676 22.055V10.277H21.4676V22.055H23.4676ZM23.4676 10.277C23.4676 8.20246 23.7432 6.48135 24.2626 5.08838L22.3887 4.38962C21.7641 6.06464 21.4676 8.03554 21.4676 10.277H23.4676ZM24.2573 5.10221C24.7785 3.76529 25.6111 2.77448 26.7627 2.08795L25.7386 0.370052C24.1862 1.29551 23.0688 2.64471 22.3939 4.37579L24.2573 5.10221ZM26.7627 2.08795C27.9036 1.40781 29.5366 1.02 31.7496 1.02V-0.980002C29.3347 -0.980002 27.3017 -0.561816 25.7386 0.370052L26.7627 2.08795ZM31.7496 1.02C33.9868 1.02 35.6269 1.42021 36.7635 2.11966L37.8117 0.41634C36.2443 -0.548212 34.1925 -0.980002 31.7496 -0.980002V1.02ZM36.7828 2.13119C37.9564 2.81764 38.7819 3.80333 39.2757 5.12738L41.1496 4.42862C40.4993 2.68467 39.3749 1.33036 37.7925 0.404811L36.7828 2.13119ZM39.2831 5.14663C39.822 6.50556 40.1096 8.20587 40.1096 10.277H42.1096C42.1096 8.03212 41.7993 6.06644 41.1422 4.40937L39.2831 5.14663ZM40.1096 10.277V22.055H42.1096V10.277H40.1096ZM40.1096 22.055C40.1096 24.1246 39.8224 25.8562 39.2789 27.2741L41.1464 27.9899C41.7989 26.2878 42.1096 24.3014 42.1096 22.055H40.1096ZM39.2757 27.2826C38.781 28.6091 37.952 29.6117 36.7708 30.3249L37.8045 32.0371C39.3793 31.0863 40.5002 29.7229 41.1496 27.9814L39.2757 27.2826ZM36.7635 30.3293C35.6269 31.0288 33.9868 31.429 31.7496 31.429V33.429C34.1925 33.429 36.2443 32.9972 37.8117 32.0327L36.7635 30.3293ZM31.7496 28.788C32.6985 28.788 33.6096 28.5847 34.265 27.9731L32.9003 26.5109C32.7756 26.6273 32.4648 26.788 31.7496 26.788V28.788ZM34.2897 27.9491C34.8379 27.401 35.1782 26.7092 35.3416 25.925L33.3837 25.517C33.287 25.9808 33.1074 26.303 32.8755 26.5349L34.2897 27.9491ZM35.3432 25.9171C35.4873 25.1966 35.5576 24.4415 35.5576 23.654H33.5576C33.5576 24.3225 33.498 24.9454 33.3821 25.5249L35.3432 25.9171ZM35.5576 23.654V8.717H33.5576V23.654H35.5576ZM35.5576 8.717C35.5576 7.92994 35.4874 7.18481 35.3416 6.48504L33.3837 6.89295C33.4979 7.44119 33.5576 8.04806 33.5576 8.717H35.5576ZM35.3416 6.48504C35.1779 5.69919 34.8334 5.00648 34.265 4.47594L32.9003 5.93805C33.1119 6.13551 33.2874 6.4308 33.3837 6.89295L35.3416 6.48504ZM34.2897 4.49989C33.6355 3.84561 32.7139 3.622 31.7496 3.622V5.622C32.4494 5.622 32.7498 5.78839 32.8755 5.91411L34.2897 4.49989ZM31.7496 3.622C30.8155 3.622 29.9312 3.85621 29.2875 4.49989L30.7017 5.91411C30.8381 5.77779 31.1238 5.622 31.7496 5.622V3.622ZM29.3123 4.47594C28.7439 5.00648 28.3994 5.69919 28.2357 6.48504L30.1936 6.89295C30.2899 6.4308 30.4654 6.13551 30.677 5.93805L29.3123 4.47594ZM28.2357 6.48504C28.0899 7.18481 28.0196 7.92994 28.0196 8.717H30.0196C30.0196 8.04806 30.0794 7.44119 30.1936 6.89295L28.2357 6.48504ZM28.0196 8.717V23.654H30.0196V8.717H28.0196ZM28.0196 23.654C28.0196 24.4294 28.075 25.1716 28.1882 25.879L30.1631 25.563C30.0683 24.9704 30.0196 24.3346 30.0196 23.654H28.0196ZM28.1967 25.925C28.36 26.7092 28.7004 27.401 29.2485 27.9491L30.6627 26.5349C30.4309 26.303 30.2512 25.9808 30.1546 25.517L28.1967 25.925ZM29.2733 27.9731C29.9237 28.5801 30.8165 28.788 31.7496 28.788V26.788C31.0707 26.788 30.7675 26.6319 30.638 26.5109L29.2733 27.9731ZM45.4063 32H44.4063V33H45.4063V32ZM45.4063 0.409997V-0.590003H44.4063V0.409997H45.4063ZM49.8913 0.409997L50.8112 0.0176573L50.552 -0.590003H49.8913V0.409997ZM56.9113 16.868L55.9915 17.2603L57.9113 16.868H56.9113ZM56.9113 0.409997V-0.590003H55.9113V0.409997H56.9113ZM62.2153 0.409997H63.2153V-0.590003H62.2153V0.409997ZM62.2153 32V33H63.2153V32H62.2153ZM57.9253 32L56.9974 32.3728L57.2494 33H57.9253V32ZM50.9053 14.528L51.8332 14.1552L49.9053 14.528H50.9053ZM50.9053 32V33H51.9053V32H50.9053ZM46.4063 32V0.409997H44.4063V32H46.4063ZM45.4063 1.41H49.8913V-0.590003H45.4063V1.41ZM48.9715 0.802338L55.9915 17.2603L57.8312 16.4757L50.8112 0.0176573L48.9715 0.802338ZM57.9113 16.868V0.409997H55.9113V16.868H57.9113ZM56.9113 1.41H62.2153V-0.590003H56.9113V1.41ZM61.2153 0.409997V32H63.2153V0.409997H61.2153ZM62.2153 31H57.9253V33H62.2153V31ZM58.8532 31.6272L51.8332 14.1552L49.9774 14.9008L56.9974 32.3728L58.8532 31.6272ZM49.9053 14.528V32H51.9053V14.528H49.9053ZM50.9053 31H45.4063V33H50.9053V31ZM67.0011 32H66.0011V33H67.0011V32ZM67.0011 0.409997V-0.590003H66.0011V0.409997H67.0011ZM71.4861 0.409997L72.4059 0.0176573L72.1467 -0.590003H71.4861V0.409997ZM78.5061 16.868L77.5863 17.2603L79.5061 16.868H78.5061ZM78.5061 0.409997V-0.590003H77.5061V0.409997H78.5061ZM83.8101 0.409997H84.8101V-0.590003H83.8101V0.409997ZM83.8101 32V33H84.8101V32H83.8101ZM79.5201 32L78.5922 32.3728L78.8442 33H79.5201V32ZM72.5001 14.528L73.428 14.1552L71.5001 14.528H72.5001ZM72.5001 32V33H73.5001V32H72.5001ZM68.0011 32V0.409997H66.0011V32H68.0011ZM67.0011 1.41H71.4861V-0.590003H67.0011V1.41ZM70.5663 0.802338L77.5863 17.2603L79.4259 16.4757L72.4059 0.0176573L70.5663 0.802338ZM79.5061 16.868V0.409997H77.5061V16.868H79.5061ZM78.5061 1.41H83.8101V-0.590003H78.5061V1.41ZM82.8101 0.409997V32H84.8101V0.409997H82.8101ZM83.8101 31H79.5201V33H83.8101V31ZM80.448 31.6272L73.428 14.1552L71.5722 14.9008L78.5922 32.3728L80.448 31.6272ZM71.5001 14.528V32H73.5001V14.528H71.5001ZM72.5001 31H67.0011V33H72.5001V31ZM88.5958 32H87.5958V33H88.5958V32ZM88.5958 0.409997V-0.590003H87.5958V0.409997H88.5958ZM102.363 0.409997H103.363V-0.590003H102.363V0.409997ZM102.363 4.856V5.856H103.363V4.856H102.363ZM95.0308 4.856V3.856H94.0308V4.856H95.0308ZM95.0308 13.241H94.0308V14.241H95.0308V13.241ZM100.686 13.241H101.686V12.241H100.686V13.241ZM100.686 17.726V18.726H101.686V17.726H100.686ZM95.0308 17.726V16.726H94.0308V17.726H95.0308ZM95.0308 27.632H94.0308V28.632H95.0308V27.632ZM102.441 27.632H103.441V26.632H102.441V27.632ZM102.441 32V33H103.441V32H102.441ZM89.5958 32V0.409997H87.5958V32H89.5958ZM88.5958 1.41H102.363V-0.590003H88.5958V1.41ZM101.363 0.409997V4.856H103.363V0.409997H101.363ZM102.363 3.856H95.0308V5.856H102.363V3.856ZM94.0308 4.856V13.241H96.0308V4.856H94.0308ZM95.0308 14.241H100.686V12.241H95.0308V14.241ZM99.6858 13.241V17.726H101.686V13.241H99.6858ZM100.686 16.726H95.0308V18.726H100.686V16.726ZM94.0308 17.726V27.632H96.0308V17.726H94.0308ZM95.0308 28.632H102.441V26.632H95.0308V28.632ZM101.441 27.632V32H103.441V27.632H101.441ZM102.441 31H88.5958V33H102.441V31ZM108.894 31.103L108.347 31.94L108.354 31.9447L108.894 31.103ZM106.047 27.437L105.102 27.7625L105.104 27.7674L106.047 27.437ZM106.047 4.973L106.991 5.30335L106.993 5.29851L106.047 4.973ZM108.894 1.307L108.366 0.458069L108.359 0.462668L108.894 1.307ZM119.775 1.151L119.266 2.01161L119.274 2.01603L119.775 1.151ZM122.505 4.349L121.57 4.70206L121.573 4.70973L121.576 4.71736L122.505 4.349ZM123.324 11.798V12.798H124.324V11.798H123.324ZM117.084 11.798H116.084V12.798H117.084V11.798ZM116.967 6.806L115.974 6.92515L115.975 6.93003L116.967 6.806ZM116.304 5.246L115.528 5.87659L115.55 5.90323L115.573 5.92832L116.304 5.246ZM112.638 5.246L111.909 4.56206V4.56206L112.638 5.246ZM111.897 6.884L112.885 7.04199L112.886 7.03606L111.897 6.884ZM111.936 25.76L110.954 25.9488L110.959 25.9712L110.964 25.9934L111.936 25.76ZM112.755 27.281L112.073 28.0121L112.098 28.0355L112.125 28.0571L112.755 27.281ZM116.265 27.203L115.513 26.5445L115.51 26.5481L116.265 27.203ZM116.928 25.565L115.94 25.4129L115.937 25.4316L115.935 25.4504L116.928 25.565ZM117.084 20.339V19.339H116.084V20.339H117.084ZM123.324 20.339H124.324V19.339H123.324V20.339ZM122.544 27.866L123.482 28.2133L123.484 28.2077L122.544 27.866ZM119.853 31.22L120.388 32.0651L120.394 32.0612L120.4 32.0573L119.853 31.22ZM114.471 31.429C112.245 31.429 110.596 31.0066 109.434 30.2613L108.354 31.9447C109.949 32.9674 112.018 33.429 114.471 33.429V31.429ZM109.442 30.266C108.279 29.5056 107.466 28.4639 106.991 27.1066L105.104 27.7674C105.72 29.5301 106.806 30.9324 108.347 31.94L109.442 30.266ZM106.993 27.1115C106.49 25.6519 106.228 23.9328 106.228 21.938H104.228C104.228 24.1032 104.512 26.0501 105.102 27.7625L106.993 27.1115ZM106.228 21.938V10.589H104.228V21.938H106.228ZM106.228 10.589C106.228 8.48347 106.492 6.72923 106.991 5.30335L105.104 4.64265C104.511 6.33677 104.228 8.32652 104.228 10.589H106.228ZM106.993 5.29851C107.469 3.91592 108.279 2.88176 109.43 2.15133L108.359 0.462668C106.806 1.44824 105.718 2.85808 105.102 4.64749L106.993 5.29851ZM109.423 2.15589C110.587 1.43108 112.24 1.02 114.471 1.02V-0.980002C112.023 -0.980002 109.958 -0.53308 108.366 0.458101L109.423 2.15589ZM114.471 1.02C116.641 1.02 118.207 1.38484 119.266 2.01158L120.285 0.290423C118.796 -0.590842 116.825 -0.980002 114.471 -0.980002V1.02ZM119.274 2.01603C120.379 2.65701 121.133 3.54433 121.57 4.70206L123.441 3.99594C122.838 2.39767 121.772 1.15299 120.277 0.285968L119.274 2.01603ZM121.576 4.71736C122.066 5.95473 122.324 7.42427 122.324 9.146H124.324C124.324 7.22773 124.037 5.49927 123.435 3.98063L121.576 4.71736ZM122.324 9.146V11.798H124.324V9.146H122.324ZM123.324 10.798H117.084V12.798H123.324V10.798ZM118.084 11.798V8.834H116.084V11.798H118.084ZM118.084 8.834C118.084 8.07083 118.044 7.35292 117.96 6.68196L115.975 6.93003C116.047 7.50708 116.084 8.14116 116.084 8.834H118.084ZM117.96 6.68685C117.863 5.87484 117.575 5.14127 117.035 4.56368L115.573 5.92832C115.762 6.13073 115.916 6.43716 115.975 6.92515L117.96 6.68685ZM117.08 4.61541C116.463 3.85487 115.49 3.622 114.51 3.622V5.622C115.247 5.622 115.47 5.80513 115.528 5.87659L117.08 4.61541ZM114.51 3.622C113.515 3.622 112.566 3.86149 111.909 4.56206L113.368 5.92994C113.491 5.79851 113.79 5.622 114.51 5.622V3.622ZM111.909 4.56206C111.355 5.15248 111.037 5.89707 110.909 6.73194L112.886 7.03606C112.965 6.51892 113.141 6.17152 113.368 5.92994L111.909 4.56206ZM110.91 6.72601C110.796 7.43831 110.741 8.22036 110.741 9.068H112.741C112.741 8.30364 112.791 7.62968 112.885 7.04199L110.91 6.72601ZM110.741 9.068V23.42H112.741V9.068H110.741ZM110.741 23.42C110.741 24.3505 110.81 25.196 110.954 25.9488L112.918 25.5712C112.803 24.972 112.741 24.2575 112.741 23.42H110.741ZM110.964 25.9934C111.154 26.7859 111.507 27.4839 112.073 28.0121L113.438 26.5499C113.224 26.3501 113.031 26.0341 112.909 25.5266L110.964 25.9934ZM112.125 28.0571C112.779 28.5889 113.619 28.788 114.51 28.788V26.788C113.894 26.788 113.564 26.6491 113.386 26.5049L112.125 28.0571ZM114.51 28.788C115.458 28.788 116.403 28.5712 117.021 27.8579L115.51 26.5481C115.452 26.6148 115.227 26.788 114.51 26.788V28.788ZM117.018 27.8615C117.544 27.2607 117.826 26.5101 117.922 25.6796L115.935 25.4504C115.875 25.9719 115.715 26.3133 115.513 26.5445L117.018 27.8615ZM117.917 25.7171C118.029 24.9859 118.084 24.2198 118.084 23.42H116.084C116.084 24.1282 116.036 24.7921 115.94 25.4129L117.917 25.7171ZM118.084 23.42V20.339H116.084V23.42H118.084ZM117.084 21.339H123.324V19.339H117.084V21.339ZM122.324 20.339V22.952H124.324V20.339H122.324ZM122.324 22.952C122.324 24.7055 122.077 26.2243 121.605 27.5243L123.484 28.2077C124.051 26.6477 124.324 24.8905 124.324 22.952H122.324ZM121.607 27.5187C121.162 28.7182 120.404 29.6659 119.307 30.3827L120.4 32.0573C121.85 31.1101 122.886 29.8218 123.482 28.2133L121.607 27.5187ZM119.319 30.3749C118.269 31.0392 116.69 31.429 114.471 31.429V33.429C116.881 33.429 118.89 33.0128 120.388 32.0651L119.319 30.3749ZM130.217 32H129.217V33H130.217V32ZM130.217 5.207H131.217V4.207H130.217V5.207ZM125.342 5.207H124.342V6.207H125.342V5.207ZM125.342 0.409997V-0.590003H124.342V0.409997H125.342ZM141.488 0.409997H142.488V-0.590003H141.488V0.409997ZM141.488 5.207V6.207H142.488V5.207H141.488ZM136.691 5.207V4.207H135.691V5.207H136.691ZM136.691 32V33H137.691V32H136.691ZM131.217 32V5.207H129.217V32H131.217ZM130.217 4.207H125.342V6.207H130.217V4.207ZM126.342 5.207V0.409997H124.342V5.207H126.342ZM125.342 1.41H141.488V-0.590003H125.342V1.41ZM140.488 0.409997V5.207H142.488V0.409997H140.488ZM141.488 4.207H136.691V6.207H141.488V4.207ZM135.691 5.207V32H137.691V5.207H135.691ZM136.691 31H130.217V33H136.691V31ZM144.432 32H143.432V33H144.432V32ZM144.432 0.409997V-0.590003H143.432V0.409997H144.432ZM150.828 0.409997H151.828V-0.590003H150.828V0.409997ZM150.828 32V33H151.828V32H150.828ZM145.432 32V0.409997H143.432V32H145.432ZM144.432 1.41H150.828V-0.590003H144.432V1.41ZM149.828 0.409997V32H151.828V0.409997H149.828ZM150.828 31H144.432V33H150.828V31ZM158.98 31.181L159.504 30.3293L158.98 31.181ZM156.055 27.632L155.116 27.9763L155.12 27.9858L155.123 27.9952L156.055 27.632ZM156.055 4.739L155.123 4.37579L155.121 4.38268L155.118 4.38962L156.055 4.739ZM158.98 1.229L159.492 2.08795L158.98 1.229ZM170.017 1.268L169.493 2.11966L169.503 2.12553L169.512 2.13119L170.017 1.268ZM172.942 4.778L172.005 5.12738L172.009 5.13704L172.013 5.14663L172.942 4.778ZM172.942 27.632L172.008 27.274L172.005 27.2826L172.942 27.632ZM170.017 31.181L169.5 30.3249L169.493 30.3293L170.017 31.181ZM166.312 27.242L166.994 27.9731L167.007 27.9613L167.019 27.9491L166.312 27.242ZM167.092 25.721L168.071 25.925L168.073 25.9171L167.092 25.721ZM167.092 6.689L166.113 6.89295V6.89295L167.092 6.689ZM166.312 5.207L165.605 5.91411L165.617 5.92629L165.63 5.93805L166.312 5.207ZM162.724 5.207L163.406 5.93805L163.419 5.92629L163.431 5.91411L162.724 5.207ZM161.944 6.689L162.923 6.89295V6.89295L161.944 6.689ZM161.905 25.721L160.918 25.879L160.921 25.9021L160.926 25.925L161.905 25.721ZM162.685 27.242L161.978 27.9491L161.99 27.9613L162.003 27.9731L162.685 27.242ZM164.479 31.429C162.27 31.429 160.642 31.0297 159.504 30.3293L158.456 32.0327C160.022 32.9963 162.06 33.429 164.479 33.429V31.429ZM159.504 30.3293C158.345 29.6159 157.509 28.608 156.987 27.2688L155.123 27.9952C155.797 29.724 156.911 31.0821 158.456 32.0327L159.504 30.3293ZM156.994 27.2877C156.473 25.8654 156.197 24.1288 156.197 22.055H154.197C154.197 24.2972 154.494 26.2786 155.116 27.9763L156.994 27.2877ZM156.197 22.055V10.277H154.197V22.055H156.197ZM156.197 10.277C156.197 8.20246 156.473 6.48135 156.992 5.08838L155.118 4.38962C154.494 6.06464 154.197 8.03554 154.197 10.277H156.197ZM156.987 5.10221C157.508 3.76529 158.341 2.77448 159.492 2.08795L158.468 0.370052C156.916 1.29551 155.798 2.64471 155.123 4.37579L156.987 5.10221ZM159.492 2.08795C160.633 1.40781 162.266 1.02 164.479 1.02V-0.980002C162.064 -0.980002 160.031 -0.561816 158.468 0.370052L159.492 2.08795ZM164.479 1.02C166.716 1.02 168.356 1.42021 169.493 2.11966L170.541 0.41634C168.974 -0.548212 166.922 -0.980002 164.479 -0.980002V1.02ZM169.512 2.13119C170.686 2.81764 171.511 3.80333 172.005 5.12738L173.879 4.42862C173.229 2.68467 172.104 1.33036 170.522 0.404811L169.512 2.13119ZM172.013 5.14663C172.551 6.50556 172.839 8.20587 172.839 10.277H174.839C174.839 8.03212 174.529 6.06644 173.872 4.40937L172.013 5.14663ZM172.839 10.277V22.055H174.839V10.277H172.839ZM172.839 22.055C172.839 24.1246 172.552 25.8562 172.008 27.2741L173.876 27.9899C174.528 26.2878 174.839 24.3014 174.839 22.055H172.839ZM172.005 27.2826C171.511 28.6091 170.682 29.6117 169.5 30.3249L170.534 32.0371C172.109 31.0863 173.23 29.7229 173.879 27.9814L172.005 27.2826ZM169.493 30.3293C168.356 31.0288 166.716 31.429 164.479 31.429V33.429C166.922 33.429 168.974 32.9972 170.541 32.0327L169.493 30.3293ZM164.479 28.788C165.428 28.788 166.339 28.5847 166.994 27.9731L165.63 26.5109C165.505 26.6273 165.194 26.788 164.479 26.788V28.788ZM167.019 27.9491C167.567 27.401 167.908 26.7092 168.071 25.925L166.113 25.517C166.017 25.9808 165.837 26.303 165.605 26.5349L167.019 27.9491ZM168.073 25.9171C168.217 25.1966 168.287 24.4415 168.287 23.654H166.287C166.287 24.3225 166.227 24.9454 166.112 25.5249L168.073 25.9171ZM168.287 23.654V8.717H166.287V23.654H168.287ZM168.287 8.717C168.287 7.92994 168.217 7.18481 168.071 6.48504L166.113 6.89295C166.227 7.44119 166.287 8.04806 166.287 8.717H168.287ZM168.071 6.48504C167.907 5.69919 167.563 5.00648 166.994 4.47594L165.63 5.93805C165.841 6.13551 166.017 6.4308 166.113 6.89295L168.071 6.48504ZM167.019 4.49989C166.365 3.84561 165.443 3.622 164.479 3.622V5.622C165.179 5.622 165.479 5.78839 165.605 5.91411L167.019 4.49989ZM164.479 3.622C163.545 3.622 162.661 3.85621 162.017 4.49989L163.431 5.91411C163.568 5.77779 163.853 5.622 164.479 5.622V3.622ZM162.042 4.47594C161.473 5.00648 161.129 5.69919 160.965 6.48504L162.923 6.89295C163.019 6.4308 163.195 6.13551 163.406 5.93805L162.042 4.47594ZM160.965 6.48504C160.819 7.18481 160.749 7.92994 160.749 8.717H162.749C162.749 8.04806 162.809 7.44119 162.923 6.89295L160.965 6.48504ZM160.749 8.717V23.654H162.749V8.717H160.749ZM160.749 23.654C160.749 24.4294 160.805 25.1716 160.918 25.879L162.893 25.563C162.798 24.9704 162.749 24.3346 162.749 23.654H160.749ZM160.926 25.925C161.09 26.7092 161.43 27.401 161.978 27.9491L163.392 26.5349C163.16 26.303 162.981 25.9808 162.884 25.517L160.926 25.925ZM162.003 27.9731C162.653 28.5801 163.546 28.788 164.479 28.788V26.788C163.8 26.788 163.497 26.6319 163.367 26.5109L162.003 27.9731ZM178.136 32H177.136V33H178.136V32ZM178.136 0.409997V-0.590003H177.136V0.409997H178.136ZM182.621 0.409997L183.541 0.0176573L183.281 -0.590003H182.621V0.409997ZM189.641 16.868L188.721 17.2603L190.641 16.868H189.641ZM189.641 0.409997V-0.590003H188.641V0.409997H189.641ZM194.945 0.409997H195.945V-0.590003H194.945V0.409997ZM194.945 32V33H195.945V32H194.945ZM190.655 32L189.727 32.3728L189.979 33H190.655V32ZM183.635 14.528L184.563 14.1552L182.635 14.528H183.635ZM183.635 32V33H184.635V32H183.635ZM179.136 32V0.409997H177.136V32H179.136ZM178.136 1.41H182.621V-0.590003H178.136V1.41ZM181.701 0.802338L188.721 17.2603L190.561 16.4757L183.541 0.0176573L181.701 0.802338ZM190.641 16.868V0.409997H188.641V16.868H190.641ZM189.641 1.41H194.945V-0.590003H189.641V1.41ZM193.945 0.409997V32H195.945V0.409997H193.945ZM194.945 31H190.655V33H194.945V31ZM191.583 31.6272L184.563 14.1552L182.707 14.9008L189.727 32.3728L191.583 31.6272ZM182.635 14.528V32H184.635V14.528H182.635ZM183.635 31H178.136V33H183.635V31ZM1.379 80H0.379V81H1.379V80ZM1.379 48.41V47.41H0.379V48.41H1.379ZM15.146 48.41H16.146V47.41H15.146V48.41ZM15.146 52.856V53.856H16.146V52.856H15.146ZM7.814 52.856V51.856H6.814V52.856H7.814ZM7.814 61.241H6.814V62.241H7.814V61.241ZM13.469 61.241H14.469V60.241H13.469V61.241ZM13.469 65.726V66.726H14.469V65.726H13.469ZM7.814 65.726V64.726H6.814V65.726H7.814ZM7.814 75.632H6.814V76.632H7.814V75.632ZM15.224 75.632H16.224V74.632H15.224V75.632ZM15.224 80V81H16.224V80H15.224ZM2.379 80V48.41H0.379V80H2.379ZM1.379 49.41H15.146V47.41H1.379V49.41ZM14.146 48.41V52.856H16.146V48.41H14.146ZM15.146 51.856H7.814V53.856H15.146V51.856ZM6.814 52.856V61.241H8.814V52.856H6.814ZM7.814 62.241H13.469V60.241H7.814V62.241ZM12.469 61.241V65.726H14.469V61.241H12.469ZM13.469 64.726H7.814V66.726H13.469V64.726ZM6.814 65.726V75.632H8.814V65.726H6.814ZM7.814 76.632H15.224V74.632H7.814V76.632ZM14.224 75.632V80H16.224V75.632H14.224ZM15.224 79H1.379V81H15.224V79ZM21.7946 79.376L21.306 80.2485L21.3127 80.2523L21.3194 80.2559L21.7946 79.376ZM18.8306 76.139L17.9174 76.5467L17.9219 76.5566L17.9265 76.5664L18.8306 76.139ZM17.6996 70.601L17.5329 69.615L16.6595 69.7626L16.7007 70.6475L17.6996 70.601ZM23.2376 69.665L24.2368 69.625L24.1914 68.4896L23.0709 68.679L23.2376 69.665ZM23.6276 72.941L22.6542 73.17L22.6582 73.1872L22.6628 73.2041L23.6276 72.941ZM24.6416 74.891L23.9345 75.5981L23.9553 75.6189L23.9772 75.6384L24.6416 74.891ZM28.0346 74.735L27.1771 74.2205L27.1674 74.2366L27.1584 74.2531L28.0346 74.735ZM27.5276 69.626L26.7029 70.1915L26.7122 70.2051L26.7219 70.2184L27.5276 69.626ZM25.0316 66.896L25.6901 66.1434L25.6875 66.1412L25.0316 66.896ZM21.7556 64.049L22.4115 63.2942L22.4062 63.2895L22.4008 63.285L21.7556 64.049ZM18.8696 60.695L18.0058 61.1989L18.0097 61.2055L18.0137 61.2121L18.8696 60.695ZM20.0396 50.126L20.7142 50.8642L20.7147 50.8637L20.0396 50.126ZM30.2186 48.8L29.7623 49.6898L30.2186 48.8ZM32.5586 50.906L31.7078 51.4315L31.7169 51.4463L31.7265 51.4607L32.5586 50.906ZM33.7286 53.753L32.748 53.9491L32.7509 53.9635L32.7542 53.9779L33.7286 53.753ZM34.1576 56.795L34.3049 57.7841L35.2028 57.6504L35.1563 56.7438L34.1576 56.795ZM28.6586 57.614L27.66 57.668L27.7193 58.7649L28.8059 58.6031L28.6586 57.614ZM28.3856 55.079L27.3956 55.2204L27.3981 55.2377L27.4012 55.2548L28.3856 55.079ZM27.6836 53.363L26.9075 53.9936L26.919 54.0078L26.931 54.0215L27.6836 53.363ZM24.4466 53.597L25.2786 54.1517L25.2845 54.1428L25.2902 54.1339L24.4466 53.597ZM24.6416 58.199L23.8141 58.7605L23.8257 58.7776L23.838 58.7942L24.6416 58.199ZM26.7476 60.422L26.086 61.1718L26.0878 61.1734L26.7476 60.422ZM29.9456 63.23L29.2858 63.9815L29.2924 63.9872L29.9456 63.23ZM33.3386 67.169L32.4931 67.703L32.4986 67.7117L32.5043 67.7203L33.3386 67.169ZM33.7676 76.607L32.897 76.1149L33.7676 76.607ZM30.9206 79.415L30.4365 78.5399L30.4285 78.5444L30.9206 79.415ZM26.6696 79.429C24.8343 79.429 23.3845 79.0981 22.2697 78.4961L21.3194 80.2559C22.8046 81.0579 24.6049 81.429 26.6696 81.429V79.429ZM22.2832 78.5035C21.1761 77.8835 20.3276 76.9659 19.7347 75.7116L17.9265 76.5664C18.6856 78.1721 19.8131 79.4125 21.306 80.2485L22.2832 78.5035ZM19.7437 75.7313C19.1607 74.4253 18.7989 72.7124 18.6985 70.5545L16.7007 70.6475C16.8083 72.9616 17.2005 74.9407 17.9174 76.5467L19.7437 75.7313ZM17.8662 71.587L23.4042 70.651L23.0709 68.679L17.5329 69.615L17.8662 71.587ZM22.2384 69.705C22.2919 71.0438 22.4268 72.2037 22.6542 73.17L24.601 72.712C24.4124 71.9103 24.2872 70.8862 24.2368 69.625L22.2384 69.705ZM22.6628 73.2041C22.9243 74.163 23.3282 74.9918 23.9345 75.5981L25.3487 74.1839C25.071 73.9062 24.7988 73.435 24.5924 72.6779L22.6628 73.2041ZM23.9772 75.6384C24.6435 76.2306 25.4578 76.515 26.3576 76.515V74.515C25.9053 74.515 25.5757 74.3834 25.306 74.1436L23.9772 75.6384ZM26.3576 76.515C27.389 76.515 28.3817 76.1789 28.9108 75.2169L27.1584 74.2531C27.1155 74.331 26.9901 74.515 26.3576 74.515V76.515ZM28.8921 75.2495C29.3077 74.5567 29.5026 73.7769 29.5026 72.941H27.5026C27.5026 73.4571 27.3854 73.8733 27.1771 74.2205L28.8921 75.2495ZM29.5026 72.941C29.5026 71.4474 29.134 70.1227 28.3332 69.0336L26.7219 70.2184C27.2212 70.8973 27.5026 71.7826 27.5026 72.941H29.5026ZM28.3523 69.0605C27.6708 68.0666 26.778 67.0954 25.6901 66.1434L24.3731 67.6486C25.3652 68.5166 26.1364 69.3654 26.7029 70.1915L28.3523 69.0605ZM25.6875 66.1412L22.4115 63.2942L21.0996 64.8038L24.3756 67.6508L25.6875 66.1412ZM22.4008 63.285C21.3098 62.3637 20.4204 61.328 19.7255 60.1779L18.0137 61.2121C18.8268 62.558 19.8614 63.7583 21.1104 64.813L22.4008 63.285ZM19.7334 60.1911C19.1149 59.131 18.7776 57.7813 18.7776 56.093H16.7776C16.7776 58.0447 17.1682 59.763 18.0058 61.1989L19.7334 60.1911ZM18.7776 56.093C18.7776 53.6922 19.4669 52.0039 20.7142 50.8642L19.365 49.3878C17.5963 51.0041 16.7776 53.2938 16.7776 56.093H18.7776ZM20.7147 50.8637C22.0178 49.671 23.8453 49.02 26.3186 49.02V47.02C23.4879 47.02 21.1293 47.773 19.3644 49.3883L20.7147 50.8637ZM26.3186 49.02C27.8045 49.02 28.9338 49.2649 29.7623 49.6898L30.6749 47.9102C29.4754 47.2951 28.0046 47.02 26.3186 47.02V49.02ZM29.7623 49.6898C30.6302 50.1349 31.2667 50.7174 31.7078 51.4315L33.4094 50.3805C32.7584 49.3266 31.8349 48.5051 30.6749 47.9102L29.7623 49.6898ZM31.7265 51.4607C32.224 52.2069 32.5649 53.0335 32.748 53.9491L34.7092 53.5569C34.4763 52.3925 34.0372 51.3211 33.3906 50.3513L31.7265 51.4607ZM32.7542 53.9779C32.9754 54.9362 33.11 55.8921 33.1589 56.8462L35.1563 56.7438C35.1012 55.6699 34.9498 54.5978 34.703 53.5281L32.7542 53.9779ZM34.0103 55.8059L28.5113 56.6249L28.8059 58.6031L34.3049 57.7841L34.0103 55.8059ZM29.6571 57.56C29.6035 56.5686 29.509 55.6814 29.37 54.9032L27.4012 55.2548C27.5222 55.9326 27.6096 56.7354 27.66 57.668L29.6571 57.56ZM29.3755 54.9376C29.253 54.0798 28.9635 53.3071 28.4362 52.7045L26.931 54.0215C27.1317 54.2509 27.3102 54.6222 27.3956 55.2204L29.3755 54.9376ZM28.4597 52.7324C27.8765 52.0146 27.0264 51.739 26.1236 51.739V53.739C26.6248 53.739 26.8147 53.8794 26.9075 53.9936L28.4597 52.7324ZM26.1236 51.739C25.0732 51.739 24.1736 52.1633 23.6029 53.0601L25.2902 54.1339C25.4475 53.8867 25.666 53.739 26.1236 53.739V51.739ZM23.6145 53.0423C23.1376 53.7577 22.9006 54.5629 22.9006 55.43H24.9006C24.9006 54.9451 25.0276 54.5283 25.2786 54.1517L23.6145 53.0423ZM22.9006 55.43C22.9006 56.6941 23.1807 57.8271 23.8141 58.7605L25.4691 57.6375C25.1145 57.1149 24.9006 56.4019 24.9006 55.43H22.9006ZM23.838 58.7942C24.4114 59.5683 25.1663 60.3604 26.086 61.1718L27.4092 59.6722C26.5609 58.9236 25.9118 58.2337 25.4451 57.6038L23.838 58.7942ZM26.0878 61.1734L29.2858 63.9814L30.6054 62.4786L27.4074 59.6706L26.0878 61.1734ZM29.2924 63.9872C30.5435 65.0666 31.6098 66.3044 32.4931 67.703L34.1841 66.635C33.1954 65.0696 31.9996 63.6814 30.5988 62.4728L29.2924 63.9872ZM32.5043 67.7203C33.3351 68.9778 33.7816 70.5814 33.7816 72.59H35.7816C35.7816 70.2826 35.2661 68.2722 34.1729 66.6177L32.5043 67.7203ZM33.7816 72.59C33.7816 73.9136 33.4815 75.0808 32.897 76.1149L34.6381 77.0991C35.4056 75.7412 35.7816 74.2304 35.7816 72.59H33.7816ZM32.897 76.1149C32.3136 77.1472 31.4996 77.9519 30.4365 78.54L31.4046 80.29C32.7856 79.5261 33.8696 78.4588 34.6381 77.0991L32.897 76.1149ZM30.4285 78.5444C29.4091 79.1206 28.1683 79.429 26.6696 79.429V81.429C28.4468 81.429 30.0401 81.0614 31.4126 80.2856L30.4285 78.5444ZM41.134 80H40.134V81H41.134V80ZM41.134 53.207H42.134V52.207H41.134V53.207ZM36.259 53.207H35.259V54.207H36.259V53.207ZM36.259 48.41V47.41H35.259V48.41H36.259ZM52.405 48.41H53.405V47.41H52.405V48.41ZM52.405 53.207V54.207H53.405V53.207H52.405ZM47.608 53.207V52.207H46.608V53.207H47.608ZM47.608 80V81H48.608V80H47.608ZM42.134 80V53.207H40.134V80H42.134ZM41.134 52.207H36.259V54.207H41.134V52.207ZM37.259 53.207V48.41H35.259V53.207H37.259ZM36.259 49.41H52.405V47.41H36.259V49.41ZM51.405 48.41V53.207H53.405V48.41H51.405ZM52.405 52.207H47.608V54.207H52.405V52.207ZM46.608 53.207V80H48.608V53.207H46.608ZM47.608 79H41.134V81H47.608V79ZM52.6061 80L51.6244 79.8097L51.3937 81H52.6061V80ZM58.7291 48.41V47.41H57.9043L57.7474 48.2197L58.7291 48.41ZM65.8661 48.41L66.8481 48.2209L66.6919 47.41H65.8661V48.41ZM71.9501 80V81H73.1611L72.9321 79.8109L71.9501 80ZM65.9831 80L64.9961 80.1608L65.1329 81H65.9831V80ZM64.8521 73.058L65.8391 72.8972L65.7024 72.058H64.8521V73.058ZM59.8601 73.058V72.058H59.0192L58.8749 72.8864L59.8601 73.058ZM58.6511 80V81H59.492L59.6363 80.1716L58.6511 80ZM60.4451 69.119L59.4557 68.9738L59.2876 70.119H60.4451V69.119ZM64.2281 69.119V70.119H65.3891L65.2171 68.9708L64.2281 69.119ZM62.3171 56.366L63.3061 56.2178L61.3277 56.2208L62.3171 56.366ZM53.5878 80.1903L59.7108 48.6003L57.7474 48.2197L51.6244 79.8097L53.5878 80.1903ZM58.7291 49.41H65.8661V47.41H58.7291V49.41ZM64.8842 48.5991L70.9682 80.1891L72.9321 79.8109L66.8481 48.2209L64.8842 48.5991ZM71.9501 79H65.9831V81H71.9501V79ZM66.9701 79.8392L65.8391 72.8972L63.8651 73.2188L64.9961 80.1608L66.9701 79.8392ZM64.8521 72.058H59.8601V74.058H64.8521V72.058ZM58.8749 72.8864L57.6659 79.8284L59.6363 80.1716L60.8453 73.2296L58.8749 72.8864ZM58.6511 79H52.6061V81H58.6511V79ZM60.4451 70.119H64.2281V68.119H60.4451V70.119ZM65.2171 68.9708L63.3061 56.2178L61.3282 56.5142L63.2392 69.2672L65.2171 68.9708ZM61.3277 56.2208L59.4557 68.9738L61.4345 69.2642L63.3065 56.5112L61.3277 56.2208ZM75.1515 80H74.1515V81H75.1515V80ZM75.1515 48.41V47.41H74.1515V48.41H75.1515ZM86.9685 48.761L87.1646 47.7804L86.9685 48.761ZM90.0495 50.009L89.4891 50.8374L89.5003 50.8447L90.0495 50.009ZM92.1165 52.505L91.2008 52.907L91.2068 52.9206L91.2132 52.9341L92.1165 52.505ZM92.3115 59.876L93.2362 60.2568L93.2399 60.2474L92.3115 59.876ZM90.7515 61.982L91.3612 62.7746L90.7515 61.982ZM88.2555 63.035L88.0743 62.0515L88.1081 64.0241L88.2555 63.035ZM91.3365 64.283L90.7208 65.071L91.3365 64.283ZM93.2085 66.857L94.14 66.4935L93.2085 66.857ZM93.2085 74.852L92.2663 74.517L92.2629 74.5264L92.2598 74.5358L93.2085 74.852ZM91.4535 77.738L92.1485 78.457L91.4535 77.738ZM88.5675 79.454L88.8707 80.4069L88.8804 80.4038L88.8901 80.4005L88.5675 79.454ZM81.5865 75.476H80.5865V76.476H81.5865V75.476ZM86.6955 74.267L85.9047 73.6548L85.8985 73.6629L85.8924 73.6712L86.6955 74.267ZM87.2025 67.676L86.2674 68.0307L86.2717 68.0417L87.2025 67.676ZM85.7985 66.038L85.2946 66.9018L85.3156 66.914L85.3371 66.9252L85.7985 66.038ZM81.5865 65.492V64.492H80.5865V65.492H81.5865ZM81.5865 61.163H80.5865V62.163H81.5865V61.163ZM85.7205 60.695L86.1993 61.5729L86.2144 61.5647L86.2292 61.5559L85.7205 60.695ZM86.8905 59.213L85.9455 58.8859L85.9416 58.897L85.938 58.9082L86.8905 59.213ZM86.7345 54.455L85.8479 54.9176L85.8601 54.941L85.8735 54.9637L86.7345 54.455ZM85.2525 53.168L84.881 54.0966L84.8935 54.1013L85.2525 53.168ZM81.5865 52.778V51.778H80.5865V52.778H81.5865ZM76.1515 80V48.41H74.1515V80H76.1515ZM75.1515 49.41H83.1465V47.41H75.1515V49.41ZM83.1465 49.41C84.4685 49.41 85.6759 49.5223 86.7723 49.7416L87.1646 47.7804C85.921 47.5317 84.5804 47.41 83.1465 47.41V49.41ZM86.7723 49.7416C87.8274 49.9526 88.7275 50.322 89.4892 50.8373L90.6098 49.1807C89.6034 48.4999 88.4495 48.0374 87.1646 47.7804L86.7723 49.7416ZM89.5003 50.8447C90.2375 51.3291 90.8049 52.0051 91.2008 52.907L93.0321 52.103C92.4921 50.8729 91.6814 49.8848 90.5986 49.1733L89.5003 50.8447ZM91.2132 52.9341C91.6208 53.7923 91.8575 54.9945 91.8575 56.6H93.8575C93.8575 54.8255 93.6001 53.2977 93.0197 52.0759L91.2132 52.9341ZM91.8575 56.6C91.8575 57.7831 91.6879 58.7423 91.383 59.5046L93.2399 60.2474C93.663 59.1897 93.8575 57.9649 93.8575 56.6H91.8575ZM91.3868 59.4952C91.0815 60.2367 90.6621 60.7891 90.1418 61.1894L91.3612 62.7746C92.1928 62.1349 92.8135 61.2832 93.2361 60.2567L91.3868 59.4952ZM90.1418 61.1894C89.612 61.5969 88.934 61.8932 88.0743 62.0515L88.4366 64.0185C89.5529 63.8128 90.5389 63.4071 91.3612 62.7746L90.1418 61.1894ZM88.1081 64.0241C89.1886 64.185 90.0465 64.5442 90.7208 65.071L91.9521 63.495C90.9624 62.7218 89.7663 62.249 88.4028 62.0459L88.1081 64.0241ZM90.7208 65.071C91.3995 65.6013 91.9205 66.3073 92.2769 67.2205L94.14 66.4935C93.6644 65.2747 92.9374 64.2647 91.9521 63.495L90.7208 65.071ZM92.2769 67.2205C92.6358 68.1403 92.8325 69.297 92.8325 70.718H94.8325C94.8325 69.123 94.6131 67.7057 94.14 66.4935L92.2769 67.2205ZM92.8325 70.718C92.8325 72.22 92.6351 73.4797 92.2663 74.517L94.1507 75.187C94.6139 73.8843 94.8325 72.388 94.8325 70.718H92.8325ZM92.2598 74.5358C91.9137 75.5741 91.4077 76.3914 90.7584 77.019L92.1485 78.457C93.0592 77.5766 93.7233 76.4699 94.1571 75.1682L92.2598 74.5358ZM90.7584 77.019C90.0958 77.6595 89.2655 78.1595 88.2448 78.5075L88.8901 80.4005C90.1575 79.9685 91.2511 79.3245 92.1485 78.457L90.7584 77.019ZM88.2643 78.5011C87.2397 78.8271 86.0197 79 84.5895 79V81C86.1752 81 87.6072 80.8089 88.8707 80.4069L88.2643 78.5011ZM84.5895 79H75.1515V81H84.5895V79ZM81.5865 76.476H83.3805V74.476H81.5865V76.476ZM83.3805 76.476C85.1154 76.476 86.6205 76.0463 87.4986 74.8628L85.8924 73.6712C85.5744 74.0997 84.8695 74.476 83.3805 74.476V76.476ZM87.4862 74.8792C88.3046 73.822 88.6315 72.3533 88.6315 70.64H86.6315C86.6315 72.1507 86.3343 73.1 85.9047 73.6548L87.4862 74.8792ZM88.6315 70.64C88.6315 69.3325 88.484 68.2034 88.1332 67.3103L86.2717 68.0417C86.4929 68.6046 86.6315 69.4515 86.6315 70.64H88.6315ZM88.1375 67.3213C87.7738 66.3627 87.1503 65.6139 86.2598 65.1508L85.3371 66.9252C85.7466 67.1381 86.0591 67.4813 86.2675 68.0307L88.1375 67.3213ZM86.3023 65.1742C85.4695 64.6884 84.428 64.492 83.2635 64.492V66.492C84.2309 66.492 84.8795 66.6596 85.2946 66.9018L86.3023 65.1742ZM83.2635 64.492H81.5865V66.492H83.2635V64.492ZM80.5865 65.492V75.476H82.5865V65.492H80.5865ZM81.5865 62.163H83.1855V60.163H81.5865V62.163ZM83.1855 62.163C84.3664 62.163 85.4101 62.0034 86.1993 61.5729L85.2416 59.8171C84.8868 60.0106 84.2406 60.163 83.1855 60.163V62.163ZM86.2292 61.5559C87.0185 61.0895 87.5624 60.3943 87.8429 59.5178L85.938 58.9082C85.8025 59.3317 85.5664 59.6245 85.2117 59.8341L86.2292 61.5559ZM87.8354 59.5401C88.116 58.7296 88.2415 57.7935 88.2415 56.756H86.2415C86.2415 57.6425 86.1329 58.3444 85.9455 58.8859L87.8354 59.5401ZM88.2415 56.756C88.2415 55.6904 88.0564 54.7264 87.5954 53.9463L85.8735 54.9637C86.0886 55.3276 86.2415 55.8976 86.2415 56.756H88.2415ZM87.621 53.9924C87.1877 53.1618 86.4966 52.5751 85.6114 52.2347L84.8935 54.1013C85.3604 54.2809 85.6572 54.5522 85.8479 54.9176L87.621 53.9924ZM85.6239 52.2395C84.8154 51.9161 83.8454 51.778 82.7565 51.778V53.778C83.6955 53.778 84.3896 53.8999 84.8811 54.0965L85.6239 52.2395ZM82.7565 51.778H81.5865V53.778H82.7565V51.778ZM80.5865 52.778V61.163H82.5865V52.778H80.5865ZM97.546 80H96.546V81H97.546V80ZM97.546 48.41V47.41H96.546V48.41H97.546ZM103.981 48.41H104.981V47.41H103.981V48.41ZM103.981 75.632H102.981V76.632H103.981V75.632ZM111.391 75.632H112.391V74.632H111.391V75.632ZM111.391 80V81H112.391V80H111.391ZM98.546 80V48.41H96.546V80H98.546ZM97.546 49.41H103.981V47.41H97.546V49.41ZM102.981 48.41V75.632H104.981V48.41H102.981ZM103.981 76.632H111.391V74.632H103.981V76.632ZM110.391 75.632V80H112.391V75.632H110.391ZM111.391 79H97.546V81H111.391V79ZM114.496 80H113.496V81H114.496V80ZM114.496 48.41V47.41H113.496V48.41H114.496ZM120.892 48.41H121.892V47.41H120.892V48.41ZM120.892 80V81H121.892V80H120.892ZM115.496 80V48.41H113.496V80H115.496ZM114.496 49.41H120.892V47.41H114.496V49.41ZM119.892 48.41V80H121.892V48.41H119.892ZM120.892 79H114.496V81H120.892V79ZM129.045 79.376L128.556 80.2485L128.563 80.2523L128.569 80.2559L129.045 79.376ZM126.081 76.139L125.167 76.5467L125.172 76.5566L125.177 76.5664L126.081 76.139ZM124.95 70.601L124.783 69.615L123.91 69.7626L123.951 70.6475L124.95 70.601ZM130.488 69.665L131.487 69.625L131.441 68.4896L130.321 68.679L130.488 69.665ZM130.878 72.941L129.904 73.17L129.908 73.1872L129.913 73.2041L130.878 72.941ZM131.892 74.891L131.184 75.5981L131.205 75.6189L131.227 75.6384L131.892 74.891ZM135.285 74.735L134.427 74.2205L134.417 74.2366L134.408 74.2531L135.285 74.735ZM134.778 69.626L133.953 70.1915L133.962 70.2051L133.972 70.2184L134.778 69.626ZM132.282 66.896L132.94 66.1434L132.938 66.1412L132.282 66.896ZM129.006 64.049L129.662 63.2942L129.656 63.2895L129.651 63.285L129.006 64.049ZM126.12 60.695L125.256 61.1989L125.26 61.2055L125.264 61.2121L126.12 60.695ZM127.29 50.126L127.964 50.8642L127.965 50.8637L127.29 50.126ZM137.469 48.8L137.012 49.6898L137.469 48.8ZM139.809 50.906L138.958 51.4315L138.967 51.4463L138.977 51.4607L139.809 50.906ZM140.979 53.753L139.998 53.9491L140.001 53.9635L140.004 53.9779L140.979 53.753ZM141.408 56.795L141.555 57.7841L142.453 57.6504L142.406 56.7438L141.408 56.795ZM135.909 57.614L134.91 57.668L134.969 58.7649L136.056 58.6031L135.909 57.614ZM135.636 55.079L134.646 55.2204L134.648 55.2377L134.651 55.2548L135.636 55.079ZM134.934 53.363L134.157 53.9936L134.169 54.0078L134.181 54.0215L134.934 53.363ZM131.697 53.597L132.529 54.1517L132.535 54.1428L132.54 54.1339L131.697 53.597ZM131.892 58.199L131.064 58.7605L131.076 58.7776L131.088 58.7942L131.892 58.199ZM133.998 60.422L133.336 61.1718L133.338 61.1734L133.998 60.422ZM137.196 63.23L136.536 63.9815L136.542 63.9872L137.196 63.23ZM140.589 67.169L139.743 67.703L139.749 67.7117L139.754 67.7203L140.589 67.169ZM141.018 76.607L140.147 76.1149L141.018 76.607ZM138.171 79.415L137.687 78.5399L137.679 78.5444L138.171 79.415ZM133.92 79.429C132.084 79.429 130.635 79.0981 129.52 78.4961L128.569 80.2559C130.055 81.0579 131.855 81.429 133.92 81.429V79.429ZM129.533 78.5035C128.426 77.8835 127.578 76.9659 126.985 75.7116L125.177 76.5664C125.936 78.1721 127.063 79.4125 128.556 80.2485L129.533 78.5035ZM126.994 75.7313C126.411 74.4253 126.049 72.7124 125.949 70.5545L123.951 70.6475C124.058 72.9616 124.45 74.9407 125.167 76.5467L126.994 75.7313ZM125.116 71.587L130.654 70.651L130.321 68.679L124.783 69.615L125.116 71.587ZM129.488 69.705C129.542 71.0438 129.677 72.2037 129.904 73.17L131.851 72.712C131.662 71.9103 131.537 70.8862 131.487 69.625L129.488 69.705ZM129.913 73.2041C130.174 74.163 130.578 74.9918 131.184 75.5981L132.599 74.1839C132.321 73.9062 132.049 73.435 131.842 72.6779L129.913 73.2041ZM131.227 75.6384C131.893 76.2306 132.708 76.515 133.608 76.515V74.515C133.155 74.515 132.826 74.3834 132.556 74.1436L131.227 75.6384ZM133.608 76.515C134.639 76.515 135.632 76.1789 136.161 75.2169L134.408 74.2531C134.365 74.331 134.24 74.515 133.608 74.515V76.515ZM136.142 75.2495C136.558 74.5567 136.753 73.7769 136.753 72.941H134.753C134.753 73.4571 134.635 73.8733 134.427 74.2205L136.142 75.2495ZM136.753 72.941C136.753 71.4474 136.384 70.1227 135.583 69.0336L133.972 70.2184C134.471 70.8973 134.753 71.7826 134.753 72.941H136.753ZM135.602 69.0605C134.921 68.0666 134.028 67.0954 132.94 66.1434L131.623 67.6486C132.615 68.5166 133.386 69.3654 133.953 70.1915L135.602 69.0605ZM132.938 66.1412L129.662 63.2942L128.35 64.8038L131.626 67.6508L132.938 66.1412ZM129.651 63.285C128.56 62.3637 127.67 61.328 126.976 60.1779L125.264 61.2121C126.077 62.558 127.111 63.7583 128.36 64.813L129.651 63.285ZM126.983 60.1911C126.365 59.131 126.028 57.7813 126.028 56.093H124.028C124.028 58.0447 124.418 59.763 125.256 61.1989L126.983 60.1911ZM126.028 56.093C126.028 53.6922 126.717 52.0039 127.964 50.8642L126.615 49.3878C124.846 51.0041 124.028 53.2938 124.028 56.093H126.028ZM127.965 50.8637C129.268 49.671 131.095 49.02 133.569 49.02V47.02C130.738 47.02 128.379 47.773 126.614 49.3883L127.965 50.8637ZM133.569 49.02C135.055 49.02 136.184 49.2649 137.012 49.6898L137.925 47.9102C136.725 47.2951 135.255 47.02 133.569 47.02V49.02ZM137.012 49.6898C137.88 50.1349 138.517 50.7174 138.958 51.4315L140.659 50.3805C140.008 49.3266 139.085 48.5051 137.925 47.9102L137.012 49.6898ZM138.977 51.4607C139.474 52.2069 139.815 53.0335 139.998 53.9491L141.959 53.5569C141.726 52.3925 141.287 51.3211 140.641 50.3513L138.977 51.4607ZM140.004 53.9779C140.225 54.9362 140.36 55.8921 140.409 56.8462L142.406 56.7438C142.351 55.6699 142.2 54.5978 141.953 53.5281L140.004 53.9779ZM141.26 55.8059L135.761 56.6249L136.056 58.6031L141.555 57.7841L141.26 55.8059ZM136.907 57.56C136.854 56.5686 136.759 55.6814 136.62 54.9032L134.651 55.2548C134.772 55.9326 134.86 56.7354 134.91 57.668L136.907 57.56ZM136.626 54.9376C136.503 54.0798 136.213 53.3071 135.686 52.7045L134.181 54.0215C134.382 54.2509 134.56 54.6222 134.646 55.2204L136.626 54.9376ZM135.71 52.7324C135.126 52.0146 134.276 51.739 133.374 51.739V53.739C133.875 53.739 134.065 53.8794 134.157 53.9936L135.71 52.7324ZM133.374 51.739C132.323 51.739 131.424 52.1633 130.853 53.0601L132.54 54.1339C132.698 53.8867 132.916 53.739 133.374 53.739V51.739ZM130.865 53.0423C130.388 53.7577 130.151 54.5629 130.151 55.43H132.151C132.151 54.9451 132.278 54.5283 132.529 54.1517L130.865 53.0423ZM130.151 55.43C130.151 56.6941 130.431 57.8271 131.064 58.7605L132.719 57.6375C132.364 57.1149 132.151 56.4019 132.151 55.43H130.151ZM131.088 58.7942C131.661 59.5683 132.416 60.3604 133.336 61.1718L134.659 59.6722C133.811 58.9236 133.162 58.2337 132.695 57.6038L131.088 58.7942ZM133.338 61.1734L136.536 63.9814L137.855 62.4786L134.657 59.6706L133.338 61.1734ZM136.542 63.9872C137.794 65.0666 138.86 66.3044 139.743 67.703L141.434 66.635C140.445 65.0696 139.25 63.6814 137.849 62.4728L136.542 63.9872ZM139.754 67.7203C140.585 68.9778 141.032 70.5814 141.032 72.59H143.032C143.032 70.2826 142.516 68.2722 141.423 66.6177L139.754 67.7203ZM141.032 72.59C141.032 73.9136 140.732 75.0808 140.147 76.1149L141.888 77.0991C142.656 75.7412 143.032 74.2304 143.032 72.59H141.032ZM140.147 76.1149C139.564 77.1472 138.75 77.9519 137.687 78.54L138.655 80.29C140.036 79.5261 141.12 78.4588 141.888 77.0991L140.147 76.1149ZM137.679 78.5444C136.659 79.1206 135.418 79.429 133.92 79.429V81.429C135.697 81.429 137.29 81.0614 138.663 80.2856L137.679 78.5444ZM145.498 80H144.498V81H145.498V80ZM145.498 48.41V47.41H144.498V48.41H145.498ZM151.933 48.41H152.933V47.41H151.933V48.41ZM151.933 61.397H150.933V62.397H151.933V61.397ZM157.51 61.397V62.397H158.51V61.397H157.51ZM157.51 48.41V47.41H156.51V48.41H157.51ZM163.945 48.41H164.945V47.41H163.945V48.41ZM163.945 80V81H164.945V80H163.945ZM157.51 80H156.51V81H157.51V80ZM157.51 65.999H158.51V64.999H157.51V65.999ZM151.933 65.999V64.999H150.933V65.999H151.933ZM151.933 80V81H152.933V80H151.933ZM146.498 80V48.41H144.498V80H146.498ZM145.498 49.41H151.933V47.41H145.498V49.41ZM150.933 48.41V61.397H152.933V48.41H150.933ZM151.933 62.397H157.51V60.397H151.933V62.397ZM158.51 61.397V48.41H156.51V61.397H158.51ZM157.51 49.41H163.945V47.41H157.51V49.41ZM162.945 48.41V80H164.945V48.41H162.945ZM163.945 79H157.51V81H163.945V79ZM158.51 80V65.999H156.51V80H158.51ZM157.51 64.999H151.933V66.999H157.51V64.999ZM150.933 65.999V80H152.933V65.999H150.933ZM151.933 79H145.498V81H151.933V79ZM168.805 80H167.805V81H168.805V80ZM168.805 48.41V47.41H167.805V48.41H168.805ZM182.572 48.41H183.572V47.41H182.572V48.41ZM182.572 52.856V53.856H183.572V52.856H182.572ZM175.24 52.856V51.856H174.24V52.856H175.24ZM175.24 61.241H174.24V62.241H175.24V61.241ZM180.895 61.241H181.895V60.241H180.895V61.241ZM180.895 65.726V66.726H181.895V65.726H180.895ZM175.24 65.726V64.726H174.24V65.726H175.24ZM175.24 75.632H174.24V76.632H175.24V75.632ZM182.65 75.632H183.65V74.632H182.65V75.632ZM182.65 80V81H183.65V80H182.65ZM169.805 80V48.41H167.805V80H169.805ZM168.805 49.41H182.572V47.41H168.805V49.41ZM181.572 48.41V52.856H183.572V48.41H181.572ZM182.572 51.856H175.24V53.856H182.572V51.856ZM174.24 52.856V61.241H176.24V52.856H174.24ZM175.24 62.241H180.895V60.241H175.24V62.241ZM179.895 61.241V65.726H181.895V61.241H179.895ZM180.895 64.726H175.24V66.726H180.895V64.726ZM174.24 65.726V75.632H176.24V65.726H174.24ZM175.24 76.632H182.65V74.632H175.24V76.632ZM181.65 75.632V80H183.65V75.632H181.65ZM182.65 79H168.805V81H182.65V79ZM185.905 80H184.905V81H185.905V80ZM185.905 48.41V47.41H184.905V48.41H185.905ZM199.867 49.463L199.439 50.3667L199.449 50.3712L199.458 50.3755L199.867 49.463ZM203.065 52.7L202.144 53.0881L202.146 53.0939L203.065 52.7ZM203.065 75.593L203.989 75.9753L203.065 75.593ZM199.906 78.947L200.341 79.8478L200.347 79.8446L199.906 78.947ZM192.34 75.515H191.34V76.515H192.34V75.515ZM196.24 74.969L196.834 75.7741L196.84 75.769L196.24 74.969ZM197.215 73.292L198.2 73.4678L198.201 73.4619L197.215 73.292ZM197.137 54.884L196.163 55.1089L196.168 55.1314L196.174 55.1536L197.137 54.884ZM196.123 53.402L195.589 54.2475L195.599 54.2536L195.609 54.2595L196.123 53.402ZM192.34 52.934V51.934H191.34V52.934H192.34ZM186.905 80V48.41H184.905V80H186.905ZM185.905 49.41H193.627V47.41H185.905V49.41ZM193.627 49.41C196.24 49.41 198.15 49.7559 199.439 50.3667L200.295 48.5593C198.621 47.7661 196.371 47.41 193.627 47.41V49.41ZM199.458 50.3755C200.742 50.9511 201.621 51.8465 202.144 53.0881L203.987 52.3119C203.262 50.5895 202.008 49.3269 200.276 48.5505L199.458 50.3755ZM202.146 53.0939C202.699 54.383 203.001 56.1081 203.001 58.316H205.001C205.001 55.9479 204.68 53.929 203.985 52.3061L202.146 53.0939ZM203.001 58.316V69.821H205.001V58.316H203.001ZM203.001 69.821C203.001 72.0822 202.698 73.8644 202.141 75.2106L203.989 75.9753C204.68 74.3056 205.001 72.2398 205.001 69.821H203.001ZM202.141 75.2106C201.612 76.491 200.732 77.4273 199.465 78.0494L200.347 79.8446C202.045 79.0107 203.271 77.711 203.989 75.9753L202.141 75.2106ZM199.472 78.0462C198.21 78.6545 196.342 79 193.783 79V81C196.477 81 198.69 80.6435 200.341 79.8478L199.472 78.0462ZM193.783 79H185.905V81H193.783V79ZM192.34 76.515H193.705V74.515H192.34V76.515ZM193.705 76.515C194.944 76.515 196.068 76.3382 196.834 75.7741L195.647 74.1639C195.425 74.3278 194.859 74.515 193.705 74.515V76.515ZM196.84 75.769C197.591 75.206 198.032 74.4081 198.2 73.4678L196.231 73.1162C196.139 73.6319 195.93 73.952 195.64 74.169L196.84 75.769ZM198.201 73.4619C198.344 72.6337 198.41 71.65 198.41 70.523H196.41C196.41 71.58 196.347 72.4423 196.23 73.1221L198.201 73.4619ZM198.41 70.523V57.497H196.41V70.523H198.41ZM198.41 57.497C198.41 56.3626 198.317 55.3892 198.1 54.6144L196.174 55.1536C196.321 55.6788 196.41 56.4474 196.41 57.497H198.41ZM198.112 54.6591C197.904 53.7602 197.425 53.0168 196.638 52.5445L195.609 54.2595C195.862 54.4112 196.058 54.6558 196.163 55.1089L198.112 54.6591ZM196.657 52.5565C195.912 52.0856 194.849 51.934 193.666 51.934V53.934C194.772 53.934 195.347 54.0944 195.589 54.2475L196.657 52.5565ZM193.666 51.934H192.34V53.934H193.666V51.934ZM191.34 52.934V75.515H193.34V52.934H191.34Z" fill="#23DA26"/>
</svg>
