<svg width="340" height="38" viewBox="0 0 340 38" fill="none" xmlns="http://www.w3.org/2000/svg">
<path d="M6.292 35.988L5.74473 36.825L5.75205 36.8297L6.292 35.988ZM3.08 31.852L2.13445 32.1775L2.13614 32.1824L3.08 31.852ZM3.08 6.508L4.02387 6.83835L4.02554 6.83351L3.08 6.508ZM6.292 2.372L5.76342 1.52307L5.75618 1.52767L6.292 2.372ZM18.568 2.196L18.0587 3.05661L18.0663 3.06103L18.568 2.196ZM21.648 5.804L20.7124 6.15705L20.7153 6.16473L20.7183 6.17236L21.648 5.804ZM22.572 14.208V15.208H23.572V14.208H22.572ZM15.532 14.208H14.532V15.208H15.532V14.208ZM15.4 8.576L14.4071 8.69515L14.4077 8.70003L15.4 8.576ZM14.652 6.816L13.8759 7.44659L13.8975 7.47323L13.9209 7.49831L14.652 6.816ZM10.516 6.816L9.78646 6.13206L9.78646 6.13206L10.516 6.816ZM9.68 8.664L10.6675 8.82199L10.6684 8.81605L9.68 8.664ZM9.724 29.96L8.74199 30.1488L8.7463 30.1712L8.75161 30.1934L9.724 29.96ZM10.648 31.676L9.96568 32.4071L9.99077 32.4305L10.0174 32.4521L10.648 31.676ZM14.608 31.588L13.8554 30.9295L13.8523 30.9331L14.608 31.588ZM15.356 29.74L14.3676 29.5879L14.3648 29.6066L14.3626 29.6254L15.356 29.74ZM15.532 23.844V22.844H14.532V23.844H15.532ZM22.572 23.844H23.572V22.844H22.572V23.844ZM21.692 32.336L22.6298 32.6833L22.6318 32.6777L21.692 32.336ZM18.656 36.12L19.1906 36.9651L19.1967 36.9612L19.2028 36.9573L18.656 36.12ZM12.584 36.484C10.0572 36.484 8.17033 36.0049 6.83195 35.1463L5.75205 36.8297C7.523 37.9658 9.83081 38.484 12.584 38.484V36.484ZM6.83925 35.151C5.50288 34.2773 4.5689 33.0789 4.02386 31.5216L2.13614 32.1824C2.8231 34.1451 4.03045 35.7041 5.74475 36.825L6.83925 35.151ZM4.02554 31.5265C3.45306 29.8636 3.156 27.9094 3.156 25.648H1.156C1.156 28.0799 1.47494 30.2618 2.13446 32.1775L4.02554 31.5265ZM3.156 25.648V12.844H1.156V25.648H3.156ZM3.156 12.844C3.156 10.4585 3.4548 8.46423 4.02386 6.83835L2.13614 6.17765C1.4732 8.07177 1.156 10.3015 1.156 12.844H3.156ZM4.02554 6.83351C4.57151 5.24758 5.50351 4.05676 6.82783 3.21633L5.75618 1.52767C4.02982 2.62324 2.82049 4.18975 2.13446 6.18249L4.02554 6.83351ZM6.82056 3.22089C8.16133 2.38608 10.0528 1.92 12.584 1.92V-0.0800018C9.83522 -0.0800018 7.532 0.42192 5.76344 1.5231L6.82056 3.22089ZM12.584 1.92C15.0439 1.92 16.8364 2.33317 18.0587 3.05658L19.0773 1.33542C17.425 0.357491 15.2281 -0.0800018 12.584 -0.0800018V1.92ZM18.0663 3.06103C19.3381 3.79867 20.2089 4.82266 20.7124 6.15705L22.5836 5.45094C21.9138 3.676 20.7313 2.29466 19.0697 1.33097L18.0663 3.06103ZM20.7183 6.17236C21.2786 7.5864 21.572 9.26094 21.572 11.216H23.572C23.572 9.0644 23.2494 7.13093 22.5777 5.43563L20.7183 6.17236ZM21.572 11.216V14.208H23.572V11.216H21.572ZM22.572 13.208H15.532V15.208H22.572V13.208ZM16.532 14.208V10.864H14.532V14.208H16.532ZM16.532 10.864C16.532 10.0075 16.4861 9.20292 16.3923 8.45196L14.4077 8.70003C14.4899 9.35708 14.532 10.0778 14.532 10.864H16.532ZM16.3929 8.45685C16.2854 7.56151 15.9688 6.76127 15.3831 6.13368L13.9209 7.49831C14.1565 7.75073 14.3386 8.12382 14.4071 8.69514L16.3929 8.45685ZM15.4281 6.18541C14.7668 5.37154 13.7172 5.112 12.628 5.112V7.112C13.4748 7.112 13.7745 7.32179 13.8759 7.44659L15.4281 6.18541ZM12.628 5.112C11.5227 5.112 10.4932 5.37816 9.78646 6.13206L11.2455 7.49994C11.4188 7.31517 11.7973 7.112 12.628 7.112V5.112ZM9.78646 6.13206C9.18295 6.77581 8.8334 7.59041 8.69163 8.51194L10.6684 8.81605C10.7613 8.21226 10.9691 7.79485 11.2455 7.49994L9.78646 6.13206ZM8.69256 8.50601C8.56526 9.30165 8.504 10.177 8.504 11.128H10.504C10.504 10.2603 10.5601 9.49302 10.6674 8.82199L8.69256 8.50601ZM8.504 11.128V27.32H10.504V11.128H8.504ZM8.504 27.32C8.504 28.3638 8.58055 29.3093 8.74199 30.1488L10.706 29.7712C10.5741 29.0853 10.504 28.2708 10.504 27.32H8.504ZM8.75161 30.1934C8.96181 31.0692 9.34984 31.8323 9.96568 32.4071L11.3303 30.9449C11.0662 30.6984 10.8382 30.3175 10.6964 29.7266L8.75161 30.1934ZM10.0174 32.4521C10.7252 33.0272 11.6396 33.248 12.628 33.248V31.248C11.9151 31.248 11.5095 31.0875 11.2786 30.8999L10.0174 32.4521ZM12.628 33.248C13.6825 33.248 14.7022 33.0062 15.3637 32.2429L13.8523 30.9331C13.7511 31.0498 13.4508 31.248 12.628 31.248V33.248ZM15.3606 32.2465C15.9329 31.5924 16.2436 30.7718 16.3494 29.8546L14.3626 29.6254C14.2924 30.2336 14.1044 30.645 13.8554 30.9295L15.3606 32.2465ZM16.3444 29.8921C16.4702 29.0743 16.532 28.2165 16.532 27.32H14.532C14.532 28.1249 14.4765 28.8804 14.3676 29.5879L16.3444 29.8921ZM16.532 27.32V23.844H14.532V27.32H16.532ZM15.532 24.844H22.572V22.844H15.532V24.844ZM21.572 23.844V26.792H23.572V23.844H21.572ZM21.572 26.792C21.572 28.7822 21.2916 30.511 20.7522 31.9943L22.6318 32.6777C23.2658 30.9343 23.572 28.9671 23.572 26.792H21.572ZM20.7543 31.9887C20.2433 33.3682 19.3702 34.4592 18.1092 35.2827L19.2028 36.9573C20.8164 35.9035 21.9673 34.4718 22.6297 32.6833L20.7543 31.9887ZM18.1214 35.2749C16.908 36.0425 15.099 36.484 12.584 36.484V38.484C15.2903 38.484 17.5293 38.0161 19.1906 36.9651L18.1214 35.2749ZM30.7443 36.076L31.2684 35.2243L30.7443 36.076ZM27.4443 32.072L26.5054 32.4163L26.5089 32.4258L26.5126 32.4352L27.4443 32.072ZM27.4443 6.244L26.5126 5.88079L26.5099 5.88768L26.5073 5.89461L27.4443 6.244ZM30.7443 2.284L31.2564 3.14295L30.7443 2.284ZM43.1963 2.328L42.6722 3.17966L42.6818 3.18553L42.6914 3.19119L43.1963 2.328ZM46.4963 6.288L45.5593 6.63738L45.5629 6.64704L45.5667 6.65663L46.4963 6.288ZM46.4963 32.072L45.5625 31.714L45.5593 31.7226L46.4963 32.072ZM43.1963 36.076L42.6794 35.2199L42.6722 35.2243L43.1963 36.076ZM39.0163 31.632L39.6986 32.3631L39.7112 32.3513L39.7234 32.3391L39.0163 31.632ZM39.8963 29.916L40.8753 30.12L40.8769 30.1121L39.8963 29.916ZM39.8963 8.444L38.9173 8.64795V8.64795L39.8963 8.444ZM39.0163 6.772L38.3092 7.47911L38.3214 7.49129L38.334 7.50305L39.0163 6.772ZM34.9683 6.772L35.6506 7.50305L35.6632 7.49129L35.6754 7.47911L34.9683 6.772ZM34.0883 8.444L35.0673 8.64795V8.64795L34.0883 8.444ZM34.0443 29.916L33.0569 30.074L33.0606 30.0971L33.0653 30.12L34.0443 29.916ZM34.9243 31.632L34.2172 32.3391L34.2294 32.3513L34.242 32.3631L34.9243 31.632ZM36.9483 36.484C34.443 36.484 32.5798 36.0314 31.2684 35.2243L30.2202 36.9277C31.9595 37.998 34.2323 38.484 36.9483 38.484V36.484ZM31.2684 35.2243C29.9358 34.4042 28.9748 33.2447 28.376 31.7088L26.5126 32.4352C27.2632 34.3606 28.5022 35.8704 30.2202 36.9277L31.2684 35.2243ZM28.3832 31.7277C27.7883 30.1054 27.4763 28.1305 27.4763 25.78H25.4763C25.4763 28.2988 25.8096 30.5186 26.5054 32.4163L28.3832 31.7277ZM27.4763 25.78V12.492H25.4763V25.78H27.4763ZM27.4763 12.492C27.4763 10.1408 27.7885 8.18302 28.3813 6.59338L26.5073 5.89461C25.8094 7.76631 25.4763 9.97387 25.4763 12.492H27.4763ZM28.376 6.60721C28.9739 5.07362 29.9314 3.93282 31.2564 3.14295L30.2322 1.42505C28.5065 2.45385 27.2641 3.95304 26.5126 5.88079L28.376 6.60721ZM31.2564 3.14295C32.5706 2.35948 34.4386 1.92 36.9483 1.92V-0.0800018C34.2367 -0.0800018 31.9687 0.389851 30.2322 1.42505L31.2564 3.14295ZM36.9483 1.92C39.4855 1.92 41.3623 2.37354 42.6722 3.17966L43.7204 1.47634C41.9797 0.405121 39.6912 -0.0800018 36.9483 -0.0800018V1.92ZM42.6914 3.19119C44.0417 3.98097 44.9923 5.11666 45.5593 6.63738L47.4333 5.93862C46.7097 3.998 45.4603 2.49369 43.7012 1.46481L42.6914 3.19119ZM45.5667 6.65663C46.1823 8.20889 46.5083 10.1442 46.5083 12.492H48.5083C48.5083 9.97046 48.1597 7.76977 47.4259 5.91937L45.5667 6.65663ZM46.5083 12.492V25.78H48.5083V12.492H46.5083ZM46.5083 25.78C46.5083 28.1263 46.1827 30.0962 45.5626 31.7141L47.4301 32.4299C48.1592 30.5278 48.5083 28.3031 48.5083 25.78H46.5083ZM45.5593 31.7226C44.9914 33.2457 44.0374 34.4001 42.6794 35.2199L43.7132 36.9321C45.4646 35.8746 46.7106 34.3596 47.4333 32.4214L45.5593 31.7226ZM42.6722 35.2243C41.3623 36.0305 39.4855 36.484 36.9483 36.484V38.484C39.6912 38.484 41.9797 37.9989 43.7204 36.9277L42.6722 35.2243ZM36.9483 33.248C38.0038 33.248 38.9933 33.0213 39.6986 32.3631L38.334 30.9009C38.1593 31.064 37.7702 31.248 36.9483 31.248V33.248ZM39.7234 32.3391C40.3215 31.741 40.6953 30.9842 40.8753 30.12L38.9173 29.712C38.804 30.2558 38.5911 30.643 38.3092 30.9249L39.7234 32.3391ZM40.8769 30.1121C41.0377 29.3083 41.1163 28.4648 41.1163 27.584H39.1163C39.1163 28.3458 39.0483 29.0571 38.9157 29.7199L40.8769 30.1121ZM41.1163 27.584V10.732H39.1163V27.584H41.1163ZM41.1163 10.732C41.1163 9.85161 41.0377 9.01981 40.8753 8.24004L38.9173 8.64795C39.0482 9.27619 39.1163 9.96972 39.1163 10.732H41.1163ZM40.8753 8.24004C40.6949 7.37419 40.3171 6.61815 39.6986 6.04094L38.334 7.50305C38.5956 7.74718 38.8044 8.1058 38.9173 8.64795L40.8753 8.24004ZM39.7234 6.06489C39.0191 5.36061 38.0192 5.112 36.9483 5.112V7.112C37.7547 7.112 38.1335 7.30339 38.3092 7.47911L39.7234 6.06489ZM36.9483 5.112C35.9142 5.112 34.9549 5.37121 34.2612 6.06489L35.6754 7.47911C35.8617 7.29279 36.2225 7.112 36.9483 7.112V5.112ZM34.286 6.04094C33.6676 6.61815 33.2897 7.37419 33.1093 8.24004L35.0673 8.64795C35.1802 8.1058 35.3891 7.74718 35.6506 7.50305L34.286 6.04094ZM33.1093 8.24004C32.9469 9.01981 32.8683 9.85161 32.8683 10.732H34.8683C34.8683 9.96972 34.9364 9.27619 35.0673 8.64795L33.1093 8.24004ZM32.8683 10.732V27.584H34.8683V10.732H32.8683ZM32.8683 27.584C32.8683 28.4528 32.9304 29.2833 33.0569 30.074L35.0318 29.758C34.9236 29.0821 34.8683 28.3579 34.8683 27.584H32.8683ZM33.0653 30.12C33.2454 30.9842 33.6191 31.741 34.2172 32.3391L35.6314 30.9249C35.3495 30.643 35.1366 30.2558 35.0233 29.712L33.0653 30.12ZM34.242 32.3631C34.9424 33.0168 35.9119 33.248 36.9483 33.248V31.248C36.1661 31.248 35.7862 31.0686 35.6066 30.9009L34.242 32.3631ZM52.3559 37H51.3559V38H52.3559V37ZM52.3559 1.36V0.359997H51.3559V1.36H52.3559ZM57.4159 1.36L58.3357 0.967657L58.0765 0.359997H57.4159V1.36ZM65.3359 19.928L64.4161 20.3203L66.3359 19.928H65.3359ZM65.3359 1.36V0.359997H64.3359V1.36H65.3359ZM71.3199 1.36H72.3199V0.359997H71.3199V1.36ZM71.3199 37V38H72.3199V37H71.3199ZM66.4799 37L65.552 37.3728L65.804 38H66.4799V37ZM58.5599 17.288L59.4878 16.9152L57.5599 17.288H58.5599ZM58.5599 37V38H59.5599V37H58.5599ZM53.3559 37V1.36H51.3559V37H53.3559ZM52.3559 2.36H57.4159V0.359997H52.3559V2.36ZM56.4961 1.75234L64.4161 20.3203L66.2557 19.5357L58.3357 0.967657L56.4961 1.75234ZM66.3359 19.928V1.36H64.3359V19.928H66.3359ZM65.3359 2.36H71.3199V0.359997H65.3359V2.36ZM70.3199 1.36V37H72.3199V1.36H70.3199ZM71.3199 36H66.4799V38H71.3199V36ZM67.4078 36.6272L59.4878 16.9152L57.632 17.6608L65.552 37.3728L67.4078 36.6272ZM57.5599 17.288V37H59.5599V17.288H57.5599ZM58.5599 36H52.3559V38H58.5599V36ZM76.7192 37H75.7192V38H76.7192V37ZM76.7192 1.36V0.359997H75.7192V1.36H76.7192ZM81.7792 1.36L82.699 0.967657L82.4398 0.359997H81.7792V1.36ZM89.6992 19.928L88.7793 20.3203L90.6992 19.928H89.6992ZM89.6992 1.36V0.359997H88.6992V1.36H89.6992ZM95.6832 1.36H96.6832V0.359997H95.6832V1.36ZM95.6832 37V38H96.6832V37H95.6832ZM90.8432 37L89.9153 37.3728L90.1672 38H90.8432V37ZM82.9232 17.288L83.8511 16.9152L81.9232 17.288H82.9232ZM82.9232 37V38H83.9232V37H82.9232ZM77.7192 37V1.36H75.7192V37H77.7192ZM76.7192 2.36H81.7792V0.359997H76.7192V2.36ZM80.8593 1.75234L88.7793 20.3203L90.619 19.5357L82.699 0.967657L80.8593 1.75234ZM90.6992 19.928V1.36H88.6992V19.928H90.6992ZM89.6992 2.36H95.6832V0.359997H89.6992V2.36ZM94.6832 1.36V37H96.6832V1.36H94.6832ZM95.6832 36H90.8432V38H95.6832V36ZM91.7711 36.6272L83.8511 16.9152L81.9953 17.6608L89.9153 37.3728L91.7711 36.6272ZM81.9232 17.288V37H83.9232V17.288H81.9232ZM82.9232 36H76.7192V38H82.9232V36ZM101.082 37H100.082V38H101.082V37ZM101.082 1.36V0.359997H100.082V1.36H101.082ZM116.614 1.36H117.614V0.359997H116.614V1.36ZM116.614 6.376V7.376H117.614V6.376H116.614ZM108.342 6.376V5.376H107.342V6.376H108.342ZM108.342 15.836H107.342V16.836H108.342V15.836ZM114.722 15.836H115.722V14.836H114.722V15.836ZM114.722 20.896V21.896H115.722V20.896H114.722ZM108.342 20.896V19.896H107.342V20.896H108.342ZM108.342 32.072H107.342V33.072H108.342V32.072ZM116.702 32.072H117.702V31.072H116.702V32.072ZM116.702 37V38H117.702V37H116.702ZM102.082 37V1.36H100.082V37H102.082ZM101.082 2.36H116.614V0.359997H101.082V2.36ZM115.614 1.36V6.376H117.614V1.36H115.614ZM116.614 5.376H108.342V7.376H116.614V5.376ZM107.342 6.376V15.836H109.342V6.376H107.342ZM108.342 16.836H114.722V14.836H108.342V16.836ZM113.722 15.836V20.896H115.722V15.836H113.722ZM114.722 19.896H108.342V21.896H114.722V19.896ZM107.342 20.896V32.072H109.342V20.896H107.342ZM108.342 33.072H116.702V31.072H108.342V33.072ZM115.702 32.072V37H117.702V32.072H115.702ZM116.702 36H101.082V38H116.702V36ZM123.983 35.988L123.436 36.825L123.443 36.8297L123.983 35.988ZM120.771 31.852L119.826 32.1775L119.828 32.1824L120.771 31.852ZM120.771 6.508L121.715 6.83835L121.717 6.83351L120.771 6.508ZM123.983 2.372L123.455 1.52307L123.448 1.52767L123.983 2.372ZM136.259 2.196L135.75 3.05661L135.758 3.06103L136.259 2.196ZM139.339 5.804L138.404 6.15705L138.407 6.16473L138.41 6.17236L139.339 5.804ZM140.263 14.208V15.208H141.263V14.208H140.263ZM133.223 14.208H132.223V15.208H133.223V14.208ZM133.091 8.576L132.099 8.69515L132.099 8.70003L133.091 8.576ZM132.343 6.816L131.567 7.44659L131.589 7.47323L131.612 7.49831L132.343 6.816ZM128.207 6.816L127.478 6.13206V6.13206L128.207 6.816ZM127.371 8.664L128.359 8.82199L128.36 8.81605L127.371 8.664ZM127.415 29.96L126.433 30.1488L126.438 30.1712L126.443 30.1934L127.415 29.96ZM128.339 31.676L127.657 32.4071L127.682 32.4305L127.709 32.4521L128.339 31.676ZM132.299 31.588L131.547 30.9295L131.544 30.9331L132.299 31.588ZM133.047 29.74L132.059 29.5879L132.056 29.6066L132.054 29.6254L133.047 29.74ZM133.223 23.844V22.844H132.223V23.844H133.223ZM140.263 23.844H141.263V22.844H140.263V23.844ZM139.383 32.336L140.321 32.6833L140.323 32.6777L139.383 32.336ZM136.347 36.12L136.882 36.9651L136.888 36.9612L136.894 36.9573L136.347 36.12ZM130.275 36.484C127.749 36.484 125.862 36.0049 124.523 35.1463L123.443 36.8297C125.214 37.9658 127.522 38.484 130.275 38.484V36.484ZM124.531 35.151C123.194 34.2773 122.26 33.0789 121.715 31.5216L119.828 32.1824C120.515 34.1451 121.722 35.7041 123.436 36.825L124.531 35.151ZM121.717 31.5265C121.144 29.8636 120.847 27.9094 120.847 25.648H118.847C118.847 28.0799 119.166 30.2618 119.826 32.1775L121.717 31.5265ZM120.847 25.648V12.844H118.847V25.648H120.847ZM120.847 12.844C120.847 10.4585 121.146 8.46423 121.715 6.83835L119.828 6.17765C119.165 8.07177 118.847 10.3015 118.847 12.844H120.847ZM121.717 6.83351C122.263 5.24758 123.195 4.05676 124.519 3.21633L123.448 1.52767C121.721 2.62324 120.512 4.18975 119.826 6.18249L121.717 6.83351ZM124.512 3.22089C125.853 2.38608 127.744 1.92 130.275 1.92V-0.0800018C127.527 -0.0800018 125.223 0.42192 123.455 1.5231L124.512 3.22089ZM130.275 1.92C132.735 1.92 134.528 2.33317 135.75 3.05658L136.769 1.33542C135.116 0.357491 132.919 -0.0800018 130.275 -0.0800018V1.92ZM135.758 3.06103C137.029 3.79867 137.9 4.82266 138.404 6.15705L140.275 5.45094C139.605 3.676 138.423 2.29466 136.761 1.33097L135.758 3.06103ZM138.41 6.17236C138.97 7.5864 139.263 9.26094 139.263 11.216H141.263C141.263 9.0644 140.941 7.13093 140.269 5.43563L138.41 6.17236ZM139.263 11.216V14.208H141.263V11.216H139.263ZM140.263 13.208H133.223V15.208H140.263V13.208ZM134.223 14.208V10.864H132.223V14.208H134.223ZM134.223 10.864C134.223 10.0075 134.178 9.20292 134.084 8.45196L132.099 8.70003C132.181 9.35708 132.223 10.0778 132.223 10.864H134.223ZM134.084 8.45685C133.977 7.56151 133.66 6.76127 133.074 6.13368L131.612 7.49831C131.848 7.75073 132.03 8.12382 132.099 8.69514L134.084 8.45685ZM133.12 6.18541C132.458 5.37154 131.409 5.112 130.319 5.112V7.112C131.166 7.112 131.466 7.32179 131.567 7.44659L133.12 6.18541ZM130.319 5.112C129.214 5.112 128.185 5.37816 127.478 6.13206L128.937 7.49994C129.11 7.31517 129.489 7.112 130.319 7.112V5.112ZM127.478 6.13206C126.874 6.77581 126.525 7.59041 126.383 8.51194L128.36 8.81605C128.453 8.21226 128.66 7.79485 128.937 7.49994L127.478 6.13206ZM126.384 8.50601C126.257 9.30165 126.195 10.177 126.195 11.128H128.195C128.195 10.2603 128.251 9.49302 128.359 8.82199L126.384 8.50601ZM126.195 11.128V27.32H128.195V11.128H126.195ZM126.195 27.32C126.195 28.3638 126.272 29.3093 126.433 30.1488L128.397 29.7712C128.266 29.0853 128.195 28.2708 128.195 27.32H126.195ZM126.443 30.1934C126.653 31.0692 127.041 31.8323 127.657 32.4071L129.022 30.9449C128.758 30.6984 128.53 30.3175 128.388 29.7266L126.443 30.1934ZM127.709 32.4521C128.417 33.0272 129.331 33.248 130.319 33.248V31.248C129.607 31.248 129.201 31.0875 128.97 30.8999L127.709 32.4521ZM130.319 33.248C131.374 33.248 132.394 33.0062 133.055 32.2429L131.544 30.9331C131.443 31.0498 131.142 31.248 130.319 31.248V33.248ZM133.052 32.2465C133.624 31.5924 133.935 30.7718 134.041 29.8546L132.054 29.6254C131.984 30.2336 131.796 30.645 131.547 30.9295L133.052 32.2465ZM134.036 29.8921C134.162 29.0743 134.223 28.2165 134.223 27.32H132.223C132.223 28.1249 132.168 28.8804 132.059 29.5879L134.036 29.8921ZM134.223 27.32V23.844H132.223V27.32H134.223ZM133.223 24.844H140.263V22.844H133.223V24.844ZM139.263 23.844V26.792H141.263V23.844H139.263ZM139.263 26.792C139.263 28.7822 138.983 30.511 138.444 31.9943L140.323 32.6777C140.957 30.9343 141.263 28.9671 141.263 26.792H139.263ZM138.446 31.9887C137.935 33.3682 137.062 34.4592 135.801 35.2827L136.894 36.9573C138.508 35.9035 139.659 34.4718 140.321 32.6833L138.446 31.9887ZM135.813 35.2749C134.599 36.0425 132.79 36.484 130.275 36.484V38.484C132.982 38.484 135.221 38.0161 136.882 36.9651L135.813 35.2749ZM148.04 37H147.04V38H148.04V37ZM148.04 6.772H149.04V5.772H148.04V6.772ZM142.54 6.772H141.54V7.772H142.54V6.772ZM142.54 1.36V0.359997H141.54V1.36H142.54ZM160.756 1.36H161.756V0.359997H160.756V1.36ZM160.756 6.772V7.772H161.756V6.772H160.756ZM155.344 6.772V5.772H154.344V6.772H155.344ZM155.344 37V38H156.344V37H155.344ZM149.04 37V6.772H147.04V37H149.04ZM148.04 5.772H142.54V7.772H148.04V5.772ZM143.54 6.772V1.36H141.54V6.772H143.54ZM142.54 2.36H160.756V0.359997H142.54V2.36ZM159.756 1.36V6.772H161.756V1.36H159.756ZM160.756 5.772H155.344V7.772H160.756V5.772ZM154.344 6.772V37H156.344V6.772H154.344ZM155.344 36H148.04V38H155.344V36Z" fill="#23DA26"/>
<path d="M182.584 37.484C179.944 37.484 177.847 36.9853 176.292 35.988C174.767 34.9907 173.696 33.612 173.08 31.852C172.464 30.0627 172.156 27.9947 172.156 25.648V12.844C172.156 10.38 172.464 8.268 173.08 6.508C173.696 4.71867 174.767 3.34 176.292 2.372C177.847 1.404 179.944 0.919998 182.584 0.919998C185.136 0.919998 187.131 1.34533 188.568 2.196C190.035 3.04667 191.061 4.24933 191.648 5.804C192.264 7.35867 192.572 9.16267 192.572 11.216V14.208H185.532V10.864C185.532 10.0427 185.488 9.28 185.4 8.576C185.312 7.84267 185.063 7.256 184.652 6.816C184.271 6.34667 183.596 6.112 182.628 6.112C181.66 6.112 180.956 6.34667 180.516 6.816C180.076 7.28533 179.797 7.90133 179.68 8.664C179.563 9.39733 179.504 10.2187 179.504 11.128V27.32C179.504 28.3173 179.577 29.1973 179.724 29.96C179.9 30.6933 180.208 31.2653 180.648 31.676C181.117 32.0573 181.777 32.248 182.628 32.248C183.567 32.248 184.227 32.028 184.608 31.588C185.019 31.1187 185.268 30.5027 185.356 29.74C185.473 28.9773 185.532 28.1707 185.532 27.32V23.844H192.572V26.792C192.572 28.8747 192.279 30.7227 191.692 32.336C191.105 33.92 190.093 35.1813 188.656 36.12C187.219 37.0293 185.195 37.484 182.584 37.484ZM197.092 37V1.36H204.352V16.012H210.644V1.36H217.904V37H210.644V21.204H204.352V37H197.092ZM221.627 37L228.535 1.36H236.587L243.451 37H236.719L235.443 29.168H229.811L228.447 37H221.627ZM230.471 24.724H234.739L232.583 10.336L230.471 24.724ZM247.063 37V1.36H256.303C258.708 1.36 260.762 1.63866 262.463 2.196C264.194 2.724 265.514 3.67733 266.423 5.056C267.362 6.43467 267.831 8.34133 267.831 10.776C267.831 12.2427 267.699 13.548 267.435 14.692C267.2 15.8067 266.76 16.7893 266.115 17.64C265.499 18.4613 264.619 19.1213 263.475 19.62L268.403 37H260.967L256.875 20.852H254.323V37H247.063ZM254.323 16.54H256.435C257.608 16.54 258.532 16.3493 259.207 15.968C259.882 15.5867 260.351 15.0147 260.615 14.252C260.908 13.46 261.055 12.492 261.055 11.348C261.055 9.70533 260.747 8.45866 260.131 7.608C259.544 6.728 258.43 6.288 256.787 6.288H254.323V16.54ZM281.565 37.528C279.16 37.528 277.253 37.0293 275.845 36.032C274.437 35.0053 273.425 33.568 272.809 31.72C272.223 29.8427 271.929 27.672 271.929 25.208V13.284C271.929 10.732 272.237 8.532 272.853 6.684C273.469 4.836 274.54 3.41333 276.065 2.416C277.62 1.41866 279.717 0.919998 282.357 0.919998C284.909 0.919998 286.919 1.34533 288.385 2.196C289.881 3.04667 290.952 4.24933 291.597 5.804C292.243 7.35867 292.565 9.20667 292.565 11.348V13.416H285.481V10.908C285.481 9.96933 285.423 9.148 285.305 8.444C285.188 7.71067 284.909 7.13867 284.469 6.728C284.059 6.31733 283.384 6.112 282.445 6.112C281.477 6.112 280.773 6.36133 280.333 6.86C279.893 7.35866 279.615 8.004 279.497 8.796C279.38 9.55867 279.321 10.38 279.321 11.26V27.056C279.321 28.0533 279.409 28.948 279.585 29.74C279.761 30.532 280.084 31.148 280.553 31.588C281.052 32.028 281.756 32.248 282.665 32.248C283.575 32.248 284.279 32.0133 284.777 31.544C285.276 31.0747 285.613 30.444 285.789 29.652C285.995 28.8307 286.097 27.9067 286.097 26.88V23.096H282.621V18.696H292.653V37H287.901L287.461 33.788C286.992 34.8733 286.288 35.768 285.349 36.472C284.411 37.176 283.149 37.528 281.565 37.528ZM297.637 37V1.36H313.169V6.376H304.897V15.836H311.277V20.896H304.897V32.072H313.257V37H297.637ZM316.93 37V1.36H326.17C328.575 1.36 330.629 1.63866 332.33 2.196C334.061 2.724 335.381 3.67733 336.29 5.056C337.229 6.43467 337.698 8.34133 337.698 10.776C337.698 12.2427 337.566 13.548 337.302 14.692C337.067 15.8067 336.627 16.7893 335.982 17.64C335.366 18.4613 334.486 19.1213 333.342 19.62L338.27 37H330.834L326.742 20.852H324.19V37H316.93ZM324.19 16.54H326.302C327.475 16.54 328.399 16.3493 329.074 15.968C329.749 15.5867 330.218 15.0147 330.482 14.252C330.775 13.46 330.922 12.492 330.922 11.348C330.922 9.70533 330.614 8.45866 329.998 7.608C329.411 6.728 328.297 6.288 326.654 6.288H324.19V16.54Z" fill="#0A0A26"/>
</svg>
