<svg width="50" height="50" viewBox="0 0 50 50" fill="none" xmlns="http://www.w3.org/2000/svg">
<path d="M22.0139 25.9586C21.4726 26.4968 21.0896 27.1734 20.9067 27.9146C20.7238 28.6557 20.748 29.4328 20.9767 30.1611C21.2053 30.8894 21.6297 31.5409 22.2033 32.0444C22.777 32.548 23.478 32.8843 24.2298 33.0166C24.9816 33.1489 25.7553 33.0721 26.4665 32.7947C27.1776 32.5172 27.7989 32.0497 28.2624 31.4432C28.726 30.8368 29.014 30.1146 29.0951 29.3556C29.1762 28.5965 29.0472 27.8298 28.7222 27.1391L36.9445 19.0697L34.9861 17.1113L26.7778 25.1808C26.0012 24.7999 25.1254 24.6702 24.2717 24.8096C23.4181 24.9489 22.629 25.3505 22.0139 25.9586Z" fill="#23DA26"/>
<path d="M45.25 18.0558C44.3301 18.394 43.3667 18.5997 42.3889 18.6669C43.9735 21.391 44.892 24.451 45.0695 27.5974H40.1667V30.3752H45.0695C44.7462 34.354 43.2421 38.1456 40.75 41.2641H9.25001C6.75789 38.1456 5.25382 34.354 4.93056 30.3752H9.72223V27.5974H4.93056C5.1752 23.2067 6.85918 19.0187 9.72223 15.6808L13.125 19.0836L15.0833 17.1252L11.7083 13.7086C15.0184 10.7829 19.2035 9.03466 23.6111 8.73633V13.5974H26.3889V8.75022C28.0808 8.86236 29.7516 9.18905 31.3611 9.72245C31.2932 9.26247 31.2561 8.79848 31.25 8.33356C31.2549 7.82656 31.2966 7.32059 31.375 6.81967C26.6497 5.44517 21.6073 5.62926 16.9948 7.34468C12.3822 9.0601 8.44492 12.2156 5.76606 16.3438C3.0872 20.4719 1.80927 25.3532 2.12158 30.2644C2.43388 35.1757 4.31981 39.8557 7.50001 43.6113L7.91667 44.0974H42.0833L42.5 43.6113C45.4619 40.127 47.31 35.8341 47.8052 31.2879C48.3004 26.7418 47.42 22.1516 45.2778 18.1113L45.25 18.0558Z" fill="#23DA26"/>
<path d="M41.6667 15.2776C45.502 15.2776 48.6111 12.1684 48.6111 8.33312C48.6111 4.49781 45.502 1.38867 41.6667 1.38867C37.8314 1.38867 34.7222 4.49781 34.7222 8.33312C34.7222 12.1684 37.8314 15.2776 41.6667 15.2776Z" fill="#23DA26"/>
</svg>
