<svg width="14" height="32" viewBox="0 0 14 32" fill="none" xmlns="http://www.w3.org/2000/svg">
<g clip-path="url(#clip0_2_4477)">
<path d="M10.6993 0C11.5833 0.161133 12.3942 0.601665 13.0155 1.25835C13.6632 1.93338 14.0199 2.84098 14.0073 3.78195C13.9947 4.72293 13.6138 5.6204 12.9482 6.2774C12.5291 6.69654 12.0262 7.01996 11.4733 7.22593C10.9204 7.43189 10.3304 7.51561 9.74284 7.47146C9.15532 7.4273 8.58395 7.25629 8.06717 6.96994C7.55039 6.68358 7.10017 6.28853 6.74682 5.81133C5.48955 4.09769 6.03851 1.68496 7.94744 0.559264C8.41617 0.33158 8.90311 0.144491 9.40303 0H10.6993Z" fill="white"/>
<path d="M13.5785 28.4831C13.4262 29.1141 13.2917 29.6877 13.1429 30.2541C13.1429 30.3151 13.0296 30.3724 12.9588 30.3975C11.8042 30.8277 10.6709 31.3404 9.48798 31.663C7.77384 32.1327 6.02074 32.1757 4.37389 31.3691C3.68488 31.0649 3.10171 30.5588 2.69959 29.9159C2.29748 29.2731 2.09485 28.523 2.11788 27.7625C2.11788 26.2353 2.47205 24.7834 2.88288 23.3314C3.44954 21.2736 4.01972 19.2122 4.52263 17.1401C4.66891 16.4829 4.70958 15.8062 4.64305 15.136C4.56159 14.1752 4.10474 13.8347 3.1485 13.7271C2.23596 13.6519 1.31857 13.7905 0.467496 14.1322C0.336456 14.1788 0.201872 14.2111 0 14.272C0.155831 13.6411 0.290412 13.0711 0.442702 12.5046C0.459126 12.4679 0.483093 12.4352 0.51302 12.4086C0.542946 12.382 0.578141 12.3622 0.616237 12.3505C2.03288 11.802 3.41411 11.2033 4.90513 10.9165C6.32922 10.5909 7.81895 10.7366 9.15506 11.3323C10.7169 12.078 11.4855 13.6769 11.3792 15.4264C11.2446 17.6456 10.4726 19.6962 9.94131 21.8149C9.61549 23.1127 9.26132 24.3998 8.96383 25.7047C8.79029 26.3591 8.7541 27.043 8.85758 27.7123C8.88935 28.0094 9.01571 28.2879 9.2176 28.5058C9.41949 28.7238 9.68593 28.8693 9.97672 28.9205C10.8224 29.1058 11.7013 29.0651 12.5267 28.8022C12.8525 28.7197 13.1713 28.6122 13.5785 28.4831Z" fill="white"/>
</g>
<defs>
<clipPath id="clip0_2_4477">
<rect width="14" height="32" fill="white"/>
</clipPath>
</defs>
</svg>
