<svg width="27" height="27" viewBox="0 0 27 27" fill="none" xmlns="http://www.w3.org/2000/svg">
<path d="M0 0.84375C0 0.619974 0.0888949 0.405362 0.247129 0.247129C0.405362 0.0888949 0.619974 0 0.84375 0L5.90625 0C6.13003 0 6.34464 0.0888949 6.50287 0.247129C6.66111 0.405362 6.75 0.619974 6.75 0.84375C6.75 1.06753 6.66111 1.28214 6.50287 1.44037C6.34464 1.59861 6.13003 1.6875 5.90625 1.6875H1.6875V5.90625C1.6875 6.13003 1.59861 6.34464 1.44037 6.50287C1.28214 6.66111 1.06753 6.75 0.84375 6.75C0.619974 6.75 0.405362 6.66111 0.247129 6.50287C0.0888949 6.34464 0 6.13003 0 5.90625V0.84375ZM20.25 0.84375C20.25 0.619974 20.3389 0.405362 20.4971 0.247129C20.6554 0.0888949 20.87 0 21.0938 0L26.1562 0C26.38 0 26.5946 0.0888949 26.7529 0.247129C26.9111 0.405362 27 0.619974 27 0.84375V5.90625C27 6.13003 26.9111 6.34464 26.7529 6.50287C26.5946 6.66111 26.38 6.75 26.1562 6.75C25.9325 6.75 25.7179 6.66111 25.5596 6.50287C25.4014 6.34464 25.3125 6.13003 25.3125 5.90625V1.6875H21.0938C20.87 1.6875 20.6554 1.59861 20.4971 1.44037C20.3389 1.28214 20.25 1.06753 20.25 0.84375ZM0.84375 20.25C1.06753 20.25 1.28214 20.3389 1.44037 20.4971C1.59861 20.6554 1.6875 20.87 1.6875 21.0938V25.3125H5.90625C6.13003 25.3125 6.34464 25.4014 6.50287 25.5596C6.66111 25.7179 6.75 25.9325 6.75 26.1562C6.75 26.38 6.66111 26.5946 6.50287 26.7529C6.34464 26.9111 6.13003 27 5.90625 27H0.84375C0.619974 27 0.405362 26.9111 0.247129 26.7529C0.0888949 26.5946 0 26.38 0 26.1562V21.0938C0 20.87 0.0888949 20.6554 0.247129 20.4971C0.405362 20.3389 0.619974 20.25 0.84375 20.25ZM26.1562 20.25C26.38 20.25 26.5946 20.3389 26.7529 20.4971C26.9111 20.6554 27 20.87 27 21.0938V26.1562C27 26.38 26.9111 26.5946 26.7529 26.7529C26.5946 26.9111 26.38 27 26.1562 27H21.0938C20.87 27 20.6554 26.9111 20.4971 26.7529C20.3389 26.5946 20.25 26.38 20.25 26.1562C20.25 25.9325 20.3389 25.7179 20.4971 25.5596C20.6554 25.4014 20.87 25.3125 21.0938 25.3125H25.3125V21.0938C25.3125 20.87 25.4014 20.6554 25.5596 20.4971C25.7179 20.3389 25.9325 20.25 26.1562 20.25ZM6.75 6.75H8.4375V8.4375H6.75V6.75Z" fill="#0A0A26"/>
<path d="M11.8125 3.375H3.375V11.8125H11.8125V3.375ZM5.0625 5.0625H10.125V10.125H5.0625V5.0625ZM8.4375 18.5625H6.75V20.25H8.4375V18.5625Z" fill="#0A0A26"/>
<path d="M11.8125 15.1875H3.375V23.625H11.8125V15.1875ZM5.0625 16.875H10.125V21.9375H5.0625V16.875ZM18.5625 6.75H20.25V8.4375H18.5625V6.75Z" fill="#0A0A26"/>
<path d="M15.1875 3.375H23.625V11.8125H15.1875V3.375ZM16.875 5.0625V10.125H21.9375V5.0625H16.875ZM13.5 13.5V16.875H15.1875V18.5625H13.5V20.25H16.875V16.875H18.5625V20.25H20.25V18.5625H23.625V16.875H18.5625V13.5H13.5ZM16.875 16.875H15.1875V15.1875H16.875V16.875ZM23.625 20.25H21.9375V21.9375H18.5625V23.625H23.625V20.25ZM16.875 23.625V21.9375H13.5V23.625H16.875Z" fill="#0A0A26"/>
<path d="M20.25 15.1875H23.625V13.5H20.25V15.1875Z" fill="#0A0A26"/>
</svg>
