<svg width="7" height="10" viewBox="0 0 7 10" fill="none" xmlns="http://www.w3.org/2000/svg">
<path d="M6.33333 1.66732H5.04667C4.91434 1.41776 4.74079 1.19236 4.53333 1.00065H6.33333C6.42174 1.00065 6.50653 0.965532 6.56904 0.90302C6.63155 0.840508 6.66667 0.755723 6.66667 0.667318C6.66667 0.578912 6.63155 0.494128 6.56904 0.431616C6.50653 0.369103 6.42174 0.333984 6.33333 0.333984H0.333333C0.244928 0.333984 0.160143 0.369103 0.0976312 0.431616C0.035119 0.494128 0 0.578912 0 0.667318C0 0.755723 0.035119 0.840508 0.0976312 0.90302C0.160143 0.965532 0.244928 1.00065 0.333333 1.00065H2.85C3.11821 1.00089 3.383 1.06084 3.62516 1.17615C3.86732 1.29146 4.08076 1.45924 4.25 1.66732H0.333333C0.244928 1.66732 0.160143 1.70244 0.0976312 1.76495C0.035119 1.82746 0 1.91225 0 2.00065C0 2.08906 0.035119 2.17384 0.0976312 2.23635C0.160143 2.29887 0.244928 2.33398 0.333333 2.33398H4.59667C4.64309 2.49773 4.66664 2.66712 4.66667 2.83732C4.66756 3.32063 4.47687 3.7846 4.13637 4.1276C3.79586 4.4706 3.33331 4.66467 2.85 4.66732H0.713334C0.649275 4.6674 0.586596 4.68594 0.532798 4.72071C0.479 4.75549 0.436362 4.80503 0.409987 4.86341C0.383612 4.92178 0.374616 4.98653 0.384077 5.04988C0.393538 5.11324 0.421055 5.17253 0.463334 5.22065L4.35333 9.66732C4.38156 9.70236 4.41659 9.73133 4.45631 9.75247C4.49603 9.77361 4.53962 9.7865 4.58445 9.79034C4.62929 9.79418 4.67443 9.78891 4.71717 9.77484C4.75991 9.76077 4.79936 9.73819 4.83314 9.70846C4.86692 9.67874 4.89433 9.64248 4.91373 9.60188C4.93312 9.56127 4.94409 9.51716 4.94597 9.4722C4.94786 9.42725 4.94062 9.38237 4.9247 9.34028C4.90878 9.2982 4.8845 9.25977 4.85333 9.22732L1.45 5.33398H2.85333C3.22249 5.331 3.58642 5.24641 3.91904 5.08627C4.25167 4.92613 4.54475 4.6944 4.77731 4.40769C5.00986 4.12098 5.17613 3.78638 5.26419 3.42787C5.35225 3.06936 5.35992 2.69581 5.28667 2.33398H6.33333C6.42174 2.33398 6.50653 2.29887 6.56904 2.23635C6.63155 2.17384 6.66667 2.08906 6.66667 2.00065C6.66667 1.91225 6.63155 1.82746 6.56904 1.76495C6.50653 1.70244 6.42174 1.66732 6.33333 1.66732Z" fill="white"/>
</svg>
