<svg width="7" height="10" viewBox="0 0 7 10" fill="none" xmlns="http://www.w3.org/2000/svg">
<path d="M6.33333 1.66683H5.04667C4.91434 1.41727 4.74079 1.19187 4.53333 1.00016H6.33333C6.42174 1.00016 6.50653 0.965044 6.56904 0.902532C6.63155 0.84002 6.66667 0.755235 6.66667 0.666829C6.66667 0.578424 6.63155 0.493639 6.56904 0.431127C6.50653 0.368615 6.42174 0.333496 6.33333 0.333496H0.333333C0.244928 0.333496 0.160143 0.368615 0.0976312 0.431127C0.035119 0.493639 0 0.578424 0 0.666829C0 0.755235 0.035119 0.84002 0.0976312 0.902532C0.160143 0.965044 0.244928 1.00016 0.333333 1.00016H2.85C3.11821 1.0004 3.383 1.06035 3.62516 1.17566C3.86732 1.29097 4.08076 1.45876 4.25 1.66683H0.333333C0.244928 1.66683 0.160143 1.70195 0.0976312 1.76446C0.035119 1.82697 0 1.91176 0 2.00016C0 2.08857 0.035119 2.17335 0.0976312 2.23587C0.160143 2.29838 0.244928 2.3335 0.333333 2.3335H4.59667C4.64309 2.49725 4.66664 2.66663 4.66667 2.83683C4.66756 3.32014 4.47687 3.78411 4.13637 4.12711C3.79586 4.47011 3.33331 4.66419 2.85 4.66683H0.713334C0.649275 4.66691 0.586596 4.68545 0.532798 4.72022C0.479 4.755 0.436362 4.80454 0.409987 4.86292C0.383612 4.9213 0.374616 4.98604 0.384077 5.04939C0.393538 5.11275 0.421055 5.17204 0.463334 5.22016L4.35333 9.66683C4.38156 9.70187 4.41659 9.73084 4.45631 9.75198C4.49603 9.77313 4.53962 9.78601 4.58445 9.78985C4.62929 9.7937 4.67443 9.78842 4.71717 9.77435C4.75991 9.76028 4.79936 9.7377 4.83314 9.70798C4.86692 9.67825 4.89433 9.64199 4.91373 9.60139C4.93312 9.56078 4.94409 9.51667 4.94597 9.47171C4.94786 9.42676 4.94062 9.38188 4.9247 9.3398C4.90878 9.29771 4.8845 9.25928 4.85333 9.22683L1.45 5.3335H2.85333C3.22249 5.33051 3.58642 5.24592 3.91904 5.08578C4.25167 4.92564 4.54475 4.69391 4.77731 4.4072C5.00986 4.12049 5.17613 3.78589 5.26419 3.42738C5.35225 3.06887 5.35992 2.69532 5.28667 2.3335H6.33333C6.42174 2.3335 6.50653 2.29838 6.56904 2.23587C6.63155 2.17335 6.66667 2.08857 6.66667 2.00016C6.66667 1.91176 6.63155 1.82697 6.56904 1.76446C6.50653 1.70195 6.42174 1.66683 6.33333 1.66683Z" fill="#0A0A26"/>
</svg>
