<svg width="25" height="26" viewBox="0 0 25 26" fill="none" xmlns="http://www.w3.org/2000/svg">
<path d="M10 6C10 8.20914 8.20914 10 6 10V12C9.31371 12 12 9.31371 12 6H10ZM6 10C3.79086 10 2 8.20914 2 6H0C0 9.31371 2.68629 12 6 12V10ZM2 6C2 3.79086 3.79086 2 6 2V0C2.68629 0 0 2.68629 0 6H2ZM6 2C8.20914 2 10 3.79086 10 6H12C12 2.68629 9.31371 0 6 0V2ZM5 10L5 25H7L7 10H5Z" fill="#0A0A26"/>
<path d="M15 20C15 17.7909 16.7909 16 19 16L19 14C15.6863 14 13 16.6863 13 20L15 20ZM19 16C21.2091 16 23 17.7909 23 20L25 20C25 16.6863 22.3137 14 19 14L19 16ZM23 20C23 22.2091 21.2091 24 19 24L19 26C22.3137 26 25 23.3137 25 20L23 20ZM19 24C16.7909 24 15 22.2091 15 20L13 20C13 23.3137 15.6863 26 19 26L19 24ZM20 16L20 1L18 0.999999L18 16L20 16Z" fill="#0A0A26"/>
</svg>
