<svg width="36" height="36" viewBox="0 0 36 36" fill="none" xmlns="http://www.w3.org/2000/svg">
<g clip-path="url(#clip0_233_4135)">
<circle cx="18" cy="16" r="14" fill="white"/>
<path d="M3.37241 8.98072C1.28506 8.34173 -0.115447 7.08751 0.00528639 4.72958C0.0760002 3.98071 0.370639 3.26926 0.851986 2.6851C1.33333 2.10093 1.9798 1.67026 2.70971 1.4475C4.55828 0.919404 5.96951 1.52935 7.61953 3.66284C14.4745 -1.19296 21.3805 -1.22993 28.3749 3.68396C29.6011 1.77227 31.2591 0.705528 33.6201 1.60592C34.3276 1.8466 34.939 2.3025 35.3658 2.9077C35.7927 3.5129 36.0129 4.23603 35.9946 4.97251C36.0241 7.18785 34.6531 8.4051 32.6489 8.96752C32.6248 9.12067 32.5738 9.21572 32.6006 9.28701C35.0958 15.8195 33.9421 22.1038 31.1008 28.198C29.6972 31.2853 27.2397 33.7917 24.1546 35.2823C23.7591 35.4848 23.3483 35.6569 22.9258 35.7972C20.8761 36.4362 19.3924 35.5068 19.3575 33.3812C19.3334 31.9157 19.6446 30.445 19.8136 28.9056C24.8925 27.8257 28.6245 25.3014 30.634 20.6832C31.8513 17.9105 32.0487 14.8068 31.1921 11.9063C30.3801 9.01931 28.6015 6.48665 26.1443 4.71873C23.6871 2.95081 20.6954 2.05121 17.6538 2.1657C11.2147 2.39806 5.87293 6.83667 4.7273 12.9916C4.26399 15.3387 4.4493 17.7652 5.2639 20.0178C6.09175 22.2632 7.5101 24.2523 9.3742 25.782C11.2523 27.353 13.4764 28.227 15.8831 28.7868C16.5136 30.4344 16.8543 32.0583 16.6182 33.7429C16.3499 35.5913 15.0406 36.4045 13.2242 35.8263C10.3336 34.9199 7.87085 33.0201 6.28611 30.474C2.17312 23.96 0.767247 17.0262 3.31606 9.55634C3.35388 9.43178 3.38257 9.30471 3.40192 9.17611C3.40097 9.10998 3.39105 9.04427 3.37241 8.98072V8.98072Z" fill="#FC2727" fill-opacity="0.81"/>
<path d="M15.5791 26.9858C15.6391 26.7966 15.698 26.6074 15.7591 26.4168C16.0207 25.6089 16.2825 24.801 16.5446 23.9933L17.0914 22.306L17.8694 19.9081C17.99 19.5362 18.1099 19.164 18.2292 18.7915C18.244 18.7457 18.2529 18.6984 18.2662 18.6443C18.2292 18.6393 18.2021 18.6336 18.1754 18.6329C17.8572 18.6244 17.5393 18.6144 17.2211 18.6091C16.4968 18.5967 15.7721 18.5874 15.0478 18.5757C14.5217 18.5671 13.9958 18.5575 13.4699 18.5469C13.0414 18.5386 12.6125 18.5299 12.1832 18.5209L10.8124 18.4939C10.379 18.485 9.94512 18.4779 9.51166 18.4669C9.34235 18.4622 9.17303 18.4487 8.99854 18.4391C9.00446 18.4199 9.00483 18.4053 9.01261 18.3968C9.24207 18.1486 9.47177 17.9009 9.70172 17.6536C9.90178 17.4402 10.1044 17.2269 10.3034 17.0135C10.6618 16.6273 11.0192 16.2404 11.3756 15.8528L12.467 14.6732L13.5414 13.5118L14.604 12.3593C14.9614 11.9719 15.3195 11.5847 15.6784 11.1975C15.8495 11.0123 16.0222 10.8284 16.1937 10.6432C16.5511 10.2563 16.9092 9.86912 17.2681 9.48175C17.6386 9.08181 18.0091 8.68187 18.3796 8.28193C18.5596 8.0867 18.7367 7.89076 18.9168 7.69447C19.0968 7.49817 19.2873 7.3001 19.4699 7.10096C19.774 6.76906 20.0771 6.43645 20.3795 6.10313C20.4095 6.07005 20.4361 6.03449 20.4643 6L20.4925 6.01814C20.4957 6.03261 20.4965 6.04752 20.4947 6.06223C20.3546 6.52132 20.2127 6.98005 20.0734 7.43914C19.8737 8.09844 19.6766 8.75809 19.477 9.41738C19.3766 9.74881 19.2721 10.0795 19.1709 10.4113C18.9733 11.0614 18.7758 11.7119 18.5782 12.3629C18.4955 12.6349 18.4111 12.9066 18.3292 13.1786C18.2304 13.5063 18.1323 13.8339 18.035 14.1615C18.0299 14.186 18.0262 14.2107 18.0239 14.2355C18.1491 14.2455 18.2677 14.2607 18.3862 14.2629C19.1428 14.276 19.8997 14.2856 20.6562 14.2984C21.1038 14.3056 21.5513 14.3159 21.9985 14.3251L23.2163 14.3511L24.5722 14.3785L25.8037 14.4044C26.1777 14.4127 26.5512 14.4212 26.9244 14.43C26.9426 14.43 26.9615 14.4339 27.0041 14.4396C26.9344 14.5299 26.8792 14.6135 26.8122 14.6868C26.6781 14.8329 26.5336 14.9712 26.4006 15.1178C26.1805 15.361 25.9671 15.6099 25.7485 15.8542C25.6311 15.9854 25.5066 16.1103 25.388 16.2401C25.1094 16.5466 24.8323 16.8556 24.5544 17.1618C24.297 17.4445 24.0358 17.7229 23.7764 18.0064C23.5315 18.2763 23.2948 18.5522 23.0492 18.8221C22.7898 19.1087 22.5227 19.3911 22.2597 19.6756C22.049 19.9043 21.839 20.1335 21.6298 20.363C21.4479 20.5621 21.266 20.7612 21.0863 20.9625C20.8552 21.2207 20.6292 21.4828 20.3961 21.7395C20.1327 22.0297 19.8641 22.3156 19.5981 22.604C19.3845 22.8354 19.1714 23.0677 18.959 23.301C18.8016 23.4738 18.646 23.6484 18.4904 23.8234C18.275 24.0652 18.06 24.3072 17.8453 24.5495C17.8001 24.6 17.7523 24.648 17.7064 24.6978C17.443 24.9823 17.1774 25.2646 16.9173 25.5513C16.685 25.8077 16.4608 26.0708 16.2293 26.3279C16.0996 26.4701 15.9611 26.6085 15.8292 26.7507C15.7551 26.8314 15.6843 26.9161 15.6121 26.9996L15.5791 26.9858Z" fill="#E20004"/>
</g>
<defs>
<clipPath id="clip0_233_4135">
<rect width="36" height="36" fill="white"/>
</clipPath>
</defs>
</svg>
