<svg width="62" height="52" viewBox="0 0 62 52" fill="none" xmlns="http://www.w3.org/2000/svg">
<g clip-path="url(#clip0_165_30046)">
<path d="M53.041 12.188C53.2574 12.188 53.4649 12.1024 53.6179 11.95C53.7708 11.7976 53.8568 11.591 53.8568 11.3755V8.66985C53.8559 7.96418 53.5741 7.28765 53.0731 6.78866C52.5721 6.28967 51.8928 6.00896 51.1843 6.0081H46.8002L45.8001 3.06848C45.7321 2.86856 45.5887 2.70284 45.4002 2.60639C45.2117 2.50994 44.9929 2.49034 44.7901 2.55173L21.0457 9.74073C20.8492 9.81214 20.6877 9.95588 20.5943 10.1424C20.501 10.3288 20.483 10.5438 20.5441 10.7431C20.6051 10.9424 20.7406 11.1108 20.9225 11.2136C21.1045 11.3164 21.3191 11.3459 21.5222 11.2959L44.5095 4.33435L46.7007 10.7775C46.7701 10.9815 46.9181 11.1498 47.1121 11.2452C47.3061 11.3405 47.5302 11.3553 47.7351 11.2861C47.94 11.2169 48.1089 11.0695 48.2047 10.8763C48.3005 10.6831 48.3152 10.4599 48.2458 10.2559L47.3533 7.63148H51.1859C51.7602 7.63148 52.2268 8.09623 52.2268 8.66823V11.3755C52.2252 11.824 52.5907 12.188 53.041 12.188Z" fill="white"/>
<path d="M59.5526 24.3751C59.3363 24.3751 59.1288 24.4607 58.9758 24.6131C58.8228 24.7655 58.7368 24.9721 58.7368 25.1876C58.7368 25.4031 58.8228 25.6098 58.9758 25.7621C59.1288 25.9145 59.3363 26.0001 59.5526 26.0001C60.1253 26.0001 60.3684 26.2422 60.3684 26.8126V36.5626C60.3684 37.133 60.1253 37.3751 59.5526 37.3751H46.5C45.9273 37.3751 45.6842 37.133 45.6842 36.5626V28.4376C45.6842 27.8672 45.9273 27.6251 46.5 27.6251H56.2895C56.5058 27.6251 56.7133 27.5395 56.8663 27.3871C57.0193 27.2348 57.1053 27.0281 57.1053 26.8126V17.0626C57.1053 15.5822 56.1443 14.6251 54.6579 14.6251H4.89474C2.883 14.6251 1.63158 13.3787 1.63158 11.3751C1.63158 9.37149 2.883 8.12512 4.89474 8.12512H13.1766L8.23947 9.74687C8.13404 9.77715 8.03583 9.8283 7.95071 9.89727C7.86559 9.96623 7.79531 10.0516 7.74409 10.1482C7.69286 10.2449 7.66174 10.3508 7.65258 10.4597C7.64342 10.5686 7.65641 10.6783 7.69078 10.782C7.72515 10.8858 7.78019 10.9816 7.8526 11.0638C7.92502 11.1459 8.01332 11.2126 8.11222 11.2599C8.21113 11.3072 8.3186 11.3342 8.42821 11.3392C8.53783 11.3442 8.64733 11.3271 8.75016 11.289L38.3127 1.58287C38.4145 1.54936 38.5087 1.49622 38.5898 1.42648C38.671 1.35674 38.7375 1.27176 38.7857 1.17639C38.8339 1.08102 38.8627 0.977141 38.8706 0.870671C38.8785 0.764202 38.8652 0.657231 38.8316 0.555867C38.7979 0.454503 38.7446 0.36073 38.6746 0.279904C38.6045 0.199077 38.5192 0.132778 38.4235 0.0847934C38.3277 0.0368087 38.2234 0.00807759 38.1165 0.000240429C38.0096 -0.00759673 37.9022 0.00561357 37.8004 0.0391171L18.0583 6.52287C18.0208 6.51637 17.9865 6.50012 17.9474 6.50012H4.89474C1.96768 6.50012 0 8.45987 0 11.3751V47.1251C0 50.0404 1.96768 52.0001 4.89474 52.0001H54.6579C56.1443 52.0001 57.1053 51.043 57.1053 49.5626V41.4376C57.1053 41.2221 57.0193 41.0155 56.8663 40.8631C56.7133 40.7107 56.5058 40.6251 56.2895 40.6251C56.0731 40.6251 55.8656 40.7107 55.7126 40.8631C55.5596 41.0155 55.4737 41.2221 55.4737 41.4376V49.5626C55.4737 50.133 55.2306 50.3751 54.6579 50.3751H4.89474C2.883 50.3751 1.63158 49.1287 1.63158 47.1251V15.1321C2.46858 15.8357 3.57642 16.2501 4.89474 16.2501H54.6579C55.2306 16.2501 55.4737 16.4922 55.4737 17.0626V26.0001H46.5C45.0136 26.0001 44.0526 26.9572 44.0526 28.4376V36.5626C44.0526 38.043 45.0136 39.0001 46.5 39.0001H59.5526C61.039 39.0001 62 38.043 62 36.5626V26.8126C62 25.3322 61.039 24.3751 59.5526 24.3751Z" fill="white"/>
<path d="M52.2105 34.125C53.1116 34.125 53.8421 33.3975 53.8421 32.5C53.8421 31.6025 53.1116 30.875 52.2105 30.875C51.3094 30.875 50.5789 31.6025 50.5789 32.5C50.5789 33.3975 51.3094 34.125 52.2105 34.125Z" fill="white"/>
</g>
<defs>
<clipPath id="clip0_165_30046">
<rect width="62" height="52" fill="white"/>
</clipPath>
</defs>
</svg>
