<svg width="33" height="31" viewBox="0 0 33 31" fill="none" xmlns="http://www.w3.org/2000/svg">
<g clip-path="url(#clip0_165_30091)">
<path d="M28.2315 7.26563C28.3466 7.26563 28.4571 7.21459 28.5385 7.12376C28.6199 7.03292 28.6657 6.90972 28.6657 6.78125V5.16828C28.6652 4.74759 28.5152 4.34428 28.2485 4.0468C27.9819 3.74933 27.6203 3.58198 27.2432 3.58147H24.9098L24.3774 1.829C24.3412 1.70982 24.2649 1.61103 24.1646 1.55353C24.0642 1.49603 23.9478 1.48434 23.8399 1.52094L11.2017 5.80669C11.0971 5.84926 11.0111 5.93495 10.9615 6.04612C10.9118 6.15729 10.9022 6.28547 10.9347 6.40428C10.9672 6.52308 11.0393 6.62347 11.1361 6.68477C11.233 6.74606 11.3472 6.76361 11.4553 6.73378L23.6905 2.58366L24.8568 6.42475C24.8937 6.54641 24.9725 6.6467 25.0758 6.70356C25.179 6.76043 25.2983 6.76921 25.4074 6.72797C25.5164 6.68673 25.6063 6.59886 25.6573 6.48368C25.7083 6.36849 25.7161 6.23544 25.6792 6.11378L25.2042 4.54925H27.2441C27.5498 4.54925 27.7981 4.82631 27.7981 5.16732V6.78125C27.7973 7.04863 27.9918 7.26563 28.2315 7.26563Z" fill="#23DA26"/>
<path d="M31.6974 14.5315C31.5822 14.5315 31.4718 14.5825 31.3903 14.6734C31.3089 14.7642 31.2632 14.8874 31.2632 15.0159C31.2632 15.1443 31.3089 15.2676 31.3903 15.3584C31.4718 15.4492 31.5822 15.5003 31.6974 15.5003C32.0022 15.5003 32.1316 15.6446 32.1316 15.9846V21.7971C32.1316 22.1372 32.0022 22.2815 31.6974 22.2815H24.75C24.4452 22.2815 24.3158 22.1372 24.3158 21.7971V16.9534C24.3158 16.6134 24.4452 16.469 24.75 16.469H29.9605C30.0757 16.469 30.1861 16.418 30.2676 16.3271C30.349 16.2363 30.3947 16.1131 30.3947 15.9846V10.1721C30.3947 9.2896 29.8832 8.71901 29.0921 8.71901H2.60526C1.5345 8.71901 0.868421 7.97598 0.868421 6.78151C0.868421 5.58704 1.5345 4.84401 2.60526 4.84401H7.01337L4.38553 5.81082C4.32941 5.82887 4.27713 5.85937 4.23183 5.90048C4.18652 5.9416 4.14912 5.99248 4.12185 6.0501C4.09459 6.10772 4.07802 6.17087 4.07315 6.2358C4.06827 6.30072 4.07519 6.36608 4.09348 6.42795C4.11177 6.48982 4.14107 6.54694 4.17961 6.59589C4.21815 6.64484 4.26515 6.68461 4.3178 6.71282C4.37044 6.74104 4.42764 6.75712 4.48598 6.7601C4.54433 6.76308 4.60261 6.7529 4.65734 6.73016L20.3923 0.94382C20.4464 0.923847 20.4965 0.892167 20.5397 0.850589C20.5829 0.809011 20.6184 0.75835 20.644 0.701497C20.6697 0.644644 20.685 0.582714 20.6892 0.519242C20.6934 0.45577 20.6863 0.391999 20.6684 0.33157C20.6505 0.271141 20.6221 0.215239 20.5848 0.167053C20.5476 0.118868 20.5022 0.0793439 20.4512 0.0507377C20.4002 0.0221315 20.3447 0.00500328 20.2878 0.000331133C20.2309 -0.00434102 20.1737 0.00353435 20.1196 0.0235076L9.61168 3.88882C9.59171 3.88495 9.57347 3.87526 9.55263 3.87526H2.60526C1.04732 3.87526 0 5.04357 0 6.78151V28.094C0 29.8319 1.04732 31.0003 2.60526 31.0003H29.0921C29.8832 31.0003 30.3947 30.4297 30.3947 29.5471V24.7034C30.3947 24.5749 30.349 24.4517 30.2676 24.3609C30.1861 24.27 30.0757 24.219 29.9605 24.219C29.8454 24.219 29.7349 24.27 29.6535 24.3609C29.5721 24.4517 29.5263 24.5749 29.5263 24.7034V29.5471C29.5263 29.8872 29.3969 30.0315 29.0921 30.0315H2.60526C1.5345 30.0315 0.868421 29.2885 0.868421 28.094V9.02126C1.31392 9.44073 1.90358 9.68776 2.60526 9.68776H29.0921C29.3969 9.68776 29.5263 9.8321 29.5263 10.1721V15.5003H24.75C23.9589 15.5003 23.4474 16.0709 23.4474 16.9534V21.7971C23.4474 22.6797 23.9589 23.2503 24.75 23.2503H31.6974C32.4885 23.2503 33 22.6797 33 21.7971V15.9846C33 15.1021 32.4885 14.5315 31.6974 14.5315Z" fill="#23DA26"/>
<path d="M27.7895 20.3438C28.2691 20.3438 28.6579 19.91 28.6579 19.375C28.6579 18.84 28.2691 18.4062 27.7895 18.4062C27.3099 18.4062 26.9211 18.84 26.9211 19.375C26.9211 19.91 27.3099 20.3438 27.7895 20.3438Z" fill="#23DA26"/>
</g>
<defs>
<clipPath id="clip0_165_30091">
<rect width="33" height="31" fill="white"/>
</clipPath>
</defs>
</svg>
